<?xml version="1.0" encoding="utf-8"?>
<!-- Generator: Adobe Illustrator 25.4.1, SVG Export Plug-In . SVG Version: 6.00 Build 0)  -->
<svg version="1.1" id="Layer_1" xmlns="http://www.w3.org/2000/svg" xmlns:xlink="http://www.w3.org/1999/xlink" x="0px" y="0px"
	 viewBox="0 0 745.6 124.2" style="enable-background:new 0 0 745.6 124.2;" xml:space="preserve">
<style type="text/css">
	.st0{fill:#FFFFFF;}
	.st1{clip-path:url(#SVGID_00000031167183490743102060000015640109698555808141_);}
	.st2{clip-path:url(#SVGID_00000017502396933755725480000011350062629839285400_);}
	.st3{fill:#FFFFFF;stroke:#FFFFFF;stroke-width:0.75;stroke-miterlimit:10;}
	.st4{opacity:0.81;}
	.st5{fill:url(#SVGID_00000079482540744189412190000003691065884062787996_);}
	.st6{opacity:0.3;}
	.st7{fill:#F2F2F2;}
	.st8{opacity:0.61;fill:#F2F2F2;}
	.st9{opacity:0.69;fill:#F2F2F2;}
	.st10{opacity:0.53;}
	.st11{opacity:0.64;fill:#F2F2F2;}
	.st12{fill:#003800;}
	.st13{fill:#DC3285;}
	.st14{fill:#A52065;}
	.st15{fill:#005700;}
	.st16{fill:#2F6E0C;}
	.st17{clip-path:url(#SVGID_00000018221028898886563080000003617367808963914369_);fill:#007400;}
	.st18{opacity:0.62;clip-path:url(#SVGID_00000018221028898886563080000003617367808963914369_);}
	.st19{fill:none;stroke:#000000;stroke-width:6;stroke-miterlimit:10;}
	.st20{fill:#007400;}
	.st21{fill:#6AD542;}
	.st22{opacity:0.77;fill:url(#);}
	.st23{opacity:0.47;}
	.st24{fill:none;stroke:#000000;stroke-width:6;stroke-linecap:round;stroke-miterlimit:10;}
	.st25{fill:none;stroke:#DC3285;stroke-width:5;stroke-linecap:round;stroke-linejoin:round;stroke-miterlimit:10;}
	.st26{clip-path:url(#SVGID_00000007406798967216003740000006217096369724676242_);fill:#FFFFFF;}
	.st27{fill:#FFA002;}
	.st28{opacity:0.64;clip-path:url(#SVGID_00000053506424768447257910000008361405975465323177_);fill:#FFFFFF;}
	.st29{opacity:0.61;clip-path:url(#SVGID_00000176753802177884784590000007422586106924019844_);fill:#FFFFFF;}
	.st30{clip-path:url(#SVGID_00000005974210916872093060000011029550577685153173_);}
	.st31{fill:#999999;}
	.st32{fill:#1A1A1A;}
	.st33{opacity:0.43;fill:#FFFFFF;}
	.st34{opacity:0.43;fill:none;stroke:#FFFFFF;stroke-width:7;stroke-linecap:round;stroke-miterlimit:10;}
	.st35{fill:#6AD542;stroke:#FFFFFF;stroke-width:7;stroke-linecap:round;stroke-miterlimit:10;}
	.st36{fill:none;stroke:#E6E6E6;stroke-width:13;stroke-linecap:round;stroke-linejoin:round;stroke-miterlimit:10;}
	.st37{clip-path:url(#SVGID_00000031206479779996509240000016335782854361811589_);}
	.st38{opacity:0.43;fill:none;stroke:#1A1A1A;stroke-width:6;stroke-miterlimit:10;}
	.st39{fill:#666666;}
	.st40{fill:none;stroke:#FFFFFF;stroke-width:13;stroke-linecap:round;stroke-linejoin:round;stroke-miterlimit:10;}
	.st41{fill:none;stroke:#FFFFFF;stroke-width:11;stroke-linecap:round;stroke-linejoin:round;stroke-miterlimit:10;}
	.st42{fill:none;stroke:#FFE500;stroke-width:10;stroke-linecap:round;stroke-miterlimit:10;}
	.st43{clip-path:url(#SVGID_00000111872843903758758700000016539355360961053578_);fill:#DC3285;}
	.st44{clip-path:url(#SVGID_00000111872843903758758700000016539355360961053578_);fill:#FFFFFF;}
	.st45{clip-path:url(#SVGID_00000111872843903758758700000016539355360961053578_);fill:#333333;}
	.st46{clip-path:url(#SVGID_00000005262176906012074420000009465392583707080349_);fill:#DC3285;}
	.st47{clip-path:url(#SVGID_00000005262176906012074420000009465392583707080349_);fill:#FFFFFF;}
	.st48{clip-path:url(#SVGID_00000005262176906012074420000009465392583707080349_);fill:#333333;}
	.st49{fill:#56BE2F;}
	.st50{opacity:0.55;}
	.st51{fill:none;stroke:#000000;stroke-width:15;stroke-linecap:round;stroke-linejoin:round;stroke-miterlimit:10;}
	.st52{fill:#5C1537;}
	.st53{clip-path:url(#SVGID_00000036246049019914867220000016488838698704335506_);fill:#26AD35;}
	.st54{clip-path:url(#SVGID_00000036246049019914867220000016488838698704335506_);fill:#6AD542;}
	.st55{clip-path:url(#SVGID_00000036246049019914867220000016488838698704335506_);fill:#56BE2F;}
	.st56{clip-path:url(#SVGID_00000062177000548567606970000017089437867199158413_);fill:#45A840;}
	.st57{clip-path:url(#SVGID_00000062177000548567606970000017089437867199158413_);fill:#56BE2F;}
	.st58{clip-path:url(#SVGID_00000147209745832672887100000009279765310188814980_);fill:#45A840;}
	.st59{clip-path:url(#SVGID_00000147209745832672887100000009279765310188814980_);fill:#56BE2F;}
	.st60{clip-path:url(#SVGID_00000176002033902120852230000000925501950519384485_);fill:#6AD542;}
	.st61{opacity:0.7;clip-path:url(#SVGID_00000176002033902120852230000000925501950519384485_);}
	.st62{fill:#27B136;}
	.st63{clip-path:url(#SVGID_00000066501233357926865350000003315009818601807035_);fill:#3E8913;}
	.st64{clip-path:url(#SVGID_00000066501233357926865350000003315009818601807035_);fill:#6AD542;}
	.st65{clip-path:url(#SVGID_00000132059586368819563940000017070771512670394276_);fill:#29BD3A;}
	.st66{clip-path:url(#SVGID_00000132059586368819563940000017070771512670394276_);fill:#6AD542;}
	.st67{clip-path:url(#SVGID_00000126291347923705342180000016078911328552974521_);fill:#6AD542;}
	.st68{opacity:0.7;clip-path:url(#SVGID_00000126291347923705342180000016078911328552974521_);}
	.st69{clip-path:url(#SVGID_00000016769378402115168540000006335827706126195331_);fill:#6AD542;}
	.st70{opacity:0.56;clip-path:url(#SVGID_00000016769378402115168540000006335827706126195331_);fill:#26AD35;}
	.st71{clip-path:url(#SVGID_00000081620138669594660600000017630476226151613586_);fill:#45A840;}
	.st72{clip-path:url(#SVGID_00000081620138669594660600000017630476226151613586_);fill:#56BE2F;}
	.st73{fill:#333333;}
	.st74{opacity:0.42;fill:#292929;}
	.st75{opacity:0.15;fill:url(#);}
	.st76{clip-path:url(#SVGID_00000087386232000173884400000001515553912292470170_);fill:#3E8913;}
	.st77{clip-path:url(#SVGID_00000087386232000173884400000001515553912292470170_);fill:#6AD542;}
	.st78{fill:none;stroke:#000000;stroke-width:4;stroke-miterlimit:10;}
	.st79{fill:#00ADEE;}
	.st80{fill:#FFE500;}
	.st81{opacity:0.66;fill:#FFA002;}
	.st82{clip-path:url(#SVGID_00000101821395549191876780000017647127695039891080_);fill:#29BD3A;}
	.st83{clip-path:url(#SVGID_00000101821395549191876780000017647127695039891080_);fill:#6AD542;}
	.st84{fill:#00CCFF;}
	.st85{fill:#29BD3A;}
	.st86{fill:#FFD900;}
	.st87{fill:#EB8AB9;}
	.st88{opacity:0.78;fill:#E04B94;}
	.st89{clip-path:url(#SVGID_00000060712512590435034350000012471895070468604802_);fill:#6AD542;}
	.st90{opacity:0.7;clip-path:url(#SVGID_00000060712512590435034350000012471895070468604802_);}
	.st91{fill:#8BE04A;}
	.st92{opacity:0.28;fill:url(#SVGID_00000160910295167221776900000005533136154874581410_);}
	.st93{opacity:0.7;fill:url(#SVGID_00000084532095297311599440000006588914406426058926_);}
	.st94{clip-path:url(#SVGID_00000128451144928252016140000001142356037541398675_);fill:#DC3285;}
	.st95{clip-path:url(#SVGID_00000128451144928252016140000001142356037541398675_);fill:#FFCD55;}
	.st96{clip-path:url(#SVGID_00000128451144928252016140000001142356037541398675_);fill:#45C8F5;}
	.st97{clip-path:url(#SVGID_00000015320363471058898310000014985212168537485733_);fill:#FFFFFF;}
	.st98{clip-path:url(#SVGID_00000015320363471058898310000014985212168537485733_);}
	.st99{clip-path:url(#SVGID_00000097466049574141258710000003432472296172810380_);fill:#333333;}
	.st100{clip-path:url(#SVGID_00000097466049574141258710000003432472296172810380_);fill:#FFCD55;}
	.st101{clip-path:url(#SVGID_00000097466049574141258710000003432472296172810380_);}
	.st102{fill:#E6E6E6;}
	.st103{fill:#FFCD55;}
	.st104{opacity:0.73;fill:#FFFFFF;}
	.st105{opacity:0.73;fill:none;stroke:#FFFFFF;stroke-width:29;stroke-linecap:round;stroke-miterlimit:10;}
	.st106{opacity:0.26;fill:#FFFFFF;}
	.st107{opacity:0.26;fill:none;stroke:#FFFFFF;stroke-width:29;stroke-linecap:round;stroke-miterlimit:10;}
	.st108{fill:#45C8F5;}
	.st109{fill:#231F20;}
	.st110{clip-path:url(#SVGID_00000055665151844008968040000002588277508609777292_);}
	.st111{fill:url(#SVGID_00000005989217642034001540000011128353321762032003_);}
	.st112{clip-path:url(#SVGID_00000055665151844008968040000002588277508609777292_);fill:#FFA002;}
	.st113{opacity:0.5;}
	.st114{fill:none;}
	.st115{fill:#CCCCCC;}
	.st116{fill:#B3B3B3;}
	.st117{fill:none;stroke:#FFE500;stroke-width:7;stroke-linecap:round;stroke-miterlimit:10;}
	.st118{fill:none;stroke:#FFE500;stroke-width:7;stroke-linecap:round;stroke-miterlimit:10;stroke-dasharray:10.0084,20.0167;}
	.st119{fill:url(#SVGID_00000050643478280651548990000004338518640671602848_);}
	.st120{opacity:0.7;fill:#B3B3B3;}
	.st121{fill:url(#SVGID_00000142170697652534950070000000492209297811089819_);}
	.st122{clip-path:url(#SVGID_00000091711501352795628010000009033745850203900087_);fill:#8BE04A;}
	
		.st123{opacity:0.55;clip-path:url(#SVGID_00000091711501352795628010000009033745850203900087_);fill:url(#SVGID_00000060031823957472323700000002233467357159524254_);}
	.st124{fill:#E567A5;}
	.st125{fill:url(#SVGID_00000069356301727920254570000010834144090219595408_);}
	.st126{fill:#00ACD6;}
	.st127{fill:#9E005D;}
	.st128{fill:url(#SVGID_00000024688958604871305400000013109723844811780996_);}
	.st129{fill:none;stroke:#FFCD55;stroke-width:5;stroke-linecap:round;stroke-miterlimit:10;}
	.st130{fill:none;stroke:#FFCD55;stroke-width:5;stroke-linecap:round;stroke-miterlimit:10;stroke-dasharray:9.3355,18.6709;}
	.st131{fill:url(#SVGID_00000170992106859250964850000004897834226981809291_);}
	.st132{fill:url(#SVGID_00000156564101603165265820000018131247664417216664_);}
	.st133{clip-path:url(#SVGID_00000089550205235892682440000006558664045201208502_);fill:#007400;}
	.st134{opacity:0.62;clip-path:url(#SVGID_00000089550205235892682440000006558664045201208502_);}
	.st135{clip-path:url(#SVGID_00000096756328308659748780000011001331752817522075_);fill:#FFFFFF;}
	.st136{opacity:0.64;clip-path:url(#SVGID_00000168836571237327843920000006502783872858087585_);fill:#FFFFFF;}
	.st137{opacity:0.61;clip-path:url(#SVGID_00000112604690655203617200000010978389893435484055_);fill:#FFFFFF;}
	.st138{clip-path:url(#SVGID_00000091731711894638956650000013910851284418675130_);}
	.st139{clip-path:url(#SVGID_00000063631158445991998860000005148787919699052166_);}
	.st140{clip-path:url(#SVGID_00000101084979283759520620000004618831107293616555_);fill:#DC3285;}
	.st141{clip-path:url(#SVGID_00000101084979283759520620000004618831107293616555_);fill:#FFFFFF;}
	.st142{clip-path:url(#SVGID_00000101084979283759520620000004618831107293616555_);fill:#333333;}
	.st143{clip-path:url(#SVGID_00000048465152981401811320000002127320398749825972_);fill:#DC3285;}
	.st144{clip-path:url(#SVGID_00000048465152981401811320000002127320398749825972_);fill:#FFFFFF;}
	.st145{clip-path:url(#SVGID_00000048465152981401811320000002127320398749825972_);fill:#333333;}
	.st146{clip-path:url(#SVGID_00000168803652029346381730000006347388942615719070_);fill:#26AD35;}
	.st147{clip-path:url(#SVGID_00000168803652029346381730000006347388942615719070_);fill:#6AD542;}
	.st148{clip-path:url(#SVGID_00000168803652029346381730000006347388942615719070_);fill:#56BE2F;}
	.st149{clip-path:url(#SVGID_00000161607818461556131510000012679847676014267581_);fill:#45A840;}
	.st150{clip-path:url(#SVGID_00000161607818461556131510000012679847676014267581_);fill:#56BE2F;}
	.st151{clip-path:url(#SVGID_00000048471050167993873710000012591640397617125309_);fill:#45A840;}
	.st152{clip-path:url(#SVGID_00000048471050167993873710000012591640397617125309_);fill:#56BE2F;}
	.st153{clip-path:url(#SVGID_00000029035061773928508330000014636108496050630785_);fill:#6AD542;}
	.st154{opacity:0.7;clip-path:url(#SVGID_00000029035061773928508330000014636108496050630785_);}
	.st155{clip-path:url(#SVGID_00000117677034978676433500000010712449215103950474_);fill:#3E8913;}
	.st156{clip-path:url(#SVGID_00000117677034978676433500000010712449215103950474_);fill:#6AD542;}
	.st157{clip-path:url(#SVGID_00000154388406371787451250000004544547461517583253_);fill:#29BD3A;}
	.st158{clip-path:url(#SVGID_00000154388406371787451250000004544547461517583253_);fill:#6AD542;}
	.st159{clip-path:url(#SVGID_00000175286203169378633880000006684683044256981915_);fill:#6AD542;}
	.st160{opacity:0.7;clip-path:url(#SVGID_00000175286203169378633880000006684683044256981915_);}
	.st161{clip-path:url(#SVGID_00000027599415176077131920000009754884937187471538_);fill:#6AD542;}
	.st162{opacity:0.56;clip-path:url(#SVGID_00000027599415176077131920000009754884937187471538_);fill:#26AD35;}
	.st163{clip-path:url(#SVGID_00000144301640833386689520000004793396124208744889_);fill:#45A840;}
	.st164{clip-path:url(#SVGID_00000144301640833386689520000004793396124208744889_);fill:#56BE2F;}
	.st165{clip-path:url(#SVGID_00000164490487485820257210000005127065492805842609_);fill:#3E8913;}
	.st166{clip-path:url(#SVGID_00000164490487485820257210000005127065492805842609_);fill:#6AD542;}
	.st167{clip-path:url(#SVGID_00000113328855305072460220000005088313368351447991_);fill:#29BD3A;}
	.st168{clip-path:url(#SVGID_00000113328855305072460220000005088313368351447991_);fill:#6AD542;}
	.st169{clip-path:url(#SVGID_00000121254572257534462980000006100528234551442073_);fill:#6AD542;}
	.st170{opacity:0.7;clip-path:url(#SVGID_00000121254572257534462980000006100528234551442073_);}
	.st171{opacity:0.28;fill:url(#SVGID_00000093151316266966016520000006294159214911346360_);}
	.st172{opacity:0.7;fill:url(#SVGID_00000124157616553963383880000001688090529470381445_);}
	.st173{clip-path:url(#SVGID_00000086690442709718430400000004909864973048033685_);}
	.st174{clip-path:url(#SVGID_00000161596904113030133530000017280946297657229216_);}
	.st175{clip-path:url(#SVGID_00000072985565549764073480000008810578416920028086_);fill:#FFFFFF;}
	.st176{clip-path:url(#SVGID_00000072985565549764073480000008810578416920028086_);}
	.st177{clip-path:url(#SVGID_00000026884885845637984400000008911626447748982145_);fill:#333333;}
	.st178{clip-path:url(#SVGID_00000026884885845637984400000008911626447748982145_);fill:#FFCD55;}
	.st179{clip-path:url(#SVGID_00000026884885845637984400000008911626447748982145_);}
	.st180{clip-path:url(#SVGID_00000029752940061220134410000005228742941645554100_);}
	.st181{fill:url(#SVGID_00000178926719270530632350000010589298020467721116_);}
	.st182{clip-path:url(#SVGID_00000029752940061220134410000005228742941645554100_);fill:#FFA002;}
	.st183{fill:url(#SVGID_00000026134094099058571320000017233329140059183261_);}
	.st184{clip-path:url(#SVGID_00000136386530517746044390000006254270548288532151_);fill:#8BE04A;}
	
		.st185{opacity:0.55;clip-path:url(#SVGID_00000136386530517746044390000006254270548288532151_);fill:url(#SVGID_00000182526699198043662880000007861978957340156304_);}
	.st186{fill:#009245;}
	.st187{clip-path:url(#SVGID_00000089564810302053465060000000827209945048721321_);}
	.st188{fill:none;stroke:#FFFFFF;stroke-width:27;stroke-linecap:round;stroke-miterlimit:10;}
	.st189{fill:none;stroke:#2CAF4B;stroke-width:61;stroke-linecap:round;stroke-linejoin:round;stroke-miterlimit:10;}
	.st190{fill:none;stroke:#DC3285;stroke-width:13;stroke-linecap:round;stroke-linejoin:round;stroke-miterlimit:10;}
	.st191{fill:#2CAF4B;}
	.st192{opacity:0.1;}
	.st193{fill:#151814;}
	.st194{fill:none;stroke:#DC3285;stroke-width:30;stroke-miterlimit:10;}
	.st195{fill:#DC3285;stroke:#E567A5;stroke-width:6;stroke-miterlimit:10;}
	.st196{fill:#282560;}
	.st197{fill:url(#SVGID_00000085235178423694717520000012230963193959015357_);}
	.st198{fill:url(#SVGID_00000176018848907270703950000001484938726158316974_);}
	.st199{clip-path:url(#SVGID_00000157988055832742616600000011010755059538776460_);}
	.st200{clip-path:url(#SVGID_00000017488899508294186480000002434419319584979380_);}
	.st201{clip-path:url(#SVGID_00000023244470037939899510000017203880801893507483_);}
	.st202{fill:#006600;}
	.st203{opacity:0.77;}
	.st204{clip-path:url(#SVGID_00000023280422492831857940000004650286979542954395_);}
	.st205{clip-path:url(#SVGID_00000017495195244601744130000016629437026817964699_);}
	.st206{clip-path:url(#SVGID_00000133487019217057062200000008558993973660043693_);}
	.st207{clip-path:url(#SVGID_00000055695061505696565160000000267151524049577616_);}
	.st208{clip-path:url(#SVGID_00000015346071832090123720000011749471803087448500_);}
	.st209{clip-path:url(#SVGID_00000168818291082524108300000007360127816773317783_);}
	.st210{clip-path:url(#SVGID_00000041983989704633983590000002144517191230426798_);}
	.st211{clip-path:url(#SVGID_00000061460739362639159820000002516545439380164770_);}
	.st212{clip-path:url(#SVGID_00000114758465492908134640000016092517202798650767_);}
	.st213{clip-path:url(#SVGID_00000074403709270257299050000008678778047166466719_);}
	.st214{clip-path:url(#SVGID_00000128473179984571680410000018178366179774296248_);}
	.st215{clip-path:url(#SVGID_00000069366199009094640640000001611973451700334488_);fill:#FFFFFF;}
	.st216{opacity:0.64;clip-path:url(#SVGID_00000039115018583005699650000009214282937261314698_);fill:#FFFFFF;}
	.st217{opacity:0.61;clip-path:url(#SVGID_00000129195364589170184740000009509948755033725351_);fill:#FFFFFF;}
	.st218{opacity:0.43;}
	.st219{fill:#4D4D4D;}
	.st220{fill:#3B3B3B;}
	.st221{clip-path:url(#SVGID_00000175296501790283778520000008221633354157832327_);fill:#DC3285;}
	.st222{clip-path:url(#SVGID_00000175296501790283778520000008221633354157832327_);fill:#FFFFFF;}
	.st223{clip-path:url(#SVGID_00000175296501790283778520000008221633354157832327_);fill:#333333;}
	.st224{clip-path:url(#SVGID_00000158030606613894114920000003041542869073839026_);fill:#DC3285;}
	.st225{clip-path:url(#SVGID_00000158030606613894114920000003041542869073839026_);fill:#FFFFFF;}
	.st226{clip-path:url(#SVGID_00000158030606613894114920000003041542869073839026_);fill:#333333;}
	.st227{fill:#26AD35;}
	.st228{fill:#45A840;}
	.st229{opacity:0.56;fill:#26AD35;}
	.st230{opacity:0.42;}
	.st231{fill:#292929;}
	.st232{opacity:0.15;}
	.st233{clip-path:url(#SVGID_00000034061997617481195440000011146310741108293016_);}
	.st234{clip-path:url(#SVGID_00000034807972981905838750000014386664806938410669_);}
	.st235{clip-path:url(#SVGID_00000116921046065465725390000000152521191004560523_);}
	.st236{clip-path:url(#SVGID_00000039132800651450856350000016584101393869922436_);}
	.st237{clip-path:url(#SVGID_00000124130106392105528970000007067889257203248267_);}
	.st238{clip-path:url(#SVGID_00000147928884413069594950000008802725360382721180_);}
	.st239{clip-path:url(#SVGID_00000021087237626186759100000007187442253752627857_);}
	.st240{clip-path:url(#SVGID_00000130613284532921919310000007570720844785228931_);}
	.st241{clip-path:url(#SVGID_00000033340825787364958800000003972678907528300457_);}
	.st242{clip-path:url(#SVGID_00000018202586582968396560000001462275030045449622_);}
	.st243{clip-path:url(#SVGID_00000082358810836658385580000017089880365963455878_);}
	.st244{clip-path:url(#SVGID_00000103947335448366708740000017294082451767801005_);}
	.st245{clip-path:url(#SVGID_00000158716093184734996220000000697783307725559182_);}
	.st246{clip-path:url(#SVGID_00000142169602914504929110000007503147149605587609_);}
	.st247{clip-path:url(#SVGID_00000128450650793283734490000005014578813407134910_);}
	.st248{clip-path:url(#SVGID_00000098219507488660132050000008150811860230581427_);}
	.st249{clip-path:url(#SVGID_00000133505989209236307300000003066471506799473326_);}
	.st250{clip-path:url(#SVGID_00000083767325004443028180000006067207827050945466_);}
	.st251{clip-path:url(#SVGID_00000181794903656448416170000017322300819709410203_);}
	.st252{clip-path:url(#SVGID_00000048491578917807404860000003575953391734211773_);}
	.st253{clip-path:url(#SVGID_00000133494173214284006030000012939689826551953308_);}
	.st254{clip-path:url(#SVGID_00000183241564357657431080000004615305923791579580_);}
	.st255{clip-path:url(#SVGID_00000078046777870013839580000003923470546009928601_);}
	.st256{clip-path:url(#SVGID_00000037653721918217190930000000092079671105212341_);}
	.st257{clip-path:url(#SVGID_00000172406111848094920570000002430750036447006641_);}
	.st258{clip-path:url(#SVGID_00000177462477837362138490000007750924389741110180_);}
	.st259{clip-path:url(#SVGID_00000112606012861233482090000007916783200011655850_);}
	.st260{clip-path:url(#SVGID_00000098203212980640160220000015793123837951979429_);}
	.st261{clip-path:url(#SVGID_00000163751746482619078710000002813636302563057837_);}
	.st262{clip-path:url(#SVGID_00000119837789732507772500000005051891479333447065_);}
	.st263{clip-path:url(#SVGID_00000173845934723212859700000017121834793338105516_);}
	.st264{clip-path:url(#SVGID_00000021119333991532692580000017835386503231952770_);}
	.st265{clip-path:url(#SVGID_00000043417905828072721140000001831440133250737303_);}
	.st266{clip-path:url(#SVGID_00000166650270241055447240000007061804929719680940_);}
	.st267{clip-path:url(#SVGID_00000106840859893359138230000016062808713668543679_);}
	.st268{clip-path:url(#SVGID_00000116227217257137721190000016286756729815006101_);}
	.st269{clip-path:url(#SVGID_00000008109468834760086170000013558328286464181934_);}
	.st270{clip-path:url(#SVGID_00000003819019853498704650000009172707625218640054_);}
	.st271{clip-path:url(#SVGID_00000062158846754227310710000008382867408900203696_);}
	.st272{clip-path:url(#SVGID_00000073693051522781384930000004460088305235854772_);}
	.st273{clip-path:url(#SVGID_00000029736492557213062180000002187398940174461596_);}
	.st274{clip-path:url(#SVGID_00000122690289557086403530000011866645222935292602_);}
	.st275{clip-path:url(#SVGID_00000097497360293615583730000008786883430188942736_);}
	.st276{clip-path:url(#SVGID_00000111881784859378513320000009303301414094569363_);}
	.st277{clip-path:url(#SVGID_00000127722989268744044370000017531876270976593596_);}
	.st278{clip-path:url(#SVGID_00000156556302823232545990000014548326638706869420_);}
	.st279{clip-path:url(#SVGID_00000056415659168100187870000010993704960881241985_);}
	.st280{clip-path:url(#SVGID_00000178177876725529672610000017373162827964592530_);}
	.st281{clip-path:url(#SVGID_00000168085274941355001310000004520207059113405617_);}
	.st282{clip-path:url(#SVGID_00000098183170083716983090000014409584097772035974_);}
	.st283{clip-path:url(#SVGID_00000060716688156437016310000005072692048043670663_);}
	.st284{clip-path:url(#SVGID_00000080906140520312761130000000762901069563756730_);}
	.st285{clip-path:url(#SVGID_00000126289362982107200260000010334957002934238637_);}
	.st286{clip-path:url(#SVGID_00000083773946159428715480000007206852108376696759_);}
	.st287{clip-path:url(#SVGID_00000155830348836246932850000013578766856522831286_);}
	.st288{clip-path:url(#SVGID_00000126320914093646569480000004812991110367929514_);}
	.st289{clip-path:url(#SVGID_00000066505758420693149630000000428446125805448593_);}
	.st290{clip-path:url(#SVGID_00000113329518369133921330000018184673225998232747_);}
	.st291{clip-path:url(#SVGID_00000049195895928055409560000013384861409147347646_);}
	.st292{clip-path:url(#SVGID_00000057119732574315323500000015911292436483743110_);}
	.st293{clip-path:url(#SVGID_00000096037983339922507970000012534902429046677888_);}
	.st294{clip-path:url(#SVGID_00000008119645355819119170000008712461762410582963_);}
	.st295{clip-path:url(#SVGID_00000137111754576021486500000009608810807953686956_);}
	.st296{clip-path:url(#SVGID_00000150807439462580335550000016101748142025049509_);}
	.st297{clip-path:url(#SVGID_00000137839538440359929670000007727893384744386219_);}
	.st298{clip-path:url(#SVGID_00000077284692322164027510000003236040699287731374_);}
	.st299{clip-path:url(#SVGID_00000081648232100257096880000004013193274060362159_);}
	.st300{clip-path:url(#SVGID_00000088105138935857657080000006988277864180620179_);}
	.st301{clip-path:url(#SVGID_00000067198372399097374950000015635145173445894787_);}
	.st302{clip-path:url(#SVGID_00000121269052347483719790000002665619023219398537_);}
	.st303{clip-path:url(#SVGID_00000009567232100620114640000001074328868896693672_);}
	.st304{clip-path:url(#SVGID_00000142874861832044638280000009995962505942817955_);}
	.st305{clip-path:url(#SVGID_00000068635586392586430530000010597732666263937724_);}
	.st306{clip-path:url(#SVGID_00000072247381379733349420000000676016746267120003_);}
	.st307{clip-path:url(#SVGID_00000162326348236444334680000010330897355177210014_);}
	.st308{clip-path:url(#SVGID_00000041996909400895729580000002819026235308195755_);}
	.st309{clip-path:url(#SVGID_00000174568365618049573160000013896301907032222134_);}
	.st310{clip-path:url(#SVGID_00000085250557196831023710000007608662162505490819_);}
	.st311{clip-path:url(#SVGID_00000033347043103143483960000005879191357561626246_);}
	.st312{clip-path:url(#SVGID_00000162313240928530347940000006725927017562013326_);}
	.st313{clip-path:url(#SVGID_00000134208852653162537840000010177251565341057668_);}
	.st314{clip-path:url(#SVGID_00000060745152648447716570000008151123317291724223_);}
	.st315{fill:#54BA2E;}
	.st316{fill:#008DF2;}
	.st317{opacity:0.76;}
	.st318{clip-path:url(#SVGID_00000156570271920552189540000012965954862207476124_);fill:#0088C7;}
	.st319{clip-path:url(#SVGID_00000156570271920552189540000012965954862207476124_);fill:#0189C8;}
	.st320{clip-path:url(#SVGID_00000156570271920552189540000012965954862207476124_);fill:#028AC9;}
	.st321{clip-path:url(#SVGID_00000156570271920552189540000012965954862207476124_);fill:#048BC9;}
	.st322{clip-path:url(#SVGID_00000156570271920552189540000012965954862207476124_);fill:#058CCA;}
	.st323{clip-path:url(#SVGID_00000156570271920552189540000012965954862207476124_);fill:#068DCB;}
	.st324{clip-path:url(#SVGID_00000156570271920552189540000012965954862207476124_);fill:#078FCC;}
	.st325{clip-path:url(#SVGID_00000156570271920552189540000012965954862207476124_);fill:#0890CC;}
	.st326{clip-path:url(#SVGID_00000156570271920552189540000012965954862207476124_);fill:#0991CD;}
	.st327{clip-path:url(#SVGID_00000156570271920552189540000012965954862207476124_);fill:#0B92CE;}
	.st328{clip-path:url(#SVGID_00000156570271920552189540000012965954862207476124_);fill:#0C93CF;}
	.st329{clip-path:url(#SVGID_00000156570271920552189540000012965954862207476124_);fill:#0D94D0;}
	.st330{clip-path:url(#SVGID_00000156570271920552189540000012965954862207476124_);fill:#0E95D0;}
	.st331{clip-path:url(#SVGID_00000156570271920552189540000012965954862207476124_);fill:#0F96D1;}
	.st332{clip-path:url(#SVGID_00000156570271920552189540000012965954862207476124_);fill:#1097D2;}
	.st333{clip-path:url(#SVGID_00000156570271920552189540000012965954862207476124_);fill:#1198D3;}
	.st334{clip-path:url(#SVGID_00000156570271920552189540000012965954862207476124_);fill:#1399D3;}
	.st335{clip-path:url(#SVGID_00000156570271920552189540000012965954862207476124_);fill:#149AD4;}
	.st336{clip-path:url(#SVGID_00000156570271920552189540000012965954862207476124_);fill:#159BD5;}
	.st337{clip-path:url(#SVGID_00000156570271920552189540000012965954862207476124_);fill:#169CD6;}
	.st338{clip-path:url(#SVGID_00000156570271920552189540000012965954862207476124_);fill:#179DD6;}
	.st339{clip-path:url(#SVGID_00000156570271920552189540000012965954862207476124_);fill:#189ED7;}
	.st340{clip-path:url(#SVGID_00000156570271920552189540000012965954862207476124_);fill:#199FD8;}
	.st341{clip-path:url(#SVGID_00000156570271920552189540000012965954862207476124_);fill:#1AA0D9;}
	.st342{clip-path:url(#SVGID_00000156570271920552189540000012965954862207476124_);fill:#1BA1D9;}
	.st343{clip-path:url(#SVGID_00000156570271920552189540000012965954862207476124_);fill:#1DA2DA;}
	.st344{clip-path:url(#SVGID_00000156570271920552189540000012965954862207476124_);fill:#1EA4DB;}
	.st345{clip-path:url(#SVGID_00000156570271920552189540000012965954862207476124_);fill:#1FA5DC;}
	.st346{clip-path:url(#SVGID_00000156570271920552189540000012965954862207476124_);fill:#20A6DC;}
	.st347{clip-path:url(#SVGID_00000156570271920552189540000012965954862207476124_);fill:#21A7DD;}
	.st348{clip-path:url(#SVGID_00000156570271920552189540000012965954862207476124_);fill:#22A8DE;}
	.st349{clip-path:url(#SVGID_00000156570271920552189540000012965954862207476124_);fill:#23A9DE;}
	.st350{clip-path:url(#SVGID_00000156570271920552189540000012965954862207476124_);fill:#24AADF;}
	.st351{clip-path:url(#SVGID_00000156570271920552189540000012965954862207476124_);fill:#25ABE0;}
	.st352{clip-path:url(#SVGID_00000156570271920552189540000012965954862207476124_);fill:#26ABE1;}
	.st353{clip-path:url(#SVGID_00000156570271920552189540000012965954862207476124_);fill:#27ACE1;}
	.st354{clip-path:url(#SVGID_00000156570271920552189540000012965954862207476124_);fill:#28ADE2;}
	.st355{clip-path:url(#SVGID_00000156570271920552189540000012965954862207476124_);fill:#29AEE3;}
	.st356{clip-path:url(#SVGID_00000156570271920552189540000012965954862207476124_);fill:#2AAFE3;}
	.st357{clip-path:url(#SVGID_00000156570271920552189540000012965954862207476124_);fill:#2BB0E4;}
	.st358{clip-path:url(#SVGID_00000156570271920552189540000012965954862207476124_);fill:#2CB1E5;}
	.st359{clip-path:url(#SVGID_00000156570271920552189540000012965954862207476124_);fill:#2EB2E5;}
	.st360{clip-path:url(#SVGID_00000156570271920552189540000012965954862207476124_);fill:#2FB3E6;}
	.st361{clip-path:url(#SVGID_00000156570271920552189540000012965954862207476124_);fill:#30B4E7;}
	.st362{clip-path:url(#SVGID_00000156570271920552189540000012965954862207476124_);fill:#31B5E7;}
	.st363{clip-path:url(#SVGID_00000156570271920552189540000012965954862207476124_);fill:#32B6E8;}
	.st364{clip-path:url(#SVGID_00000156570271920552189540000012965954862207476124_);fill:#32B7E9;}
	.st365{clip-path:url(#SVGID_00000156570271920552189540000012965954862207476124_);fill:#33B8E9;}
	.st366{clip-path:url(#SVGID_00000156570271920552189540000012965954862207476124_);fill:#34B9EA;}
	.st367{clip-path:url(#SVGID_00000156570271920552189540000012965954862207476124_);fill:#35BAEB;}
	.st368{clip-path:url(#SVGID_00000156570271920552189540000012965954862207476124_);fill:#36BAEB;}
	.st369{clip-path:url(#SVGID_00000156570271920552189540000012965954862207476124_);fill:#37BBEC;}
	.st370{clip-path:url(#SVGID_00000156570271920552189540000012965954862207476124_);fill:#38BCEC;}
	.st371{clip-path:url(#SVGID_00000156570271920552189540000012965954862207476124_);fill:#39BDED;}
	.st372{clip-path:url(#SVGID_00000156570271920552189540000012965954862207476124_);fill:#3ABEEE;}
	.st373{clip-path:url(#SVGID_00000156570271920552189540000012965954862207476124_);fill:#3BBFEE;}
	.st374{clip-path:url(#SVGID_00000156570271920552189540000012965954862207476124_);fill:#3CC0EF;}
	.st375{clip-path:url(#SVGID_00000156570271920552189540000012965954862207476124_);fill:#3DC0F0;}
	.st376{clip-path:url(#SVGID_00000156570271920552189540000012965954862207476124_);fill:#3EC1F0;}
	.st377{clip-path:url(#SVGID_00000156570271920552189540000012965954862207476124_);fill:#3EC2F1;}
	.st378{clip-path:url(#SVGID_00000156570271920552189540000012965954862207476124_);fill:#3FC3F1;}
	.st379{clip-path:url(#SVGID_00000156570271920552189540000012965954862207476124_);fill:#40C3F2;}
	.st380{clip-path:url(#SVGID_00000156570271920552189540000012965954862207476124_);fill:#41C4F2;}
	.st381{clip-path:url(#SVGID_00000156570271920552189540000012965954862207476124_);fill:#42C5F3;}
	.st382{clip-path:url(#SVGID_00000156570271920552189540000012965954862207476124_);fill:#42C6F3;}
	.st383{clip-path:url(#SVGID_00000156570271920552189540000012965954862207476124_);fill:#43C6F4;}
	.st384{clip-path:url(#SVGID_00000156570271920552189540000012965954862207476124_);fill:#44C7F4;}
	.st385{clip-path:url(#SVGID_00000156570271920552189540000012965954862207476124_);fill:#44C8F5;}
	.st386{clip-path:url(#SVGID_00000156570271920552189540000012965954862207476124_);fill:#45C8F5;}
	.st387{fill:url(#SVGID_00000148647068262518645350000009756913019536685466_);}
	.st388{fill:url(#SVGID_00000090993615827360548390000004181695970489664171_);}
	.st389{fill:url(#SVGID_00000039134475046946735120000014490570011552323007_);}
	.st390{fill:url(#SVGID_00000138540941615355006250000017736989697012376727_);}
	.st391{fill:#FF7FC8;}
	.st392{clip-path:url(#SVGID_00000123422145298297065520000009320338642712462466_);fill:#333333;}
	.st393{clip-path:url(#SVGID_00000123422145298297065520000009320338642712462466_);fill:#FFCD55;}
	.st394{clip-path:url(#SVGID_00000123422145298297065520000009320338642712462466_);}
	.st395{fill:#73E1EF;}
	.st396{fill:#0E68A3;}
	.st397{fill:#053483;}
</style>
<g>
	<g>
		<path class="st0" d="M127.46,41.49v43.49c0,3.56,0.78,6.38,2.34,8.45c1.56,2.07,4.09,3.11,7.58,3.11c3.49,0,6.07-1.04,7.74-3.11
			c1.67-2.07,2.51-4.89,2.51-8.45V41.49h24.09v43.49c0,7.34-1.53,13.61-4.58,18.8c-3.05,5.2-7.23,9.1-12.54,11.72
			c-5.3,2.62-11.23,3.92-17.77,3.92s-12.34-1.31-17.39-3.92c-5.05-2.62-8.99-6.5-11.83-11.66c-2.83-5.16-4.25-11.44-4.25-18.86
			V41.49H127.46z"/>
		<path class="st0" d="M220.98,118.66l-14.5-27.69h-0.11v27.69h-24.2V41.49h35.97c6.25,0,11.59,1.11,16.02,3.32
			c4.43,2.22,7.76,5.23,9.97,9.05c2.22,3.82,3.33,8.12,3.33,12.92c0,5.16-1.44,9.74-4.31,13.73c-2.87,4-7,6.87-12.37,8.61
			l16.79,29.54H220.98z M206.38,74.84h9.59c2.32,0,4.07-0.53,5.23-1.58c1.16-1.05,1.74-2.71,1.74-4.96c0-2.03-0.6-3.63-1.8-4.8
			c-1.2-1.16-2.93-1.74-5.18-1.74h-9.59V74.84z"/>
		<path class="st91" d="M366.5,41.49v77.17h-24.09V80.18l-11.88,38.48h-20.71l-11.88-38.48v38.48h-24.2V41.49h29.65l17,46.33
			l16.57-46.33H366.5z"/>
		<path class="st91" d="M401.59,60.78v9.48h23.98v18.2h-23.98v10.9h27.25v19.29h-51.45V41.49h51.45v19.29H401.59z"/>
		<path class="st91" d="M498.6,41.49v19.18h-20.49v57.99h-24.2V60.67h-20.27V41.49H498.6z"/>
		<path class="st91" d="M576.54,41.49v77.17h-24.2V88.57h-23v30.08h-24.2V41.49h24.2v27.79h23V41.49H576.54z"/>
		<path class="st91" d="M605.04,114.3c-6.07-3.41-10.88-8.14-14.44-14.17c-3.56-6.03-5.34-12.82-5.34-20.38
			c0-7.56,1.78-14.35,5.34-20.38c3.56-6.03,8.37-10.74,14.44-14.12c6.07-3.38,12.73-5.07,20-5.07c7.27,0,13.92,1.69,19.95,5.07
			c6.03,3.38,10.81,8.08,14.33,14.12c3.52,6.03,5.29,12.83,5.29,20.38c0,7.56-1.76,14.35-5.29,20.38
			c-3.53,6.03-8.32,10.76-14.39,14.17c-6.07,3.42-12.7,5.12-19.89,5.12C617.77,119.42,611.11,117.72,605.04,114.3z M636.16,92.23
			c2.62-3.09,3.92-7.25,3.92-12.48c0-5.3-1.31-9.5-3.92-12.59c-2.62-3.09-6.32-4.63-11.12-4.63c-4.87,0-8.61,1.54-11.23,4.63
			c-2.62,3.09-3.92,7.29-3.92,12.59c0,5.23,1.31,9.39,3.92,12.48c2.62,3.09,6.36,4.63,11.23,4.63
			C629.84,96.86,633.54,95.32,636.16,92.23z"/>
		<path class="st91" d="M726.68,46.39c6.07,3.27,10.74,7.81,14.01,13.62c3.27,5.81,4.91,12.43,4.91,19.84
			c0,7.34-1.63,13.95-4.91,19.84c-3.27,5.89-7.94,10.52-14.01,13.9c-6.07,3.38-13.13,5.07-21.2,5.07h-32.16V41.49h32.16
			C713.55,41.49,720.62,43.12,726.68,46.39z M716.27,92.61c3.2-2.98,4.8-7.23,4.8-12.75c0-5.52-1.6-9.77-4.8-12.75
			c-3.2-2.98-7.52-4.47-12.97-4.47h-5.78v34.44h5.78C708.75,97.08,713.08,95.59,716.27,92.61z"/>
	</g>
	<g>
		<path class="st91" d="M487.91,0.06c-3.82,0.05-9.57,0.89-15.27,4.59c-1.98,1.28-3.77,2.79-5.37,4.5
			c-3.65-3.44-10.95-7.06-25.5-7.08l-4.65-0.01l1.21,4.49c0.57,2.11,3.02,9.3,10.58,12.98c5.85,2.85,11.48,2.02,15.33,0.74
			c-0.15,3.85-0.5,8.12-1.2,12.73c-0.67,4.44-1.54,8.49-2.49,12.1l7.23,0.9c0.86-3.67,1.64-7.68,2.26-12
			c0.74-5.15,1.14-9.95,1.31-14.33c2.65,0.28,5.94,0.09,9.35-1.43c8.79-3.9,10.59-13,10.77-14.03L492.18,0L487.91,0.06z"/>
	</g>
	<g>
		<g>
			<g>
				<g>
					<g>
						<ellipse class="st0" cx="46.65" cy="79" rx="46.65" ry="45.2"/>
					</g>
				</g>
			</g>
			<g>
				<g>
					<g>
						<path class="st109" d="M40.63,48.63c-0.8,0-1.49-0.61-1.58-1.42c-0.16-1.44-1.15-2.65-2.43-2.94
							c-1.57-0.36-3.3,0.72-3.83,2.42c-0.26,0.84-1.16,1.3-2,1.04c-0.84-0.26-1.31-1.16-1.04-2c1.04-3.3,4.37-5.31,7.58-4.57
							c2.62,0.6,4.58,2.89,4.88,5.7c0.09,0.87-0.54,1.66-1.41,1.75C40.74,48.63,40.68,48.63,40.63,48.63z"/>
					</g>
				</g>
				<g>
					<g>
						<path class="st109" d="M52.07,48.63c-0.06,0-0.12,0-0.17-0.01c-0.87-0.09-1.51-0.88-1.41-1.75c0.3-2.81,2.26-5.1,4.88-5.7
							c3.22-0.74,6.55,1.27,7.58,4.57c0.26,0.84-0.2,1.73-1.04,2c-0.84,0.26-1.73-0.2-2-1.04c-0.53-1.7-2.25-2.78-3.83-2.42
							c-1.27,0.29-2.27,1.5-2.43,2.94C53.56,48.02,52.87,48.63,52.07,48.63z"/>
					</g>
				</g>
			</g>
			<g>
				<g>
					<path class="st114" d="M37.61,43.59l0-0.38L37.61,43.59c0,0.13,0,0.25,0,0.38C37.61,43.84,37.61,43.72,37.61,43.59z"/>
				</g>
				<g>
					<path class="st114" d="M57.34,43.59l0-0.38L57.34,43.59c0,0.13,0,0.25,0,0.38C57.34,43.84,57.34,43.72,57.34,43.59z"/>
				</g>
				<g>
					<g>
						<path class="st0" d="M50.17,75.22c-12.15-0.51-27.01,6.04-31.55,18.95c-2.01,5.71-1.45,11.01-0.77,14.29c0,0,0,0.01,0,0.01
							c0.16,0.15,0.33,0.28,0.49,0.43c0.26,0.23,0.52,0.46,0.77,0.68c3.51,3.01,7.19,5.1,10.7,6.54c0.22,0.09,0.43,0.18,0.64,0.26
							c0.22,0.08,0.43,0.17,0.64,0.25c0.54,0.21,1.07,0.39,1.56,0.55c0.04,0.01,0.07,0.02,0.11,0.04c0.25,0.08,0.49,0.16,0.73,0.23
							c0.14,0.04,0.28,0.09,0.43,0.13c0.15,0.04,0.3,0.09,0.44,0.13c0.3,0.08,0.59,0.16,0.88,0.24c-4.53-4.02-6.51-9.72-5.09-14.59
							c1.52-5.22,6.39-7.62,6.81-7.81c4.67-2.2,9.44-0.88,13.69,0.31c8.08,2.27,9.56,5.64,15.56,5.33c1.61-0.08,4.86-0.3,7.11-2.7
							c2.79-2.97,2.24-7.37,2.16-7.95C74.35,82.56,61.58,75.7,50.17,75.22z"/>
					</g>
					<g>
						<path class="st0" d="M46.88,53.77c11.09,0,17.73-3.86,23.63-3.86C64.61,49.92,57.97,53.77,46.88,53.77z"/>
					</g>
					<g>
						<path class="st0" d="M26.47,65.96c0.32,0.03,0.64,0.04,0.95,0.04c2.17,0,4.31-0.68,6.06-1.84c2.38-1.5,4.01-3.93,4.12-6.73
							c0.09,4.41,3.98,7.96,8.59,8.39c0.29,0.03,0.58,0.04,0.86,0.04c0.14,0,0.27,0,0.41-0.01c0.14,0,0.27,0.01,0.41,0.01
							c0.29,0,0.58-0.01,0.86-0.04c4.61-0.43,8.5-3.98,8.59-8.39c0.11,2.8,1.74,5.24,4.12,6.73c1.75,1.16,3.89,1.84,6.06,1.84
							c0.32,0,0.64-0.01,0.95-0.04c4.71-0.44,8.67-4.12,8.6-8.66c0-0.71,0-1.42,0-2.13c-0.13-0.12-0.27-0.23-0.4-0.35
							c-0.13-0.12-0.27-0.23-0.4-0.35c-0.21-0.18-0.42-0.38-0.64-0.56c-0.04-0.03-0.07-0.05-0.11-0.08l-0.06-0.04
							c-0.7-0.46-1.39-0.79-2.1-1.04c-0.9-0.31-1.84-0.46-2.87-0.46c-2.18,0-4.66,0.65-7.53,1.4c-2.86,0.75-6.21,1.61-10.18,2.09
							c-1.84,0.22-3.79,0.37-5.91,0.37l-0.24,0c-6.5-0.03-11.38-1.33-15.3-2.37c-0.25-0.07-0.49-0.13-0.74-0.19
							c-2.43-0.64-4.56-1.16-6.54-1.16c-0.25,0-0.5,0.01-0.75,0.03c-1.48,0.1-2.87,0.52-4.31,1.3c-0.11,0.06-0.23,0.13-0.34,0.19
							c-0.14,0.08-0.27,0.16-0.4,0.24c-0.15,0.1-0.29,0.19-0.4,0.26c0,0.95,0,1.89,0,2.84C17.8,61.84,21.77,65.52,26.47,65.96z"/>
					</g>
				</g>
				<g>
					<path d="M83.97,60.82c0,0,0.01-0.01,0.01-0.01c-0.77-1.67-1.98-3.8-3.87-5.94c0,0,0,0,0,0c-0.77-0.9-1.54-1.61-2.23-2.2
						c-0.06-0.05-0.12-0.1-0.18-0.15c-0.1-0.08-0.19-0.16-0.29-0.24c-0.11-0.09-0.23-0.19-0.34-0.28c-0.1-0.07-0.18-0.14-0.28-0.2
						c0,0,0,0,0,0c-2.12-1.38-4.15-1.89-6.29-1.89c-5.9,0-12.54,3.86-23.63,3.86c-0.08,0-0.15,0-0.23,0
						c-10.79-0.05-16.75-3.72-22.58-3.72c-2.01,0-4.01,0.44-6.19,1.61c-0.01,0.01-0.03,0.01-0.04,0.02c0,0-0.01,0-0.01,0
						c0,0-0.03,0.02-0.07,0.04c-0.04,0.02-0.07,0.05-0.11,0.07c-0.27,0.15-0.53,0.32-0.76,0.46c-0.31,0.2-0.55,0.37-0.67,0.45
						c-0.41,0.29-0.81,0.58-1.17,0.88c-3.74,3-5.76,6.63-6.84,9.08c0.01,0,0.01,0,0.01,0.01c-3.29,6.9-2.96,13.7-3.08,16.94
						c-0.17,4.54,1.25,17.31,11.53,27.71c0.39,0.39,0.78,0.77,1.17,1.13c-0.68-3.28-1.24-8.58,0.77-14.29
						c4.54-12.91,19.4-19.46,31.55-18.95c11.41,0.47,24.19,7.33,25.29,15.32c0.08,0.58,0.63,4.98-2.16,7.95
						c-2.25,2.4-5.5,2.61-7.11,2.7c-5.99,0.31-7.48-3.06-15.56-5.33c-4.25-1.19-9.02-2.52-13.69-0.31c-0.42,0.2-5.29,2.59-6.81,7.81
						c-1.42,4.87,0.57,10.57,5.09,14.59c-0.29-0.08-0.58-0.16-0.88-0.24c0.31,0.09,0.61,0.17,0.88,0.24
						c5.66,1.48,10.14,1.42,11.43,1.39c3.79-0.1,15.78-0.11,26.62-8.89c0.61-0.49,14.47-12.08,14.89-30.84
						C88.23,76.86,88.3,68.92,83.97,60.82z M77.08,55.17c0,0.71,0,1.42,0,2.13c0.07,4.53-3.9,8.22-8.6,8.66
						C68.16,65.99,67.85,66,67.53,66c-2.17,0-4.31-0.68-6.06-1.84c-2.38-1.5-4.01-3.93-4.12-6.73c-0.09,4.41-3.98,7.96-8.59,8.39
						c-0.29,0.03-0.58,0.04-0.86,0.04c-0.14,0-0.27,0-0.41-0.01c-0.14,0-0.27,0.01-0.41,0.01c-0.29,0-0.58-0.01-0.86-0.04
						c-4.61-0.43-8.5-3.98-8.59-8.39c-0.11,2.8-1.74,5.24-4.12,6.73C31.74,65.32,29.6,66,27.43,66c-0.32,0-0.64-0.01-0.95-0.04
						c-4.71-0.44-8.67-4.12-8.6-8.66c0-0.95,0-1.89,0-2.84c0.11-0.08,0.25-0.17,0.4-0.26c0.13-0.08,0.26-0.16,0.4-0.24
						c0.11-0.07,0.22-0.13,0.34-0.19c1.44-0.77,2.82-1.19,4.31-1.3c0.25-0.02,0.5-0.03,0.75-0.03c1.98,0,4.11,0.52,6.54,1.16
						c0.24,0.06,0.49,0.13,0.74,0.19c3.92,1.04,8.8,2.34,15.3,2.37l0.24,0c2.12,0,4.08-0.15,5.91-0.37
						c3.97-0.48,7.33-1.34,10.18-2.09c2.87-0.75,5.35-1.4,7.53-1.4c1.04,0,1.97,0.15,2.87,0.46c0.71,0.24,1.4,0.58,2.1,1.04
						l0.06,0.04c0.04,0.03,0.07,0.05,0.11,0.08c0.22,0.18,0.43,0.37,0.64,0.56c0.13,0.12,0.27,0.23,0.4,0.35
						C76.82,54.94,76.95,55.05,77.08,55.17z"/>
				</g>
			</g>
		</g>
	</g>
</g>
</svg>
