<?xml version="1.0" encoding="utf-8"?>
<!-- Generator: Adobe Illustrator 25.4.1, SVG Export Plug-In . SVG Version: 6.00 Build 0)  -->
<svg version="1.1" id="Layer_1" xmlns="http://www.w3.org/2000/svg" xmlns:xlink="http://www.w3.org/1999/xlink" x="0px" y="0px"
	 viewBox="0 0 171.97 109.21" style="enable-background:new 0 0 171.97 109.21;" xml:space="preserve">
<style type="text/css">
	.st0{fill:#FFFFFF;}
	.st1{clip-path:url(#SVGID_00000159434427332885348370000002086127424296312715_);}
	.st2{clip-path:url(#SVGID_00000151507166759431510430000006221410284327079591_);}
	.st3{fill:#FFFFFF;stroke:#FFFFFF;stroke-width:0.75;stroke-miterlimit:10;}
	.st4{opacity:0.81;}
	.st5{fill:url(#SVGID_00000082327992049401370870000008508631539593839512_);}
	.st6{opacity:0.3;}
	.st7{fill:#F2F2F2;}
	.st8{opacity:0.61;fill:#F2F2F2;}
	.st9{opacity:0.69;fill:#F2F2F2;}
	.st10{opacity:0.53;}
	.st11{opacity:0.64;fill:#F2F2F2;}
	.st12{fill:#003800;}
	.st13{fill:#DC3285;}
	.st14{fill:#A52065;}
	.st15{fill:#005700;}
	.st16{fill:#2F6E0C;}
	.st17{clip-path:url(#SVGID_00000026125703797181499090000007481534615516590005_);fill:#007400;}
	.st18{opacity:0.62;clip-path:url(#SVGID_00000026125703797181499090000007481534615516590005_);}
	.st19{fill:none;stroke:#000000;stroke-width:6;stroke-miterlimit:10;}
	.st20{fill:#007400;}
	.st21{fill:#6AD542;}
	.st22{opacity:0.77;fill:url(#);}
	.st23{opacity:0.47;}
	.st24{fill:none;stroke:#000000;stroke-width:6;stroke-linecap:round;stroke-miterlimit:10;}
	.st25{fill:none;stroke:#DC3285;stroke-width:5;stroke-linecap:round;stroke-linejoin:round;stroke-miterlimit:10;}
	.st26{clip-path:url(#SVGID_00000045612143063348401670000006707562451955827608_);fill:#FFFFFF;}
	.st27{fill:#FFA002;}
	.st28{opacity:0.64;clip-path:url(#SVGID_00000021806660475489497920000011296973237316714378_);fill:#FFFFFF;}
	.st29{opacity:0.61;clip-path:url(#SVGID_00000062161307723477522530000006692174846367016098_);fill:#FFFFFF;}
	.st30{clip-path:url(#SVGID_00000044159649589778541290000017319656474997667216_);}
	.st31{fill:#999999;}
	.st32{fill:#1A1A1A;}
	.st33{opacity:0.43;fill:#FFFFFF;}
	.st34{opacity:0.43;fill:none;stroke:#FFFFFF;stroke-width:7;stroke-linecap:round;stroke-miterlimit:10;}
	.st35{fill:#6AD542;stroke:#FFFFFF;stroke-width:7;stroke-linecap:round;stroke-miterlimit:10;}
	.st36{fill:none;stroke:#E6E6E6;stroke-width:13;stroke-linecap:round;stroke-linejoin:round;stroke-miterlimit:10;}
	.st37{clip-path:url(#SVGID_00000029748376696268074580000000498697683593215419_);}
	.st38{opacity:0.43;fill:none;stroke:#1A1A1A;stroke-width:6;stroke-miterlimit:10;}
	.st39{fill:#666666;}
	.st40{fill:none;stroke:#FFFFFF;stroke-width:13;stroke-linecap:round;stroke-linejoin:round;stroke-miterlimit:10;}
	.st41{fill:none;stroke:#FFFFFF;stroke-width:11;stroke-linecap:round;stroke-linejoin:round;stroke-miterlimit:10;}
	.st42{fill:none;stroke:#FFE500;stroke-width:10;stroke-linecap:round;stroke-miterlimit:10;}
	.st43{clip-path:url(#SVGID_00000029725747390094546330000012026513939517841055_);fill:#DC3285;}
	.st44{clip-path:url(#SVGID_00000029725747390094546330000012026513939517841055_);fill:#FFFFFF;}
	.st45{clip-path:url(#SVGID_00000029725747390094546330000012026513939517841055_);fill:#333333;}
	.st46{clip-path:url(#SVGID_00000096766912642300824290000013913272012679602087_);fill:#DC3285;}
	.st47{clip-path:url(#SVGID_00000096766912642300824290000013913272012679602087_);fill:#FFFFFF;}
	.st48{clip-path:url(#SVGID_00000096766912642300824290000013913272012679602087_);fill:#333333;}
	.st49{fill:#56BE2F;}
	.st50{opacity:0.55;}
	.st51{fill:none;stroke:#000000;stroke-width:15;stroke-linecap:round;stroke-linejoin:round;stroke-miterlimit:10;}
	.st52{fill:#5C1537;}
	.st53{clip-path:url(#SVGID_00000183249512151126153290000016076106975223406226_);fill:#26AD35;}
	.st54{clip-path:url(#SVGID_00000183249512151126153290000016076106975223406226_);fill:#6AD542;}
	.st55{clip-path:url(#SVGID_00000183249512151126153290000016076106975223406226_);fill:#56BE2F;}
	.st56{clip-path:url(#SVGID_00000121274107967146113980000014264640144020652970_);fill:#45A840;}
	.st57{clip-path:url(#SVGID_00000121274107967146113980000014264640144020652970_);fill:#56BE2F;}
	.st58{clip-path:url(#SVGID_00000120548031614947170560000000469226537648279980_);fill:#45A840;}
	.st59{clip-path:url(#SVGID_00000120548031614947170560000000469226537648279980_);fill:#56BE2F;}
	.st60{clip-path:url(#SVGID_00000101092634607369039570000014596751074029938854_);fill:#6AD542;}
	.st61{opacity:0.7;clip-path:url(#SVGID_00000101092634607369039570000014596751074029938854_);}
	.st62{fill:#27B136;}
	.st63{clip-path:url(#SVGID_00000147196227013577622450000018045015572586697124_);fill:#3E8913;}
	.st64{clip-path:url(#SVGID_00000147196227013577622450000018045015572586697124_);fill:#6AD542;}
	.st65{clip-path:url(#SVGID_00000171692963081578745260000006387236909523290545_);fill:#29BD3A;}
	.st66{clip-path:url(#SVGID_00000171692963081578745260000006387236909523290545_);fill:#6AD542;}
	.st67{clip-path:url(#SVGID_00000094611831397573538550000010000873029366262171_);fill:#6AD542;}
	.st68{opacity:0.7;clip-path:url(#SVGID_00000094611831397573538550000010000873029366262171_);}
	.st69{clip-path:url(#SVGID_00000040568919911626522970000017413098893348954038_);fill:#6AD542;}
	.st70{opacity:0.56;clip-path:url(#SVGID_00000040568919911626522970000017413098893348954038_);fill:#26AD35;}
	.st71{clip-path:url(#SVGID_00000089542632893337513970000017673839446420997515_);fill:#45A840;}
	.st72{clip-path:url(#SVGID_00000089542632893337513970000017673839446420997515_);fill:#56BE2F;}
	.st73{fill:#333333;}
	.st74{opacity:0.42;fill:#292929;}
	.st75{opacity:0.15;fill:url(#);}
	.st76{clip-path:url(#SVGID_00000075163195512635921010000005597805470974744239_);fill:#3E8913;}
	.st77{clip-path:url(#SVGID_00000075163195512635921010000005597805470974744239_);fill:#6AD542;}
	.st78{fill:none;stroke:#000000;stroke-width:4;stroke-miterlimit:10;}
	.st79{fill:#00ADEE;}
	.st80{fill:#FFE500;}
	.st81{opacity:0.66;fill:#FFA002;}
	.st82{clip-path:url(#SVGID_00000145033095828033955580000018384862546065056649_);fill:#29BD3A;}
	.st83{clip-path:url(#SVGID_00000145033095828033955580000018384862546065056649_);fill:#6AD542;}
	.st84{fill:#00CCFF;}
	.st85{fill:#29BD3A;}
	.st86{fill:#FFD900;}
	.st87{fill:#EB8AB9;}
	.st88{opacity:0.78;fill:#E04B94;}
	.st89{clip-path:url(#SVGID_00000098202252136881434370000015555152996481858182_);fill:#6AD542;}
	.st90{opacity:0.7;clip-path:url(#SVGID_00000098202252136881434370000015555152996481858182_);}
	.st91{fill:#8BE04A;}
	.st92{opacity:0.28;fill:url(#SVGID_00000014632475141495903570000009497513599909319337_);}
	.st93{opacity:0.7;fill:url(#SVGID_00000125604104517505670020000005782499744912892088_);}
	.st94{clip-path:url(#SVGID_00000086693125990151247220000005465378238288790681_);fill:#DC3285;}
	.st95{clip-path:url(#SVGID_00000086693125990151247220000005465378238288790681_);fill:#FFCD55;}
	.st96{clip-path:url(#SVGID_00000086693125990151247220000005465378238288790681_);fill:#45C8F5;}
	.st97{clip-path:url(#SVGID_00000098925016921003933180000007330681255874264510_);fill:#FFFFFF;}
	.st98{clip-path:url(#SVGID_00000098925016921003933180000007330681255874264510_);}
	.st99{clip-path:url(#SVGID_00000111900826594693053540000006178450899082933122_);fill:#333333;}
	.st100{clip-path:url(#SVGID_00000111900826594693053540000006178450899082933122_);fill:#FFCD55;}
	.st101{clip-path:url(#SVGID_00000111900826594693053540000006178450899082933122_);}
	.st102{fill:#E6E6E6;}
	.st103{fill:#FFCD55;}
	.st104{opacity:0.73;fill:#FFFFFF;}
	.st105{opacity:0.73;fill:none;stroke:#FFFFFF;stroke-width:29;stroke-linecap:round;stroke-miterlimit:10;}
	.st106{opacity:0.26;fill:#FFFFFF;}
	.st107{opacity:0.26;fill:none;stroke:#FFFFFF;stroke-width:29;stroke-linecap:round;stroke-miterlimit:10;}
	.st108{fill:#45C8F5;}
	.st109{fill:#231F20;}
	.st110{clip-path:url(#SVGID_00000174594138680143664490000006573608433995964312_);}
	.st111{fill:url(#SVGID_00000058583140336800660410000005745689652021881007_);}
	.st112{clip-path:url(#SVGID_00000174594138680143664490000006573608433995964312_);fill:#FFA002;}
	.st113{opacity:0.5;}
	.st114{fill:none;}
	.st115{fill:#CCCCCC;}
	.st116{fill:#B3B3B3;}
	.st117{fill:none;stroke:#FFE500;stroke-width:7;stroke-linecap:round;stroke-miterlimit:10;}
	.st118{fill:none;stroke:#FFE500;stroke-width:7;stroke-linecap:round;stroke-miterlimit:10;stroke-dasharray:10.0084,20.0167;}
	.st119{fill:url(#SVGID_00000170274504447771032520000000220641954571512496_);}
	.st120{opacity:0.7;fill:#B3B3B3;}
	.st121{fill:url(#SVGID_00000010287120485867920280000015801459478718737540_);}
	.st122{clip-path:url(#SVGID_00000061439369540249102890000003481371540699809168_);fill:#8BE04A;}
	
		.st123{opacity:0.55;clip-path:url(#SVGID_00000061439369540249102890000003481371540699809168_);fill:url(#SVGID_00000005980857119288044930000015959096981914279866_);}
	.st124{fill:#E567A5;}
	.st125{fill:url(#SVGID_00000027599146464412343950000015641932500508379574_);}
	.st126{fill:#00ACD6;}
	.st127{fill:#9E005D;}
	.st128{fill:url(#SVGID_00000000910166930328113000000015150868042635413410_);}
	.st129{fill:none;stroke:#FFCD55;stroke-width:5;stroke-linecap:round;stroke-miterlimit:10;}
	.st130{fill:none;stroke:#FFCD55;stroke-width:5;stroke-linecap:round;stroke-miterlimit:10;stroke-dasharray:9.3355,18.6709;}
	.st131{fill:url(#SVGID_00000093149228664237542560000001343091006697075360_);}
	.st132{fill:url(#SVGID_00000081650182280651515680000007236586818527165373_);}
	.st133{clip-path:url(#SVGID_00000044866468535939608340000010761035245174310321_);fill:#007400;}
	.st134{opacity:0.62;clip-path:url(#SVGID_00000044866468535939608340000010761035245174310321_);}
	.st135{clip-path:url(#SVGID_00000178197458112058099290000010924469379368828316_);fill:#FFFFFF;}
	.st136{opacity:0.64;clip-path:url(#SVGID_00000072271570999430921350000012093177892815001227_);fill:#FFFFFF;}
	.st137{opacity:0.61;clip-path:url(#SVGID_00000141436213487022845940000006492094253956699024_);fill:#FFFFFF;}
	.st138{clip-path:url(#SVGID_00000082366946564677717690000005345369300968940966_);}
	.st139{clip-path:url(#SVGID_00000077283154752134884230000009529662832695038636_);}
	.st140{clip-path:url(#SVGID_00000016781247367682670680000004633729479784798886_);fill:#DC3285;}
	.st141{clip-path:url(#SVGID_00000016781247367682670680000004633729479784798886_);fill:#FFFFFF;}
	.st142{clip-path:url(#SVGID_00000016781247367682670680000004633729479784798886_);fill:#333333;}
	.st143{clip-path:url(#SVGID_00000081607350892996549440000012880127870562831250_);fill:#DC3285;}
	.st144{clip-path:url(#SVGID_00000081607350892996549440000012880127870562831250_);fill:#FFFFFF;}
	.st145{clip-path:url(#SVGID_00000081607350892996549440000012880127870562831250_);fill:#333333;}
	.st146{clip-path:url(#SVGID_00000008148446333503696910000014838103094146220683_);fill:#26AD35;}
	.st147{clip-path:url(#SVGID_00000008148446333503696910000014838103094146220683_);fill:#6AD542;}
	.st148{clip-path:url(#SVGID_00000008148446333503696910000014838103094146220683_);fill:#56BE2F;}
	.st149{clip-path:url(#SVGID_00000165211072661233399460000008400695917465527998_);fill:#45A840;}
	.st150{clip-path:url(#SVGID_00000165211072661233399460000008400695917465527998_);fill:#56BE2F;}
	.st151{clip-path:url(#SVGID_00000025414242524476599950000013103938418816085389_);fill:#45A840;}
	.st152{clip-path:url(#SVGID_00000025414242524476599950000013103938418816085389_);fill:#56BE2F;}
	.st153{clip-path:url(#SVGID_00000119837507525678749100000010291861863233037711_);fill:#6AD542;}
	.st154{opacity:0.7;clip-path:url(#SVGID_00000119837507525678749100000010291861863233037711_);}
	.st155{clip-path:url(#SVGID_00000114782221483052069310000002895948745409460106_);fill:#3E8913;}
	.st156{clip-path:url(#SVGID_00000114782221483052069310000002895948745409460106_);fill:#6AD542;}
	.st157{clip-path:url(#SVGID_00000070806778712765098300000016679091925972983988_);fill:#29BD3A;}
	.st158{clip-path:url(#SVGID_00000070806778712765098300000016679091925972983988_);fill:#6AD542;}
	.st159{clip-path:url(#SVGID_00000133526510861805039290000002432381307159286200_);fill:#6AD542;}
	.st160{opacity:0.7;clip-path:url(#SVGID_00000133526510861805039290000002432381307159286200_);}
	.st161{clip-path:url(#SVGID_00000125561267370474414090000017137802609006666895_);fill:#6AD542;}
	.st162{opacity:0.56;clip-path:url(#SVGID_00000125561267370474414090000017137802609006666895_);fill:#26AD35;}
	.st163{clip-path:url(#SVGID_00000110445670852995866190000008724735507870001559_);fill:#45A840;}
	.st164{clip-path:url(#SVGID_00000110445670852995866190000008724735507870001559_);fill:#56BE2F;}
	.st165{clip-path:url(#SVGID_00000003079406382157416690000008390582037827275915_);fill:#3E8913;}
	.st166{clip-path:url(#SVGID_00000003079406382157416690000008390582037827275915_);fill:#6AD542;}
	.st167{clip-path:url(#SVGID_00000161631787629708412150000016103767120717568415_);fill:#29BD3A;}
	.st168{clip-path:url(#SVGID_00000161631787629708412150000016103767120717568415_);fill:#6AD542;}
	.st169{clip-path:url(#SVGID_00000059287357338063423640000001547182639021947274_);fill:#6AD542;}
	.st170{opacity:0.7;clip-path:url(#SVGID_00000059287357338063423640000001547182639021947274_);}
	.st171{opacity:0.28;fill:url(#SVGID_00000142868172313712630420000005990593236874427310_);}
	.st172{opacity:0.7;fill:url(#SVGID_00000132085769344319904430000009264231641842371764_);}
	.st173{clip-path:url(#SVGID_00000110457856099941223330000013038735345459677576_);}
	.st174{clip-path:url(#SVGID_00000181073682742635400160000006224432929488111777_);}
	.st175{clip-path:url(#SVGID_00000057827325897783021410000017246111415478347145_);fill:#FFFFFF;}
	.st176{clip-path:url(#SVGID_00000057827325897783021410000017246111415478347145_);}
	.st177{clip-path:url(#SVGID_00000111871348080395327500000016641065211951393433_);fill:#333333;}
	.st178{clip-path:url(#SVGID_00000111871348080395327500000016641065211951393433_);fill:#FFCD55;}
	.st179{clip-path:url(#SVGID_00000111871348080395327500000016641065211951393433_);}
	.st180{clip-path:url(#SVGID_00000150097491100651382040000017930412686995526785_);}
	.st181{fill:url(#SVGID_00000021090307335465531290000001357743709695061414_);}
	.st182{clip-path:url(#SVGID_00000150097491100651382040000017930412686995526785_);fill:#FFA002;}
	.st183{fill:url(#SVGID_00000176020715711277723230000009992088165981126575_);}
	.st184{clip-path:url(#SVGID_00000023996497297798248840000004361376376242946730_);fill:#8BE04A;}
	
		.st185{opacity:0.55;clip-path:url(#SVGID_00000023996497297798248840000004361376376242946730_);fill:url(#SVGID_00000009559443601490102700000000157957247307794618_);}
	.st186{fill:#009245;}
	.st187{clip-path:url(#SVGID_00000142148971045300199360000017162528113041718437_);}
	.st188{fill:none;stroke:#FFFFFF;stroke-width:27;stroke-linecap:round;stroke-miterlimit:10;}
	.st189{fill:none;stroke:#2CAF4B;stroke-width:61;stroke-linecap:round;stroke-linejoin:round;stroke-miterlimit:10;}
	.st190{fill:none;stroke:#DC3285;stroke-width:13;stroke-linecap:round;stroke-linejoin:round;stroke-miterlimit:10;}
	.st191{fill:#2CAF4B;}
	.st192{opacity:0.1;}
	.st193{fill:#151814;}
	.st194{fill:none;stroke:#DC3285;stroke-width:30;stroke-miterlimit:10;}
	.st195{fill:#DC3285;stroke:#E567A5;stroke-width:6;stroke-miterlimit:10;}
	.st196{fill:#282560;}
	.st197{fill:url(#SVGID_00000007388163093414168950000003340291104917554324_);}
	.st198{fill:url(#SVGID_00000137822129496969090120000001608517606112872381_);}
	.st199{clip-path:url(#SVGID_00000152257832353955254820000008378982420494841023_);}
	.st200{clip-path:url(#SVGID_00000176722626477375018140000018013289948809711508_);}
	.st201{clip-path:url(#SVGID_00000083089702267507293060000011675729257339491507_);}
	.st202{fill:#006600;}
	.st203{opacity:0.77;}
	.st204{clip-path:url(#SVGID_00000168797466982964468010000001909562322553000861_);}
	.st205{clip-path:url(#SVGID_00000125600441245271047400000002887169697798260408_);}
	.st206{clip-path:url(#SVGID_00000155848059516332194180000005036478063703055807_);}
	.st207{clip-path:url(#SVGID_00000065040001238755064620000006523133207810209168_);}
	.st208{clip-path:url(#SVGID_00000142153573910555110640000008895509033630401421_);}
	.st209{clip-path:url(#SVGID_00000129196710773412377510000002605267490821889179_);}
	.st210{clip-path:url(#SVGID_00000010991105766419527700000012802870615518726826_);}
	.st211{clip-path:url(#SVGID_00000107587436341691786910000002242381861411023507_);}
	.st212{clip-path:url(#SVGID_00000102537843169935797030000002192584692597426611_);}
	.st213{clip-path:url(#SVGID_00000130608349604215290970000014272598274934316705_);}
	.st214{clip-path:url(#SVGID_00000066511078221446855370000003860646379668380581_);}
	.st215{clip-path:url(#SVGID_00000164472370981741424010000000712968417982592916_);fill:#FFFFFF;}
	.st216{opacity:0.64;clip-path:url(#SVGID_00000100380054101729852440000003798286979067871135_);fill:#FFFFFF;}
	.st217{opacity:0.61;clip-path:url(#SVGID_00000093863943530636818360000008560282672375003570_);fill:#FFFFFF;}
	.st218{opacity:0.43;}
	.st219{fill:#4D4D4D;}
	.st220{fill:#3B3B3B;}
	.st221{clip-path:url(#SVGID_00000176001937542994471650000004399546679851749773_);fill:#DC3285;}
	.st222{clip-path:url(#SVGID_00000176001937542994471650000004399546679851749773_);fill:#FFFFFF;}
	.st223{clip-path:url(#SVGID_00000176001937542994471650000004399546679851749773_);fill:#333333;}
	.st224{clip-path:url(#SVGID_00000050626896437936005220000015486960216599540139_);fill:#DC3285;}
	.st225{clip-path:url(#SVGID_00000050626896437936005220000015486960216599540139_);fill:#FFFFFF;}
	.st226{clip-path:url(#SVGID_00000050626896437936005220000015486960216599540139_);fill:#333333;}
	.st227{fill:#26AD35;}
	.st228{fill:#45A840;}
	.st229{opacity:0.56;fill:#26AD35;}
	.st230{opacity:0.42;}
	.st231{fill:#292929;}
	.st232{opacity:0.15;}
	.st233{clip-path:url(#SVGID_00000062889445758727702080000012234541089794930056_);}
	.st234{clip-path:url(#SVGID_00000013189175736347114930000008664511597000249783_);}
	.st235{clip-path:url(#SVGID_00000047042421199550771130000014094105622467580844_);}
	.st236{clip-path:url(#SVGID_00000043435832805330284240000016858389667768651140_);}
	.st237{clip-path:url(#SVGID_00000179624604352326085490000001847199099191970471_);}
	.st238{clip-path:url(#SVGID_00000031194880112706660140000007209461060351533708_);}
	.st239{clip-path:url(#SVGID_00000024699952040764456280000009381743309430025886_);}
	.st240{clip-path:url(#SVGID_00000155841311860601552060000002619868106340938635_);}
	.st241{clip-path:url(#SVGID_00000096059019997651967970000000314492072497619590_);}
	.st242{clip-path:url(#SVGID_00000178192859604874267680000011575084308447696019_);}
	.st243{clip-path:url(#SVGID_00000038371849904401016930000010198381990279715499_);}
	.st244{clip-path:url(#SVGID_00000013885537639683439040000015874729736287850147_);}
	.st245{clip-path:url(#SVGID_00000145766984517326586140000001662020956600603322_);}
	.st246{clip-path:url(#SVGID_00000093898127352856593830000018246548353510846899_);}
	.st247{clip-path:url(#SVGID_00000153705408673788762290000005323402248754070703_);}
	.st248{clip-path:url(#SVGID_00000017496052090907034960000006647846155317922459_);}
	.st249{clip-path:url(#SVGID_00000016795502462235867380000004457277754855102357_);}
	.st250{clip-path:url(#SVGID_00000068659186280335872710000014309218970549959089_);}
	.st251{clip-path:url(#SVGID_00000043435938177794548190000016193899911365551539_);}
	.st252{clip-path:url(#SVGID_00000167381393999603552950000001922554108104291721_);}
	.st253{clip-path:url(#SVGID_00000004522237035459306030000012150888579091354528_);}
	.st254{clip-path:url(#SVGID_00000076603021924414857150000009518082481015882167_);}
	.st255{clip-path:url(#SVGID_00000154423668717206632120000015068718319114060711_);}
	.st256{clip-path:url(#SVGID_00000120556231121970124290000001889152592078446525_);}
	.st257{clip-path:url(#SVGID_00000124878970610652178020000015467828848998887314_);}
	.st258{clip-path:url(#SVGID_00000111188243932535475370000002613305740611698869_);}
	.st259{clip-path:url(#SVGID_00000052815104289387894740000003017530554607431837_);}
	.st260{clip-path:url(#SVGID_00000058547059556911704430000014256232402166280867_);}
	.st261{clip-path:url(#SVGID_00000014601199272466031510000003681745362056949936_);}
	.st262{clip-path:url(#SVGID_00000050628047325461700000000009051181227388663955_);}
	.st263{clip-path:url(#SVGID_00000021836056364079268730000008135302354569650324_);}
	.st264{clip-path:url(#SVGID_00000033331941058148009280000010149581942886640016_);}
	.st265{clip-path:url(#SVGID_00000175299837481016393840000006281347680004969143_);}
	.st266{clip-path:url(#SVGID_00000152955839941785889470000013134253993794051465_);}
	.st267{clip-path:url(#SVGID_00000145043899973007031030000000667482583257078694_);}
	.st268{clip-path:url(#SVGID_00000100365930990146509240000013702359579801518756_);}
	.st269{clip-path:url(#SVGID_00000047018959935155107510000004413801584186955426_);}
	.st270{clip-path:url(#SVGID_00000168095490895799605080000004665800194201091728_);}
	.st271{clip-path:url(#SVGID_00000028324746422438051820000012487754602071500978_);}
	.st272{clip-path:url(#SVGID_00000137106913987167443610000007720470398609881765_);}
	.st273{clip-path:url(#SVGID_00000125571641623234001980000010171909194253829565_);}
	.st274{clip-path:url(#SVGID_00000029761313597866090530000014550700522302494646_);}
	.st275{clip-path:url(#SVGID_00000023988369112040800170000009580211578504143765_);}
	.st276{clip-path:url(#SVGID_00000002354043866021685380000007741283620712608924_);}
	.st277{clip-path:url(#SVGID_00000159444066381006995890000013722154983674924720_);}
	.st278{clip-path:url(#SVGID_00000127766975983152934680000001559787469367632802_);}
	.st279{clip-path:url(#SVGID_00000114766137792871905030000013120201778971318413_);}
	.st280{clip-path:url(#SVGID_00000036237336895620760470000004394137308053137801_);}
	.st281{clip-path:url(#SVGID_00000085230983215133085760000009931279136745353365_);}
	.st282{clip-path:url(#SVGID_00000125598459065857613080000009853433160770529664_);}
	.st283{clip-path:url(#SVGID_00000070813794449371829900000002491226810057757110_);}
	.st284{clip-path:url(#SVGID_00000130610368497440228210000001459356113217005728_);}
	.st285{clip-path:url(#SVGID_00000127752499606935938180000005793342159152454027_);}
	.st286{clip-path:url(#SVGID_00000001627576776518113610000007908088933035794875_);}
	.st287{clip-path:url(#SVGID_00000026142744655255140260000008867809108921585833_);}
	.st288{clip-path:url(#SVGID_00000129189102400984890460000006803187269702422201_);}
	.st289{clip-path:url(#SVGID_00000096759014279849377500000018042552270297348776_);}
	.st290{clip-path:url(#SVGID_00000057855363839108175970000016034014264272487824_);}
	.st291{clip-path:url(#SVGID_00000062151481660696403210000010065741977848341120_);}
	.st292{clip-path:url(#SVGID_00000090296126413960395900000012195375624087533191_);}
	.st293{clip-path:url(#SVGID_00000049224225641846300540000017799407596513072275_);}
	.st294{clip-path:url(#SVGID_00000163786485693715432480000009099054602801840271_);}
	.st295{clip-path:url(#SVGID_00000084499953238320023680000015552765866777428914_);}
	.st296{clip-path:url(#SVGID_00000075147793043079589120000014276115361079311507_);}
	.st297{clip-path:url(#SVGID_00000150080335217905874360000006448043561582240402_);}
	.st298{clip-path:url(#SVGID_00000085251897981709498110000005286683508579532457_);}
	.st299{clip-path:url(#SVGID_00000007429189731628314480000011865673713824819329_);}
	.st300{clip-path:url(#SVGID_00000041979336902944885830000006581398824320121788_);}
	.st301{clip-path:url(#SVGID_00000064330457919220195750000003780176149724969384_);}
	.st302{clip-path:url(#SVGID_00000141457884127307781020000011080362678090794671_);}
	.st303{clip-path:url(#SVGID_00000121980158464839616790000014672817237138263953_);}
	.st304{clip-path:url(#SVGID_00000015346316313029091000000014739913107856852399_);}
	.st305{clip-path:url(#SVGID_00000029726702942631897140000000369645615162335140_);}
	.st306{clip-path:url(#SVGID_00000059289326451088612820000002679123600736507272_);}
	.st307{clip-path:url(#SVGID_00000085249665218028255040000017538618111811363722_);}
	.st308{clip-path:url(#SVGID_00000141433681473010068730000002763709952580739747_);}
	.st309{clip-path:url(#SVGID_00000008112175434441465070000005476003803446074501_);}
	.st310{clip-path:url(#SVGID_00000012461025395113047540000014159255635285024920_);}
	.st311{clip-path:url(#SVGID_00000032644871417622987160000005959660104410863544_);}
	.st312{clip-path:url(#SVGID_00000160155475944959866410000013346412509755770541_);}
	.st313{clip-path:url(#SVGID_00000042724817233476653900000006346220390383876029_);}
	.st314{clip-path:url(#SVGID_00000038374898704879648070000006095369617369789321_);}
	.st315{fill:#54BA2E;}
	.st316{fill:#008DF2;}
	.st317{opacity:0.76;}
	.st318{clip-path:url(#SVGID_00000049220543150286158540000006949148450099297164_);fill:#0088C7;}
	.st319{clip-path:url(#SVGID_00000049220543150286158540000006949148450099297164_);fill:#0189C8;}
	.st320{clip-path:url(#SVGID_00000049220543150286158540000006949148450099297164_);fill:#028AC9;}
	.st321{clip-path:url(#SVGID_00000049220543150286158540000006949148450099297164_);fill:#048BC9;}
	.st322{clip-path:url(#SVGID_00000049220543150286158540000006949148450099297164_);fill:#058CCA;}
	.st323{clip-path:url(#SVGID_00000049220543150286158540000006949148450099297164_);fill:#068DCB;}
	.st324{clip-path:url(#SVGID_00000049220543150286158540000006949148450099297164_);fill:#078FCC;}
	.st325{clip-path:url(#SVGID_00000049220543150286158540000006949148450099297164_);fill:#0890CC;}
	.st326{clip-path:url(#SVGID_00000049220543150286158540000006949148450099297164_);fill:#0991CD;}
	.st327{clip-path:url(#SVGID_00000049220543150286158540000006949148450099297164_);fill:#0B92CE;}
	.st328{clip-path:url(#SVGID_00000049220543150286158540000006949148450099297164_);fill:#0C93CF;}
	.st329{clip-path:url(#SVGID_00000049220543150286158540000006949148450099297164_);fill:#0D94D0;}
	.st330{clip-path:url(#SVGID_00000049220543150286158540000006949148450099297164_);fill:#0E95D0;}
	.st331{clip-path:url(#SVGID_00000049220543150286158540000006949148450099297164_);fill:#0F96D1;}
	.st332{clip-path:url(#SVGID_00000049220543150286158540000006949148450099297164_);fill:#1097D2;}
	.st333{clip-path:url(#SVGID_00000049220543150286158540000006949148450099297164_);fill:#1198D3;}
	.st334{clip-path:url(#SVGID_00000049220543150286158540000006949148450099297164_);fill:#1399D3;}
	.st335{clip-path:url(#SVGID_00000049220543150286158540000006949148450099297164_);fill:#149AD4;}
	.st336{clip-path:url(#SVGID_00000049220543150286158540000006949148450099297164_);fill:#159BD5;}
	.st337{clip-path:url(#SVGID_00000049220543150286158540000006949148450099297164_);fill:#169CD6;}
	.st338{clip-path:url(#SVGID_00000049220543150286158540000006949148450099297164_);fill:#179DD6;}
	.st339{clip-path:url(#SVGID_00000049220543150286158540000006949148450099297164_);fill:#189ED7;}
	.st340{clip-path:url(#SVGID_00000049220543150286158540000006949148450099297164_);fill:#199FD8;}
	.st341{clip-path:url(#SVGID_00000049220543150286158540000006949148450099297164_);fill:#1AA0D9;}
	.st342{clip-path:url(#SVGID_00000049220543150286158540000006949148450099297164_);fill:#1BA1D9;}
	.st343{clip-path:url(#SVGID_00000049220543150286158540000006949148450099297164_);fill:#1DA2DA;}
	.st344{clip-path:url(#SVGID_00000049220543150286158540000006949148450099297164_);fill:#1EA4DB;}
	.st345{clip-path:url(#SVGID_00000049220543150286158540000006949148450099297164_);fill:#1FA5DC;}
	.st346{clip-path:url(#SVGID_00000049220543150286158540000006949148450099297164_);fill:#20A6DC;}
	.st347{clip-path:url(#SVGID_00000049220543150286158540000006949148450099297164_);fill:#21A7DD;}
	.st348{clip-path:url(#SVGID_00000049220543150286158540000006949148450099297164_);fill:#22A8DE;}
	.st349{clip-path:url(#SVGID_00000049220543150286158540000006949148450099297164_);fill:#23A9DE;}
	.st350{clip-path:url(#SVGID_00000049220543150286158540000006949148450099297164_);fill:#24AADF;}
	.st351{clip-path:url(#SVGID_00000049220543150286158540000006949148450099297164_);fill:#25ABE0;}
	.st352{clip-path:url(#SVGID_00000049220543150286158540000006949148450099297164_);fill:#26ABE1;}
	.st353{clip-path:url(#SVGID_00000049220543150286158540000006949148450099297164_);fill:#27ACE1;}
	.st354{clip-path:url(#SVGID_00000049220543150286158540000006949148450099297164_);fill:#28ADE2;}
	.st355{clip-path:url(#SVGID_00000049220543150286158540000006949148450099297164_);fill:#29AEE3;}
	.st356{clip-path:url(#SVGID_00000049220543150286158540000006949148450099297164_);fill:#2AAFE3;}
	.st357{clip-path:url(#SVGID_00000049220543150286158540000006949148450099297164_);fill:#2BB0E4;}
	.st358{clip-path:url(#SVGID_00000049220543150286158540000006949148450099297164_);fill:#2CB1E5;}
	.st359{clip-path:url(#SVGID_00000049220543150286158540000006949148450099297164_);fill:#2EB2E5;}
	.st360{clip-path:url(#SVGID_00000049220543150286158540000006949148450099297164_);fill:#2FB3E6;}
	.st361{clip-path:url(#SVGID_00000049220543150286158540000006949148450099297164_);fill:#30B4E7;}
	.st362{clip-path:url(#SVGID_00000049220543150286158540000006949148450099297164_);fill:#31B5E7;}
	.st363{clip-path:url(#SVGID_00000049220543150286158540000006949148450099297164_);fill:#32B6E8;}
	.st364{clip-path:url(#SVGID_00000049220543150286158540000006949148450099297164_);fill:#32B7E9;}
	.st365{clip-path:url(#SVGID_00000049220543150286158540000006949148450099297164_);fill:#33B8E9;}
	.st366{clip-path:url(#SVGID_00000049220543150286158540000006949148450099297164_);fill:#34B9EA;}
	.st367{clip-path:url(#SVGID_00000049220543150286158540000006949148450099297164_);fill:#35BAEB;}
	.st368{clip-path:url(#SVGID_00000049220543150286158540000006949148450099297164_);fill:#36BAEB;}
	.st369{clip-path:url(#SVGID_00000049220543150286158540000006949148450099297164_);fill:#37BBEC;}
	.st370{clip-path:url(#SVGID_00000049220543150286158540000006949148450099297164_);fill:#38BCEC;}
	.st371{clip-path:url(#SVGID_00000049220543150286158540000006949148450099297164_);fill:#39BDED;}
	.st372{clip-path:url(#SVGID_00000049220543150286158540000006949148450099297164_);fill:#3ABEEE;}
	.st373{clip-path:url(#SVGID_00000049220543150286158540000006949148450099297164_);fill:#3BBFEE;}
	.st374{clip-path:url(#SVGID_00000049220543150286158540000006949148450099297164_);fill:#3CC0EF;}
	.st375{clip-path:url(#SVGID_00000049220543150286158540000006949148450099297164_);fill:#3DC0F0;}
	.st376{clip-path:url(#SVGID_00000049220543150286158540000006949148450099297164_);fill:#3EC1F0;}
	.st377{clip-path:url(#SVGID_00000049220543150286158540000006949148450099297164_);fill:#3EC2F1;}
	.st378{clip-path:url(#SVGID_00000049220543150286158540000006949148450099297164_);fill:#3FC3F1;}
	.st379{clip-path:url(#SVGID_00000049220543150286158540000006949148450099297164_);fill:#40C3F2;}
	.st380{clip-path:url(#SVGID_00000049220543150286158540000006949148450099297164_);fill:#41C4F2;}
	.st381{clip-path:url(#SVGID_00000049220543150286158540000006949148450099297164_);fill:#42C5F3;}
	.st382{clip-path:url(#SVGID_00000049220543150286158540000006949148450099297164_);fill:#42C6F3;}
	.st383{clip-path:url(#SVGID_00000049220543150286158540000006949148450099297164_);fill:#43C6F4;}
	.st384{clip-path:url(#SVGID_00000049220543150286158540000006949148450099297164_);fill:#44C7F4;}
	.st385{clip-path:url(#SVGID_00000049220543150286158540000006949148450099297164_);fill:#44C8F5;}
	.st386{clip-path:url(#SVGID_00000049220543150286158540000006949148450099297164_);fill:#45C8F5;}
	.st387{fill:url(#SVGID_00000005955288805020182340000009303850495178979994_);}
	.st388{fill:url(#SVGID_00000003805805686038304780000002453104417957412483_);}
	.st389{fill:url(#SVGID_00000104677675590848790450000004121154775800719291_);}
	.st390{fill:url(#SVGID_00000051345932464770429030000014602615621524652714_);}
	.st391{fill:#FF7FC8;}
	.st392{clip-path:url(#SVGID_00000049205831170541507400000004620970699476852924_);fill:#333333;}
	.st393{clip-path:url(#SVGID_00000049205831170541507400000004620970699476852924_);fill:#FFCD55;}
	.st394{clip-path:url(#SVGID_00000049205831170541507400000004620970699476852924_);}
	.st395{fill:#73E1EF;}
	.st396{fill:#0E68A3;}
	.st397{fill:#053483;}
</style>
<g>
	<g class="st113">
		<path class="st0" d="M36.03,83.57c-0.59-0.3-1.22-0.54-1.83-0.8c0.01-0.02,0.02-0.05,0.04-0.06c0.06-0.04,0.12-0.08,0.18-0.1
			c3.29-0.92,5.12-3.2,5.33-6.47c0.23-3.42,0.29-6.89-0.08-10.28c-0.44-4.01-2.92-6.66-6.85-7.74c-1.31-0.36-2.7-0.53-4.05-0.55
			c-5.14-0.06-10.27-0.03-15.41-0.02c-0.96,0-0.96,0-0.96,0.99c0,16.59,0,33.17,0,49.76c0,0.25,0.02,0.51,0.03,0.76
			c0,0.05,0,0.09-0.01,0.14c5.72,0,11.44,0,17.16,0c0.28,0,0.56,0,0.84,0c0.42-0.09,0.83-0.2,1.25-0.27c4.81-0.8,7.97-3.96,8.35-8.8
			c0.26-3.28,0.21-6.59,0.09-9.88C40,87.34,38.74,84.96,36.03,83.57z M22.92,65.47c1.46,0.04,2.92,0,4.39,0.02
			c2.08,0.02,3.27,1.03,3.35,3.1c0.1,2.53,0.1,5.06,0,7.58c-0.09,2.27-1.43,3.44-3.7,3.45c-1.51,0.01-3.02,0-4.53-0.01
			c-0.07,0-0.13-0.03-0.27-0.06c-0.01-0.23-0.04-0.48-0.04-0.73c0-4.18,0.01-8.35-0.02-12.53C22.09,65.64,22.28,65.45,22.92,65.47z
			 M30.81,98.15c-0.05,2.01-1.2,3.07-3.2,3.08c-1.63,0.01-3.25-0.01-4.88,0.01c-0.42,0-0.63-0.09-0.63-0.57
			c0.01-4.48,0.01-8.97,0.01-13.45c0-0.14,0.04-0.27,0.07-0.49c1.03,0,2.04,0,3.06,0c0.63,0,1.26,0,1.88,0
			c2.25,0.01,3.62,1.23,3.68,3.48C30.88,92.86,30.87,95.51,30.81,98.15z"/>
		<path class="st0" d="M20.38,51.58c3.28,0,6.47,0,9.69,0c0-17.2,0-34.34,0-51.52c-3.24,0-6.43,0-9.69,0c0,7.26,0,14.48,0,21.73
			c-3.61,0-7.15,0-10.77,0c0-7.27,0-14.49,0-21.77c-3.25,0-6.43,0-9.61,0c0,17.2,0,34.4,0,51.6c3.19,0,6.39,0,9.65,0
			c0-7.09,0-14.07,0-21.09c3.59,0,7.12,0,10.73,0C20.38,37.57,20.38,44.57,20.38,51.58z"/>
		<path class="st0" d="M114.38,58.61c0-0.32,0-0.64,0-1.02c-3.23,0-6.4,0-9.63,0c0,0.35,0,0.65,0,0.95c0,16.59,0,33.17,0,49.76
			c0,0.3,0.01,0.6,0.02,0.91c3.21,0,6.42,0,9.63,0c-0.01-0.25-0.02-0.51-0.02-0.76C114.38,91.83,114.38,75.22,114.38,58.61z"/>
		<path class="st0" d="M96.52,95.74c-0.11-0.71-0.37-0.94-1.11-0.93c-3.72,0.04-7.44,0.04-11.16,0c-0.69-0.01-0.97,0.2-1.08,0.89
			c-0.47,2.75-1,5.48-1.49,8.23c-0.31,1.76-0.6,3.52-0.89,5.28c6,0,12,0,18,0c-0.05-0.23-0.1-0.45-0.14-0.68
			C97.93,104.26,97.2,100,96.52,95.74z"/>
		<path class="st0" d="M150.94,109.06c0.01-0.12,0.02-0.23,0.02-0.35c0-16.82,0-33.65,0-50.47c0-0.2-0.03-0.41-0.04-0.63
			c-2.89,0-5.73,0-8.63,0c0,10.07,0,20.07,0,30.07c-0.23-0.16-0.32-0.36-0.41-0.55c-4.08-9.64-8.17-19.28-12.23-28.93
			c-0.22-0.53-0.51-0.67-1.05-0.66c-2.21,0.03-4.42,0.01-6.63,0.01c-0.98,0-0.98,0-0.98,0.98c0,16.64,0,33.28,0,49.92
			c0,0.25-0.01,0.51-0.02,0.76c2.98,0,5.95,0,8.93,0c0-9.92,0-19.84,0-29.77c0.03-0.01,0.07-0.02,0.1-0.03
			c4.49,9.88,8.98,19.77,13.47,29.65c-0.01,0.05-0.02,0.1-0.03,0.15c2.51,0,5.02,0,7.53,0
			C150.95,109.16,150.94,109.11,150.94,109.06L150.94,109.06z"/>
		<path class="st0" d="M163.35,0.06c0,10.07,0,20.1,0,30.13c-0.2-0.21-0.29-0.42-0.38-0.63c-4.06-9.6-8.13-19.2-12.17-28.8
			c-0.23-0.56-0.51-0.76-1.12-0.75c-2.25,0.04-4.51,0.01-6.77,0.02c-0.24,0-0.49,0.02-0.77,0.03c0,2.5,0,4.92,0,7.33
			c-0.32,0.05-0.63,0.13-0.95,0.13c-5.63,0.01-11.25,0.01-16.87,0.01c-0.97,0-0.97,0-0.97,0.94c0,4.11,0,8.22,0,12.34
			c0,0.96,0,0.97,0.94,0.97c3.28,0,6.55,0.01,9.83-0.01c0.59,0,0.81,0.13,0.8,0.77c-0.04,2.28-0.04,4.55,0,6.83
			c0.01,0.67-0.23,0.81-0.84,0.81c-3.25-0.02-6.51-0.01-9.76-0.01c-0.97,0-0.97,0-0.97,0.94c0,4.69,0,9.39,0,14.08
			c0,0.97,0,0.97,1.01,0.97c5.58,0,11.16,0,16.74,0c0.35,0,0.69,0.03,1.04,0.05c0,1.78,0,3.56,0,5.38c2.99,0,5.87,0,8.85,0
			c0-9.95,0-19.84,0-29.74c0.23,0.19,0.33,0.39,0.42,0.59c4.29,9.5,8.59,19,12.86,28.5c0.23,0.52,0.51,0.71,1.09,0.7
			c1.79-0.04,3.58-0.01,5.37-0.01c0.41,0,0.82,0,1.24,0c0-17.26,0-34.42,0-51.58C169.09,0.06,166.27,0.06,163.35,0.06z"/>
		<path class="st0" d="M80.91,14.93c0-1.04-0.02-2.09-0.14-3.13c-0.42-3.63-1.85-6.75-4.81-9.02c-2.55-1.96-5.51-2.73-8.68-2.76
			c-4.25-0.03-8.51-0.01-12.77-0.01c-0.84,0-1.67,0-2.57,0c0,17.25,0,34.4,0,51.58c0.19,0.02,0.33,0.04,0.47,0.04
			c4.93,0,9.86,0.02,14.79-0.01c2.93-0.02,5.74-0.59,8.24-2.21c3.82-2.48,5.38-6.21,5.44-10.57C80.97,30.88,80.92,22.9,80.91,14.93z
			 M71.18,15.68c-0.01,7.55-0.01,15.1-0.03,22.65c0,0.55-0.12,1.11-0.25,1.65c-0.45,1.81-1.6,3.02-3.44,3.19
			c-1.93,0.18-3.89,0.04-5.9,0.04c0-11.58,0-23.17,0-34.79c0.12-0.03,0.22-0.09,0.33-0.09c1.53,0,3.07-0.06,4.6,0.04
			c3.02,0.2,4.52,1.78,4.67,4.81C71.19,14.01,71.18,14.84,71.18,15.68z"/>
		<path class="st0" d="M114.82,12.36c-0.33-3.73-1.66-6.99-4.65-9.41c-2.5-2.03-5.45-2.89-8.62-2.93
			c-4.97-0.06-9.95-0.02-14.92-0.02c-0.21,0-0.41,0-0.7,0c0,17.25,0,34.4,0,51.58c0.26,0.02,0.47,0.04,0.67,0.04
			c4.79,0,9.58,0.02,14.36-0.01c1.13-0.01,2.28-0.1,3.39-0.3c4.07-0.73,7.28-2.73,9.14-6.54c1.01-2.06,1.37-4.28,1.37-6.56
			c0.01-7.85,0-15.71,0-23.56C114.89,13.9,114.88,13.13,114.82,12.36z M105.16,37.67c0,0.74-0.09,1.49-0.26,2.21
			c-0.45,1.98-1.83,3.22-3.85,3.36c-1.69,0.11-3.39,0.05-5.08,0.09c-0.51,0.01-0.48-0.31-0.48-0.64c0-1.97,0-3.95,0-5.92
			c0-3.65,0-7.29,0-10.94c0-5.55,0.01-11.1-0.01-16.65c0-0.65,0.14-0.9,0.84-0.87c1.44,0.07,2.88,0,4.32,0.07
			c2.51,0.13,3.99,1.48,4.39,3.94c0.09,0.57,0.14,1.16,0.14,1.73C105.18,21.92,105.18,29.79,105.16,37.67z"/>
		<path class="st0" d="M74.54,108.73c-1.93-6.04-3.86-12.07-5.8-18.11c-0.36-1.14-0.73-2.28-1.09-3.42
			c0.16-0.08,0.24-0.13,0.33-0.17c3.13-1.31,4.96-3.66,5.57-6.97c0.15-0.8,0.26-1.61,0.25-2.42c-0.02-3.65,0.1-7.31-0.18-10.93
			c-0.29-3.66-2.19-6.46-5.63-8.04c-1.74-0.8-3.59-1.11-5.49-1.12c-5.26-0.02-10.51-0.01-15.77,0c-0.23,0-0.46,0.04-0.69,0.07
			c-0.04,0.34-0.11,0.68-0.11,1.02c-0.01,16.53,0,33.07-0.01,49.6c0,0.32-0.02,0.65-0.03,0.97c3.26,0,6.51,0,9.77,0
			c0-0.05,0-0.09-0.01-0.14c0.01-0.3,0.03-0.6,0.03-0.9c0-6.22,0-12.45,0-18.67c0-0.3,0-0.59,0-0.99c0.72,0,1.37,0.03,2.01-0.01
			c0.5-0.03,0.73,0.15,0.88,0.64c1.11,3.69,2.24,7.37,3.38,11.05c0.92,2.97,1.85,5.93,2.78,8.89c-0.01,0.05-0.01,0.09,0,0.14
			c3.3,0,6.6,0,9.91,0c-0.01-0.05-0.01-0.1-0.02-0.15C74.6,108.95,74.58,108.83,74.54,108.73z M64.45,77.79
			c-0.04,2.1-1.19,3.3-3.28,3.41c-1.8,0.1-3.61,0.02-5.48,0.02c0-0.31,0-0.53,0-0.76c0-4.71,0.01-9.43-0.02-14.14
			c0-0.69,0.2-0.86,0.86-0.84c1.56,0.05,3.11,0.01,4.67,0.02c2.05,0.02,3.2,1.05,3.24,3.1C64.51,71.66,64.51,74.72,64.45,77.79z"/>
		<path class="st0" d="M46.24,0.07c-3.21,0-6.36,0-9.51,0c0,17.21,0,34.36,0,51.54c3.19,0,6.32,0,9.51,0
			C46.24,34.37,46.24,17.21,46.24,0.07z"/>
		<path class="st0" d="M90.25,62.15c-0.06,0.01-0.11,0.01-0.17,0.02c-1.62,8.47-3.23,16.94-4.86,25.48c3.16,0,6.21,0,9.36,0
			C93.13,79.11,91.69,70.63,90.25,62.15z"/>
		<path class="st0" d="M157.16,58.74c-0.32-0.41-0.62-0.8-0.92-1.18c-0.06,0.03-0.11,0.07-0.17,0.1c0,0.75,0,1.51,0,2.26
			c0.06,0,0.11,0.01,0.17,0.01c0.03-0.52,0.06-1.05,0.09-1.7c0.32,0.42,0.56,0.74,0.82,1.08c0.27-0.34,0.49-0.61,0.78-0.98
			c0.05,0.65,0.08,1.14,0.12,1.63c0.07-0.01,0.13-0.01,0.2-0.02c0-0.77,0-1.54,0-2.31c-0.06-0.02-0.12-0.05-0.18-0.07
			C157.78,57.93,157.48,58.32,157.16,58.74z"/>
		<path class="st0" d="M154.5,58.54c-0.15-0.1-0.23-0.29-0.34-0.44c0.17-0.08,0.34-0.22,0.51-0.24c0.21-0.02,0.43,0.08,0.64,0.12
			c0.02-0.1,0.04-0.2,0.05-0.31c-0.4-0.02-0.8-0.1-1.18-0.03c-0.17,0.03-0.42,0.5-0.38,0.55c0.22,0.28,0.53,0.48,0.82,0.71
			c0.03,0.03,0.1,0.02,0.13,0.05c0.13,0.16,0.25,0.32,0.38,0.48c-0.19,0.09-0.39,0.24-0.58,0.24c-0.25,0-0.49-0.14-0.88-0.26
			c0.38,0.62,0.85,0.64,1.29,0.53c0.21-0.06,0.47-0.35,0.49-0.55c0.02-0.2-0.19-0.47-0.37-0.64
			C154.94,58.62,154.67,58.65,154.5,58.54z"/>
	</g>
</g>
</svg>
