<?xml version="1.0" encoding="utf-8"?>
<!-- Generator: Adobe Illustrator 25.4.1, SVG Export Plug-In . SVG Version: 6.00 Build 0)  -->
<svg version="1.1" id="Layer_1" xmlns="http://www.w3.org/2000/svg" xmlns:xlink="http://www.w3.org/1999/xlink" x="0px" y="0px"
	 viewBox="0 0 1445.85 1122.67" style="enable-background:new 0 0 1445.85 1122.67;" xml:space="preserve">
<style type="text/css">
	.st0{fill:#FFFFFF;}
	.st1{clip-path:url(#SVGID_00000034778453371338944390000002550072243695021199_);}
	.st2{clip-path:url(#SVGID_00000165929329234602354580000011077732746154788007_);}
	.st3{fill:#FFFFFF;stroke:#FFFFFF;stroke-width:0.75;stroke-miterlimit:10;}
	.st4{opacity:0.81;}
	.st5{fill:url(#SVGID_00000067209107931011072160000009613216084741347500_);}
	.st6{opacity:0.3;}
	.st7{fill:#F2F2F2;}
	.st8{opacity:0.61;fill:#F2F2F2;}
	.st9{opacity:0.69;fill:#F2F2F2;}
	.st10{opacity:0.53;}
	.st11{opacity:0.64;fill:#F2F2F2;}
	.st12{fill:#003800;}
	.st13{fill:#DC3285;}
	.st14{fill:#A52065;}
	.st15{fill:#005700;}
	.st16{fill:#2F6E0C;}
	.st17{clip-path:url(#SVGID_00000057839071824904942780000000318534310037807775_);fill:#007400;}
	.st18{opacity:0.62;clip-path:url(#SVGID_00000057839071824904942780000000318534310037807775_);}
	.st19{fill:none;stroke:#000000;stroke-width:6;stroke-miterlimit:10;}
	.st20{fill:#007400;}
	.st21{fill:#6AD542;}
	.st22{opacity:0.77;fill:url(#);}
	.st23{opacity:0.47;}
	.st24{fill:none;stroke:#000000;stroke-width:6;stroke-linecap:round;stroke-miterlimit:10;}
	.st25{fill:none;stroke:#DC3285;stroke-width:5;stroke-linecap:round;stroke-linejoin:round;stroke-miterlimit:10;}
	.st26{clip-path:url(#SVGID_00000080205519290683533970000002762525583036372120_);fill:#FFFFFF;}
	.st27{fill:#FFA002;}
	.st28{opacity:0.64;clip-path:url(#SVGID_00000101103975738550649660000008423132554453125042_);fill:#FFFFFF;}
	.st29{opacity:0.61;clip-path:url(#SVGID_00000092456445543067303910000005211228550635218828_);fill:#FFFFFF;}
	.st30{clip-path:url(#SVGID_00000034796946944799825430000013299280673166138016_);}
	.st31{fill:#999999;}
	.st32{fill:#1A1A1A;}
	.st33{opacity:0.43;fill:#FFFFFF;}
	.st34{opacity:0.43;fill:none;stroke:#FFFFFF;stroke-width:7;stroke-linecap:round;stroke-miterlimit:10;}
	.st35{fill:#6AD542;stroke:#FFFFFF;stroke-width:7;stroke-linecap:round;stroke-miterlimit:10;}
	.st36{fill:none;stroke:#E6E6E6;stroke-width:13;stroke-linecap:round;stroke-linejoin:round;stroke-miterlimit:10;}
	.st37{clip-path:url(#SVGID_00000165235877181884617910000004575781809640078980_);}
	.st38{opacity:0.43;fill:none;stroke:#1A1A1A;stroke-width:6;stroke-miterlimit:10;}
	.st39{fill:#666666;}
	.st40{fill:none;stroke:#FFFFFF;stroke-width:13;stroke-linecap:round;stroke-linejoin:round;stroke-miterlimit:10;}
	.st41{fill:none;stroke:#FFFFFF;stroke-width:11;stroke-linecap:round;stroke-linejoin:round;stroke-miterlimit:10;}
	.st42{fill:none;stroke:#FFE500;stroke-width:10;stroke-linecap:round;stroke-miterlimit:10;}
	.st43{clip-path:url(#SVGID_00000009549089007710493460000001853726000746714298_);fill:#DC3285;}
	.st44{clip-path:url(#SVGID_00000009549089007710493460000001853726000746714298_);fill:#FFFFFF;}
	.st45{clip-path:url(#SVGID_00000009549089007710493460000001853726000746714298_);fill:#333333;}
	.st46{clip-path:url(#SVGID_00000163764084959132408700000001919435510203682197_);fill:#DC3285;}
	.st47{clip-path:url(#SVGID_00000163764084959132408700000001919435510203682197_);fill:#FFFFFF;}
	.st48{clip-path:url(#SVGID_00000163764084959132408700000001919435510203682197_);fill:#333333;}
	.st49{fill:#56BE2F;}
	.st50{opacity:0.55;}
	.st51{fill:none;stroke:#000000;stroke-width:15;stroke-linecap:round;stroke-linejoin:round;stroke-miterlimit:10;}
	.st52{fill:#5C1537;}
	.st53{clip-path:url(#SVGID_00000102538256669519179570000004804856770899448757_);fill:#26AD35;}
	.st54{clip-path:url(#SVGID_00000102538256669519179570000004804856770899448757_);fill:#6AD542;}
	.st55{clip-path:url(#SVGID_00000102538256669519179570000004804856770899448757_);fill:#56BE2F;}
	.st56{clip-path:url(#SVGID_00000104698054641349833730000005830999672986489238_);fill:#45A840;}
	.st57{clip-path:url(#SVGID_00000104698054641349833730000005830999672986489238_);fill:#56BE2F;}
	.st58{clip-path:url(#SVGID_00000007398840126070363140000011149394126340075155_);fill:#45A840;}
	.st59{clip-path:url(#SVGID_00000007398840126070363140000011149394126340075155_);fill:#56BE2F;}
	.st60{clip-path:url(#SVGID_00000108288127723299868280000010699591927024649652_);fill:#6AD542;}
	.st61{opacity:0.7;clip-path:url(#SVGID_00000108288127723299868280000010699591927024649652_);}
	.st62{fill:#27B136;}
	.st63{clip-path:url(#SVGID_00000063622424621211400830000006333248241413832348_);fill:#3E8913;}
	.st64{clip-path:url(#SVGID_00000063622424621211400830000006333248241413832348_);fill:#6AD542;}
	.st65{clip-path:url(#SVGID_00000081627606213582009570000001746942345984100768_);fill:#29BD3A;}
	.st66{clip-path:url(#SVGID_00000081627606213582009570000001746942345984100768_);fill:#6AD542;}
	.st67{clip-path:url(#SVGID_00000112629054065326627910000003820121310817564551_);fill:#6AD542;}
	.st68{opacity:0.7;clip-path:url(#SVGID_00000112629054065326627910000003820121310817564551_);}
	.st69{clip-path:url(#SVGID_00000114752513229193688260000002192962392647723193_);fill:#6AD542;}
	.st70{opacity:0.56;clip-path:url(#SVGID_00000114752513229193688260000002192962392647723193_);fill:#26AD35;}
	.st71{clip-path:url(#SVGID_00000092446557910411118850000018407333850584749463_);fill:#45A840;}
	.st72{clip-path:url(#SVGID_00000092446557910411118850000018407333850584749463_);fill:#56BE2F;}
	.st73{fill:#333333;}
	.st74{opacity:0.42;fill:#292929;}
	.st75{opacity:0.15;fill:url(#);}
	.st76{clip-path:url(#SVGID_00000050638875169617939970000018071776205108027293_);fill:#3E8913;}
	.st77{clip-path:url(#SVGID_00000050638875169617939970000018071776205108027293_);fill:#6AD542;}
	.st78{fill:none;stroke:#000000;stroke-width:4;stroke-miterlimit:10;}
	.st79{fill:#00ADEE;}
	.st80{fill:#FFE500;}
	.st81{opacity:0.66;fill:#FFA002;}
	.st82{clip-path:url(#SVGID_00000134248758934972590800000013252861113835400624_);fill:#29BD3A;}
	.st83{clip-path:url(#SVGID_00000134248758934972590800000013252861113835400624_);fill:#6AD542;}
	.st84{fill:#00CCFF;}
	.st85{fill:#29BD3A;}
	.st86{fill:#FFD900;}
	.st87{fill:#EB8AB9;}
	.st88{opacity:0.78;fill:#E04B94;}
	.st89{clip-path:url(#SVGID_00000146458871363270647540000001794970971014448293_);fill:#6AD542;}
	.st90{opacity:0.7;clip-path:url(#SVGID_00000146458871363270647540000001794970971014448293_);}
	.st91{fill:#8BE04A;}
	.st92{opacity:0.28;fill:url(#SVGID_00000127009703204975846980000013833915114270437304_);}
	.st93{opacity:0.7;fill:url(#SVGID_00000019657226601401738130000014447616050660151743_);}
	.st94{clip-path:url(#SVGID_00000122691509358352761950000000377769450427990459_);fill:#DC3285;}
	.st95{clip-path:url(#SVGID_00000122691509358352761950000000377769450427990459_);fill:#FFCD55;}
	.st96{clip-path:url(#SVGID_00000122691509358352761950000000377769450427990459_);fill:#45C8F5;}
	.st97{clip-path:url(#SVGID_00000067946089172207013140000018040131974819383734_);fill:#FFFFFF;}
	.st98{clip-path:url(#SVGID_00000067946089172207013140000018040131974819383734_);}
	.st99{clip-path:url(#SVGID_00000157301626935050536990000015196972367925105327_);fill:#333333;}
	.st100{clip-path:url(#SVGID_00000157301626935050536990000015196972367925105327_);fill:#FFCD55;}
	.st101{clip-path:url(#SVGID_00000157301626935050536990000015196972367925105327_);}
	.st102{fill:#E6E6E6;}
	.st103{fill:#FFCD55;}
	.st104{opacity:0.73;fill:#FFFFFF;}
	.st105{opacity:0.73;fill:none;stroke:#FFFFFF;stroke-width:29;stroke-linecap:round;stroke-miterlimit:10;}
	.st106{opacity:0.26;fill:#FFFFFF;}
	.st107{opacity:0.26;fill:none;stroke:#FFFFFF;stroke-width:29;stroke-linecap:round;stroke-miterlimit:10;}
	.st108{fill:#45C8F5;}
	.st109{fill:#231F20;}
	.st110{clip-path:url(#SVGID_00000155135117354812701190000004370681016354769334_);}
	.st111{fill:url(#SVGID_00000060725254000386234880000016240533049696052381_);}
	.st112{clip-path:url(#SVGID_00000155135117354812701190000004370681016354769334_);fill:#FFA002;}
	.st113{opacity:0.5;}
	.st114{fill:none;}
	.st115{fill:#CCCCCC;}
	.st116{fill:#B3B3B3;}
	.st117{fill:none;stroke:#FFE500;stroke-width:7;stroke-linecap:round;stroke-miterlimit:10;}
	.st118{fill:none;stroke:#FFE500;stroke-width:7;stroke-linecap:round;stroke-miterlimit:10;stroke-dasharray:10.0084,20.0167;}
	.st119{fill:url(#SVGID_00000174582760082041400320000007914262296630415015_);}
	.st120{opacity:0.7;fill:#B3B3B3;}
	.st121{fill:url(#SVGID_00000052810349034896047940000006078022989080341924_);}
	.st122{clip-path:url(#SVGID_00000181797790412137411170000001732915074370402705_);fill:#8BE04A;}
	
		.st123{opacity:0.55;clip-path:url(#SVGID_00000181797790412137411170000001732915074370402705_);fill:url(#SVGID_00000114040568193221098500000009535619655101426849_);}
	.st124{fill:#E567A5;}
	.st125{fill:url(#SVGID_00000113337652375893910700000016060343110571705509_);}
	.st126{fill:#00ACD6;}
	.st127{fill:#9E005D;}
	.st128{fill:url(#SVGID_00000135684187141423716250000010904082501393692854_);}
	.st129{fill:none;stroke:#FFCD55;stroke-width:5;stroke-linecap:round;stroke-miterlimit:10;}
	.st130{fill:none;stroke:#FFCD55;stroke-width:5;stroke-linecap:round;stroke-miterlimit:10;stroke-dasharray:9.3355,18.6709;}
	.st131{fill:url(#SVGID_00000088853898571257660400000005319599761098631081_);}
	.st132{fill:url(#SVGID_00000109740334472699706920000008887226320164518326_);}
	.st133{clip-path:url(#SVGID_00000096046211337772527080000006535414600212343231_);fill:#007400;}
	.st134{opacity:0.62;clip-path:url(#SVGID_00000096046211337772527080000006535414600212343231_);}
	.st135{clip-path:url(#SVGID_00000016759316554366016280000013086852066253914764_);fill:#FFFFFF;}
	.st136{opacity:0.64;clip-path:url(#SVGID_00000111175971319139351970000008009106774762524564_);fill:#FFFFFF;}
	.st137{opacity:0.61;clip-path:url(#SVGID_00000076578157534517192610000010232694513833359785_);fill:#FFFFFF;}
	.st138{clip-path:url(#SVGID_00000142887266848381719180000007860800845801486772_);}
	.st139{clip-path:url(#SVGID_00000130648419015043844300000018251210069059642036_);}
	.st140{clip-path:url(#SVGID_00000112620066240423037950000014869292109290021526_);fill:#DC3285;}
	.st141{clip-path:url(#SVGID_00000112620066240423037950000014869292109290021526_);fill:#FFFFFF;}
	.st142{clip-path:url(#SVGID_00000112620066240423037950000014869292109290021526_);fill:#333333;}
	.st143{clip-path:url(#SVGID_00000043422076994376394750000001018941975420441521_);fill:#DC3285;}
	.st144{clip-path:url(#SVGID_00000043422076994376394750000001018941975420441521_);fill:#FFFFFF;}
	.st145{clip-path:url(#SVGID_00000043422076994376394750000001018941975420441521_);fill:#333333;}
	.st146{clip-path:url(#SVGID_00000175315634045455825520000006457591590416005528_);fill:#26AD35;}
	.st147{clip-path:url(#SVGID_00000175315634045455825520000006457591590416005528_);fill:#6AD542;}
	.st148{clip-path:url(#SVGID_00000175315634045455825520000006457591590416005528_);fill:#56BE2F;}
	.st149{clip-path:url(#SVGID_00000069372864015528254050000008642552068097794467_);fill:#45A840;}
	.st150{clip-path:url(#SVGID_00000069372864015528254050000008642552068097794467_);fill:#56BE2F;}
	.st151{clip-path:url(#SVGID_00000046341619960884476860000018332345409941459881_);fill:#45A840;}
	.st152{clip-path:url(#SVGID_00000046341619960884476860000018332345409941459881_);fill:#56BE2F;}
	.st153{clip-path:url(#SVGID_00000016765989535358577970000013725270603951432833_);fill:#6AD542;}
	.st154{opacity:0.7;clip-path:url(#SVGID_00000016765989535358577970000013725270603951432833_);}
	.st155{clip-path:url(#SVGID_00000106836991437599292680000017971945439716870555_);fill:#3E8913;}
	.st156{clip-path:url(#SVGID_00000106836991437599292680000017971945439716870555_);fill:#6AD542;}
	.st157{clip-path:url(#SVGID_00000126320511024987423910000016762709787363021713_);fill:#29BD3A;}
	.st158{clip-path:url(#SVGID_00000126320511024987423910000016762709787363021713_);fill:#6AD542;}
	.st159{clip-path:url(#SVGID_00000076591459774144093840000008994573780080148892_);fill:#6AD542;}
	.st160{opacity:0.7;clip-path:url(#SVGID_00000076591459774144093840000008994573780080148892_);}
	.st161{clip-path:url(#SVGID_00000146465280951806258360000008628166771487289511_);fill:#6AD542;}
	.st162{opacity:0.56;clip-path:url(#SVGID_00000146465280951806258360000008628166771487289511_);fill:#26AD35;}
	.st163{clip-path:url(#SVGID_00000084525099038050827790000006422754592730184590_);fill:#45A840;}
	.st164{clip-path:url(#SVGID_00000084525099038050827790000006422754592730184590_);fill:#56BE2F;}
	.st165{clip-path:url(#SVGID_00000157284077818244806940000010596771767413853090_);fill:#3E8913;}
	.st166{clip-path:url(#SVGID_00000157284077818244806940000010596771767413853090_);fill:#6AD542;}
	.st167{clip-path:url(#SVGID_00000098931194292646062790000014509076431167904174_);fill:#29BD3A;}
	.st168{clip-path:url(#SVGID_00000098931194292646062790000014509076431167904174_);fill:#6AD542;}
	.st169{clip-path:url(#SVGID_00000117649882681736620710000015485545133281282199_);fill:#6AD542;}
	.st170{opacity:0.7;clip-path:url(#SVGID_00000117649882681736620710000015485545133281282199_);}
	.st171{opacity:0.28;fill:url(#SVGID_00000124145813253592369800000003412734178862542003_);}
	.st172{opacity:0.7;fill:url(#SVGID_00000021837259086548713110000011653303589544562617_);}
	.st173{clip-path:url(#SVGID_00000166650172414674731420000003704047459080762029_);}
	.st174{clip-path:url(#SVGID_00000057827099138031102640000012175181672198780568_);}
	.st175{clip-path:url(#SVGID_00000029759990282969812120000003625775319365461162_);fill:#FFFFFF;}
	.st176{clip-path:url(#SVGID_00000029759990282969812120000003625775319365461162_);}
	.st177{clip-path:url(#SVGID_00000132795055943112215610000005017734796949373089_);fill:#333333;}
	.st178{clip-path:url(#SVGID_00000132795055943112215610000005017734796949373089_);fill:#FFCD55;}
	.st179{clip-path:url(#SVGID_00000132795055943112215610000005017734796949373089_);}
	.st180{clip-path:url(#SVGID_00000123424531935208478150000017340443498899948987_);}
	.st181{fill:url(#SVGID_00000016050886142978196700000014470185807855532685_);}
	.st182{clip-path:url(#SVGID_00000123424531935208478150000017340443498899948987_);fill:#FFA002;}
	.st183{fill:url(#SVGID_00000101783354133328642150000004112551598847808942_);}
	.st184{clip-path:url(#SVGID_00000070804108969503539990000017804771733725870225_);fill:#8BE04A;}
	
		.st185{opacity:0.55;clip-path:url(#SVGID_00000070804108969503539990000017804771733725870225_);fill:url(#SVGID_00000050632467954041460690000008036899759148737208_);}
	.st186{fill:#009245;}
	.st187{clip-path:url(#SVGID_00000016762814410714838440000012575539937587110325_);}
	.st188{fill:none;stroke:#FFFFFF;stroke-width:27;stroke-linecap:round;stroke-miterlimit:10;}
	.st189{fill:none;stroke:#2CAF4B;stroke-width:61;stroke-linecap:round;stroke-linejoin:round;stroke-miterlimit:10;}
	.st190{fill:none;stroke:#DC3285;stroke-width:13;stroke-linecap:round;stroke-linejoin:round;stroke-miterlimit:10;}
	.st191{fill:#2CAF4B;}
	.st192{opacity:0.1;}
	.st193{fill:#151814;}
	.st194{fill:none;stroke:#DC3285;stroke-width:30;stroke-miterlimit:10;}
	.st195{fill:#DC3285;stroke:#E567A5;stroke-width:6;stroke-miterlimit:10;}
	.st196{fill:#282560;}
	.st197{fill:url(#SVGID_00000155104183152186025140000011737275354396708481_);}
	.st198{fill:url(#SVGID_00000047744903151164918400000004366054788262919045_);}
	.st199{clip-path:url(#SVGID_00000034072395480407215150000004903868108919946378_);}
	.st200{clip-path:url(#SVGID_00000086686346539129277420000017231147915567719863_);}
	.st201{clip-path:url(#SVGID_00000137101741065265029200000009361200829170353821_);}
	.st202{fill:#006600;}
	.st203{opacity:0.77;}
	.st204{clip-path:url(#SVGID_00000039103936793231886150000000050502814794552504_);}
	.st205{clip-path:url(#SVGID_00000005232323540743301130000016304018657539549631_);}
	.st206{clip-path:url(#SVGID_00000016784961603519227320000008362592433218692240_);}
	.st207{clip-path:url(#SVGID_00000096741820130407784410000004137083574202991756_);}
	.st208{clip-path:url(#SVGID_00000057857659519798715240000003910841396570746301_);}
	.st209{clip-path:url(#SVGID_00000129902166824166856140000009398459772395496331_);}
	.st210{clip-path:url(#SVGID_00000048497796520498193270000007469093962504149392_);}
	.st211{clip-path:url(#SVGID_00000097496167198769515730000003846423563458802087_);}
	.st212{clip-path:url(#SVGID_00000150099411667428007230000009199660475056482456_);}
	.st213{clip-path:url(#SVGID_00000183221303244065128110000010456693755491722914_);}
	.st214{clip-path:url(#SVGID_00000097481955801287159250000014758866631976038043_);}
	.st215{clip-path:url(#SVGID_00000024690440651028167200000014436273533624788651_);fill:#FFFFFF;}
	.st216{opacity:0.64;clip-path:url(#SVGID_00000143610091863333860940000002995671810410901916_);fill:#FFFFFF;}
	.st217{opacity:0.61;clip-path:url(#SVGID_00000116927215097637876390000010435328100584989881_);fill:#FFFFFF;}
	.st218{opacity:0.43;}
	.st219{fill:#4D4D4D;}
	.st220{fill:#3B3B3B;}
	.st221{clip-path:url(#SVGID_00000040542736189110483210000008876329785602718854_);fill:#DC3285;}
	.st222{clip-path:url(#SVGID_00000040542736189110483210000008876329785602718854_);fill:#FFFFFF;}
	.st223{clip-path:url(#SVGID_00000040542736189110483210000008876329785602718854_);fill:#333333;}
	.st224{clip-path:url(#SVGID_00000060728780603599900570000011347924564311839661_);fill:#DC3285;}
	.st225{clip-path:url(#SVGID_00000060728780603599900570000011347924564311839661_);fill:#FFFFFF;}
	.st226{clip-path:url(#SVGID_00000060728780603599900570000011347924564311839661_);fill:#333333;}
	.st227{fill:#26AD35;}
	.st228{fill:#45A840;}
	.st229{opacity:0.56;fill:#26AD35;}
	.st230{opacity:0.42;}
	.st231{fill:#292929;}
	.st232{opacity:0.15;}
	.st233{clip-path:url(#SVGID_00000144295797999481758370000013784696842299573382_);}
	.st234{clip-path:url(#SVGID_00000061441492253288082400000009785993146799235737_);}
	.st235{clip-path:url(#SVGID_00000130626312865521529080000004191162191697354926_);}
	.st236{clip-path:url(#SVGID_00000038405381406556959370000013866131702360808600_);}
	.st237{clip-path:url(#SVGID_00000088093328471867205240000007309301919926673086_);}
	.st238{clip-path:url(#SVGID_00000155128458397160615310000015811115780292008068_);}
	.st239{clip-path:url(#SVGID_00000173847370937327700720000005274698780275843219_);}
	.st240{clip-path:url(#SVGID_00000133491561196148109220000005972360514520541316_);}
	.st241{clip-path:url(#SVGID_00000038383796041198036040000015450028966423907736_);}
	.st242{clip-path:url(#SVGID_00000134207365173221852840000008592043439396812477_);}
	.st243{clip-path:url(#SVGID_00000139973120404252572090000016868558179995180694_);}
	.st244{clip-path:url(#SVGID_00000089566478687823330930000011263197056262990269_);}
	.st245{clip-path:url(#SVGID_00000124868661781506431300000010412898403414301602_);}
	.st246{clip-path:url(#SVGID_00000171680630223512330190000007423711021491303083_);}
	.st247{clip-path:url(#SVGID_00000181059770016409584900000015308428336950342333_);}
	.st248{clip-path:url(#SVGID_00000178201116625262826120000005366755578427443879_);}
	.st249{clip-path:url(#SVGID_00000014608108643054406760000010186419924573254075_);}
	.st250{clip-path:url(#SVGID_00000023266028055184572840000007517483272854657945_);}
	.st251{clip-path:url(#SVGID_00000132085885377840003130000013225972148205473461_);}
	.st252{clip-path:url(#SVGID_00000146489127556661546760000009844131972502385292_);}
	.st253{clip-path:url(#SVGID_00000020396545090648187830000017150024178444332955_);}
	.st254{clip-path:url(#SVGID_00000183237810462966249510000013262775453644665006_);}
	.st255{clip-path:url(#SVGID_00000034090101584563339250000012511061922763645616_);}
	.st256{clip-path:url(#SVGID_00000143599075998206110950000018423455548885145010_);}
	.st257{clip-path:url(#SVGID_00000067228552352025649560000001224814178703684249_);}
	.st258{clip-path:url(#SVGID_00000072976483801776900700000009875424850302843015_);}
	.st259{clip-path:url(#SVGID_00000090990236132736172160000010526009995811329937_);}
	.st260{clip-path:url(#SVGID_00000049937369480556407020000008041014433807698090_);}
	.st261{clip-path:url(#SVGID_00000021813187587282893110000016923586873577705142_);}
	.st262{clip-path:url(#SVGID_00000088135443555595277610000003829832478125350842_);}
	.st263{clip-path:url(#SVGID_00000062890002004183862880000001527242135256760484_);}
	.st264{clip-path:url(#SVGID_00000017474986053438936570000013112420783827268020_);}
	.st265{clip-path:url(#SVGID_00000008134464105464096440000012599367232415973779_);}
	.st266{clip-path:url(#SVGID_00000114038486329478905370000016567619163265102246_);}
	.st267{clip-path:url(#SVGID_00000173125126114549537300000005791960668279409556_);}
	.st268{clip-path:url(#SVGID_00000152230968066375148170000002616084756025929099_);}
	.st269{clip-path:url(#SVGID_00000130610934259173446250000011486723616051146391_);}
	.st270{clip-path:url(#SVGID_00000145767439218274484830000009546042342599605395_);}
	.st271{clip-path:url(#SVGID_00000160895018745814966010000012822492223945388943_);}
	.st272{clip-path:url(#SVGID_00000182489173103094656790000014249540039887000193_);}
	.st273{clip-path:url(#SVGID_00000047034063516768718250000007143575849690936705_);}
	.st274{clip-path:url(#SVGID_00000075868841854942680680000003102753426866379962_);}
	.st275{clip-path:url(#SVGID_00000163073461333197510620000016948347402911407507_);}
	.st276{clip-path:url(#SVGID_00000173865401300536002700000003383788185412512678_);}
	.st277{clip-path:url(#SVGID_00000007413968990845925060000003451517479202570424_);}
	.st278{clip-path:url(#SVGID_00000156573074242555859670000003590508587955810451_);}
	.st279{clip-path:url(#SVGID_00000049929242616961472840000018152247433943050125_);}
	.st280{clip-path:url(#SVGID_00000145775150100430270480000000522908933895744165_);}
	.st281{clip-path:url(#SVGID_00000142857719143093226930000017746380102301471142_);}
	.st282{clip-path:url(#SVGID_00000088821496526403326750000016688527758953821606_);}
	.st283{clip-path:url(#SVGID_00000132048187715446907090000004776758151097810590_);}
	.st284{clip-path:url(#SVGID_00000155121823443099930530000007057832413346922420_);}
	.st285{clip-path:url(#SVGID_00000057865379546075168740000017443287904387588231_);}
	.st286{clip-path:url(#SVGID_00000035531344595904389290000011006654124980176287_);}
	.st287{clip-path:url(#SVGID_00000142137096298738311230000014498916195448203452_);}
	.st288{clip-path:url(#SVGID_00000128448039764737652250000018061782871040071348_);}
	.st289{clip-path:url(#SVGID_00000169551785963156612360000008326414012271472297_);}
	.st290{clip-path:url(#SVGID_00000042699704068442073590000005479466494479215534_);}
	.st291{clip-path:url(#SVGID_00000054268363359271563490000000427485635189030804_);}
	.st292{clip-path:url(#SVGID_00000040573134696233010770000008807365243492798610_);}
	.st293{clip-path:url(#SVGID_00000062901855888285087440000014472655566740570014_);}
	.st294{clip-path:url(#SVGID_00000068673582914451301900000015114331559021684097_);}
	.st295{clip-path:url(#SVGID_00000178170370150585323180000005518909841186544003_);}
	.st296{clip-path:url(#SVGID_00000037669355088204419950000015802975163196819603_);}
	.st297{clip-path:url(#SVGID_00000005954620384460091340000002166094613565894335_);}
	.st298{clip-path:url(#SVGID_00000102542650816531065470000008643654110795102141_);}
	.st299{clip-path:url(#SVGID_00000116931682631200680770000011616921019899282854_);}
	.st300{clip-path:url(#SVGID_00000015344610885396262650000002405569063498007204_);}
	.st301{clip-path:url(#SVGID_00000148651653846651858860000011326275143620696253_);}
	.st302{clip-path:url(#SVGID_00000075132872611284193720000004736734324027593901_);}
	.st303{clip-path:url(#SVGID_00000137852561482426059780000006004389176648960413_);}
	.st304{clip-path:url(#SVGID_00000135654657607673682770000006617165985391891130_);}
	.st305{clip-path:url(#SVGID_00000023253594931817912500000010460099265333951396_);}
	.st306{clip-path:url(#SVGID_00000170969008557441541780000014893628344175472285_);}
	.st307{clip-path:url(#SVGID_00000005965443602987663000000013064151334441222786_);}
	.st308{clip-path:url(#SVGID_00000080194398664048504090000010362617718969465002_);}
	.st309{clip-path:url(#SVGID_00000155864129397165362010000010140105058576757693_);}
	.st310{clip-path:url(#SVGID_00000088107465178770044030000005274051325485988262_);}
	.st311{clip-path:url(#SVGID_00000049913938301419000320000002267737556935186094_);}
	.st312{clip-path:url(#SVGID_00000069382879464868796790000018286140664461477798_);}
	.st313{clip-path:url(#SVGID_00000023977122213208377720000000576241143339844520_);}
	.st314{clip-path:url(#SVGID_00000046332344302496896970000011513912304666083463_);}
	.st315{fill:#54BA2E;}
	.st316{fill:#008DF2;}
	.st317{opacity:0.76;}
	.st318{clip-path:url(#SVGID_00000131362711475822508420000000740702683227329955_);fill:#0088C7;}
	.st319{clip-path:url(#SVGID_00000131362711475822508420000000740702683227329955_);fill:#0189C8;}
	.st320{clip-path:url(#SVGID_00000131362711475822508420000000740702683227329955_);fill:#028AC9;}
	.st321{clip-path:url(#SVGID_00000131362711475822508420000000740702683227329955_);fill:#048BC9;}
	.st322{clip-path:url(#SVGID_00000131362711475822508420000000740702683227329955_);fill:#058CCA;}
	.st323{clip-path:url(#SVGID_00000131362711475822508420000000740702683227329955_);fill:#068DCB;}
	.st324{clip-path:url(#SVGID_00000131362711475822508420000000740702683227329955_);fill:#078FCC;}
	.st325{clip-path:url(#SVGID_00000131362711475822508420000000740702683227329955_);fill:#0890CC;}
	.st326{clip-path:url(#SVGID_00000131362711475822508420000000740702683227329955_);fill:#0991CD;}
	.st327{clip-path:url(#SVGID_00000131362711475822508420000000740702683227329955_);fill:#0B92CE;}
	.st328{clip-path:url(#SVGID_00000131362711475822508420000000740702683227329955_);fill:#0C93CF;}
	.st329{clip-path:url(#SVGID_00000131362711475822508420000000740702683227329955_);fill:#0D94D0;}
	.st330{clip-path:url(#SVGID_00000131362711475822508420000000740702683227329955_);fill:#0E95D0;}
	.st331{clip-path:url(#SVGID_00000131362711475822508420000000740702683227329955_);fill:#0F96D1;}
	.st332{clip-path:url(#SVGID_00000131362711475822508420000000740702683227329955_);fill:#1097D2;}
	.st333{clip-path:url(#SVGID_00000131362711475822508420000000740702683227329955_);fill:#1198D3;}
	.st334{clip-path:url(#SVGID_00000131362711475822508420000000740702683227329955_);fill:#1399D3;}
	.st335{clip-path:url(#SVGID_00000131362711475822508420000000740702683227329955_);fill:#149AD4;}
	.st336{clip-path:url(#SVGID_00000131362711475822508420000000740702683227329955_);fill:#159BD5;}
	.st337{clip-path:url(#SVGID_00000131362711475822508420000000740702683227329955_);fill:#169CD6;}
	.st338{clip-path:url(#SVGID_00000131362711475822508420000000740702683227329955_);fill:#179DD6;}
	.st339{clip-path:url(#SVGID_00000131362711475822508420000000740702683227329955_);fill:#189ED7;}
	.st340{clip-path:url(#SVGID_00000131362711475822508420000000740702683227329955_);fill:#199FD8;}
	.st341{clip-path:url(#SVGID_00000131362711475822508420000000740702683227329955_);fill:#1AA0D9;}
	.st342{clip-path:url(#SVGID_00000131362711475822508420000000740702683227329955_);fill:#1BA1D9;}
	.st343{clip-path:url(#SVGID_00000131362711475822508420000000740702683227329955_);fill:#1DA2DA;}
	.st344{clip-path:url(#SVGID_00000131362711475822508420000000740702683227329955_);fill:#1EA4DB;}
	.st345{clip-path:url(#SVGID_00000131362711475822508420000000740702683227329955_);fill:#1FA5DC;}
	.st346{clip-path:url(#SVGID_00000131362711475822508420000000740702683227329955_);fill:#20A6DC;}
	.st347{clip-path:url(#SVGID_00000131362711475822508420000000740702683227329955_);fill:#21A7DD;}
	.st348{clip-path:url(#SVGID_00000131362711475822508420000000740702683227329955_);fill:#22A8DE;}
	.st349{clip-path:url(#SVGID_00000131362711475822508420000000740702683227329955_);fill:#23A9DE;}
	.st350{clip-path:url(#SVGID_00000131362711475822508420000000740702683227329955_);fill:#24AADF;}
	.st351{clip-path:url(#SVGID_00000131362711475822508420000000740702683227329955_);fill:#25ABE0;}
	.st352{clip-path:url(#SVGID_00000131362711475822508420000000740702683227329955_);fill:#26ABE1;}
	.st353{clip-path:url(#SVGID_00000131362711475822508420000000740702683227329955_);fill:#27ACE1;}
	.st354{clip-path:url(#SVGID_00000131362711475822508420000000740702683227329955_);fill:#28ADE2;}
	.st355{clip-path:url(#SVGID_00000131362711475822508420000000740702683227329955_);fill:#29AEE3;}
	.st356{clip-path:url(#SVGID_00000131362711475822508420000000740702683227329955_);fill:#2AAFE3;}
	.st357{clip-path:url(#SVGID_00000131362711475822508420000000740702683227329955_);fill:#2BB0E4;}
	.st358{clip-path:url(#SVGID_00000131362711475822508420000000740702683227329955_);fill:#2CB1E5;}
	.st359{clip-path:url(#SVGID_00000131362711475822508420000000740702683227329955_);fill:#2EB2E5;}
	.st360{clip-path:url(#SVGID_00000131362711475822508420000000740702683227329955_);fill:#2FB3E6;}
	.st361{clip-path:url(#SVGID_00000131362711475822508420000000740702683227329955_);fill:#30B4E7;}
	.st362{clip-path:url(#SVGID_00000131362711475822508420000000740702683227329955_);fill:#31B5E7;}
	.st363{clip-path:url(#SVGID_00000131362711475822508420000000740702683227329955_);fill:#32B6E8;}
	.st364{clip-path:url(#SVGID_00000131362711475822508420000000740702683227329955_);fill:#32B7E9;}
	.st365{clip-path:url(#SVGID_00000131362711475822508420000000740702683227329955_);fill:#33B8E9;}
	.st366{clip-path:url(#SVGID_00000131362711475822508420000000740702683227329955_);fill:#34B9EA;}
	.st367{clip-path:url(#SVGID_00000131362711475822508420000000740702683227329955_);fill:#35BAEB;}
	.st368{clip-path:url(#SVGID_00000131362711475822508420000000740702683227329955_);fill:#36BAEB;}
	.st369{clip-path:url(#SVGID_00000131362711475822508420000000740702683227329955_);fill:#37BBEC;}
	.st370{clip-path:url(#SVGID_00000131362711475822508420000000740702683227329955_);fill:#38BCEC;}
	.st371{clip-path:url(#SVGID_00000131362711475822508420000000740702683227329955_);fill:#39BDED;}
	.st372{clip-path:url(#SVGID_00000131362711475822508420000000740702683227329955_);fill:#3ABEEE;}
	.st373{clip-path:url(#SVGID_00000131362711475822508420000000740702683227329955_);fill:#3BBFEE;}
	.st374{clip-path:url(#SVGID_00000131362711475822508420000000740702683227329955_);fill:#3CC0EF;}
	.st375{clip-path:url(#SVGID_00000131362711475822508420000000740702683227329955_);fill:#3DC0F0;}
	.st376{clip-path:url(#SVGID_00000131362711475822508420000000740702683227329955_);fill:#3EC1F0;}
	.st377{clip-path:url(#SVGID_00000131362711475822508420000000740702683227329955_);fill:#3EC2F1;}
	.st378{clip-path:url(#SVGID_00000131362711475822508420000000740702683227329955_);fill:#3FC3F1;}
	.st379{clip-path:url(#SVGID_00000131362711475822508420000000740702683227329955_);fill:#40C3F2;}
	.st380{clip-path:url(#SVGID_00000131362711475822508420000000740702683227329955_);fill:#41C4F2;}
	.st381{clip-path:url(#SVGID_00000131362711475822508420000000740702683227329955_);fill:#42C5F3;}
	.st382{clip-path:url(#SVGID_00000131362711475822508420000000740702683227329955_);fill:#42C6F3;}
	.st383{clip-path:url(#SVGID_00000131362711475822508420000000740702683227329955_);fill:#43C6F4;}
	.st384{clip-path:url(#SVGID_00000131362711475822508420000000740702683227329955_);fill:#44C7F4;}
	.st385{clip-path:url(#SVGID_00000131362711475822508420000000740702683227329955_);fill:#44C8F5;}
	.st386{clip-path:url(#SVGID_00000131362711475822508420000000740702683227329955_);fill:#45C8F5;}
	.st387{fill:url(#SVGID_00000162353482607922153000000013724280690398999742_);}
	.st388{fill:url(#SVGID_00000122710172653532376920000006094255530713206419_);}
	.st389{fill:url(#SVGID_00000085952476276858729170000000913262780612786363_);}
	.st390{fill:url(#SVGID_00000011712807442694510450000018072851614919415193_);}
	.st391{fill:#FF7FC8;}
	.st392{clip-path:url(#SVGID_00000014618417401367686230000000913774428407976597_);fill:#333333;}
	.st393{clip-path:url(#SVGID_00000014618417401367686230000000913774428407976597_);fill:#FFCD55;}
	.st394{clip-path:url(#SVGID_00000014618417401367686230000000913774428407976597_);}
	.st395{fill:#73E1EF;}
	.st396{fill:#0E68A3;}
	.st397{fill:#053483;}
</style>
<g>
	<path class="st0" d="M722.33,231.44c-254.01,0-459.92,199.51-459.92,445.62c0,246.11,205.91,445.62,459.92,445.62
		c254.01,0,459.92-199.51,459.92-445.62C1182.25,430.95,976.34,231.44,722.33,231.44z M760.1,360.25
		c2.99-27.71,22.33-50.31,48.12-56.22c31.71-7.28,64.54,12.54,74.76,45.05c2.6,8.27-2,17.09-10.27,19.69
		c-8.25,2.59-17.09-1.99-19.69-10.27c-5.26-16.73-22.19-27.43-37.78-23.86c-12.54,2.88-22.38,14.8-23.91,28.98
		c-0.87,8.05-7.68,14.02-15.59,14.02c-0.57,0-1.13-0.03-1.71-0.09C765.41,376.62,759.17,368.87,760.1,360.25z M555.7,349.08
		c10.22-32.53,43.06-52.34,74.75-45.05c25.8,5.91,45.14,28.51,48.13,56.22c0.94,8.63-5.31,16.37-13.92,17.3
		c-0.58,0.06-1.14,0.09-1.71,0.09c-7.91,0-14.72-5.97-15.59-14.02c-1.53-14.18-11.37-26.1-23.92-28.98
		c-15.5-3.51-32.52,7.14-37.77,23.86c-2.6,8.28-11.42,12.86-19.69,10.27C557.7,366.17,553.1,357.35,555.7,349.08z M1052.27,439.21
		c18.67,21.04,30.57,42.05,38.14,58.53c-0.05,0.03-0.1,0.07-0.15,0.11c42.64,79.8,41.99,158.07,41.37,185.25
		c-4.19,184.94-140.8,299.17-146.82,304.04c-106.93,86.52-225.16,86.65-262.49,87.63c-12.74,0.34-56.91,0.87-112.7-13.69
		c-2.67-0.7-5.6-1.5-8.66-2.37c-1.38-0.39-2.84-0.83-4.3-1.26c-1.39-0.41-2.79-0.83-4.19-1.26c-2.32-0.71-4.68-1.46-7.15-2.27
		c-0.36-0.12-0.71-0.23-1.07-0.35c-4.86-1.61-10-3.42-15.37-5.44c-2.1-0.79-4.22-1.63-6.35-2.46c-2.08-0.82-4.2-1.69-6.34-2.58
		c-34.58-14.22-70.88-34.8-105.47-64.48c-2.55-2.18-5.09-4.43-7.64-6.72c-1.6-1.45-3.23-2.74-4.82-4.23
		c-0.01-0.04-0.02-0.08-0.02-0.12c-3.87-3.6-7.73-7.29-11.56-11.16C325.35,853.83,311.37,727.98,313.03,683.18
		c1.19-31.92-2.05-98.98,30.39-167.01c-0.05-0.03-0.1-0.05-0.15-0.07c10.62-24.16,30.55-59.98,67.45-89.56
		c3.6-3.01,7.5-5.89,11.55-8.71c1.12-0.8,3.52-2.48,6.59-4.47c2.24-1.45,4.81-3.04,7.49-4.57c0.39-0.22,0.72-0.46,1.11-0.68
		c0.33-0.18,0.67-0.35,0.67-0.35c0.03-0.01,0.07-0.01,0.1-0.03c0.13-0.07,0.26-0.15,0.39-0.22c21.48-11.56,41.19-15.87,61.04-15.87
		c57.55,0,116.26,36.2,222.66,36.71c0.76,0,1.52,0.01,2.28,0.01c109.31,0,174.81-38.05,232.93-38.04c21.05,0,41.14,4.99,61.99,18.59
		c0.01,0,0.01,0.01,0.02,0.01c0.98,0.64,1.84,1.34,2.79,1.99c1.1,0.87,2.24,1.85,3.36,2.77c0.94,0.77,1.86,1.51,2.81,2.32
		c0.58,0.48,1.18,1.01,1.77,1.51c6.83,5.79,14.34,12.86,21.98,21.69C1052.26,439.21,1052.26,439.21,1052.27,439.21z"/>
	<path class="st0" d="M1445.45,679.2l-13.01-147.44c-4.85-55.03-52.31-95.95-106.98-93.41c-20.17-73.67-52.91-140.86-97.69-199.71
		C1048.35,2.9,749.23-0.22,716.02,0.01c-67.39,0.82-300.29,18.16-467.81,206.85c-58.76,66.19-101.54,144.1-127.56,231.5
		c-54.79-2.68-102.38,38.28-107.25,93.4L0.4,679.2c-4.98,56.48,36.77,106.31,93.25,111.29l27.55,2.43
		c2.43,10.49,7.16,24,18.26,35.78c3.66,3.89,15.72,16.31,35.94,20.07c25.62,4.77,44.95-8.02,47.96-10.02
		c5.82-3.87,10.92-8.71,15.16-14.24c-4.24-13.11-7.82-26.49-10.94-40.05c-7.95-34.6-12.28-70.51-12.28-107.41
		c0-66.43,13.68-129.79,38.31-187.67c11.41-26.8,25.22-52.38,41.11-76.57c-8.92-8.51-20.53-14.63-33.89-16.92h0
		c-8.49-0.39-20.97,0-34.52,4.39c21.82-50.06,50.64-95.7,86.49-136.08C456.8,102,658.64,87.08,717.07,86.37
		c28.98-0.47,288.13,2.41,441.97,204.57c27.24,35.79,49.19,75.35,65.86,118c-18.34-9.52-36.41-10.37-47.58-9.84h0
		c-10.74,1.84-20.36,6.16-28.36,12.2c17.04,25.73,31.67,53.08,43.6,81.78c23.65,56.88,36.8,118.95,36.8,183.97
		c0,35.61-4,70.31-11.42,103.79c-3.88,17.5-8.76,34.64-14.5,51.4c3.39,3.65,7.17,6.94,11.34,9.72c3,2,22.33,14.78,47.96,10.02
		c20.23-3.76,32.28-16.19,35.94-20.07c12.03-12.76,16.61-27.59,18.85-38.37l34.66-3.06C1408.68,785.51,1450.43,735.68,1445.45,679.2
		z"/>
	<path class="st0" d="M633.23,327.98l0-3.73L633.23,327.98c0,1.24,0,2.49,0,3.73C633.23,330.47,633.23,329.22,633.23,327.98z"/>
	<path class="st0" d="M827.74,327.98l0-3.73L827.74,327.98c0,1.24,0,2.49,0,3.73C827.74,330.47,827.74,329.22,827.74,327.98z"/>
	<path class="st0" d="M559.41,917.25c14.98-51.48,63.04-75.08,67.14-77.01c46.02-21.72,93.07-8.68,135,3.1
		c79.61,22.37,94.29,55.57,153.37,52.51c15.89-0.82,47.94-2.94,70.13-26.59c27.48-29.29,22.1-72.71,21.3-78.42
		c-10.92-78.7-136.84-146.31-249.37-150.99c-119.8-4.98-266.29,59.55-311.09,186.83c-19.82,56.3-14.34,108.55-7.63,140.89
		c0.01,0.04,0.02,0.08,0.02,0.12c1.59,1.49,3.22,2.79,4.82,4.23c2.54,2.29,5.08,4.54,7.64,6.72c34.6,29.68,70.9,50.26,105.47,64.48
		c2.14,0.89,4.26,1.76,6.34,2.58c2.12,0.83,4.24,1.68,6.35,2.46c5.37,2.02,10.51,3.83,15.37,5.44c0.36,0.12,0.71,0.24,1.07,0.35
		c2.47,0.81,4.84,1.56,7.15,2.27c1.4,0.43,2.8,0.85,4.19,1.26c1.45,0.43,2.92,0.87,4.3,1.26c2.91,0.83,5.81,1.63,8.66,2.37
		C565.01,1021.42,545.44,965.26,559.41,917.25z"/>
	<path class="st0" d="M724.62,428.36c109.32,0,174.81-38.04,232.93-38.04C899.42,390.32,833.93,428.36,724.62,428.36z"/>
	<path class="st0" d="M1018.44,438.67c-1.28-1.17-2.61-2.28-3.93-3.42c-2.11-1.82-4.13-3.75-6.31-5.49
		c-0.36-0.26-0.71-0.51-1.06-0.77l-0.55-0.41c-6.88-4.49-13.69-7.82-20.72-10.21c-8.88-3.02-18.11-4.5-28.33-4.5
		c-21.48,0-45.92,6.4-74.22,13.82c-28.18,7.38-61.23,15.9-100.41,20.61c-18.09,2.17-37.37,3.61-58.3,3.61l-2.39-0.01
		c-64.09-0.31-112.17-13.08-150.81-23.35c-2.46-0.65-4.86-1.29-7.26-1.92c-23.93-6.31-44.98-11.44-64.47-11.44
		c-2.5,0-4.97,0.11-7.41,0.28c-14.62,1.03-28.29,5.14-42.47,12.77c-1.12,0.6-2.23,1.25-3.34,1.9c-1.36,0.81-2.69,1.63-3.93,2.42
		c-1.49,0.95-2.82,1.84-3.93,2.59c-0.01,9.33-0.02,18.67-0.03,28.01c-0.66,44.7,38.43,80.99,84.82,85.34
		c3.14,0.29,6.28,0.44,9.41,0.44c21.41,0,42.48-6.71,59.77-18.14c23.42-14.75,39.56-38.75,40.62-66.36
		c0.88,43.48,39.23,78.47,84.72,82.72c2.83,0.26,5.67,0.37,8.51,0.37c1.35,0,2.71-0.02,4.06-0.06c1.35,0.04,2.71,0.06,4.06,0.06
		c2.84,0,5.67-0.1,8.51-0.37c45.48-4.26,83.83-39.24,84.72-82.72c1.05,27.61,17.19,51.61,40.61,66.36
		c17.29,11.43,38.36,18.14,59.77,18.14c3.14,0,6.28-0.14,9.41-0.44c46.4-4.34,85.48-40.64,84.83-85.34
		c-0.01-7-0.02-14.01-0.02-21.01C1021.1,440.95,1019.74,439.85,1018.44,438.67z"/>
	<path class="st0" d="M937.56,548.5c-3.14,0.29-6.28,0.44-9.41,0.44c-21.41,0-42.48-6.71-59.77-18.14
		c-23.42-14.75-39.56-38.75-40.61-66.36c-0.89,43.48-39.23,78.47-84.72,82.72c-2.84,0.26-5.67,0.37-8.51,0.37
		c-1.35,0-2.71-0.02-4.06-0.06c-1.35,0.04-2.71,0.06-4.06,0.06c-2.84,0-5.67-0.1-8.51-0.37c-45.49-4.26-83.84-39.24-84.72-82.72
		c-1.06,27.61-17.19,51.61-40.62,66.36c-17.29,11.43-38.36,18.14-59.77,18.14c-3.13,0-6.28-0.14-9.41-0.44
		c-46.4-4.34-85.48-40.64-84.82-85.34c0.01-9.34,0.02-18.67,0.03-28.01c1.12-0.76,2.45-1.64,3.93-2.59
		c1.23-0.79,2.56-1.61,3.93-2.42c1.1-0.65,2.22-1.29,3.34-1.9c14.18-7.63,27.85-11.74,42.47-12.77c2.45-0.17,4.91-0.28,7.41-0.28
		c19.49,0,40.54,5.13,64.47,11.44c2.4,0.63,4.8,1.27,7.26,1.92c38.64,10.26,86.72,23.04,150.81,23.35l2.39,0.01
		c20.93,0,40.2-1.44,58.3-3.61c39.18-4.71,72.23-13.23,100.41-20.61c28.3-7.42,52.75-13.82,74.22-13.82
		c10.22,0,19.45,1.48,28.33,4.5c7.02,2.39,13.84,5.72,20.72,10.21l0.55,0.41c0.35,0.26,0.7,0.52,1.06,0.77
		c2.18,1.74,4.2,3.67,6.31,5.49c1.31,1.13,2.65,2.25,3.93,3.42c1.3,1.18,2.66,2.28,3.93,3.49c0.01,7,0.02,14,0.02,21.01
		C1023.04,507.86,983.97,544.16,937.56,548.5z"/>
</g>
</svg>
