<?xml version="1.0" encoding="utf-8"?>
<!-- Generator: Adobe Illustrator 25.4.1, SVG Export Plug-In . SVG Version: 6.00 Build 0)  -->
<svg version="1.1" id="Layer_1" xmlns="http://www.w3.org/2000/svg" xmlns:xlink="http://www.w3.org/1999/xlink" x="0px" y="0px"
	 viewBox="0 0 203.06 131.88" style="enable-background:new 0 0 203.06 131.88;" xml:space="preserve">
<style type="text/css">
	.st0{fill:#FFFFFF;}
	.st1{clip-path:url(#SVGID_00000058551226589680430120000009799537326857553070_);}
	.st2{clip-path:url(#SVGID_00000083796579928157637740000013889963993503897257_);}
	.st3{fill:#FFFFFF;stroke:#FFFFFF;stroke-width:0.75;stroke-miterlimit:10;}
	.st4{opacity:0.81;}
	.st5{fill:url(#SVGID_00000159471352732683674110000017996999865077597360_);}
	.st6{opacity:0.3;}
	.st7{fill:#F2F2F2;}
	.st8{opacity:0.61;fill:#F2F2F2;}
	.st9{opacity:0.69;fill:#F2F2F2;}
	.st10{opacity:0.53;}
	.st11{opacity:0.64;fill:#F2F2F2;}
	.st12{fill:#003800;}
	.st13{fill:#DC3285;}
	.st14{fill:#A52065;}
	.st15{fill:#005700;}
	.st16{fill:#2F6E0C;}
	.st17{clip-path:url(#SVGID_00000156574122290875229720000018436488250855760050_);fill:#007400;}
	.st18{opacity:0.62;clip-path:url(#SVGID_00000156574122290875229720000018436488250855760050_);}
	.st19{fill:none;stroke:#000000;stroke-width:6;stroke-miterlimit:10;}
	.st20{fill:#007400;}
	.st21{fill:#6AD542;}
	.st22{opacity:0.77;fill:url(#);}
	.st23{opacity:0.47;}
	.st24{fill:none;stroke:#000000;stroke-width:6;stroke-linecap:round;stroke-miterlimit:10;}
	.st25{fill:none;stroke:#DC3285;stroke-width:5;stroke-linecap:round;stroke-linejoin:round;stroke-miterlimit:10;}
	.st26{clip-path:url(#SVGID_00000003095018168548918130000013178735493626426498_);fill:#FFFFFF;}
	.st27{fill:#FFA002;}
	.st28{opacity:0.64;clip-path:url(#SVGID_00000047054922509132638310000018234741979299797382_);fill:#FFFFFF;}
	.st29{opacity:0.61;clip-path:url(#SVGID_00000055687217936147822420000016566574895926180998_);fill:#FFFFFF;}
	.st30{clip-path:url(#SVGID_00000103985365613535344720000002142401085780866986_);}
	.st31{fill:#999999;}
	.st32{fill:#1A1A1A;}
	.st33{opacity:0.43;fill:#FFFFFF;}
	.st34{opacity:0.43;fill:none;stroke:#FFFFFF;stroke-width:7;stroke-linecap:round;stroke-miterlimit:10;}
	.st35{fill:#6AD542;stroke:#FFFFFF;stroke-width:7;stroke-linecap:round;stroke-miterlimit:10;}
	.st36{fill:none;stroke:#E6E6E6;stroke-width:13;stroke-linecap:round;stroke-linejoin:round;stroke-miterlimit:10;}
	.st37{clip-path:url(#SVGID_00000008140654232095219230000009058755489329995915_);}
	.st38{opacity:0.43;fill:none;stroke:#1A1A1A;stroke-width:6;stroke-miterlimit:10;}
	.st39{fill:#666666;}
	.st40{fill:none;stroke:#FFFFFF;stroke-width:13;stroke-linecap:round;stroke-linejoin:round;stroke-miterlimit:10;}
	.st41{fill:none;stroke:#FFFFFF;stroke-width:11;stroke-linecap:round;stroke-linejoin:round;stroke-miterlimit:10;}
	.st42{fill:none;stroke:#FFE500;stroke-width:10;stroke-linecap:round;stroke-miterlimit:10;}
	.st43{clip-path:url(#SVGID_00000062904825991583358220000002891683768827725459_);fill:#DC3285;}
	.st44{clip-path:url(#SVGID_00000062904825991583358220000002891683768827725459_);fill:#FFFFFF;}
	.st45{clip-path:url(#SVGID_00000062904825991583358220000002891683768827725459_);fill:#333333;}
	.st46{clip-path:url(#SVGID_00000011027498233362233600000016858650900350793657_);fill:#DC3285;}
	.st47{clip-path:url(#SVGID_00000011027498233362233600000016858650900350793657_);fill:#FFFFFF;}
	.st48{clip-path:url(#SVGID_00000011027498233362233600000016858650900350793657_);fill:#333333;}
	.st49{fill:#56BE2F;}
	.st50{opacity:0.55;}
	.st51{fill:none;stroke:#000000;stroke-width:15;stroke-linecap:round;stroke-linejoin:round;stroke-miterlimit:10;}
	.st52{fill:#5C1537;}
	.st53{clip-path:url(#SVGID_00000108284920055267915390000007469787852897912472_);fill:#26AD35;}
	.st54{clip-path:url(#SVGID_00000108284920055267915390000007469787852897912472_);fill:#6AD542;}
	.st55{clip-path:url(#SVGID_00000108284920055267915390000007469787852897912472_);fill:#56BE2F;}
	.st56{clip-path:url(#SVGID_00000181798558546594082360000000892388219304062367_);fill:#45A840;}
	.st57{clip-path:url(#SVGID_00000181798558546594082360000000892388219304062367_);fill:#56BE2F;}
	.st58{clip-path:url(#SVGID_00000052089174768293196220000002754435466454434983_);fill:#45A840;}
	.st59{clip-path:url(#SVGID_00000052089174768293196220000002754435466454434983_);fill:#56BE2F;}
	.st60{clip-path:url(#SVGID_00000080175523470274433950000007244412198546847384_);fill:#6AD542;}
	.st61{opacity:0.7;clip-path:url(#SVGID_00000080175523470274433950000007244412198546847384_);}
	.st62{fill:#27B136;}
	.st63{clip-path:url(#SVGID_00000158011274347813326940000003079612765335996291_);fill:#3E8913;}
	.st64{clip-path:url(#SVGID_00000158011274347813326940000003079612765335996291_);fill:#6AD542;}
	.st65{clip-path:url(#SVGID_00000114758651752435721660000008971916095140882595_);fill:#29BD3A;}
	.st66{clip-path:url(#SVGID_00000114758651752435721660000008971916095140882595_);fill:#6AD542;}
	.st67{clip-path:url(#SVGID_00000140001223847133819370000011543961720215612556_);fill:#6AD542;}
	.st68{opacity:0.7;clip-path:url(#SVGID_00000140001223847133819370000011543961720215612556_);}
	.st69{clip-path:url(#SVGID_00000155139378523648565820000000967001811396300976_);fill:#6AD542;}
	.st70{opacity:0.56;clip-path:url(#SVGID_00000155139378523648565820000000967001811396300976_);fill:#26AD35;}
	.st71{clip-path:url(#SVGID_00000152951235029372797880000016387993843082310298_);fill:#45A840;}
	.st72{clip-path:url(#SVGID_00000152951235029372797880000016387993843082310298_);fill:#56BE2F;}
	.st73{fill:#333333;}
	.st74{opacity:0.42;fill:#292929;}
	.st75{opacity:0.15;fill:url(#);}
	.st76{clip-path:url(#SVGID_00000013182658768237851000000010790360033921383597_);fill:#3E8913;}
	.st77{clip-path:url(#SVGID_00000013182658768237851000000010790360033921383597_);fill:#6AD542;}
	.st78{fill:none;stroke:#000000;stroke-width:4;stroke-miterlimit:10;}
	.st79{fill:#00ADEE;}
	.st80{fill:#FFE500;}
	.st81{opacity:0.66;fill:#FFA002;}
	.st82{clip-path:url(#SVGID_00000151521041896860060290000006249153885535888310_);fill:#29BD3A;}
	.st83{clip-path:url(#SVGID_00000151521041896860060290000006249153885535888310_);fill:#6AD542;}
	.st84{fill:#00CCFF;}
	.st85{fill:#29BD3A;}
	.st86{fill:#FFD900;}
	.st87{fill:#EB8AB9;}
	.st88{opacity:0.78;fill:#E04B94;}
	.st89{clip-path:url(#SVGID_00000074436812175487937780000015992858534880852891_);fill:#6AD542;}
	.st90{opacity:0.7;clip-path:url(#SVGID_00000074436812175487937780000015992858534880852891_);}
	.st91{fill:#8BE04A;}
	.st92{opacity:0.28;fill:url(#SVGID_00000026879378033720639300000011010150076635304084_);}
	.st93{opacity:0.7;fill:url(#SVGID_00000118380444419117805730000009112073151659195539_);}
	.st94{clip-path:url(#SVGID_00000108291090440515085930000008386161711030106044_);fill:#DC3285;}
	.st95{clip-path:url(#SVGID_00000108291090440515085930000008386161711030106044_);fill:#FFCD55;}
	.st96{clip-path:url(#SVGID_00000108291090440515085930000008386161711030106044_);fill:#45C8F5;}
	.st97{clip-path:url(#SVGID_00000165234567389289974240000013601077886559076006_);fill:#FFFFFF;}
	.st98{clip-path:url(#SVGID_00000165234567389289974240000013601077886559076006_);}
	.st99{clip-path:url(#SVGID_00000108278796049315536070000015950555429966392208_);fill:#333333;}
	.st100{clip-path:url(#SVGID_00000108278796049315536070000015950555429966392208_);fill:#FFCD55;}
	.st101{clip-path:url(#SVGID_00000108278796049315536070000015950555429966392208_);}
	.st102{fill:#E6E6E6;}
	.st103{fill:#FFCD55;}
	.st104{opacity:0.73;fill:#FFFFFF;}
	.st105{opacity:0.73;fill:none;stroke:#FFFFFF;stroke-width:29;stroke-linecap:round;stroke-miterlimit:10;}
	.st106{opacity:0.26;fill:#FFFFFF;}
	.st107{opacity:0.26;fill:none;stroke:#FFFFFF;stroke-width:29;stroke-linecap:round;stroke-miterlimit:10;}
	.st108{fill:#45C8F5;}
	.st109{fill:#231F20;}
	.st110{clip-path:url(#SVGID_00000173879178039651638370000000161094874048508863_);}
	.st111{fill:url(#SVGID_00000094620554171187391150000009994677354711869365_);}
	.st112{clip-path:url(#SVGID_00000173879178039651638370000000161094874048508863_);fill:#FFA002;}
	.st113{opacity:0.5;}
	.st114{fill:none;}
	.st115{fill:#CCCCCC;}
	.st116{fill:#B3B3B3;}
	.st117{fill:none;stroke:#FFE500;stroke-width:7;stroke-linecap:round;stroke-miterlimit:10;}
	.st118{fill:none;stroke:#FFE500;stroke-width:7;stroke-linecap:round;stroke-miterlimit:10;stroke-dasharray:10.0084,20.0167;}
	.st119{fill:url(#SVGID_00000003081604682359734850000009488149020636484011_);}
	.st120{opacity:0.7;fill:#B3B3B3;}
	.st121{fill:url(#SVGID_00000089542586050624569410000002001602346358165141_);}
	.st122{clip-path:url(#SVGID_00000123415418025592543940000015378885917917934485_);fill:#8BE04A;}
	
		.st123{opacity:0.55;clip-path:url(#SVGID_00000123415418025592543940000015378885917917934485_);fill:url(#SVGID_00000083062253221744625900000001429579418193911964_);}
	.st124{fill:#E567A5;}
	.st125{fill:url(#SVGID_00000155841234912163120300000007749458539193837985_);}
	.st126{fill:#00ACD6;}
	.st127{fill:#9E005D;}
	.st128{fill:url(#SVGID_00000141457555706250817640000007309083445368037508_);}
	.st129{fill:none;stroke:#FFCD55;stroke-width:5;stroke-linecap:round;stroke-miterlimit:10;}
	.st130{fill:none;stroke:#FFCD55;stroke-width:5;stroke-linecap:round;stroke-miterlimit:10;stroke-dasharray:9.3355,18.6709;}
	.st131{fill:url(#SVGID_00000177454881016554378160000013983261750189718150_);}
	.st132{fill:url(#SVGID_00000161599784773268177860000017897332214454049962_);}
	.st133{clip-path:url(#SVGID_00000050626554411373612780000013326158519366372783_);fill:#007400;}
	.st134{opacity:0.62;clip-path:url(#SVGID_00000050626554411373612780000013326158519366372783_);}
	.st135{clip-path:url(#SVGID_00000048464509833123855930000012878250543113354137_);fill:#FFFFFF;}
	.st136{opacity:0.64;clip-path:url(#SVGID_00000139278809540642652620000001996476247617698224_);fill:#FFFFFF;}
	.st137{opacity:0.61;clip-path:url(#SVGID_00000147208631065681435610000017692510174293312662_);fill:#FFFFFF;}
	.st138{clip-path:url(#SVGID_00000121264858515548920820000015110917301024647587_);}
	.st139{clip-path:url(#SVGID_00000110432163190879137160000010107009162000531096_);}
	.st140{clip-path:url(#SVGID_00000064336094967099899020000007890695016731056782_);fill:#DC3285;}
	.st141{clip-path:url(#SVGID_00000064336094967099899020000007890695016731056782_);fill:#FFFFFF;}
	.st142{clip-path:url(#SVGID_00000064336094967099899020000007890695016731056782_);fill:#333333;}
	.st143{clip-path:url(#SVGID_00000108280591758677147220000008962177111689801350_);fill:#DC3285;}
	.st144{clip-path:url(#SVGID_00000108280591758677147220000008962177111689801350_);fill:#FFFFFF;}
	.st145{clip-path:url(#SVGID_00000108280591758677147220000008962177111689801350_);fill:#333333;}
	.st146{clip-path:url(#SVGID_00000090998495908672161420000012935748615433896082_);fill:#26AD35;}
	.st147{clip-path:url(#SVGID_00000090998495908672161420000012935748615433896082_);fill:#6AD542;}
	.st148{clip-path:url(#SVGID_00000090998495908672161420000012935748615433896082_);fill:#56BE2F;}
	.st149{clip-path:url(#SVGID_00000037676990970645923440000000462242115396786836_);fill:#45A840;}
	.st150{clip-path:url(#SVGID_00000037676990970645923440000000462242115396786836_);fill:#56BE2F;}
	.st151{clip-path:url(#SVGID_00000154414129192738295790000018352960991017868941_);fill:#45A840;}
	.st152{clip-path:url(#SVGID_00000154414129192738295790000018352960991017868941_);fill:#56BE2F;}
	.st153{clip-path:url(#SVGID_00000093164623169677860010000018159270960421158546_);fill:#6AD542;}
	.st154{opacity:0.7;clip-path:url(#SVGID_00000093164623169677860010000018159270960421158546_);}
	.st155{clip-path:url(#SVGID_00000058569899013133349690000002597064918625465001_);fill:#3E8913;}
	.st156{clip-path:url(#SVGID_00000058569899013133349690000002597064918625465001_);fill:#6AD542;}
	.st157{clip-path:url(#SVGID_00000054227345432057291770000000797626574157161102_);fill:#29BD3A;}
	.st158{clip-path:url(#SVGID_00000054227345432057291770000000797626574157161102_);fill:#6AD542;}
	.st159{clip-path:url(#SVGID_00000119823578075075233680000007681293768302793657_);fill:#6AD542;}
	.st160{opacity:0.7;clip-path:url(#SVGID_00000119823578075075233680000007681293768302793657_);}
	.st161{clip-path:url(#SVGID_00000129918563168190340980000005746921333032830118_);fill:#6AD542;}
	.st162{opacity:0.56;clip-path:url(#SVGID_00000129918563168190340980000005746921333032830118_);fill:#26AD35;}
	.st163{clip-path:url(#SVGID_00000041986822483637218300000016111101989752397220_);fill:#45A840;}
	.st164{clip-path:url(#SVGID_00000041986822483637218300000016111101989752397220_);fill:#56BE2F;}
	.st165{clip-path:url(#SVGID_00000117670169160105743850000012956381522616062359_);fill:#3E8913;}
	.st166{clip-path:url(#SVGID_00000117670169160105743850000012956381522616062359_);fill:#6AD542;}
	.st167{clip-path:url(#SVGID_00000170257853057996114130000017085452537212883595_);fill:#29BD3A;}
	.st168{clip-path:url(#SVGID_00000170257853057996114130000017085452537212883595_);fill:#6AD542;}
	.st169{clip-path:url(#SVGID_00000036235262981200609500000003953610805011100307_);fill:#6AD542;}
	.st170{opacity:0.7;clip-path:url(#SVGID_00000036235262981200609500000003953610805011100307_);}
	.st171{opacity:0.28;fill:url(#SVGID_00000106830621755236022880000008270856118850471611_);}
	.st172{opacity:0.7;fill:url(#SVGID_00000008848108491912052880000009959378643690919099_);}
	.st173{clip-path:url(#SVGID_00000127735666063311551430000008009068001288058535_);}
	.st174{clip-path:url(#SVGID_00000028302516484352764960000002446927458563451566_);}
	.st175{clip-path:url(#SVGID_00000097496439983297837710000015237869510157064125_);fill:#FFFFFF;}
	.st176{clip-path:url(#SVGID_00000097496439983297837710000015237869510157064125_);}
	.st177{clip-path:url(#SVGID_00000021115568639530218840000004443979587633707154_);fill:#333333;}
	.st178{clip-path:url(#SVGID_00000021115568639530218840000004443979587633707154_);fill:#FFCD55;}
	.st179{clip-path:url(#SVGID_00000021115568639530218840000004443979587633707154_);}
	.st180{clip-path:url(#SVGID_00000049216841480241571670000015860176169751997844_);}
	.st181{fill:url(#SVGID_00000044868319356061817670000011630903230563691183_);}
	.st182{clip-path:url(#SVGID_00000049216841480241571670000015860176169751997844_);fill:#FFA002;}
	.st183{fill:url(#SVGID_00000101796349407768653820000012632964383173229977_);}
	.st184{clip-path:url(#SVGID_00000180353404497317797740000014814090798187773349_);fill:#8BE04A;}
	
		.st185{opacity:0.55;clip-path:url(#SVGID_00000180353404497317797740000014814090798187773349_);fill:url(#SVGID_00000067197796680600246260000016346370100255627679_);}
	.st186{fill:#009245;}
	.st187{clip-path:url(#SVGID_00000180327344731947032430000002207445125950233007_);}
	.st188{fill:none;stroke:#FFFFFF;stroke-width:27;stroke-linecap:round;stroke-miterlimit:10;}
	.st189{fill:none;stroke:#2CAF4B;stroke-width:61;stroke-linecap:round;stroke-linejoin:round;stroke-miterlimit:10;}
	.st190{fill:none;stroke:#DC3285;stroke-width:13;stroke-linecap:round;stroke-linejoin:round;stroke-miterlimit:10;}
	.st191{fill:#2CAF4B;}
	.st192{opacity:0.1;}
	.st193{fill:#151814;}
	.st194{fill:none;stroke:#DC3285;stroke-width:30;stroke-miterlimit:10;}
	.st195{fill:#DC3285;stroke:#E567A5;stroke-width:6;stroke-miterlimit:10;}
	.st196{fill:#282560;}
	.st197{fill:url(#SVGID_00000088839928640989684380000000080024810993873543_);}
	.st198{fill:url(#SVGID_00000178911326129571496180000009686950381478805388_);}
	.st199{clip-path:url(#SVGID_00000128482297209707442500000000799766037118011045_);}
	.st200{clip-path:url(#SVGID_00000157986483215256452870000010976699882065611143_);}
	.st201{clip-path:url(#SVGID_00000021833538006132186630000010640967488322941111_);}
	.st202{fill:#006600;}
	.st203{opacity:0.77;}
	.st204{clip-path:url(#SVGID_00000026123726534488028980000003025656379742154938_);}
	.st205{clip-path:url(#SVGID_00000080208579805950979140000008087479033263228313_);}
	.st206{clip-path:url(#SVGID_00000062185368568685222010000001645808279866766471_);}
	.st207{clip-path:url(#SVGID_00000006674399951226162970000006146097411394103180_);}
	.st208{clip-path:url(#SVGID_00000105426755004370954710000016906997273333929654_);}
	.st209{clip-path:url(#SVGID_00000115492639120885088180000012752500862806781842_);}
	.st210{clip-path:url(#SVGID_00000149348593591830066360000015571671719859247003_);}
	.st211{clip-path:url(#SVGID_00000096777005747672060320000013022823000139737749_);}
	.st212{clip-path:url(#SVGID_00000178923580974221165080000003279154145492212875_);}
	.st213{clip-path:url(#SVGID_00000114034109196703191770000012010918390273979289_);}
	.st214{clip-path:url(#SVGID_00000002370857513239244360000011322280777356178356_);}
	.st215{clip-path:url(#SVGID_00000003103205237426120600000001156137088657440420_);fill:#FFFFFF;}
	.st216{opacity:0.64;clip-path:url(#SVGID_00000165937411072259665790000014587914313898922387_);fill:#FFFFFF;}
	.st217{opacity:0.61;clip-path:url(#SVGID_00000105404204833100049620000013548067728772484784_);fill:#FFFFFF;}
	.st218{opacity:0.43;}
	.st219{fill:#4D4D4D;}
	.st220{fill:#3B3B3B;}
	.st221{clip-path:url(#SVGID_00000054957616557678081360000001155369196694440587_);fill:#DC3285;}
	.st222{clip-path:url(#SVGID_00000054957616557678081360000001155369196694440587_);fill:#FFFFFF;}
	.st223{clip-path:url(#SVGID_00000054957616557678081360000001155369196694440587_);fill:#333333;}
	.st224{clip-path:url(#SVGID_00000086651232715273144040000007465653021320421761_);fill:#DC3285;}
	.st225{clip-path:url(#SVGID_00000086651232715273144040000007465653021320421761_);fill:#FFFFFF;}
	.st226{clip-path:url(#SVGID_00000086651232715273144040000007465653021320421761_);fill:#333333;}
	.st227{fill:#26AD35;}
	.st228{fill:#45A840;}
	.st229{opacity:0.56;fill:#26AD35;}
	.st230{opacity:0.42;}
	.st231{fill:#292929;}
	.st232{opacity:0.15;}
	.st233{clip-path:url(#SVGID_00000075130540465779331450000014715985677561796263_);}
	.st234{clip-path:url(#SVGID_00000037690842489976423820000016159110354750205875_);}
	.st235{clip-path:url(#SVGID_00000162330754224736084780000009153668014864460950_);}
	.st236{clip-path:url(#SVGID_00000065767378382559934470000002396342462895435950_);}
	.st237{clip-path:url(#SVGID_00000146501820138729685540000016104301065697547904_);}
	.st238{clip-path:url(#SVGID_00000000941221068922066350000013174484410924011440_);}
	.st239{clip-path:url(#SVGID_00000059286931641237091700000007179126196586337954_);}
	.st240{clip-path:url(#SVGID_00000006674318835840686810000008477847726988087203_);}
	.st241{clip-path:url(#SVGID_00000101076258399990419190000015179328993733503627_);}
	.st242{clip-path:url(#SVGID_00000117654837418885775990000010351169650375360163_);}
	.st243{clip-path:url(#SVGID_00000163073591072083315110000000010210832796819106_);}
	.st244{clip-path:url(#SVGID_00000033356414212752095340000011184097033526456988_);}
	.st245{clip-path:url(#SVGID_00000175324606097662552340000014895840268065909177_);}
	.st246{clip-path:url(#SVGID_00000083054676098767637040000005608582967157758627_);}
	.st247{clip-path:url(#SVGID_00000061467155695495041630000018093948503817552525_);}
	.st248{clip-path:url(#SVGID_00000004524944930331994780000009356589675007336353_);}
	.st249{clip-path:url(#SVGID_00000042010748941965665540000006698846017385315205_);}
	.st250{clip-path:url(#SVGID_00000046326906031314094110000013162710496461047979_);}
	.st251{clip-path:url(#SVGID_00000138535828007675870600000005218999858609008000_);}
	.st252{clip-path:url(#SVGID_00000062164520407760020150000010040531744831314876_);}
	.st253{clip-path:url(#SVGID_00000098938312249157320630000015899629749434793629_);}
	.st254{clip-path:url(#SVGID_00000085961983343088431740000003430441266697302952_);}
	.st255{clip-path:url(#SVGID_00000127017861799699067720000002366592877262051001_);}
	.st256{clip-path:url(#SVGID_00000156583441185068338720000013869649197536130948_);}
	.st257{clip-path:url(#SVGID_00000088124610169887169760000004879538253217326758_);}
	.st258{clip-path:url(#SVGID_00000026160010326593121780000003676054290500871613_);}
	.st259{clip-path:url(#SVGID_00000024714540317628401430000009945053012990276263_);}
	.st260{clip-path:url(#SVGID_00000096752337671374984280000000485333452222072998_);}
	.st261{clip-path:url(#SVGID_00000126317380046016858040000009453040397980665996_);}
	.st262{clip-path:url(#SVGID_00000025423758295058208870000015792510933516749986_);}
	.st263{clip-path:url(#SVGID_00000002365612775581192180000009111632128987325358_);}
	.st264{clip-path:url(#SVGID_00000040565318731982847060000007923804402061011634_);}
	.st265{clip-path:url(#SVGID_00000078744513573944613330000008097282272869855919_);}
	.st266{clip-path:url(#SVGID_00000021837874788701223030000017388617093496550529_);}
	.st267{clip-path:url(#SVGID_00000011028196963320909490000011403851237686002574_);}
	.st268{clip-path:url(#SVGID_00000163791066819878622850000000363479973925613757_);}
	.st269{clip-path:url(#SVGID_00000137835133126332996670000008600302378872905618_);}
	.st270{clip-path:url(#SVGID_00000114786207440355172540000007058036820308752053_);}
	.st271{clip-path:url(#SVGID_00000103250361438889917320000001301937138341232027_);}
	.st272{clip-path:url(#SVGID_00000088835797276325590090000017678168186855293367_);}
	.st273{clip-path:url(#SVGID_00000129168595449470935070000010703804780192141195_);}
	.st274{clip-path:url(#SVGID_00000054947325409387907140000007566845239592808122_);}
	.st275{clip-path:url(#SVGID_00000091700058816357910780000010490340247037080765_);}
	.st276{clip-path:url(#SVGID_00000102525629859987452980000006714831228768929464_);}
	.st277{clip-path:url(#SVGID_00000086661713987806276530000004903781198642021282_);}
	.st278{clip-path:url(#SVGID_00000068663056878034625860000011651025366812416446_);}
	.st279{clip-path:url(#SVGID_00000028315529769740802030000013069048861967705502_);}
	.st280{clip-path:url(#SVGID_00000144327696372342828170000016823391754954468278_);}
	.st281{clip-path:url(#SVGID_00000013914638502295801300000005237364352946667935_);}
	.st282{clip-path:url(#SVGID_00000049193896294222490360000008416219980408540822_);}
	.st283{clip-path:url(#SVGID_00000182521537507208745530000016547901596390715569_);}
	.st284{clip-path:url(#SVGID_00000131364728640640104440000001852957427945557414_);}
	.st285{clip-path:url(#SVGID_00000109746993201416004140000015539769579205758645_);}
	.st286{clip-path:url(#SVGID_00000077321548824644055100000013092971970386356105_);}
	.st287{clip-path:url(#SVGID_00000031900706878134356810000009768667075011360170_);}
	.st288{clip-path:url(#SVGID_00000086679855670538839380000012871928767522699408_);}
	.st289{clip-path:url(#SVGID_00000100363616189505237990000016723880376395346335_);}
	.st290{clip-path:url(#SVGID_00000152946955544054339360000017041725556156454280_);}
	.st291{clip-path:url(#SVGID_00000026871563610332015080000008170694327793342369_);}
	.st292{clip-path:url(#SVGID_00000126312449681666510500000005995640539455687303_);}
	.st293{clip-path:url(#SVGID_00000070824369905080473180000002269612458083309721_);}
	.st294{clip-path:url(#SVGID_00000069378354502353376410000014834100396650061500_);}
	.st295{clip-path:url(#SVGID_00000074403223601583543100000015868981394695363743_);}
	.st296{clip-path:url(#SVGID_00000046340872252714628090000003470049284215466639_);}
	.st297{clip-path:url(#SVGID_00000089557229760210080650000006385129884332317087_);}
	.st298{clip-path:url(#SVGID_00000085221757111849992740000015231056611392830639_);}
	.st299{clip-path:url(#SVGID_00000057122523829351113480000016750757139284902552_);}
	.st300{clip-path:url(#SVGID_00000169551997064730597300000005777073426094117027_);}
	.st301{clip-path:url(#SVGID_00000033341425285175052680000002727674239378978224_);}
	.st302{clip-path:url(#SVGID_00000171001458631084429470000000267787614640104336_);}
	.st303{clip-path:url(#SVGID_00000180345642243540862740000017133934481826021542_);}
	.st304{clip-path:url(#SVGID_00000093893161224540587730000008865228490457854643_);}
	.st305{clip-path:url(#SVGID_00000070114695303769662570000000272320649445830335_);}
	.st306{clip-path:url(#SVGID_00000097468685100797891710000015181197088728281997_);}
	.st307{clip-path:url(#SVGID_00000086654430944645637770000010877225372708888716_);}
	.st308{clip-path:url(#SVGID_00000108992475304755492810000015474970228311958941_);}
	.st309{clip-path:url(#SVGID_00000140715073275330832750000016554997200724489404_);}
	.st310{clip-path:url(#SVGID_00000105386327863781677260000006943273104731495308_);}
	.st311{clip-path:url(#SVGID_00000100365134039896356810000017168954008953490860_);}
	.st312{clip-path:url(#SVGID_00000163758415308130390140000009660116647499450795_);}
	.st313{clip-path:url(#SVGID_00000145762409900506838960000011913990922844039821_);}
	.st314{clip-path:url(#SVGID_00000083086278032679514450000003142676624610812297_);}
	.st315{fill:#54BA2E;}
	.st316{fill:#008DF2;}
	.st317{opacity:0.76;}
	.st318{clip-path:url(#SVGID_00000168084180744980439360000016767919313137022370_);fill:#0088C7;}
	.st319{clip-path:url(#SVGID_00000168084180744980439360000016767919313137022370_);fill:#0189C8;}
	.st320{clip-path:url(#SVGID_00000168084180744980439360000016767919313137022370_);fill:#028AC9;}
	.st321{clip-path:url(#SVGID_00000168084180744980439360000016767919313137022370_);fill:#048BC9;}
	.st322{clip-path:url(#SVGID_00000168084180744980439360000016767919313137022370_);fill:#058CCA;}
	.st323{clip-path:url(#SVGID_00000168084180744980439360000016767919313137022370_);fill:#068DCB;}
	.st324{clip-path:url(#SVGID_00000168084180744980439360000016767919313137022370_);fill:#078FCC;}
	.st325{clip-path:url(#SVGID_00000168084180744980439360000016767919313137022370_);fill:#0890CC;}
	.st326{clip-path:url(#SVGID_00000168084180744980439360000016767919313137022370_);fill:#0991CD;}
	.st327{clip-path:url(#SVGID_00000168084180744980439360000016767919313137022370_);fill:#0B92CE;}
	.st328{clip-path:url(#SVGID_00000168084180744980439360000016767919313137022370_);fill:#0C93CF;}
	.st329{clip-path:url(#SVGID_00000168084180744980439360000016767919313137022370_);fill:#0D94D0;}
	.st330{clip-path:url(#SVGID_00000168084180744980439360000016767919313137022370_);fill:#0E95D0;}
	.st331{clip-path:url(#SVGID_00000168084180744980439360000016767919313137022370_);fill:#0F96D1;}
	.st332{clip-path:url(#SVGID_00000168084180744980439360000016767919313137022370_);fill:#1097D2;}
	.st333{clip-path:url(#SVGID_00000168084180744980439360000016767919313137022370_);fill:#1198D3;}
	.st334{clip-path:url(#SVGID_00000168084180744980439360000016767919313137022370_);fill:#1399D3;}
	.st335{clip-path:url(#SVGID_00000168084180744980439360000016767919313137022370_);fill:#149AD4;}
	.st336{clip-path:url(#SVGID_00000168084180744980439360000016767919313137022370_);fill:#159BD5;}
	.st337{clip-path:url(#SVGID_00000168084180744980439360000016767919313137022370_);fill:#169CD6;}
	.st338{clip-path:url(#SVGID_00000168084180744980439360000016767919313137022370_);fill:#179DD6;}
	.st339{clip-path:url(#SVGID_00000168084180744980439360000016767919313137022370_);fill:#189ED7;}
	.st340{clip-path:url(#SVGID_00000168084180744980439360000016767919313137022370_);fill:#199FD8;}
	.st341{clip-path:url(#SVGID_00000168084180744980439360000016767919313137022370_);fill:#1AA0D9;}
	.st342{clip-path:url(#SVGID_00000168084180744980439360000016767919313137022370_);fill:#1BA1D9;}
	.st343{clip-path:url(#SVGID_00000168084180744980439360000016767919313137022370_);fill:#1DA2DA;}
	.st344{clip-path:url(#SVGID_00000168084180744980439360000016767919313137022370_);fill:#1EA4DB;}
	.st345{clip-path:url(#SVGID_00000168084180744980439360000016767919313137022370_);fill:#1FA5DC;}
	.st346{clip-path:url(#SVGID_00000168084180744980439360000016767919313137022370_);fill:#20A6DC;}
	.st347{clip-path:url(#SVGID_00000168084180744980439360000016767919313137022370_);fill:#21A7DD;}
	.st348{clip-path:url(#SVGID_00000168084180744980439360000016767919313137022370_);fill:#22A8DE;}
	.st349{clip-path:url(#SVGID_00000168084180744980439360000016767919313137022370_);fill:#23A9DE;}
	.st350{clip-path:url(#SVGID_00000168084180744980439360000016767919313137022370_);fill:#24AADF;}
	.st351{clip-path:url(#SVGID_00000168084180744980439360000016767919313137022370_);fill:#25ABE0;}
	.st352{clip-path:url(#SVGID_00000168084180744980439360000016767919313137022370_);fill:#26ABE1;}
	.st353{clip-path:url(#SVGID_00000168084180744980439360000016767919313137022370_);fill:#27ACE1;}
	.st354{clip-path:url(#SVGID_00000168084180744980439360000016767919313137022370_);fill:#28ADE2;}
	.st355{clip-path:url(#SVGID_00000168084180744980439360000016767919313137022370_);fill:#29AEE3;}
	.st356{clip-path:url(#SVGID_00000168084180744980439360000016767919313137022370_);fill:#2AAFE3;}
	.st357{clip-path:url(#SVGID_00000168084180744980439360000016767919313137022370_);fill:#2BB0E4;}
	.st358{clip-path:url(#SVGID_00000168084180744980439360000016767919313137022370_);fill:#2CB1E5;}
	.st359{clip-path:url(#SVGID_00000168084180744980439360000016767919313137022370_);fill:#2EB2E5;}
	.st360{clip-path:url(#SVGID_00000168084180744980439360000016767919313137022370_);fill:#2FB3E6;}
	.st361{clip-path:url(#SVGID_00000168084180744980439360000016767919313137022370_);fill:#30B4E7;}
	.st362{clip-path:url(#SVGID_00000168084180744980439360000016767919313137022370_);fill:#31B5E7;}
	.st363{clip-path:url(#SVGID_00000168084180744980439360000016767919313137022370_);fill:#32B6E8;}
	.st364{clip-path:url(#SVGID_00000168084180744980439360000016767919313137022370_);fill:#32B7E9;}
	.st365{clip-path:url(#SVGID_00000168084180744980439360000016767919313137022370_);fill:#33B8E9;}
	.st366{clip-path:url(#SVGID_00000168084180744980439360000016767919313137022370_);fill:#34B9EA;}
	.st367{clip-path:url(#SVGID_00000168084180744980439360000016767919313137022370_);fill:#35BAEB;}
	.st368{clip-path:url(#SVGID_00000168084180744980439360000016767919313137022370_);fill:#36BAEB;}
	.st369{clip-path:url(#SVGID_00000168084180744980439360000016767919313137022370_);fill:#37BBEC;}
	.st370{clip-path:url(#SVGID_00000168084180744980439360000016767919313137022370_);fill:#38BCEC;}
	.st371{clip-path:url(#SVGID_00000168084180744980439360000016767919313137022370_);fill:#39BDED;}
	.st372{clip-path:url(#SVGID_00000168084180744980439360000016767919313137022370_);fill:#3ABEEE;}
	.st373{clip-path:url(#SVGID_00000168084180744980439360000016767919313137022370_);fill:#3BBFEE;}
	.st374{clip-path:url(#SVGID_00000168084180744980439360000016767919313137022370_);fill:#3CC0EF;}
	.st375{clip-path:url(#SVGID_00000168084180744980439360000016767919313137022370_);fill:#3DC0F0;}
	.st376{clip-path:url(#SVGID_00000168084180744980439360000016767919313137022370_);fill:#3EC1F0;}
	.st377{clip-path:url(#SVGID_00000168084180744980439360000016767919313137022370_);fill:#3EC2F1;}
	.st378{clip-path:url(#SVGID_00000168084180744980439360000016767919313137022370_);fill:#3FC3F1;}
	.st379{clip-path:url(#SVGID_00000168084180744980439360000016767919313137022370_);fill:#40C3F2;}
	.st380{clip-path:url(#SVGID_00000168084180744980439360000016767919313137022370_);fill:#41C4F2;}
	.st381{clip-path:url(#SVGID_00000168084180744980439360000016767919313137022370_);fill:#42C5F3;}
	.st382{clip-path:url(#SVGID_00000168084180744980439360000016767919313137022370_);fill:#42C6F3;}
	.st383{clip-path:url(#SVGID_00000168084180744980439360000016767919313137022370_);fill:#43C6F4;}
	.st384{clip-path:url(#SVGID_00000168084180744980439360000016767919313137022370_);fill:#44C7F4;}
	.st385{clip-path:url(#SVGID_00000168084180744980439360000016767919313137022370_);fill:#44C8F5;}
	.st386{clip-path:url(#SVGID_00000168084180744980439360000016767919313137022370_);fill:#45C8F5;}
	.st387{fill:url(#SVGID_00000152227061231375333230000014314368854149363596_);}
	.st388{fill:url(#SVGID_00000010990762767276815740000001183859969660115364_);}
	.st389{fill:url(#SVGID_00000093889370145126670540000009975402096139847600_);}
	.st390{fill:url(#SVGID_00000152975426136692758850000008300012843393494672_);}
	.st391{fill:#FF7FC8;}
	.st392{clip-path:url(#SVGID_00000111913380907656342110000016197282823095786388_);fill:#333333;}
	.st393{clip-path:url(#SVGID_00000111913380907656342110000016197282823095786388_);fill:#FFCD55;}
	.st394{clip-path:url(#SVGID_00000111913380907656342110000016197282823095786388_);}
	.st395{fill:#73E1EF;}
	.st396{fill:#0E68A3;}
	.st397{fill:#053483;}
</style>
<g>
	<g class="st113">
		<path class="st114" d="M76.14,46.9c0.72,0,1.32-0.24,1.81-0.73c0.49-0.49,0.73-1.09,0.73-1.81c0-0.72-0.24-1.32-0.73-1.81
			c-0.49-0.49-1.09-0.73-1.81-0.73c-0.72,0-1.32,0.24-1.81,0.73c-0.49,0.49-0.73,1.09-0.73,1.81c0,0.72,0.24,1.32,0.73,1.81
			C74.81,46.66,75.42,46.9,76.14,46.9z"/>
		<path class="st114" d="M66.55,75.59c-1.59,0-2.94,0.41-4.05,1.22c-1.11,0.81-1.79,1.89-2.05,3.22l3.33,0.76
			c0.4-1.23,1.32-1.84,2.76-1.84c1.86,0,2.79,0.78,2.79,2.35V82h-2.67c-2.03,0-3.68,0.48-4.94,1.43c-1.26,0.95-1.89,2.22-1.89,3.81
			c0,1.5,0.45,2.69,1.35,3.56c0.9,0.87,2.07,1.3,3.51,1.3c2.05,0,3.69-0.76,4.92-2.29l0.41,2.03h3.24v-9.55
			C73.28,77.82,71.04,75.59,66.55,75.59z M69.34,85.43c0,0.97-0.38,1.77-1.14,2.38c-0.74,0.61-1.6,0.92-2.57,0.92
			c-0.51,0-0.91-0.15-1.21-0.44c-0.3-0.3-0.44-0.67-0.44-1.11c0-1.38,0.91-2.06,2.73-2.06h2.63V85.43z"/>
		<path class="st114" d="M55.22,76.3c-0.99-0.48-2.12-0.71-3.36-0.71c-1.31,0-2.48,0.25-3.51,0.75c-1.03,0.5-1.83,1.15-2.41,1.97
			c-0.58,0.81-1.02,1.69-1.32,2.63c-0.3,0.94-0.44,1.91-0.44,2.9c0,0.99,0.15,1.96,0.44,2.9c0.3,0.94,0.74,1.82,1.32,2.63
			c0.58,0.81,1.39,1.47,2.41,1.97c1.03,0.5,2.2,0.75,3.51,0.75c3.47,0,5.89-1.56,7.27-4.67l-3.17-1.17
			c-0.95,1.65-2.24,2.48-3.87,2.48c-1.1,0-1.99-0.35-2.68-1.05c-0.69-0.7-1.05-1.56-1.1-2.57h11.01v-1.62
			c0-1.93-0.57-3.67-1.71-5.24C57.01,77.43,56.21,76.78,55.22,76.3z M48.39,82c0.15-0.87,0.53-1.59,1.16-2.17
			c0.62-0.58,1.39-0.87,2.3-0.87c1.84,0,2.98,1.02,3.43,3.05H48.39z"/>
		<path class="st114" d="M85.88,77.3c-0.38-0.49-0.93-0.89-1.65-1.22c-0.72-0.33-1.46-0.49-2.22-0.49c-2.33,0-4.13,0.74-5.4,2.21
			c-1.27,1.47-1.9,3.49-1.9,6.05c0,2.56,0.63,4.58,1.9,6.05c1.27,1.47,3.07,2.21,5.4,2.21c0.85,0,1.63-0.2,2.36-0.59
			c0.73-0.39,1.23-0.83,1.51-1.32v1.65h3.94V69.37h-3.94V77.3z M85.18,87.46c-0.66,0.85-1.53,1.27-2.63,1.27
			c-1.08,0-1.97-0.43-2.67-1.3c-0.7-0.85-1.05-2.04-1.05-3.59c0-1.52,0.35-2.72,1.05-3.59c0.7-0.87,1.59-1.3,2.67-1.3
			c1.08,0,1.96,0.43,2.63,1.3c0.7,0.87,1.05,2.06,1.05,3.59C86.23,85.41,85.88,86.61,85.18,87.46z"/>
		<rect x="74.17" y="48.97" class="st114" width="3.94" height="16"/>
		<path class="st114" d="M101.12,83.33c-0.61-0.34-0.99-0.54-1.14-0.6l-1.36-0.48l-1.14-0.41c-1.02-0.38-1.52-0.9-1.52-1.56
			c0-0.42,0.14-0.75,0.41-0.98c0.27-0.23,0.62-0.35,1.05-0.35c1.04,0,1.93,0.47,2.67,1.4l2.35-2.16c-0.51-0.78-1.21-1.41-2.11-1.89
			c-0.9-0.48-1.87-0.71-2.9-0.71c-1.52,0-2.75,0.46-3.68,1.37c-0.95,0.91-1.43,2.01-1.43,3.3c0,1.1,0.27,1.98,0.81,2.63
			c0.54,0.66,1.35,1.22,2.43,1.68c0.17,0.06,0.54,0.2,1.11,0.41c0.57,0.21,0.95,0.36,1.14,0.44c0.34,0.11,0.63,0.23,0.89,0.38
			c0.57,0.28,0.86,0.68,0.86,1.21c0,1.14-0.66,1.71-1.97,1.71c-1.5,0-2.57-0.88-3.21-2.63l-3.14,1.68c0.49,1.16,1.28,2.17,2.38,3.02
			c1.12,0.87,2.44,1.3,3.97,1.3c1.69,0,3.06-0.52,4.09-1.56c1.06-1.06,1.59-2.32,1.59-3.78c0-0.99-0.33-1.86-0.98-2.6
			C102.07,83.9,101.69,83.63,101.12,83.33z"/>
		<path class="st114" d="M87.78,65.22c2.5,0,4.48-0.77,5.94-2.32c1.46-1.54,2.19-3.52,2.19-5.94c0-2.37-0.73-4.34-2.19-5.9
			c-1.46-1.57-3.44-2.35-5.94-2.35s-4.48,0.78-5.94,2.35c-1.46,1.57-2.19,3.53-2.19,5.9c0,2.41,0.73,4.39,2.19,5.94
			C83.31,64.45,85.29,65.22,87.78,65.22z M84.86,53.51c0.72-0.95,1.69-1.43,2.92-1.43c1.21,0,2.18,0.48,2.92,1.43
			c0.72,0.91,1.08,2.06,1.08,3.46c0,1.4-0.36,2.56-1.08,3.49c-0.74,0.93-1.71,1.4-2.92,1.4c-1.21,0-2.18-0.47-2.92-1.4
			c-0.72-0.93-1.08-2.1-1.08-3.49C83.79,55.57,84.14,54.42,84.86,53.51z"/>
		<path class="st114" d="M63.72,65.22c0.85,0,1.63-0.2,2.36-0.59c0.73-0.39,1.23-0.83,1.51-1.32v1.65h3.94V42.49H67.6v7.94
			c-0.38-0.49-0.93-0.89-1.65-1.22c-0.72-0.33-1.46-0.49-2.22-0.49c-2.33,0-4.13,0.74-5.4,2.21c-1.27,1.47-1.9,3.49-1.9,6.05
			c0,2.56,0.63,4.58,1.9,6.05C59.6,64.48,61.4,65.22,63.72,65.22z M61.6,53.38c0.7-0.87,1.59-1.3,2.67-1.3
			c1.08,0,1.96,0.43,2.63,1.3c0.7,0.87,1.05,2.06,1.05,3.59c0,1.57-0.35,2.77-1.05,3.62c-0.66,0.85-1.53,1.27-2.63,1.27
			c-1.08,0-1.97-0.43-2.67-1.3c-0.7-0.85-1.05-2.04-1.05-3.59C60.55,55.44,60.9,54.25,61.6,53.38z"/>
		<path class="st114" d="M29,55.38h2.16l5.97,9.59h4.6l-6.16-9.94c1.33-0.4,2.36-1.13,3.08-2.17c0.72-1.05,1.08-2.31,1.08-3.79
			c0-1.93-0.59-3.46-1.78-4.6c-1.19-1.14-2.85-1.71-4.98-1.71h-8.09v22.22H29V55.38z M29,46.56h4c1.73,0,2.6,0.84,2.6,2.51
			c0,1.67-0.87,2.51-2.6,2.51h-4V46.56z"/>
		<polygon class="st114" points="37.89,78.06 29,78.06 29,69.62 24.87,69.62 24.87,91.84 29,91.84 29,81.87 37.89,81.87 
			37.89,91.84 42.01,91.84 42.01,69.62 37.89,69.62 		"/>
		<path class="st114" d="M51.35,62.93l0.41,2.03H55v-9.55c0-4.46-2.24-6.7-6.73-6.7c-1.59,0-2.94,0.41-4.05,1.22
			c-1.11,0.81-1.79,1.89-2.05,3.22l3.33,0.76c0.4-1.23,1.32-1.84,2.76-1.84c1.86,0,2.79,0.78,2.79,2.35v0.7h-2.67
			c-2.03,0-3.68,0.48-4.94,1.43c-1.26,0.95-1.89,2.22-1.89,3.81c0,1.5,0.45,2.69,1.35,3.56c0.9,0.87,2.07,1.3,3.51,1.3
			C48.48,65.22,50.12,64.46,51.35,62.93z M45.7,60.3c0-1.38,0.91-2.06,2.73-2.06h2.63v0.32c0,0.97-0.38,1.77-1.14,2.38
			c-0.74,0.61-1.6,0.92-2.57,0.92c-0.51,0-0.91-0.15-1.21-0.44C45.84,61.11,45.7,60.74,45.7,60.3z"/>
		<path class="st114" d="M143.24,78.95c1.63,0,2.88,0.88,3.75,2.63l3.52-1.43c-1.23-3.05-3.65-4.57-7.27-4.57
			c-2.48,0-4.4,0.78-5.78,2.35c-1.35,1.54-2.03,3.51-2.03,5.9c0,2.39,0.68,4.36,2.03,5.9c1.38,1.57,3.3,2.35,5.78,2.35
			c3.62,0,6.04-1.52,7.27-4.57l-3.52-1.43c-0.87,1.76-2.12,2.63-3.75,2.63c-1.19,0-2.09-0.44-2.73-1.32
			c-0.64-0.88-0.95-2.07-0.95-3.57c0-1.5,0.32-2.69,0.95-3.57C141.14,79.39,142.05,78.95,143.24,78.95z"/>
		<path class="st114" d="M127.33,75.59c-1.59,0-2.94,0.41-4.05,1.22c-1.11,0.81-1.79,1.89-2.05,3.22l3.33,0.76
			c0.4-1.23,1.32-1.84,2.76-1.84c1.86,0,2.79,0.78,2.79,2.35V82h-2.67c-2.03,0-3.68,0.48-4.94,1.43c-1.26,0.95-1.89,2.22-1.89,3.81
			c0,1.5,0.45,2.69,1.35,3.56c0.9,0.87,2.07,1.3,3.51,1.3c2.05,0,3.69-0.76,4.92-2.29l0.41,2.03h3.24v-9.55
			C134.06,77.82,131.82,75.59,127.33,75.59z M130.13,85.43c0,0.97-0.38,1.77-1.14,2.38c-0.74,0.61-1.6,0.92-2.57,0.92
			c-0.51,0-0.91-0.15-1.21-0.44c-0.3-0.3-0.44-0.67-0.44-1.11c0-1.38,0.91-2.06,2.73-2.06h2.63V85.43z"/>
		<path class="st114" d="M112.7,75.59c-0.85,0-1.63,0.2-2.36,0.59c-0.73,0.39-1.23,0.83-1.51,1.32v-1.65h-3.94v22.47h3.94v-7.94
			c0.38,0.49,0.93,0.89,1.65,1.22c0.72,0.33,1.46,0.49,2.22,0.49c2.33,0,4.13-0.74,5.4-2.21c1.27-1.47,1.9-3.49,1.9-6.05
			c0-2.56-0.64-4.58-1.9-6.05C116.83,76.32,115.03,75.59,112.7,75.59z M114.83,87.43c-0.7,0.87-1.59,1.3-2.67,1.3
			c-1.08,0-1.97-0.42-2.67-1.27c-0.68-0.87-1.02-2.07-1.02-3.62c0-1.52,0.34-2.72,1.02-3.59c0.7-0.87,1.59-1.3,2.67-1.3
			c1.08,0,1.97,0.43,2.67,1.3c0.7,0.87,1.05,2.06,1.05,3.59C115.88,85.38,115.53,86.58,114.83,87.43z"/>
		<path class="st114" d="M161.93,76.3c-0.99-0.48-2.12-0.71-3.36-0.71c-1.31,0-2.48,0.25-3.51,0.75c-1.03,0.5-1.83,1.15-2.41,1.97
			c-0.58,0.81-1.02,1.69-1.32,2.63c-0.3,0.94-0.44,1.91-0.44,2.9c0,0.99,0.15,1.96,0.44,2.9c0.3,0.94,0.74,1.82,1.32,2.63
			c0.58,0.81,1.39,1.47,2.41,1.97c1.03,0.5,2.2,0.75,3.51,0.75c3.47,0,5.89-1.56,7.27-4.67l-3.17-1.17
			c-0.95,1.65-2.24,2.48-3.87,2.48c-1.1,0-1.99-0.35-2.68-1.05c-0.69-0.7-1.05-1.56-1.09-2.57h11.01v-1.62
			c0-1.93-0.57-3.67-1.71-5.24C163.72,77.43,162.93,76.78,161.93,76.3z M155.11,82c0.15-0.87,0.53-1.59,1.16-2.17
			c0.62-0.58,1.39-0.87,2.3-0.87c1.84,0,2.98,1.02,3.43,3.05H155.11z"/>
		<path class="st0" d="M82.55,78.95c-1.08,0-1.97,0.43-2.67,1.3c-0.7,0.87-1.05,2.06-1.05,3.59c0,1.54,0.35,2.74,1.05,3.59
			c0.7,0.87,1.59,1.3,2.67,1.3c1.1,0,1.98-0.42,2.63-1.27c0.7-0.85,1.05-2.05,1.05-3.62c0-1.52-0.35-2.72-1.05-3.59
			C84.5,79.39,83.63,78.95,82.55,78.95z"/>
		<path class="st0" d="M51.85,78.95c-0.91,0-1.68,0.29-2.3,0.87c-0.62,0.58-1.01,1.31-1.16,2.17h6.89
			C54.84,79.97,53.69,78.95,51.85,78.95z"/>
		<path class="st0" d="M49.92,60.93c0.76-0.61,1.14-1.41,1.14-2.38v-0.32h-2.63c-1.82,0-2.73,0.69-2.73,2.06
			c0,0.44,0.15,0.81,0.44,1.11c0.3,0.3,0.7,0.44,1.21,0.44C48.32,61.85,49.18,61.55,49.92,60.93z"/>
		<path class="st0" d="M64.26,61.85c1.1,0,1.98-0.42,2.63-1.27c0.7-0.85,1.05-2.05,1.05-3.62c0-1.52-0.35-2.72-1.05-3.59
			c-0.68-0.87-1.56-1.3-2.63-1.3c-1.08,0-1.97,0.43-2.67,1.3c-0.7,0.87-1.05,2.06-1.05,3.59c0,1.54,0.35,2.74,1.05,3.59
			C62.3,61.42,63.19,61.85,64.26,61.85z"/>
		<path class="st0" d="M87.78,61.85c1.21,0,2.18-0.47,2.92-1.4c0.72-0.93,1.08-2.1,1.08-3.49c0-1.4-0.36-2.55-1.08-3.46
			c-0.74-0.95-1.71-1.43-2.92-1.43c-1.23,0-2.2,0.48-2.92,1.43c-0.72,0.91-1.08,2.06-1.08,3.46c0,1.4,0.36,2.56,1.08,3.49
			C85.6,61.39,86.58,61.85,87.78,61.85z"/>
		<path class="st0" d="M112.16,78.95c-1.08,0-1.97,0.43-2.67,1.3c-0.68,0.87-1.02,2.06-1.02,3.59c0,1.54,0.34,2.75,1.02,3.62
			c0.7,0.85,1.59,1.27,2.67,1.27c1.08,0,1.97-0.43,2.67-1.3c0.7-0.85,1.05-2.04,1.05-3.59c0-1.52-0.35-2.72-1.05-3.59
			C114.13,79.39,113.24,78.95,112.16,78.95z"/>
		<path class="st0" d="M35.6,49.06c0-1.67-0.87-2.51-2.6-2.51h-4v5.02h4C34.73,51.57,35.6,50.73,35.6,49.06z"/>
		<path class="st0" d="M63.98,87.17c0,0.44,0.15,0.81,0.44,1.11c0.3,0.3,0.7,0.44,1.21,0.44c0.97,0,1.83-0.31,2.57-0.92
			c0.76-0.61,1.14-1.41,1.14-2.38v-0.32h-2.63C64.89,85.11,63.98,85.8,63.98,87.17z"/>
		<path class="st0" d="M158.57,78.95c-0.91,0-1.68,0.29-2.3,0.87c-0.62,0.58-1.01,1.31-1.16,2.17H162
			C161.55,79.97,160.41,78.95,158.57,78.95z"/>
		<path class="st0" d="M169.29,65.06h-36.32c-16.49,0-29.86-13.37-29.86-29.86v-5.33c0-1.27,0.08-2.53,0.23-3.76H41.93
			C18.77,26.11,0,44.88,0,68.03v0c0,19.86,13.81,36.49,32.35,40.83c-1.28,8.13-5.55,15.74-12.24,21.61h0
			c-0.65,0.57-0.06,1.63,0.77,1.37l4.8-1.53c11.43-3.65,20.8-10.94,26.33-20.34h91.06c19.78,0,36.36-13.7,40.77-32.13
			C177.89,74.67,172.89,70.29,169.29,65.06z M81.85,51.06c1.46-1.57,3.44-2.35,5.94-2.35s4.48,0.78,5.94,2.35
			c1.46,1.57,2.19,3.53,2.19,5.9c0,2.41-0.73,4.39-2.19,5.94c-1.46,1.54-3.44,2.32-5.94,2.32s-4.48-0.77-5.94-2.32
			c-1.46-1.54-2.19-3.52-2.19-5.94C79.66,54.6,80.39,52.63,81.85,51.06z M58.33,50.92c1.27-1.47,3.07-2.21,5.4-2.21
			c0.76,0,1.5,0.16,2.22,0.49c0.72,0.33,1.27,0.74,1.65,1.22v-7.94h3.94v22.47H67.6v-1.65c-0.28,0.49-0.78,0.93-1.51,1.32
			c-0.73,0.39-1.52,0.59-2.36,0.59c-2.33,0-4.13-0.74-5.4-2.21c-1.27-1.47-1.9-3.49-1.9-6.05C56.42,54.41,57.06,52.39,58.33,50.92z
			 M24.87,42.75h8.09c2.14,0,3.8,0.57,4.98,1.71c1.18,1.14,1.78,2.68,1.78,4.6c0,1.48-0.36,2.75-1.08,3.79
			c-0.72,1.05-1.75,1.77-3.08,2.17l6.16,9.94h-4.6l-5.97-9.59H29v9.59h-4.13V42.75z M42.01,91.84h-4.13v-9.97H29v9.97h-4.13V69.62
			H29v8.44h8.89v-8.44h4.13V91.84z M41.57,60.36c0-1.59,0.63-2.86,1.89-3.81c1.26-0.95,2.9-1.43,4.94-1.43h2.67v-0.7
			c0-1.57-0.93-2.35-2.79-2.35c-1.44,0-2.36,0.61-2.76,1.84l-3.33-0.76c0.25-1.33,0.94-2.41,2.05-3.22
			c1.11-0.81,2.46-1.22,4.05-1.22c4.49,0,6.73,2.23,6.73,6.7v9.55h-3.24l-0.41-2.03c-1.23,1.52-2.87,2.29-4.92,2.29
			c-1.44,0-2.61-0.43-3.51-1.3C42.02,63.05,41.57,61.87,41.57,60.36z M59.31,85.11H48.3c0.04,1.02,0.41,1.87,1.1,2.57
			c0.69,0.7,1.58,1.05,2.68,1.05c1.63,0,2.92-0.83,3.87-2.48l3.17,1.17c-1.38,3.11-3.8,4.67-7.27,4.67c-1.31,0-2.48-0.25-3.51-0.75
			c-1.03-0.5-1.83-1.15-2.41-1.97c-0.58-0.81-1.02-1.69-1.32-2.63c-0.3-0.94-0.44-1.91-0.44-2.9c0-0.99,0.15-1.96,0.44-2.9
			c0.3-0.94,0.74-1.82,1.32-2.63c0.58-0.81,1.39-1.47,2.41-1.97c1.03-0.5,2.2-0.75,3.51-0.75c1.25,0,2.37,0.24,3.36,0.71
			c0.99,0.48,1.79,1.13,2.38,1.95c1.14,1.57,1.71,3.31,1.71,5.24V85.11z M73.28,91.84h-3.24l-0.41-2.03
			c-1.23,1.52-2.87,2.29-4.92,2.29c-1.44,0-2.61-0.43-3.51-1.3c-0.9-0.87-1.35-2.05-1.35-3.56c0-1.59,0.63-2.86,1.89-3.81
			C63,82.47,64.65,82,66.68,82h2.67v-0.7c0-1.57-0.93-2.35-2.79-2.35c-1.44,0-2.36,0.61-2.76,1.84l-3.33-0.76
			c0.25-1.33,0.94-2.41,2.05-3.22c1.11-0.81,2.46-1.22,4.05-1.22c4.49,0,6.73,2.23,6.73,6.7V91.84z M74.33,42.56
			c0.49-0.49,1.09-0.73,1.81-0.73c0.72,0,1.32,0.24,1.81,0.73c0.49,0.49,0.73,1.09,0.73,1.81c0,0.72-0.24,1.32-0.73,1.81
			c-0.49,0.49-1.09,0.73-1.81,0.73c-0.72,0-1.32-0.24-1.81-0.73c-0.49-0.49-0.73-1.09-0.73-1.81C73.6,43.65,73.84,43.04,74.33,42.56
			z M74.17,48.97h3.94v16h-3.94V48.97z M89.82,91.84h-3.94v-1.65c-0.28,0.49-0.78,0.93-1.51,1.32c-0.73,0.39-1.52,0.59-2.36,0.59
			c-2.33,0-4.13-0.74-5.4-2.21c-1.27-1.47-1.9-3.49-1.9-6.05c0-2.56,0.63-4.58,1.9-6.05c1.27-1.47,3.07-2.21,5.4-2.21
			c0.76,0,1.5,0.16,2.22,0.49c0.72,0.33,1.27,0.74,1.65,1.22v-7.94h3.94V91.84z M101.66,90.54c-1.04,1.04-2.4,1.56-4.09,1.56
			c-1.52,0-2.85-0.43-3.97-1.3c-1.1-0.85-1.89-1.85-2.38-3.02l3.14-1.68c0.63,1.76,1.7,2.63,3.21,2.63c1.31,0,1.97-0.57,1.97-1.71
			c0-0.53-0.29-0.93-0.86-1.21c-0.25-0.15-0.55-0.27-0.89-0.38c-0.19-0.08-0.57-0.23-1.14-0.44c-0.57-0.21-0.94-0.35-1.11-0.41
			c-1.08-0.47-1.89-1.03-2.43-1.68c-0.54-0.66-0.81-1.53-0.81-2.63c0-1.29,0.48-2.39,1.43-3.3c0.93-0.91,2.16-1.37,3.68-1.37
			c1.04,0,2,0.24,2.9,0.71c0.9,0.48,1.6,1.11,2.11,1.89l-2.35,2.16c-0.74-0.93-1.63-1.4-2.67-1.4c-0.42,0-0.77,0.12-1.05,0.35
			c-0.27,0.23-0.41,0.56-0.41,0.98c0,0.66,0.51,1.17,1.52,1.56l1.14,0.41l1.36,0.48c0.15,0.06,0.53,0.26,1.14,0.6
			c0.57,0.3,0.95,0.57,1.14,0.83c0.66,0.74,0.98,1.61,0.98,2.6C103.24,88.22,102.71,89.48,101.66,90.54z M118.1,89.89
			c-1.27,1.47-3.07,2.21-5.4,2.21c-0.76,0-1.5-0.16-2.22-0.49c-0.72-0.33-1.27-0.74-1.65-1.22v7.94h-3.94V75.84h3.94v1.65
			c0.27-0.49,0.78-0.93,1.51-1.32c0.73-0.39,1.52-0.59,2.36-0.59c2.33,0,4.13,0.74,5.4,2.21c1.27,1.47,1.9,3.49,1.9,6.05
			C120,86.4,119.37,88.42,118.1,89.89z M134.06,91.84h-3.24l-0.41-2.03c-1.23,1.52-2.87,2.29-4.92,2.29c-1.44,0-2.61-0.43-3.51-1.3
			c-0.9-0.87-1.35-2.05-1.35-3.56c0-1.59,0.63-2.86,1.89-3.81c1.26-0.95,2.9-1.43,4.94-1.43h2.67v-0.7c0-1.57-0.93-2.35-2.79-2.35
			c-1.44,0-2.36,0.61-2.76,1.84l-3.33-0.76c0.25-1.33,0.94-2.41,2.05-3.22c1.11-0.81,2.46-1.22,4.05-1.22c4.49,0,6.73,2.23,6.73,6.7
			V91.84z M140.51,87.41c0.63,0.88,1.54,1.32,2.73,1.32c1.63,0,2.88-0.88,3.75-2.63l3.52,1.43c-1.23,3.05-3.65,4.57-7.27,4.57
			c-2.48,0-4.4-0.78-5.78-2.35c-1.35-1.54-2.03-3.51-2.03-5.9c0-2.39,0.68-4.36,2.03-5.9c1.38-1.57,3.3-2.35,5.78-2.35
			c3.62,0,6.04,1.52,7.27,4.57l-3.52,1.43c-0.87-1.76-2.12-2.63-3.75-2.63c-1.19,0-2.09,0.44-2.73,1.32
			c-0.64,0.88-0.95,2.07-0.95,3.57C139.56,85.34,139.87,86.53,140.51,87.41z M166.03,85.11h-11.01c0.04,1.02,0.41,1.87,1.09,2.57
			c0.69,0.7,1.58,1.05,2.68,1.05c1.63,0,2.92-0.83,3.87-2.48l3.17,1.17c-1.38,3.11-3.8,4.67-7.27,4.67c-1.31,0-2.48-0.25-3.51-0.75
			c-1.03-0.5-1.83-1.15-2.41-1.97c-0.58-0.81-1.02-1.69-1.32-2.63c-0.3-0.94-0.44-1.91-0.44-2.9c0-0.99,0.15-1.96,0.44-2.9
			c0.3-0.94,0.74-1.82,1.32-2.63c0.58-0.81,1.39-1.47,2.41-1.97c1.03-0.5,2.2-0.75,3.51-0.75c1.25,0,2.37,0.24,3.36,0.71
			c0.99,0.48,1.79,1.13,2.38,1.95c1.14,1.57,1.71,3.31,1.71,5.24V85.11z"/>
		<path class="st0" d="M124.76,87.17c0,0.44,0.15,0.81,0.44,1.11c0.3,0.3,0.7,0.44,1.21,0.44c0.97,0,1.83-0.31,2.57-0.92
			c0.76-0.61,1.14-1.41,1.14-2.38v-0.32h-2.63C125.67,85.11,124.76,85.8,124.76,87.17z"/>
		<path class="st115" d="M203.06,35.2v-5.33C203.06,13.37,189.69,0,173.19,0h-40.22c-15.22,0-27.78,11.39-29.63,26.11
			c-0.15,1.23-0.23,2.48-0.23,3.76v5.33c0,16.49,13.37,29.86,29.86,29.86h36.32c3.6,5.23,8.6,9.61,14.55,12.77
			c2.38,1.26,4.91,2.33,7.56,3.18l4.28,1.37c0.74,0.24,1.28-0.71,0.69-1.22c-5.83-5.11-9.6-11.69-10.85-18.75
			C195.86,57.71,203.06,47.29,203.06,35.2z M155.81,14.96c0.66-0.23,1.38,0.11,1.62,0.77c0.28,0.79,0.81,1.48,1.48,1.97
			c0.68,0.48,1.5,0.77,2.4,0.77c0.9,0,1.72-0.28,2.4-0.77c0.68-0.49,1.2-1.17,1.48-1.97c0.23-0.66,0.96-1,1.62-0.77
			s1,0.96,0.77,1.62c-0.46,1.29-1.3,2.39-2.39,3.17c-1.09,0.78-2.43,1.25-3.87,1.24c-1.44,0-2.78-0.46-3.87-1.24
			c-1.09-0.78-1.93-1.88-2.39-3.17v0C154.81,15.92,155.15,15.2,155.81,14.96z M140.61,14.96c0.66-0.23,1.38,0.11,1.62,0.77
			c0.28,0.79,0.81,1.48,1.48,1.97c0.68,0.48,1.5,0.77,2.4,0.77c0.9,0,1.72-0.28,2.4-0.77c0.68-0.49,1.2-1.17,1.48-1.97
			c0.23-0.66,0.96-1,1.62-0.77c0.66,0.23,1,0.96,0.77,1.62c-0.46,1.29-1.3,2.39-2.39,3.17c-1.09,0.78-2.43,1.25-3.87,1.24
			c-1.44,0-2.78-0.46-3.87-1.24c-1.09-0.78-1.93-1.88-2.39-3.17h0C139.6,15.92,139.95,15.2,140.61,14.96z M177.9,21.12
			c-6.36,5.85-14.85,9.42-24.17,9.42c-9.32,0-17.81-3.57-24.17-9.42h0c-0.51-0.47-0.55-1.27-0.08-1.79
			c0.47-0.51,1.27-0.55,1.79-0.08c5.91,5.43,13.79,8.75,22.46,8.75c8.67,0,16.54-3.32,22.46-8.75c0.51-0.47,1.32-0.44,1.79,0.08
			C178.45,19.84,178.42,20.65,177.9,21.12z"/>
	</g>
</g>
</svg>
