<?xml version="1.0" encoding="utf-8"?>
<!-- Generator: Adobe Illustrator 25.4.1, SVG Export Plug-In . SVG Version: 6.00 Build 0)  -->
<svg version="1.1" id="Layer_1" xmlns="http://www.w3.org/2000/svg" xmlns:xlink="http://www.w3.org/1999/xlink" x="0px" y="0px"
	 viewBox="0 0 2698.23 1338.34" style="enable-background:new 0 0 2698.23 1338.34;" xml:space="preserve">
<style type="text/css">
	.st0{fill:#FFFFFF;}
	.st1{clip-path:url(#SVGID_00000134959823705216658640000010867874890421757112_);}
	.st2{clip-path:url(#SVGID_00000052087745682106934830000000523867698894292096_);}
	.st3{fill:#FFFFFF;stroke:#FFFFFF;stroke-width:0.75;stroke-miterlimit:10;}
	.st4{opacity:0.81;}
	.st5{fill:url(#SVGID_00000129925287091464927410000004862667047973526947_);}
	.st6{opacity:0.3;}
	.st7{fill:#F2F2F2;}
	.st8{opacity:0.61;fill:#F2F2F2;}
	.st9{opacity:0.69;fill:#F2F2F2;}
	.st10{opacity:0.53;}
	.st11{opacity:0.64;fill:#F2F2F2;}
	.st12{fill:#003800;}
	.st13{fill:#DC3285;}
	.st14{fill:#A52065;}
	.st15{fill:#005700;}
	.st16{fill:#2F6E0C;}
	.st17{clip-path:url(#SVGID_00000176731973952212018120000004559271100342537136_);fill:#007400;}
	.st18{opacity:0.62;clip-path:url(#SVGID_00000176731973952212018120000004559271100342537136_);}
	.st19{fill:none;stroke:#000000;stroke-width:6;stroke-miterlimit:10;}
	.st20{fill:#007400;}
	.st21{fill:#6AD542;}
	.st22{opacity:0.77;fill:url(#);}
	.st23{opacity:0.47;}
	.st24{fill:none;stroke:#000000;stroke-width:6;stroke-linecap:round;stroke-miterlimit:10;}
	.st25{fill:none;stroke:#DC3285;stroke-width:5;stroke-linecap:round;stroke-linejoin:round;stroke-miterlimit:10;}
	.st26{clip-path:url(#SVGID_00000018201366818473982230000014751616351756947870_);fill:#FFFFFF;}
	.st27{fill:#FFA002;}
	.st28{opacity:0.64;clip-path:url(#SVGID_00000176762085423030787640000000332559169334765238_);fill:#FFFFFF;}
	.st29{opacity:0.61;clip-path:url(#SVGID_00000183226610345078225400000005104322615982783657_);fill:#FFFFFF;}
	.st30{clip-path:url(#SVGID_00000130638217499305753480000016095169974308446399_);}
	.st31{fill:#999999;}
	.st32{fill:#1A1A1A;}
	.st33{opacity:0.43;fill:#FFFFFF;}
	.st34{opacity:0.43;fill:none;stroke:#FFFFFF;stroke-width:7;stroke-linecap:round;stroke-miterlimit:10;}
	.st35{fill:#6AD542;stroke:#FFFFFF;stroke-width:7;stroke-linecap:round;stroke-miterlimit:10;}
	.st36{fill:none;stroke:#E6E6E6;stroke-width:13;stroke-linecap:round;stroke-linejoin:round;stroke-miterlimit:10;}
	.st37{clip-path:url(#SVGID_00000030476696377232845520000010722952461980545408_);}
	.st38{opacity:0.43;fill:none;stroke:#1A1A1A;stroke-width:6;stroke-miterlimit:10;}
	.st39{fill:#666666;}
	.st40{fill:none;stroke:#FFFFFF;stroke-width:13;stroke-linecap:round;stroke-linejoin:round;stroke-miterlimit:10;}
	.st41{fill:none;stroke:#FFFFFF;stroke-width:11;stroke-linecap:round;stroke-linejoin:round;stroke-miterlimit:10;}
	.st42{fill:none;stroke:#FFE500;stroke-width:10;stroke-linecap:round;stroke-miterlimit:10;}
	.st43{clip-path:url(#SVGID_00000078002584925281162240000013040735595030334360_);fill:#DC3285;}
	.st44{clip-path:url(#SVGID_00000078002584925281162240000013040735595030334360_);fill:#FFFFFF;}
	.st45{clip-path:url(#SVGID_00000078002584925281162240000013040735595030334360_);fill:#333333;}
	.st46{clip-path:url(#SVGID_00000139285446091408059280000004135937080880074118_);fill:#DC3285;}
	.st47{clip-path:url(#SVGID_00000139285446091408059280000004135937080880074118_);fill:#FFFFFF;}
	.st48{clip-path:url(#SVGID_00000139285446091408059280000004135937080880074118_);fill:#333333;}
	.st49{fill:#56BE2F;}
	.st50{opacity:0.55;}
	.st51{fill:none;stroke:#000000;stroke-width:15;stroke-linecap:round;stroke-linejoin:round;stroke-miterlimit:10;}
	.st52{fill:#5C1537;}
	.st53{clip-path:url(#SVGID_00000098198577228750852000000000479981530245930118_);fill:#26AD35;}
	.st54{clip-path:url(#SVGID_00000098198577228750852000000000479981530245930118_);fill:#6AD542;}
	.st55{clip-path:url(#SVGID_00000098198577228750852000000000479981530245930118_);fill:#56BE2F;}
	.st56{clip-path:url(#SVGID_00000160168316366701085650000009902491418200116415_);fill:#45A840;}
	.st57{clip-path:url(#SVGID_00000160168316366701085650000009902491418200116415_);fill:#56BE2F;}
	.st58{clip-path:url(#SVGID_00000035520539273377540590000006511644326754978449_);fill:#45A840;}
	.st59{clip-path:url(#SVGID_00000035520539273377540590000006511644326754978449_);fill:#56BE2F;}
	.st60{clip-path:url(#SVGID_00000119098846954645314580000005414017027277332668_);fill:#6AD542;}
	.st61{opacity:0.7;clip-path:url(#SVGID_00000119098846954645314580000005414017027277332668_);}
	.st62{fill:#27B136;}
	.st63{clip-path:url(#SVGID_00000049910434655930216020000015972010358900860338_);fill:#3E8913;}
	.st64{clip-path:url(#SVGID_00000049910434655930216020000015972010358900860338_);fill:#6AD542;}
	.st65{clip-path:url(#SVGID_00000175307342775774548990000003909866854690850210_);fill:#29BD3A;}
	.st66{clip-path:url(#SVGID_00000175307342775774548990000003909866854690850210_);fill:#6AD542;}
	.st67{clip-path:url(#SVGID_00000165230338393426841470000003143591682091547787_);fill:#6AD542;}
	.st68{opacity:0.7;clip-path:url(#SVGID_00000165230338393426841470000003143591682091547787_);}
	.st69{clip-path:url(#SVGID_00000098186013082610194970000007862515137355862974_);fill:#6AD542;}
	.st70{opacity:0.56;clip-path:url(#SVGID_00000098186013082610194970000007862515137355862974_);fill:#26AD35;}
	.st71{clip-path:url(#SVGID_00000140011646609785009870000012045858054187610523_);fill:#45A840;}
	.st72{clip-path:url(#SVGID_00000140011646609785009870000012045858054187610523_);fill:#56BE2F;}
	.st73{fill:#333333;}
	.st74{opacity:0.42;fill:#292929;}
	.st75{opacity:0.15;fill:url(#);}
	.st76{clip-path:url(#SVGID_00000105416672425570060380000011422620801421908388_);fill:#3E8913;}
	.st77{clip-path:url(#SVGID_00000105416672425570060380000011422620801421908388_);fill:#6AD542;}
	.st78{fill:none;stroke:#000000;stroke-width:4;stroke-miterlimit:10;}
	.st79{fill:#00ADEE;}
	.st80{fill:#FFE500;}
	.st81{opacity:0.66;fill:#FFA002;}
	.st82{clip-path:url(#SVGID_00000103261495005181758860000002299584567773789081_);fill:#29BD3A;}
	.st83{clip-path:url(#SVGID_00000103261495005181758860000002299584567773789081_);fill:#6AD542;}
	.st84{fill:#00CCFF;}
	.st85{fill:#29BD3A;}
	.st86{fill:#FFD900;}
	.st87{fill:#EB8AB9;}
	.st88{opacity:0.78;fill:#E04B94;}
	.st89{clip-path:url(#SVGID_00000029032935990844307850000005979755300604572585_);fill:#6AD542;}
	.st90{opacity:0.7;clip-path:url(#SVGID_00000029032935990844307850000005979755300604572585_);}
	.st91{fill:#8BE04A;}
	.st92{opacity:0.28;fill:url(#SVGID_00000143606349716857643080000011587619490832227981_);}
	.st93{opacity:0.7;fill:url(#SVGID_00000047776087486722672130000010539291786340913569_);}
	.st94{clip-path:url(#SVGID_00000132073008155605494690000015321959709399178882_);fill:#DC3285;}
	.st95{clip-path:url(#SVGID_00000132073008155605494690000015321959709399178882_);fill:#FFCD55;}
	.st96{clip-path:url(#SVGID_00000132073008155605494690000015321959709399178882_);fill:#45C8F5;}
	.st97{clip-path:url(#SVGID_00000134218853634286539000000003077112547187985815_);fill:#FFFFFF;}
	.st98{clip-path:url(#SVGID_00000134218853634286539000000003077112547187985815_);}
	.st99{clip-path:url(#SVGID_00000140714214287388202860000005596602786975198099_);fill:#333333;}
	.st100{clip-path:url(#SVGID_00000140714214287388202860000005596602786975198099_);fill:#FFCD55;}
	.st101{clip-path:url(#SVGID_00000140714214287388202860000005596602786975198099_);}
	.st102{fill:#E6E6E6;}
	.st103{fill:#FFCD55;}
	.st104{opacity:0.73;fill:#FFFFFF;}
	.st105{opacity:0.73;fill:none;stroke:#FFFFFF;stroke-width:29;stroke-linecap:round;stroke-miterlimit:10;}
	.st106{opacity:0.26;fill:#FFFFFF;}
	.st107{opacity:0.26;fill:none;stroke:#FFFFFF;stroke-width:29;stroke-linecap:round;stroke-miterlimit:10;}
	.st108{fill:#45C8F5;}
	.st109{fill:#231F20;}
	.st110{clip-path:url(#SVGID_00000043457787635100713120000004899950318067154080_);}
	.st111{fill:url(#SVGID_00000051357089584435453370000017218368034022005658_);}
	.st112{clip-path:url(#SVGID_00000043457787635100713120000004899950318067154080_);fill:#FFA002;}
	.st113{opacity:0.5;}
	.st114{fill:none;}
	.st115{fill:#CCCCCC;}
	.st116{fill:#B3B3B3;}
	.st117{fill:none;stroke:#FFE500;stroke-width:7;stroke-linecap:round;stroke-miterlimit:10;}
	.st118{fill:none;stroke:#FFE500;stroke-width:7;stroke-linecap:round;stroke-miterlimit:10;stroke-dasharray:10.0084,20.0167;}
	.st119{fill:url(#SVGID_00000011724096244421082010000005191461968284115118_);}
	.st120{opacity:0.7;fill:#B3B3B3;}
	.st121{fill:url(#SVGID_00000165947135617560696450000007814788500304972973_);}
	.st122{clip-path:url(#SVGID_00000057118698576015918330000009537895107740120471_);fill:#8BE04A;}
	
		.st123{opacity:0.55;clip-path:url(#SVGID_00000057118698576015918330000009537895107740120471_);fill:url(#SVGID_00000135692221882578431350000004448849066570280118_);}
	.st124{fill:#E567A5;}
	.st125{fill:url(#SVGID_00000034082244134782474870000016045297420908773768_);}
	.st126{fill:#00ACD6;}
	.st127{fill:#9E005D;}
	.st128{fill:url(#SVGID_00000168112001532687128400000005340222231919353483_);}
	.st129{fill:none;stroke:#FFCD55;stroke-width:5;stroke-linecap:round;stroke-miterlimit:10;}
	.st130{fill:none;stroke:#FFCD55;stroke-width:5;stroke-linecap:round;stroke-miterlimit:10;stroke-dasharray:9.3355,18.6709;}
	.st131{fill:url(#SVGID_00000176012141107729294410000013074825581429128601_);}
	.st132{fill:url(#SVGID_00000143578477885104974280000001003818822554744985_);}
	.st133{clip-path:url(#SVGID_00000068655549914687787490000014332526037657963444_);fill:#007400;}
	.st134{opacity:0.62;clip-path:url(#SVGID_00000068655549914687787490000014332526037657963444_);}
	.st135{clip-path:url(#SVGID_00000080197266252714235480000011293638052874557601_);fill:#FFFFFF;}
	.st136{opacity:0.64;clip-path:url(#SVGID_00000177442793709301418100000011739785433487589794_);fill:#FFFFFF;}
	.st137{opacity:0.61;clip-path:url(#SVGID_00000006695556957897578480000003745175010130443952_);fill:#FFFFFF;}
	.st138{clip-path:url(#SVGID_00000139278682863293340360000000272761157669526662_);}
	.st139{clip-path:url(#SVGID_00000152964336847582420080000017066779522989763259_);}
	.st140{clip-path:url(#SVGID_00000119801627077726839840000010143445342277938105_);fill:#DC3285;}
	.st141{clip-path:url(#SVGID_00000119801627077726839840000010143445342277938105_);fill:#FFFFFF;}
	.st142{clip-path:url(#SVGID_00000119801627077726839840000010143445342277938105_);fill:#333333;}
	.st143{clip-path:url(#SVGID_00000129200705515284049960000011391463537873869231_);fill:#DC3285;}
	.st144{clip-path:url(#SVGID_00000129200705515284049960000011391463537873869231_);fill:#FFFFFF;}
	.st145{clip-path:url(#SVGID_00000129200705515284049960000011391463537873869231_);fill:#333333;}
	.st146{clip-path:url(#SVGID_00000142150489100516010890000013429790702395956615_);fill:#26AD35;}
	.st147{clip-path:url(#SVGID_00000142150489100516010890000013429790702395956615_);fill:#6AD542;}
	.st148{clip-path:url(#SVGID_00000142150489100516010890000013429790702395956615_);fill:#56BE2F;}
	.st149{clip-path:url(#SVGID_00000124853890366199001260000018081635434025610907_);fill:#45A840;}
	.st150{clip-path:url(#SVGID_00000124853890366199001260000018081635434025610907_);fill:#56BE2F;}
	.st151{clip-path:url(#SVGID_00000044159576224157606460000015994246654192593301_);fill:#45A840;}
	.st152{clip-path:url(#SVGID_00000044159576224157606460000015994246654192593301_);fill:#56BE2F;}
	.st153{clip-path:url(#SVGID_00000181773604947030404350000011159122647714683579_);fill:#6AD542;}
	.st154{opacity:0.7;clip-path:url(#SVGID_00000181773604947030404350000011159122647714683579_);}
	.st155{clip-path:url(#SVGID_00000059298798555820756440000009757844034840679042_);fill:#3E8913;}
	.st156{clip-path:url(#SVGID_00000059298798555820756440000009757844034840679042_);fill:#6AD542;}
	.st157{clip-path:url(#SVGID_00000161615778599818719390000005455350291459146648_);fill:#29BD3A;}
	.st158{clip-path:url(#SVGID_00000161615778599818719390000005455350291459146648_);fill:#6AD542;}
	.st159{clip-path:url(#SVGID_00000049181145294010202540000003910991370951963024_);fill:#6AD542;}
	.st160{opacity:0.7;clip-path:url(#SVGID_00000049181145294010202540000003910991370951963024_);}
	.st161{clip-path:url(#SVGID_00000164496639692951319760000013109142209023366063_);fill:#6AD542;}
	.st162{opacity:0.56;clip-path:url(#SVGID_00000164496639692951319760000013109142209023366063_);fill:#26AD35;}
	.st163{clip-path:url(#SVGID_00000180333988650947679050000000671676137257910709_);fill:#45A840;}
	.st164{clip-path:url(#SVGID_00000180333988650947679050000000671676137257910709_);fill:#56BE2F;}
	.st165{clip-path:url(#SVGID_00000013903887943914286830000007076243983647505810_);fill:#3E8913;}
	.st166{clip-path:url(#SVGID_00000013903887943914286830000007076243983647505810_);fill:#6AD542;}
	.st167{clip-path:url(#SVGID_00000171683937563752286830000004007575721164638117_);fill:#29BD3A;}
	.st168{clip-path:url(#SVGID_00000171683937563752286830000004007575721164638117_);fill:#6AD542;}
	.st169{clip-path:url(#SVGID_00000056426201223938113950000017128242488922944429_);fill:#6AD542;}
	.st170{opacity:0.7;clip-path:url(#SVGID_00000056426201223938113950000017128242488922944429_);}
	.st171{opacity:0.28;fill:url(#SVGID_00000181766269602166619750000003226518354617274291_);}
	.st172{opacity:0.7;fill:url(#SVGID_00000044139590279212074130000009459809004592052666_);}
	.st173{clip-path:url(#SVGID_00000029018418480549714640000004619351338638128782_);}
	.st174{clip-path:url(#SVGID_00000040574141084747315810000006896443497687563194_);}
	.st175{clip-path:url(#SVGID_00000161593991768313805290000001278830123182947508_);fill:#FFFFFF;}
	.st176{clip-path:url(#SVGID_00000161593991768313805290000001278830123182947508_);}
	.st177{clip-path:url(#SVGID_00000143605921812106890850000006402103460170630287_);fill:#333333;}
	.st178{clip-path:url(#SVGID_00000143605921812106890850000006402103460170630287_);fill:#FFCD55;}
	.st179{clip-path:url(#SVGID_00000143605921812106890850000006402103460170630287_);}
	.st180{clip-path:url(#SVGID_00000000944277389577481940000018191175628592769468_);}
	.st181{fill:url(#SVGID_00000114071361647180529100000013749806427690036375_);}
	.st182{clip-path:url(#SVGID_00000000944277389577481940000018191175628592769468_);fill:#FFA002;}
	.st183{fill:url(#SVGID_00000034083173629450099240000016004862848299504541_);}
	.st184{clip-path:url(#SVGID_00000155844243816248901600000000188166288158857099_);fill:#8BE04A;}
	
		.st185{opacity:0.55;clip-path:url(#SVGID_00000155844243816248901600000000188166288158857099_);fill:url(#SVGID_00000103982590466036007110000015436761386628967599_);}
	.st186{fill:#009245;}
	.st187{clip-path:url(#SVGID_00000019669981301707081680000008940251986982875041_);}
	.st188{fill:none;stroke:#FFFFFF;stroke-width:27;stroke-linecap:round;stroke-miterlimit:10;}
	.st189{fill:none;stroke:#2CAF4B;stroke-width:61;stroke-linecap:round;stroke-linejoin:round;stroke-miterlimit:10;}
	.st190{fill:none;stroke:#DC3285;stroke-width:13;stroke-linecap:round;stroke-linejoin:round;stroke-miterlimit:10;}
	.st191{fill:#2CAF4B;}
	.st192{opacity:0.1;}
	.st193{fill:#151814;}
	.st194{fill:none;stroke:#DC3285;stroke-width:30;stroke-miterlimit:10;}
	.st195{fill:#DC3285;stroke:#E567A5;stroke-width:6;stroke-miterlimit:10;}
	.st196{fill:#282560;}
	.st197{fill:url(#SVGID_00000159463783766312278620000008511219215432618633_);}
	.st198{fill:url(#SVGID_00000052809010117164112140000011552687133134569371_);}
	.st199{clip-path:url(#SVGID_00000108303576964699078540000010246651939455966338_);}
	.st200{clip-path:url(#SVGID_00000126293137037005670100000014696814840883737272_);}
	.st201{clip-path:url(#SVGID_00000106861889571298702830000008008439802209925565_);}
	.st202{fill:#006600;}
	.st203{opacity:0.77;}
	.st204{clip-path:url(#SVGID_00000064333418506420520420000016408680430300291767_);}
	.st205{clip-path:url(#SVGID_00000116235033077430636800000003427318698751497151_);}
	.st206{clip-path:url(#SVGID_00000163060986846698398040000010354915826619708553_);}
	.st207{clip-path:url(#SVGID_00000057126014873229271690000003414082454465965190_);}
	.st208{clip-path:url(#SVGID_00000109729038604950497780000002951010731060582289_);}
	.st209{clip-path:url(#SVGID_00000114073185559219815710000003201828602748589206_);}
	.st210{clip-path:url(#SVGID_00000015321900554318779960000011927747001138316733_);}
	.st211{clip-path:url(#SVGID_00000152957504352409845670000004589661933009017484_);}
	.st212{clip-path:url(#SVGID_00000078003373656776995430000015443007378371233705_);}
	.st213{clip-path:url(#SVGID_00000032637715277681884790000004692027647198734988_);}
	.st214{clip-path:url(#SVGID_00000126313093189682907580000010341610186770261133_);}
	.st215{clip-path:url(#SVGID_00000083779261220656331910000009914449394125870221_);fill:#FFFFFF;}
	.st216{opacity:0.64;clip-path:url(#SVGID_00000124141369782747844730000008545415509807091858_);fill:#FFFFFF;}
	.st217{opacity:0.61;clip-path:url(#SVGID_00000087377716816012093290000005912281631872187282_);fill:#FFFFFF;}
	.st218{opacity:0.43;}
	.st219{fill:#4D4D4D;}
	.st220{fill:#3B3B3B;}
	.st221{clip-path:url(#SVGID_00000034781146127839034240000011357580107155414933_);fill:#DC3285;}
	.st222{clip-path:url(#SVGID_00000034781146127839034240000011357580107155414933_);fill:#FFFFFF;}
	.st223{clip-path:url(#SVGID_00000034781146127839034240000011357580107155414933_);fill:#333333;}
	.st224{clip-path:url(#SVGID_00000079484661337206568800000002045523589556010418_);fill:#DC3285;}
	.st225{clip-path:url(#SVGID_00000079484661337206568800000002045523589556010418_);fill:#FFFFFF;}
	.st226{clip-path:url(#SVGID_00000079484661337206568800000002045523589556010418_);fill:#333333;}
	.st227{fill:#26AD35;}
	.st228{fill:#45A840;}
	.st229{opacity:0.56;fill:#26AD35;}
	.st230{opacity:0.42;}
	.st231{fill:#292929;}
	.st232{opacity:0.15;}
	.st233{clip-path:url(#SVGID_00000024717146534425093690000008810796855726583687_);}
	.st234{clip-path:url(#SVGID_00000059269250681996323160000003482621701549978786_);}
	.st235{clip-path:url(#SVGID_00000034788849658460926600000007463915253543542417_);}
	.st236{clip-path:url(#SVGID_00000074434121873162599050000000508006246621592234_);}
	.st237{clip-path:url(#SVGID_00000021814754932147628560000015177540832479700368_);}
	.st238{clip-path:url(#SVGID_00000005969817644046765090000010186203807825383103_);}
	.st239{clip-path:url(#SVGID_00000117660696679961602820000007521856937390057857_);}
	.st240{clip-path:url(#SVGID_00000033339408866878193580000001494768041711074205_);}
	.st241{clip-path:url(#SVGID_00000103227957586124488290000003306532232558295465_);}
	.st242{clip-path:url(#SVGID_00000118358352959397944330000008771851691537077150_);}
	.st243{clip-path:url(#SVGID_00000154401216677783154810000008913222824036149128_);}
	.st244{clip-path:url(#SVGID_00000013894249086974575400000013030333064624447674_);}
	.st245{clip-path:url(#SVGID_00000066473750171115170610000010895775358739052677_);}
	.st246{clip-path:url(#SVGID_00000168832577613984626350000011018349213463103422_);}
	.st247{clip-path:url(#SVGID_00000181784734695166775530000003464927558641881768_);}
	.st248{clip-path:url(#SVGID_00000049907734058691183570000014348556298826289578_);}
	.st249{clip-path:url(#SVGID_00000034056022912819865410000006808549612758705322_);}
	.st250{clip-path:url(#SVGID_00000052791319779904087430000014839494454254641327_);}
	.st251{clip-path:url(#SVGID_00000111874056223103939910000015591107012674266761_);}
	.st252{clip-path:url(#SVGID_00000012455463289765259110000012912245508073499833_);}
	.st253{clip-path:url(#SVGID_00000009579312785185273550000001615330324381155746_);}
	.st254{clip-path:url(#SVGID_00000095313532749744868960000017830508427695403966_);}
	.st255{clip-path:url(#SVGID_00000044137822027696719660000004599280264589380775_);}
	.st256{clip-path:url(#SVGID_00000180352048608045175320000004414861250938843792_);}
	.st257{clip-path:url(#SVGID_00000112627130066220395330000006709963460075962033_);}
	.st258{clip-path:url(#SVGID_00000179618108162043929290000000594327114601917866_);}
	.st259{clip-path:url(#SVGID_00000027602172059749250090000012759327554260393917_);}
	.st260{clip-path:url(#SVGID_00000084520276817445834950000014670546951803144877_);}
	.st261{clip-path:url(#SVGID_00000159459576525961215700000008044209407173777578_);}
	.st262{clip-path:url(#SVGID_00000155117423095103201490000015314726362267608754_);}
	.st263{clip-path:url(#SVGID_00000017493530864054091140000002132298728670400948_);}
	.st264{clip-path:url(#SVGID_00000147207240162369836650000008563252993871775416_);}
	.st265{clip-path:url(#SVGID_00000120522251552114884820000010571302059011582396_);}
	.st266{clip-path:url(#SVGID_00000135662658008699962530000004766300044511059122_);}
	.st267{clip-path:url(#SVGID_00000174601861605445580400000009058644446388189856_);}
	.st268{clip-path:url(#SVGID_00000138573482756941090410000008658880907072758915_);}
	.st269{clip-path:url(#SVGID_00000067938337199038093620000012906995082670890134_);}
	.st270{clip-path:url(#SVGID_00000026148516650508399180000013618733139865631876_);}
	.st271{clip-path:url(#SVGID_00000059281131220079036200000002232310145409993114_);}
	.st272{clip-path:url(#SVGID_00000051365817490554417740000017777517611544505255_);}
	.st273{clip-path:url(#SVGID_00000008141849448196308860000004507897468578430852_);}
	.st274{clip-path:url(#SVGID_00000139285746184649211670000012793349958425172670_);}
	.st275{clip-path:url(#SVGID_00000062885044267825268070000008648625948298597049_);}
	.st276{clip-path:url(#SVGID_00000012466024154020013440000005866836399993601470_);}
	.st277{clip-path:url(#SVGID_00000033339662675979322120000010064508862716858769_);}
	.st278{clip-path:url(#SVGID_00000003063493047890940360000001841079388093588921_);}
	.st279{clip-path:url(#SVGID_00000101078257405119282580000004417483171944663455_);}
	.st280{clip-path:url(#SVGID_00000037656117991114530950000013084851949268040882_);}
	.st281{clip-path:url(#SVGID_00000170992770725535143550000014547098367995637149_);}
	.st282{clip-path:url(#SVGID_00000101821931521131069950000012068313599785100189_);}
	.st283{clip-path:url(#SVGID_00000096737856157343913080000006682577424108548231_);}
	.st284{clip-path:url(#SVGID_00000002358373903669869010000014044816502462001538_);}
	.st285{clip-path:url(#SVGID_00000004511911728558373070000017596549781400587959_);}
	.st286{clip-path:url(#SVGID_00000004530842228009479660000007600991203472457398_);}
	.st287{clip-path:url(#SVGID_00000118359034000335454500000003103232615420915873_);}
	.st288{clip-path:url(#SVGID_00000008114748639006900960000018116659630307851698_);}
	.st289{clip-path:url(#SVGID_00000086674053927933833460000017369117345785149312_);}
	.st290{clip-path:url(#SVGID_00000039820619105334967420000011896961162584754322_);}
	.st291{clip-path:url(#SVGID_00000032644949157502326170000011516392921699078281_);}
	.st292{clip-path:url(#SVGID_00000139272411811439295260000003305119980529993914_);}
	.st293{clip-path:url(#SVGID_00000052804370980880828660000008202334406160099752_);}
	.st294{clip-path:url(#SVGID_00000104697941241023424620000002898747884799001256_);}
	.st295{clip-path:url(#SVGID_00000083781880796171859360000004892350812495314560_);}
	.st296{clip-path:url(#SVGID_00000048461443556177708180000012136181214046513063_);}
	.st297{clip-path:url(#SVGID_00000092415955423736193700000005210356851523292606_);}
	.st298{clip-path:url(#SVGID_00000128445366529005079280000007589300119766975636_);}
	.st299{clip-path:url(#SVGID_00000110439478887303250440000006414482685712238527_);}
	.st300{clip-path:url(#SVGID_00000036931568950214161370000006270648360786434736_);}
	.st301{clip-path:url(#SVGID_00000047768876685235114070000005568542350855169418_);}
	.st302{clip-path:url(#SVGID_00000036209729960034762070000008713490121124345513_);}
	.st303{clip-path:url(#SVGID_00000157275753587054027110000013720903449093847179_);}
	.st304{clip-path:url(#SVGID_00000001633714574051955980000011042486602479715736_);}
	.st305{clip-path:url(#SVGID_00000020376961894171979600000013844782656548813965_);}
	.st306{clip-path:url(#SVGID_00000099631755688748935040000010398383531617166015_);}
	.st307{clip-path:url(#SVGID_00000120516722632093505700000007381635158959375757_);}
	.st308{clip-path:url(#SVGID_00000165215560962811048850000014798855324507784373_);}
	.st309{clip-path:url(#SVGID_00000023272892649183136120000000391567284445705372_);}
	.st310{clip-path:url(#SVGID_00000152956660900018328460000007071371324517382528_);}
	.st311{clip-path:url(#SVGID_00000161611483852169109690000017542627252313218185_);}
	.st312{clip-path:url(#SVGID_00000146467407870101423430000004622812042617869729_);}
	.st313{clip-path:url(#SVGID_00000162333768327085635600000011702843517027660987_);}
	.st314{clip-path:url(#SVGID_00000083075104874196342310000006084163412771665539_);}
	.st315{fill:#54BA2E;}
	.st316{fill:#008DF2;}
	.st317{opacity:0.76;}
	.st318{clip-path:url(#SVGID_00000103249931202077141130000007352787275501407390_);fill:#0088C7;}
	.st319{clip-path:url(#SVGID_00000103249931202077141130000007352787275501407390_);fill:#0189C8;}
	.st320{clip-path:url(#SVGID_00000103249931202077141130000007352787275501407390_);fill:#028AC9;}
	.st321{clip-path:url(#SVGID_00000103249931202077141130000007352787275501407390_);fill:#048BC9;}
	.st322{clip-path:url(#SVGID_00000103249931202077141130000007352787275501407390_);fill:#058CCA;}
	.st323{clip-path:url(#SVGID_00000103249931202077141130000007352787275501407390_);fill:#068DCB;}
	.st324{clip-path:url(#SVGID_00000103249931202077141130000007352787275501407390_);fill:#078FCC;}
	.st325{clip-path:url(#SVGID_00000103249931202077141130000007352787275501407390_);fill:#0890CC;}
	.st326{clip-path:url(#SVGID_00000103249931202077141130000007352787275501407390_);fill:#0991CD;}
	.st327{clip-path:url(#SVGID_00000103249931202077141130000007352787275501407390_);fill:#0B92CE;}
	.st328{clip-path:url(#SVGID_00000103249931202077141130000007352787275501407390_);fill:#0C93CF;}
	.st329{clip-path:url(#SVGID_00000103249931202077141130000007352787275501407390_);fill:#0D94D0;}
	.st330{clip-path:url(#SVGID_00000103249931202077141130000007352787275501407390_);fill:#0E95D0;}
	.st331{clip-path:url(#SVGID_00000103249931202077141130000007352787275501407390_);fill:#0F96D1;}
	.st332{clip-path:url(#SVGID_00000103249931202077141130000007352787275501407390_);fill:#1097D2;}
	.st333{clip-path:url(#SVGID_00000103249931202077141130000007352787275501407390_);fill:#1198D3;}
	.st334{clip-path:url(#SVGID_00000103249931202077141130000007352787275501407390_);fill:#1399D3;}
	.st335{clip-path:url(#SVGID_00000103249931202077141130000007352787275501407390_);fill:#149AD4;}
	.st336{clip-path:url(#SVGID_00000103249931202077141130000007352787275501407390_);fill:#159BD5;}
	.st337{clip-path:url(#SVGID_00000103249931202077141130000007352787275501407390_);fill:#169CD6;}
	.st338{clip-path:url(#SVGID_00000103249931202077141130000007352787275501407390_);fill:#179DD6;}
	.st339{clip-path:url(#SVGID_00000103249931202077141130000007352787275501407390_);fill:#189ED7;}
	.st340{clip-path:url(#SVGID_00000103249931202077141130000007352787275501407390_);fill:#199FD8;}
	.st341{clip-path:url(#SVGID_00000103249931202077141130000007352787275501407390_);fill:#1AA0D9;}
	.st342{clip-path:url(#SVGID_00000103249931202077141130000007352787275501407390_);fill:#1BA1D9;}
	.st343{clip-path:url(#SVGID_00000103249931202077141130000007352787275501407390_);fill:#1DA2DA;}
	.st344{clip-path:url(#SVGID_00000103249931202077141130000007352787275501407390_);fill:#1EA4DB;}
	.st345{clip-path:url(#SVGID_00000103249931202077141130000007352787275501407390_);fill:#1FA5DC;}
	.st346{clip-path:url(#SVGID_00000103249931202077141130000007352787275501407390_);fill:#20A6DC;}
	.st347{clip-path:url(#SVGID_00000103249931202077141130000007352787275501407390_);fill:#21A7DD;}
	.st348{clip-path:url(#SVGID_00000103249931202077141130000007352787275501407390_);fill:#22A8DE;}
	.st349{clip-path:url(#SVGID_00000103249931202077141130000007352787275501407390_);fill:#23A9DE;}
	.st350{clip-path:url(#SVGID_00000103249931202077141130000007352787275501407390_);fill:#24AADF;}
	.st351{clip-path:url(#SVGID_00000103249931202077141130000007352787275501407390_);fill:#25ABE0;}
	.st352{clip-path:url(#SVGID_00000103249931202077141130000007352787275501407390_);fill:#26ABE1;}
	.st353{clip-path:url(#SVGID_00000103249931202077141130000007352787275501407390_);fill:#27ACE1;}
	.st354{clip-path:url(#SVGID_00000103249931202077141130000007352787275501407390_);fill:#28ADE2;}
	.st355{clip-path:url(#SVGID_00000103249931202077141130000007352787275501407390_);fill:#29AEE3;}
	.st356{clip-path:url(#SVGID_00000103249931202077141130000007352787275501407390_);fill:#2AAFE3;}
	.st357{clip-path:url(#SVGID_00000103249931202077141130000007352787275501407390_);fill:#2BB0E4;}
	.st358{clip-path:url(#SVGID_00000103249931202077141130000007352787275501407390_);fill:#2CB1E5;}
	.st359{clip-path:url(#SVGID_00000103249931202077141130000007352787275501407390_);fill:#2EB2E5;}
	.st360{clip-path:url(#SVGID_00000103249931202077141130000007352787275501407390_);fill:#2FB3E6;}
	.st361{clip-path:url(#SVGID_00000103249931202077141130000007352787275501407390_);fill:#30B4E7;}
	.st362{clip-path:url(#SVGID_00000103249931202077141130000007352787275501407390_);fill:#31B5E7;}
	.st363{clip-path:url(#SVGID_00000103249931202077141130000007352787275501407390_);fill:#32B6E8;}
	.st364{clip-path:url(#SVGID_00000103249931202077141130000007352787275501407390_);fill:#32B7E9;}
	.st365{clip-path:url(#SVGID_00000103249931202077141130000007352787275501407390_);fill:#33B8E9;}
	.st366{clip-path:url(#SVGID_00000103249931202077141130000007352787275501407390_);fill:#34B9EA;}
	.st367{clip-path:url(#SVGID_00000103249931202077141130000007352787275501407390_);fill:#35BAEB;}
	.st368{clip-path:url(#SVGID_00000103249931202077141130000007352787275501407390_);fill:#36BAEB;}
	.st369{clip-path:url(#SVGID_00000103249931202077141130000007352787275501407390_);fill:#37BBEC;}
	.st370{clip-path:url(#SVGID_00000103249931202077141130000007352787275501407390_);fill:#38BCEC;}
	.st371{clip-path:url(#SVGID_00000103249931202077141130000007352787275501407390_);fill:#39BDED;}
	.st372{clip-path:url(#SVGID_00000103249931202077141130000007352787275501407390_);fill:#3ABEEE;}
	.st373{clip-path:url(#SVGID_00000103249931202077141130000007352787275501407390_);fill:#3BBFEE;}
	.st374{clip-path:url(#SVGID_00000103249931202077141130000007352787275501407390_);fill:#3CC0EF;}
	.st375{clip-path:url(#SVGID_00000103249931202077141130000007352787275501407390_);fill:#3DC0F0;}
	.st376{clip-path:url(#SVGID_00000103249931202077141130000007352787275501407390_);fill:#3EC1F0;}
	.st377{clip-path:url(#SVGID_00000103249931202077141130000007352787275501407390_);fill:#3EC2F1;}
	.st378{clip-path:url(#SVGID_00000103249931202077141130000007352787275501407390_);fill:#3FC3F1;}
	.st379{clip-path:url(#SVGID_00000103249931202077141130000007352787275501407390_);fill:#40C3F2;}
	.st380{clip-path:url(#SVGID_00000103249931202077141130000007352787275501407390_);fill:#41C4F2;}
	.st381{clip-path:url(#SVGID_00000103249931202077141130000007352787275501407390_);fill:#42C5F3;}
	.st382{clip-path:url(#SVGID_00000103249931202077141130000007352787275501407390_);fill:#42C6F3;}
	.st383{clip-path:url(#SVGID_00000103249931202077141130000007352787275501407390_);fill:#43C6F4;}
	.st384{clip-path:url(#SVGID_00000103249931202077141130000007352787275501407390_);fill:#44C7F4;}
	.st385{clip-path:url(#SVGID_00000103249931202077141130000007352787275501407390_);fill:#44C8F5;}
	.st386{clip-path:url(#SVGID_00000103249931202077141130000007352787275501407390_);fill:#45C8F5;}
	.st387{fill:url(#SVGID_00000150791586130075084050000017949626499998381952_);}
	.st388{fill:url(#SVGID_00000101790106477447260410000014972014727034865583_);}
	.st389{fill:url(#SVGID_00000153700409563631901740000005820751751556794293_);}
	.st390{fill:url(#SVGID_00000048477563247270238660000018385504350708402564_);}
	.st391{fill:#FF7FC8;}
	.st392{clip-path:url(#SVGID_00000119822153699570124730000003411562353365759896_);fill:#333333;}
	.st393{clip-path:url(#SVGID_00000119822153699570124730000003411562353365759896_);fill:#FFCD55;}
	.st394{clip-path:url(#SVGID_00000119822153699570124730000003411562353365759896_);}
	.st395{fill:#73E1EF;}
	.st396{fill:#0E68A3;}
	.st397{fill:#053483;}
</style>
<g>
	<g>
		<path class="st21" d="M2294.43,952.42c-1.19,3.93-3.17,7.25-5.18,8.63c-1.69,1.16-3.21,1.38-4.33-0.73
			c-1.01-1.89-1.32-5.23-0.73-8.56c0.41-2.32,0.93-4.65,1.56-6.91c0.34-1.76,0.91-3.47,1.63-5c0.52-1.35,1.08-2.63,1.69-3.8
			c1.76-3.39,3.78-4.88,5.59-3.54c1.62,1.19,2.35,5.72,1.6,9.69c-0.05,0.27-0.11,0.54-0.16,0.81
			C2295.8,946.2,2295.37,949.32,2294.43,952.42z"/>
		<path class="st21" d="M2302.04,961.32c-2.58,3.19-5.67,5.52-8.05,6.04c-2,0.44-3.49,0.07-3.73-2.31
			c-0.22-2.13,0.75-5.34,2.55-8.21c1.25-1.99,2.62-3.96,4.05-5.81c0.98-1.5,2.15-2.87,3.4-4.02c0.99-1.05,1.99-2.03,3-2.89
			c2.91-2.48,5.34-3.09,6.51-1.17c1.05,1.72,0.02,6.18-2.18,9.58c-0.15,0.23-0.3,0.46-0.45,0.69
			C2305.65,956.07,2304.08,958.8,2302.04,961.32z"/>
	</g>
	<g>
		<path class="st21" d="M2101.33,970.18c-1.19,3.93-3.17,7.25-5.18,8.63c-1.69,1.16-3.21,1.38-4.33-0.73
			c-1.01-1.89-1.32-5.23-0.73-8.56c0.41-2.32,0.93-4.65,1.56-6.91c0.34-1.76,0.91-3.47,1.63-5c0.52-1.35,1.08-2.63,1.69-3.8
			c1.76-3.39,3.78-4.88,5.59-3.54c1.62,1.19,2.35,5.72,1.6,9.69c-0.05,0.27-0.11,0.54-0.16,0.81
			C2102.69,963.95,2102.27,967.08,2101.33,970.18z"/>
		<path class="st21" d="M2108.94,979.08c-2.58,3.19-5.67,5.52-8.05,6.04c-2,0.44-3.49,0.07-3.73-2.31
			c-0.22-2.13,0.75-5.34,2.55-8.21c1.25-1.99,2.62-3.96,4.05-5.81c0.98-1.5,2.15-2.87,3.4-4.02c0.99-1.05,1.99-2.03,3-2.89
			c2.91-2.48,5.34-3.09,6.51-1.17c1.05,1.72,0.02,6.18-2.18,9.58c-0.15,0.23-0.3,0.46-0.45,0.69
			C2112.55,973.82,2110.98,976.56,2108.94,979.08z"/>
	</g>
	<g>
		<path class="st21" d="M2081.05,975.32c2.59,3.19,4.22,6.7,4.24,9.13c0.02,2.05-0.66,3.43-3.04,3.17c-2.13-0.23-5.07-1.84-7.5-4.2
			c-1.69-1.64-3.33-3.38-4.84-5.17c-1.27-1.27-2.36-2.7-3.22-4.16c-0.82-1.18-1.57-2.37-2.2-3.53c-1.82-3.36-1.92-5.86,0.2-6.61
			c1.9-0.67,6.05,1.27,8.92,4.12c0.2,0.19,0.39,0.39,0.58,0.59C2076.66,970.69,2079.01,972.8,2081.05,975.32z"/>
		<path class="st21" d="M2092.69,974.02c1.19,3.93,1.38,7.79,0.48,10.06c-0.76,1.91-1.9,2.92-4.01,1.79c-1.89-1.01-4-3.62-5.36-6.72
			c-0.95-2.15-1.81-4.39-2.54-6.62c-0.69-1.66-1.17-3.39-1.42-5.07c-0.32-1.41-0.56-2.78-0.71-4.1c-0.42-3.8,0.44-6.15,2.68-6.05
			c2.01,0.09,5.13,3.46,6.71,7.18c0.11,0.25,0.21,0.51,0.31,0.76C2090.37,968.08,2091.74,970.91,2092.69,974.02z"/>
	</g>
	<g>
		<path class="st21" d="M2020.13,995.68c1.63,3.77,2.25,7.59,1.61,9.94c-0.54,1.98-1.56,3.12-3.78,2.23
			c-1.99-0.79-4.39-3.14-6.09-6.07c-1.18-2.03-2.29-4.16-3.27-6.29c-0.88-1.57-1.54-3.24-1.98-4.88c-0.47-1.36-0.87-2.7-1.16-4
			c-0.84-3.72-0.26-6.16,1.98-6.31c2.01-0.13,5.49,2.85,7.47,6.38c0.14,0.24,0.27,0.48,0.4,0.72
			C2017.15,990.05,2018.84,992.71,2020.13,995.68z"/>
		<path class="st21" d="M2031.68,997.57c0.09,4.1-0.77,7.88-2.25,9.81c-1.25,1.63-2.62,2.3-4.35,0.64
			c-1.54-1.49-2.88-4.57-3.35-7.91c-0.33-2.33-0.55-4.71-0.65-7.06c-0.22-1.78-0.21-3.58,0.01-5.26c0.08-1.44,0.21-2.83,0.43-4.14
			c0.62-3.77,2.08-5.81,4.22-5.1c1.91,0.63,4,4.71,4.52,8.72c0.03,0.27,0.07,0.54,0.1,0.82
			C2031.05,991.23,2031.61,994.33,2031.68,997.57z"/>
	</g>
	<g>
		<path class="st21" d="M1366.67,1095.2c1.63,3.77,2.25,7.59,1.61,9.94c-0.54,1.98-1.56,3.12-3.78,2.23
			c-1.99-0.79-4.39-3.14-6.09-6.07c-1.18-2.03-2.29-4.16-3.27-6.29c-0.88-1.57-1.54-3.24-1.98-4.88c-0.47-1.36-0.87-2.7-1.16-4
			c-0.84-3.72-0.26-6.16,1.98-6.31c2.01-0.13,5.49,2.85,7.47,6.38c0.14,0.24,0.27,0.48,0.4,0.72
			C1363.69,1089.56,1365.38,1092.22,1366.67,1095.2z"/>
		<path class="st21" d="M1378.22,1097.09c0.09,4.1-0.77,7.88-2.25,9.81c-1.25,1.63-2.62,2.3-4.35,0.64
			c-1.54-1.49-2.88-4.57-3.35-7.91c-0.33-2.33-0.55-4.71-0.65-7.06c-0.22-1.78-0.21-3.58,0.01-5.26c0.08-1.44,0.21-2.83,0.43-4.14
			c0.62-3.77,2.08-5.81,4.22-5.1c1.91,0.63,4,4.71,4.52,8.72c0.04,0.27,0.07,0.54,0.1,0.82
			C1377.59,1090.74,1378.15,1093.84,1378.22,1097.09z"/>
	</g>
	<g>
		<path class="st21" d="M1387.19,1096.14c1.63,3.77,2.25,7.59,1.61,9.94c-0.54,1.98-1.56,3.12-3.78,2.23
			c-1.99-0.79-4.39-3.14-6.09-6.07c-1.18-2.03-2.29-4.16-3.27-6.29c-0.88-1.57-1.54-3.24-1.98-4.88c-0.47-1.36-0.87-2.7-1.16-4
			c-0.84-3.72-0.26-6.16,1.98-6.31c2.01-0.13,5.48,2.85,7.47,6.38c0.14,0.24,0.27,0.48,0.4,0.72
			C1384.22,1090.5,1385.91,1093.16,1387.19,1096.14z"/>
		<path class="st21" d="M1398.75,1098.03c0.09,4.1-0.77,7.88-2.25,9.81c-1.25,1.63-2.62,2.3-4.35,0.64
			c-1.54-1.49-2.88-4.57-3.35-7.91c-0.33-2.33-0.55-4.71-0.65-7.06c-0.22-1.78-0.21-3.58,0.01-5.26c0.08-1.44,0.21-2.83,0.43-4.14
			c0.62-3.77,2.08-5.81,4.22-5.1c1.91,0.63,4,4.71,4.52,8.72c0.04,0.27,0.07,0.54,0.1,0.82
			C1398.12,1091.68,1398.68,1094.78,1398.75,1098.03z"/>
	</g>
	<g>
		<path class="st21" d="M905.2,1040.96c-1.98,3.6-4.61,6.43-6.86,7.37c-1.89,0.79-3.42,0.68-4.08-1.62
			c-0.59-2.06-0.21-5.39,1.06-8.53c0.88-2.18,1.88-4.36,2.96-6.44c0.7-1.65,1.61-3.2,2.64-4.55c0.79-1.21,1.6-2.35,2.44-3.37
			c2.42-2.95,4.71-3.99,6.2-2.31c1.34,1.5,1.11,6.08-0.45,9.81c-0.11,0.25-0.22,0.5-0.33,0.75
			C907.83,1035.15,906.76,1038.12,905.2,1040.96z"/>
		<path class="st21" d="M910.8,1051.24c-3.19,2.59-6.7,4.22-9.13,4.24c-2.05,0.02-3.43-0.66-3.17-3.04c0.23-2.13,1.84-5.07,4.2-7.5
			c1.64-1.69,3.38-3.33,5.17-4.84c1.27-1.27,2.7-2.36,4.16-3.22c1.18-0.82,2.37-1.57,3.53-2.2c3.36-1.82,5.86-1.92,6.61,0.2
			c0.67,1.9-1.27,6.05-4.12,8.92c-0.19,0.2-0.39,0.39-0.59,0.58C915.42,1046.85,913.31,1049.2,910.8,1051.24z"/>
	</g>
	<g>
		<path class="st21" d="M882.92,1040.09c1.59,3.79,2.16,7.61,1.49,9.96c-0.56,1.97-1.6,3.1-3.81,2.19c-1.98-0.82-4.35-3.2-6.01-6.14
			c-1.16-2.05-2.24-4.18-3.19-6.33c-0.86-1.58-1.5-3.25-1.92-4.9c-0.46-1.37-0.84-2.71-1.12-4.01c-0.8-3.73-0.19-6.17,2.06-6.29
			c2.01-0.11,5.45,2.92,7.4,6.47c0.13,0.24,0.26,0.48,0.39,0.72C880.01,1034.42,881.67,1037.1,882.92,1040.09z"/>
		<path class="st21" d="M894.45,1042.12c0.04,4.11-0.87,7.87-2.37,9.78c-1.27,1.61-2.65,2.27-4.35,0.59
			c-1.52-1.5-2.82-4.6-3.25-7.95c-0.3-2.33-0.5-4.72-0.57-7.06c-0.2-1.78-0.17-3.58,0.07-5.26c0.09-1.44,0.25-2.83,0.48-4.13
			c0.67-3.76,2.15-5.78,4.28-5.05c1.9,0.66,3.95,4.76,4.41,8.78c0.03,0.27,0.06,0.55,0.09,0.82
			C893.9,1035.77,894.42,1038.88,894.45,1042.12z"/>
	</g>
	<g>
		<path class="st21" d="M669.35,1005.59c1.59,3.79,2.16,7.61,1.49,9.96c-0.56,1.97-1.6,3.1-3.81,2.19c-1.98-0.82-4.35-3.2-6.01-6.14
			c-1.16-2.05-2.24-4.18-3.19-6.33c-0.86-1.58-1.5-3.25-1.92-4.9c-0.46-1.37-0.84-2.71-1.12-4.01c-0.8-3.73-0.19-6.17,2.06-6.29
			c2.01-0.11,5.45,2.92,7.4,6.47c0.13,0.24,0.26,0.48,0.39,0.72C666.44,999.92,668.1,1002.6,669.35,1005.59z"/>
		<path class="st21" d="M680.88,1007.62c0.04,4.11-0.87,7.87-2.37,9.78c-1.27,1.61-2.65,2.27-4.35,0.59
			c-1.52-1.5-2.82-4.6-3.25-7.95c-0.3-2.33-0.5-4.72-0.57-7.06c-0.2-1.78-0.17-3.58,0.07-5.26c0.09-1.44,0.25-2.83,0.48-4.13
			c0.67-3.76,2.15-5.78,4.28-5.05c1.9,0.66,3.95,4.76,4.41,8.78c0.03,0.27,0.06,0.55,0.09,0.82
			C680.33,1001.27,680.85,1004.38,680.88,1007.62z"/>
	</g>
	<path class="st21" d="M376.67,1022.56c9.48-1.21,24.26-3.01,42.33-4.86c386.66-39.54,550.91,77.79,910.72,82.99
		c63.79,0.92,194.42,2.09,360.03-30.71c181.26-35.91,294.23-90.68,512.17-108.82c68.01-5.66,175.78-10.21,261.28,57.19
		c23.18,18.27,39,37.32,48.76,50.59c57.5,63.46,116.63,180.59,174.13,244.06c-396.37,7.95-870.99,3.47-1267.36,11.48
		c-488.1,9.86-899.59-21.44-1387.69-11.48c18.76-41.54,55-107.5,121.86-169.06C238.57,1065.05,329.64,1034.7,376.67,1022.56z"/>
	<path class="st21" d="M2045.44,988.53c2.8-12.16,30.4-14.73,34.4-15.11c14.87-1.39,43.3,0.55,47.26,14.4
		c3.59,12.58-13.8,32.14-33.09,35.2C2068.49,1027.07,2042.39,1001.75,2045.44,988.53z"/>
	<path class="st21" d="M2148.73,976.62c2.8-12.16,30.4-14.73,34.4-15.11c14.87-1.39,43.3,0.55,47.26,14.4
		c3.59,12.58-13.8,32.14-33.09,35.2C2171.77,1015.15,2145.68,989.84,2148.73,976.62z"/>
	<path class="st21" d="M2120.76,982.92c2.8-12.16,30.4-14.73,34.4-15.11c14.87-1.39,43.3,0.55,47.26,14.4
		c3.59,12.58-13.8,32.14-33.09,35.2C2143.8,1021.46,2117.71,996.14,2120.76,982.92z"/>
	<g>
		<path class="st80" d="M2131.4,1007.98c-1.44,1.12-3.35,1.61-4.97,1.26c-1.36-0.29-2.45-0.9-2.9-2.32c-0.4-1.27-0.1-2.83,0.84-3.97
			c0.65-0.79,1.38-1.54,2.17-2.21c0.51-0.59,1.18-1.05,1.93-1.36c0.57-0.33,1.16-0.62,1.78-0.83c1.76-0.62,3.4-0.32,4.45,1.08
			c0.94,1.26,0.74,3.51-0.41,4.85c-0.08,0.09-0.16,0.18-0.24,0.27C2133.33,1005.97,2132.54,1007.1,2131.4,1007.98z"/>
		<path class="st80" d="M2117.49,1005.59c-0.71-1.68-0.69-3.65,0.05-5.13c0.63-1.24,1.5-2.14,2.98-2.21
			c1.33-0.07,2.76,0.63,3.62,1.83c0.6,0.83,1.13,1.73,1.58,2.67c0.44,0.65,0.71,1.41,0.82,2.21c0.17,0.64,0.3,1.28,0.35,1.93
			c0.15,1.86-0.56,3.37-2.19,4.02c-1.45,0.59-3.58-0.19-4.58-1.64c-0.07-0.1-0.13-0.2-0.2-0.3
			C2118.93,1007.97,2118.05,1006.92,2117.49,1005.59z"/>
		<path class="st80" d="M2121.61,1017.2c-1.55,0.96-3.5,1.25-5.07,0.74c-1.32-0.43-2.34-1.15-2.64-2.61
			c-0.27-1.3,0.2-2.82,1.25-3.86c0.73-0.72,1.54-1.39,2.39-1.97c0.57-0.53,1.28-0.92,2.06-1.16c0.6-0.27,1.22-0.49,1.85-0.64
			c1.82-0.43,3.41,0.04,4.31,1.54c0.8,1.35,0.36,3.57-0.92,4.78c-0.09,0.08-0.18,0.16-0.27,0.24
			C2123.74,1015.4,2122.84,1016.44,2121.61,1017.2z"/>
		<path class="st80" d="M2132.35,1014.37c0.32,1.8-0.13,3.72-1.19,4.99c-0.89,1.07-1.94,1.75-3.4,1.5
			c-1.31-0.23-2.55-1.23-3.13-2.58c-0.4-0.94-0.72-1.94-0.95-2.95c-0.28-0.73-0.38-1.53-0.31-2.34c-0.03-0.66,0-1.32,0.09-1.96
			c0.26-1.85,1.29-3.16,3.02-3.44c1.55-0.25,3.45,0.98,4.1,2.62c0.04,0.11,0.09,0.22,0.13,0.34
			C2131.47,1011.73,2132.1,1012.95,2132.35,1014.37z"/>
		<path class="st80" d="M2133.44,1004.92c1.82-0.16,3.69,0.45,4.87,1.61c0.99,0.97,1.58,2.08,1.2,3.51
			c-0.34,1.29-1.44,2.44-2.84,2.9c-0.97,0.32-1.99,0.55-3.02,0.69c-0.75,0.22-1.56,0.25-2.36,0.11c-0.66-0.03-1.31-0.11-1.94-0.26
			c-1.82-0.42-3.04-1.56-3.17-3.31c-0.12-1.56,1.27-3.36,2.96-3.86c0.11-0.03,0.23-0.07,0.35-0.1
			C2130.73,1005.57,2132,1005.05,2133.44,1004.92z"/>
	</g>
	<g>
		<path class="st80" d="M2266.83,952.75c1.62,0.91,2.83,2.5,3.15,4.15c0.27,1.39,0.13,2.65-1.02,3.64
			c-1.03,0.88-2.61,1.21-4.05,0.79c-1-0.29-1.99-0.68-2.93-1.16c-0.76-0.25-1.45-0.69-2.04-1.26c-0.54-0.41-1.04-0.85-1.48-1.33
			c-1.28-1.4-1.65-3.06-0.75-4.6c0.8-1.38,3-2.08,4.7-1.53c0.12,0.04,0.23,0.08,0.34,0.12
			C2264.18,951.74,2265.55,952.03,2266.83,952.75z"/>
		<path class="st80" d="M2274.28,952.07c1.83-0.3,3.78,0.19,5.05,1.28c1.08,0.92,1.75,2,1.47,3.48c-0.25,1.33-1.29,2.58-2.68,3.14
			c-0.97,0.39-1.98,0.7-3.02,0.92c-0.75,0.28-1.56,0.37-2.38,0.28c-0.67,0.02-1.34-0.02-1.99-0.12c-1.87-0.3-3.19-1.37-3.45-3.13
			c-0.23-1.58,1.05-3.5,2.72-4.13c0.11-0.04,0.23-0.08,0.34-0.12C2271.58,952.93,2272.83,952.31,2274.28,952.07z"/>
		<path class="st80" d="M2270.75,948.53c1.65-0.86,3.65-1,5.2-0.37c1.31,0.53,2.29,1.34,2.49,2.84c0.18,1.34-0.41,2.85-1.55,3.82
			c-0.79,0.68-1.66,1.29-2.58,1.82c-0.62,0.5-1.37,0.84-2.17,1.02c-0.63,0.23-1.28,0.41-1.93,0.51c-1.87,0.31-3.46-0.29-4.26-1.89
			c-0.71-1.43-0.1-3.65,1.29-4.78c0.09-0.08,0.19-0.15,0.29-0.22C2268.46,950.19,2269.45,949.21,2270.75,948.53z"/>
		<path class="st80" d="M2258.2,956.09c-1.58-0.98-2.73-2.62-2.98-4.28c-0.21-1.4-0.02-2.66,1.17-3.59c1.06-0.84,2.66-1.1,4.08-0.62
			c0.99,0.34,1.96,0.77,2.88,1.28c0.74,0.28,1.42,0.75,1.99,1.35c0.52,0.43,1,0.89,1.43,1.39c1.22,1.45,1.52,3.12,0.56,4.62
			c-0.86,1.34-3.08,1.96-4.76,1.34c-0.11-0.04-0.23-0.09-0.34-0.13C2260.81,957.21,2259.45,956.86,2258.2,956.09z"/>
		<path class="st80" d="M2262.12,948.8c0.37-1.82,1.51-3.47,2.98-4.28c1.24-0.68,2.48-0.94,3.77-0.15c1.15,0.71,1.96,2.11,2,3.61
			c0.03,1.04-0.04,2.1-0.2,3.15c0,0.8-0.21,1.59-0.57,2.33c-0.22,0.64-0.49,1.25-0.81,1.82c-0.94,1.65-2.4,2.51-4.14,2.13
			c-1.56-0.34-2.9-2.21-2.91-4c0-0.12,0-0.24,0.01-0.36C2261.98,951.63,2261.83,950.24,2262.12,948.8z"/>
	</g>
	<g>
		<path class="st80" d="M2065.32,983.37c1.8-0.45,3.78-0.12,5.14,0.87c1.15,0.83,1.91,1.85,1.75,3.35
			c-0.14,1.34-1.07,2.67-2.41,3.35c-0.93,0.47-1.92,0.86-2.93,1.16c-0.72,0.34-1.53,0.49-2.35,0.48c-0.67,0.07-1.34,0.09-1.99,0.04
			c-1.89-0.14-3.29-1.1-3.69-2.84c-0.36-1.55,0.76-3.57,2.38-4.34c0.11-0.05,0.22-0.1,0.33-0.15
			C2062.7,984.44,2063.9,983.72,2065.32,983.37z"/>
		<path class="st80" d="M2072.38,980.15c1.55-1.29,3.56-1.94,5.25-1.67c1.42,0.22,2.56,0.81,3,2.3c0.39,1.33,0.03,3.03-0.97,4.31
			c-0.7,0.89-1.49,1.74-2.34,2.51c-0.56,0.67-1.26,1.2-2.06,1.59c-0.61,0.39-1.24,0.73-1.89,1.01c-1.86,0.78-3.58,0.56-4.65-0.88
			c-0.96-1.29-0.69-3.72,0.55-5.23c0.08-0.1,0.17-0.2,0.26-0.3C2070.3,982.43,2071.16,981.17,2072.38,980.15z"/>
		<path class="st80" d="M2065.3,977.6c0.61-1.75,1.97-3.23,3.54-3.83c1.32-0.51,2.59-0.59,3.76,0.37c1.05,0.86,1.65,2.36,1.49,3.85
			c-0.11,1.04-0.33,2.08-0.63,3.09c-0.11,0.79-0.42,1.55-0.89,2.23c-0.3,0.6-0.65,1.17-1.05,1.69c-1.16,1.51-2.72,2.16-4.4,1.54
			c-1.5-0.55-2.57-2.59-2.33-4.36c0.02-0.12,0.04-0.24,0.06-0.36C2064.76,980.39,2064.81,978.99,2065.3,977.6z"/>
		<path class="st80" d="M2061.33,991.71c-1.82,0.37-3.78-0.04-5.1-1.08c-1.11-0.87-1.83-1.92-1.61-3.42
			c0.2-1.34,1.18-2.63,2.55-3.25c0.95-0.43,1.95-0.78,2.98-1.04c0.73-0.31,1.55-0.43,2.37-0.38c0.67-0.04,1.34-0.04,1.99,0.04
			c1.88,0.22,3.24,1.23,3.57,2.99c0.29,1.57-0.9,3.54-2.55,4.24c-0.11,0.05-0.23,0.09-0.34,0.14
			C2063.99,990.74,2062.77,991.41,2061.33,991.71z"/>
		<path class="st80" d="M2059.19,983.71c-0.98-1.58-1.27-3.56-0.76-5.16c0.43-1.35,1.17-2.39,2.65-2.7c1.32-0.28,2.87,0.2,3.93,1.26
			c0.73,0.74,1.41,1.56,2.01,2.43c0.54,0.58,0.94,1.3,1.18,2.09c0.28,0.61,0.5,1.24,0.66,1.88c0.45,1.84-0.03,3.47-1.56,4.39
			c-1.37,0.82-3.63,0.38-4.86-0.92c-0.08-0.09-0.16-0.18-0.24-0.27C2061.03,985.88,2059.97,984.96,2059.19,983.71z"/>
	</g>
	<g>
		<path class="st91" d="M2227.6,1010.17c-1.02,3.98-2.88,7.38-4.82,8.84c-1.64,1.23-3.15,1.51-4.36-0.56
			c-1.08-1.85-1.53-5.17-1.08-8.53c0.31-2.33,0.74-4.69,1.28-6.97c0.27-1.77,0.77-3.5,1.43-5.06c0.46-1.37,0.97-2.67,1.53-3.87
			c1.62-3.46,3.57-5.03,5.44-3.77c1.67,1.13,2.58,5.62,1.99,9.62c-0.04,0.27-0.08,0.54-0.13,0.81
			C2228.71,1003.89,2228.41,1007.02,2227.6,1010.17z"/>
		<path class="st91" d="M2233.06,1014.03c-2.45,3.3-5.44,5.75-7.8,6.37c-1.98,0.52-3.48,0.21-3.83-2.16
			c-0.31-2.12,0.53-5.37,2.21-8.3c1.17-2.04,2.46-4.06,3.81-5.97c0.92-1.54,2.03-2.95,3.23-4.15c0.94-1.09,1.91-2.11,2.88-3.01
			c2.8-2.59,5.21-3.31,6.46-1.44c1.12,1.67,0.27,6.18-1.78,9.66c-0.14,0.24-0.28,0.47-0.43,0.7
			C2236.46,1008.64,2234.99,1011.43,2233.06,1014.03z"/>
	</g>
	<g>
		<path class="st91" d="M2158.63,1076.47c1.43,3.85,1.85,7.7,1.09,10.01c-0.64,1.95-1.72,3.03-3.9,2.03
			c-1.94-0.9-4.22-3.37-5.76-6.38c-1.07-2.09-2.07-4.27-2.93-6.45c-0.79-1.61-1.37-3.31-1.72-4.97c-0.4-1.39-0.73-2.75-0.95-4.05
			c-0.65-3.76,0.06-6.17,2.31-6.2c2.01-0.03,5.33,3.14,7.13,6.76c0.12,0.25,0.24,0.49,0.36,0.74
			C2155.96,1070.68,2157.5,1073.43,2158.63,1076.47z"/>
		<path class="st91" d="M2165.33,1076.52c-0.13,4.1-1.19,7.83-2.76,9.68c-1.33,1.56-2.74,2.16-4.37,0.41
			c-1.46-1.56-2.63-4.71-2.93-8.08c-0.21-2.34-0.3-4.74-0.28-7.08c-0.13-1.79-0.02-3.58,0.28-5.25c0.15-1.43,0.36-2.82,0.64-4.11
			c0.82-3.73,2.38-5.69,4.48-4.87c1.87,0.73,3.75,4.92,4.05,8.95c0.02,0.27,0.04,0.55,0.05,0.82
			C2165.03,1070.15,2165.43,1073.28,2165.33,1076.52z"/>
	</g>
	<g>
		<g>
			<path class="st91" d="M1885.7,1084.71c3.35,1.76,6.01,4.13,6.91,6.19c0.76,1.73,0.69,3.14-1.42,3.79
				c-1.89,0.58-4.96,0.29-7.87-0.82c-2.03-0.77-4.05-1.65-5.98-2.61c-1.54-0.61-2.98-1.42-4.24-2.35c-1.13-0.7-2.19-1.43-3.15-2.19
				c-2.76-2.18-3.76-4.26-2.24-5.67c1.36-1.26,5.58-1.13,9.05,0.24c0.24,0.09,0.47,0.19,0.7,0.29
				C1880.3,1082.39,1883.06,1083.32,1885.7,1084.71z"/>
			<path class="st91" d="M1890.32,1080.63c2.44,2.89,4.01,6.09,4.07,8.34c0.05,1.89-0.55,3.17-2.74,2.98
				c-1.97-0.17-4.71-1.61-6.98-3.73c-1.58-1.48-3.13-3.06-4.56-4.68c-1.19-1.15-2.22-2.44-3.04-3.77c-0.78-1.08-1.49-2.15-2.09-3.21
				c-1.73-3.06-1.87-5.37,0.07-6.09c1.73-0.65,5.6,1.06,8.29,3.63c0.18,0.18,0.36,0.35,0.54,0.53
				C1886.2,1076.44,1888.39,1078.34,1890.32,1080.63z"/>
		</g>
		<g>
			<path class="st91" d="M1897.59,1080.24c1.03,2.72,1.37,5.42,0.89,7.03c-0.41,1.36-1.13,2.1-2.62,1.37
				c-1.34-0.66-2.92-2.42-4.01-4.55c-0.76-1.48-1.47-3.02-2.09-4.56c-0.56-1.14-0.98-2.34-1.24-3.51c-0.29-0.98-0.54-1.93-0.71-2.85
				c-0.5-2.65-0.05-4.32,1.48-4.31c1.37,0.01,3.67,2.28,4.95,4.84c0.09,0.17,0.17,0.35,0.25,0.52
				C1895.69,1076.15,1896.78,1078.1,1897.59,1080.24z"/>
		</g>
	</g>
	<g>
		<path class="st91" d="M2087.92,1050.03c2.59,3.19,4.22,6.7,4.24,9.13c0.02,2.05-0.66,3.43-3.04,3.17c-2.13-0.23-5.07-1.84-7.5-4.2
			c-1.69-1.64-3.33-3.38-4.84-5.17c-1.27-1.27-2.36-2.7-3.22-4.16c-0.82-1.18-1.57-2.37-2.2-3.53c-1.82-3.36-1.92-5.86,0.2-6.61
			c1.9-0.67,6.05,1.27,8.92,4.12c0.2,0.19,0.39,0.39,0.58,0.59C2083.53,1045.41,2085.88,1047.51,2087.92,1050.03z"/>
	</g>
	<g>
		<path class="st80" d="M1896.69,1079.82c1.63,0.19,3.17,1.09,3.99,2.33c0.69,1.04,1.01,2.13,0.4,3.32
			c-0.54,1.07-1.72,1.88-3.04,2.02c-0.92,0.1-1.86,0.12-2.79,0.04c-0.7,0.05-1.42-0.07-2.1-0.34c-0.58-0.15-1.14-0.34-1.66-0.59
			c-1.52-0.71-2.38-1.94-2.17-3.51c0.19-1.4,1.74-2.72,3.33-2.85c0.11-0.01,0.21-0.01,0.32-0.02
			C1894.18,1079.89,1895.4,1079.66,1896.69,1079.82z"/>
		<path class="st80" d="M1904.11,1090.14c-0.61,1.53-1.86,2.78-3.27,3.26c-1.19,0.4-2.31,0.42-3.31-0.47
			c-0.89-0.8-1.37-2.15-1.17-3.46c0.14-0.91,0.37-1.83,0.67-2.71c0.13-0.69,0.43-1.35,0.87-1.94c0.29-0.52,0.62-1.01,1-1.46
			c1.08-1.29,2.49-1.81,3.95-1.2c1.3,0.54,2.18,2.39,1.9,3.95c-0.02,0.11-0.04,0.21-0.06,0.32
			C1904.69,1087.7,1904.59,1088.94,1904.11,1090.14z"/>
		<path class="st80" d="M1906.09,1079.05c1.38-0.9,3.13-1.19,4.55-0.77c1.2,0.36,2.13,0.99,2.43,2.29c0.27,1.17-0.12,2.55-1.04,3.5
			c-0.64,0.66-1.35,1.28-2.12,1.82c-0.51,0.49-1.14,0.85-1.83,1.08c-0.54,0.25-1.09,0.47-1.66,0.61c-1.63,0.43-3.07,0.04-3.91-1.3
			c-0.75-1.2-0.4-3.21,0.73-4.32c0.08-0.08,0.16-0.15,0.23-0.22C1904.21,1080.71,1905,1079.76,1906.09,1079.05z"/>
		<path class="st80" d="M1895.99,1078c-0.51-1.56-0.34-3.33,0.44-4.59c0.66-1.07,1.51-1.8,2.85-1.75c1.2,0.04,2.43,0.78,3.11,1.92
			c0.47,0.79,0.88,1.64,1.21,2.52c0.34,0.62,0.53,1.32,0.57,2.05c0.11,0.59,0.17,1.17,0.16,1.76c-0.01,1.68-0.76,2.98-2.27,3.44
			c-1.35,0.41-3.2-0.45-3.98-1.83c-0.05-0.09-0.1-0.19-0.15-0.28C1897.11,1080.25,1896.39,1079.23,1895.99,1078z"/>
	</g>
	<g>
		<path class="st80" d="M2214.7,1016.83c1.32,0.63,2.36,1.83,2.7,3.11c0.28,1.08,0.24,2.08-0.62,2.92c-0.76,0.75-2,1.09-3.15,0.83
			c-0.8-0.18-1.6-0.44-2.37-0.77c-0.61-0.16-1.18-0.47-1.67-0.89c-0.44-0.29-0.86-0.61-1.24-0.98c-1.08-1.04-1.45-2.33-0.83-3.59
			c0.56-1.13,2.26-1.79,3.63-1.45c0.09,0.02,0.19,0.05,0.28,0.08C2212.56,1016.17,2213.65,1016.33,2214.7,1016.83z"/>
		<path class="st80" d="M2217.99,1027.68c-0.95,1.12-2.37,1.81-3.7,1.81c-1.12,0-2.08-0.31-2.66-1.35
			c-0.53-0.93-0.54-2.21,0.01-3.26c0.38-0.73,0.84-1.44,1.35-2.09c0.31-0.55,0.76-1.02,1.29-1.39c0.4-0.35,0.82-0.67,1.26-0.94
			c1.28-0.78,2.62-0.81,3.68,0.12c0.95,0.83,1.15,2.64,0.47,3.88c-0.05,0.08-0.1,0.17-0.14,0.25
			C2219.18,1025.79,2218.74,1026.8,2217.99,1027.68z"/>
		<path class="st80" d="M2224.84,1020.54c1.25,0.77,2.16,2.07,2.35,3.38c0.17,1.1,0.02,2.1-0.92,2.84c-0.84,0.66-2.1,0.87-3.22,0.49
			c-0.78-0.26-1.55-0.6-2.28-1.01c-0.59-0.22-1.12-0.59-1.57-1.06c-0.41-0.34-0.79-0.7-1.13-1.1c-0.97-1.15-1.2-2.47-0.44-3.65
			c0.68-1.06,2.43-1.55,3.76-1.06c0.09,0.03,0.18,0.07,0.27,0.1C2222.78,1019.66,2223.85,1019.93,2224.84,1020.54z"/>
		<path class="st80" d="M2214.63,1015.09c0.02-1.47,0.67-2.91,1.7-3.75c0.86-0.71,1.79-1.09,2.91-0.66c1,0.38,1.83,1.36,2.07,2.51
			c0.17,0.81,0.27,1.64,0.3,2.47c0.11,0.62,0.07,1.27-0.11,1.89c-0.08,0.53-0.2,1.04-0.37,1.53c-0.49,1.42-1.5,2.29-2.91,2.25
			c-1.26-0.04-2.57-1.3-2.84-2.69c-0.02-0.09-0.03-0.19-0.05-0.28C2214.93,1017.31,2214.62,1016.25,2214.63,1015.09z"/>
		<path class="st80" d="M2221.16,1014.8c1.38-0.49,2.96-0.38,4.11,0.29c0.97,0.56,1.64,1.3,1.63,2.5c-0.01,1.07-0.64,2.18-1.64,2.82
			c-0.7,0.44-1.44,0.83-2.21,1.14c-0.54,0.32-1.16,0.5-1.81,0.56c-0.52,0.11-1.04,0.18-1.56,0.19c-1.5,0.03-2.67-0.61-3.12-1.95
			c-0.4-1.19,0.32-2.86,1.54-3.59c0.08-0.05,0.17-0.1,0.25-0.14C2219.18,1015.85,2220.07,1015.19,2221.16,1014.8z"/>
	</g>
	<g>
		<path class="st80" d="M2159.2,1088.27c1.8-1.03,4.03-1.28,5.79-0.64c1.49,0.54,2.62,1.4,2.91,3.06c0.26,1.49-0.33,3.2-1.56,4.34
			c-0.86,0.79-1.8,1.52-2.79,2.14c-0.67,0.58-1.49,1-2.38,1.23c-0.7,0.28-1.41,0.51-2.13,0.66c-2.08,0.43-3.88-0.17-4.84-1.92
			c-0.86-1.56-0.28-4.07,1.22-5.39c0.1-0.09,0.21-0.18,0.31-0.26C2156.71,1090.23,2157.78,1089.08,2159.2,1088.27z"/>
		<path class="st80" d="M2174.49,1093.15c0.53,2.01,0.2,4.22-0.87,5.76c-0.9,1.3-2.02,2.17-3.71,2.02
			c-1.51-0.14-3.01-1.15-3.79-2.63c-0.54-1.03-1-2.13-1.35-3.25c-0.39-0.8-0.58-1.7-0.58-2.62c-0.09-0.75-0.13-1.49-0.09-2.23
			c0.12-2.12,1.16-3.7,3.1-4.19c1.73-0.43,4,0.78,4.9,2.57c0.06,0.12,0.12,0.25,0.17,0.37
			C2173.24,1090.24,2174.07,1091.56,2174.49,1093.15z"/>
		<path class="st80" d="M2171.67,1079.43c1.9-0.84,4.14-0.85,5.83-0.03c1.42,0.69,2.46,1.67,2.57,3.35c0.1,1.51-0.67,3.15-2.01,4.15
			c-0.93,0.7-1.95,1.32-3,1.84c-0.73,0.51-1.59,0.84-2.5,0.98c-0.72,0.21-1.45,0.36-2.19,0.43c-2.11,0.2-3.84-0.58-4.61-2.41
			c-0.69-1.64,0.15-4.08,1.78-5.24c0.11-0.08,0.22-0.15,0.34-0.23C2168.99,1081.12,2170.17,1080.09,2171.67,1079.43z"/>
		<path class="st80" d="M2157.12,1086.95c-1.69-1.2-2.85-3.12-3.01-4.99c-0.13-1.57,0.17-2.96,1.56-3.92
			c1.25-0.86,3.05-1.04,4.59-0.4c1.08,0.45,2.13,1,3.12,1.64c0.81,0.37,1.53,0.94,2.12,1.65c0.55,0.51,1.05,1.06,1.49,1.66
			c1.26,1.71,1.47,3.59,0.29,5.2c-1.06,1.44-3.58,1.96-5.41,1.15c-0.12-0.06-0.25-0.11-0.37-0.17
			C2159.95,1088.39,2158.46,1087.9,2157.12,1086.95z"/>
		<path class="st80" d="M2162.02,1079.11c0.54-2,1.93-3.76,3.63-4.56c1.43-0.67,2.84-0.87,4.22,0.1c1.24,0.87,2.03,2.5,1.97,4.17
			c-0.04,1.16-0.19,2.35-0.45,3.49c-0.06,0.89-0.35,1.76-0.81,2.56c-0.29,0.69-0.63,1.36-1.04,1.97c-1.17,1.77-2.86,2.62-4.78,2.08
			c-1.71-0.49-3.08-2.67-2.96-4.68c0.01-0.14,0.02-0.27,0.03-0.41C2161.66,1082.25,2161.6,1080.69,2162.02,1079.11z"/>
	</g>
	<g>
		<path class="st62" d="M2296.08,1043.85c3.53-0.94,7.43-0.35,10.14,1.53c2.28,1.59,3.82,3.57,3.55,6.53
			c-0.24,2.65-2.02,5.29-4.63,6.67c-1.81,0.96-3.75,1.77-5.73,2.38c-1.41,0.69-2.99,1.02-4.61,1.02c-1.31,0.16-2.63,0.23-3.92,0.15
			c-3.73-0.22-6.52-2.05-7.36-5.46c-0.76-3.05,1.37-7.05,4.53-8.62c0.22-0.11,0.43-0.21,0.65-0.31
			C2290.95,1046.05,2293.29,1044.59,2296.08,1043.85z"/>
		<path class="st62" d="M2290.96,1039.24c1.25,3.44,1.01,7.37-0.62,10.24c-1.38,2.42-3.21,4.12-6.19,4.12
			c-2.66,0-5.45-1.54-7.05-4.02c-1.11-1.72-2.09-3.58-2.88-5.49c-0.81-1.34-1.28-2.89-1.42-4.5c-0.28-1.29-0.46-2.6-0.5-3.89
			c-0.11-3.73,1.47-6.67,4.78-7.82c2.97-1.03,7.14,0.74,8.99,3.75c0.13,0.2,0.24,0.41,0.36,0.62
			C2288.31,1034.34,2289.97,1036.53,2290.96,1039.24z"/>
		<circle class="st13" cx="2266.08" cy="1077.49" r="31.77"/>
		<g>
			<circle class="st0" cx="2276.57" cy="1054.9" r="2.98"/>
		</g>
		<g>
			<path class="st0" d="M2243.21,1072.27c-1.06-0.57-1.65-1.8-1.35-3.03c0.72-2.96,3.21-10.37,10.79-15.19
				c6.09-3.87,12.25-4,15.38-3.74c1.49,0.13,2.6,1.44,2.47,2.93c-0.13,1.49-1.44,2.6-2.93,2.47c-2.45-0.21-7.27-0.1-12.02,2.91
				c-5.91,3.76-7.86,9.57-8.43,11.89c-0.35,1.46-1.82,2.35-3.28,2C2243.63,1072.46,2243.41,1072.37,2243.21,1072.27z"/>
		</g>
	</g>
	<g>
		<g>
			<path class="st91" d="M537.77,1010.85c-3.35,1.76-6.01,4.13-6.91,6.19c-0.76,1.73-0.69,3.14,1.42,3.79
				c1.89,0.58,4.96,0.29,7.87-0.82c2.03-0.77,4.05-1.65,5.98-2.61c1.54-0.61,2.98-1.42,4.24-2.35c1.13-0.7,2.19-1.43,3.15-2.19
				c2.76-2.18,3.76-4.26,2.24-5.67c-1.36-1.26-5.58-1.13-9.05,0.24c-0.24,0.09-0.47,0.19-0.7,0.29
				C543.17,1008.54,540.42,1009.47,537.77,1010.85z"/>
			<path class="st91" d="M533.15,1006.77c-2.44,2.89-4.01,6.09-4.07,8.34c-0.05,1.89,0.55,3.17,2.74,2.98
				c1.97-0.17,4.71-1.61,6.98-3.73c1.58-1.48,3.13-3.06,4.56-4.68c1.19-1.15,2.22-2.44,3.04-3.77c0.78-1.08,1.49-2.15,2.09-3.22
				c1.73-3.06,1.87-5.37-0.07-6.09c-1.73-0.65-5.6,1.06-8.29,3.63c-0.18,0.18-0.36,0.35-0.54,0.53
				C537.28,1002.59,535.08,1004.49,533.15,1006.77z"/>
		</g>
		<g>
			<path class="st91" d="M525.88,1006.39c-1.03,2.72-1.37,5.42-0.89,7.03c0.41,1.36,1.13,2.1,2.62,1.37
				c1.34-0.66,2.92-2.42,4.01-4.55c0.76-1.48,1.47-3.02,2.09-4.56c0.56-1.14,0.98-2.34,1.24-3.51c0.29-0.98,0.54-1.93,0.71-2.85
				c0.5-2.65,0.05-4.32-1.48-4.31c-1.37,0.01-3.67,2.28-4.95,4.84c-0.09,0.17-0.17,0.35-0.25,0.52
				C527.79,1002.29,526.7,1004.24,525.88,1006.39z"/>
		</g>
	</g>
	<g>
		<path class="st80" d="M526.78,1005.96c-1.63,0.19-3.17,1.09-3.99,2.33c-0.69,1.04-1.01,2.13-0.4,3.32
			c0.54,1.07,1.72,1.88,3.04,2.02c0.92,0.1,1.86,0.12,2.79,0.04c0.7,0.05,1.42-0.07,2.1-0.34c0.58-0.15,1.14-0.34,1.66-0.59
			c1.52-0.71,2.38-1.94,2.17-3.51c-0.19-1.4-1.74-2.72-3.33-2.85c-0.11-0.01-0.22-0.01-0.32-0.02
			C529.29,1006.03,528.07,1005.81,526.78,1005.96z"/>
		<path class="st80" d="M519.36,1016.29c0.61,1.53,1.86,2.78,3.27,3.26c1.19,0.4,2.31,0.42,3.31-0.47c0.89-0.8,1.37-2.15,1.17-3.46
			c-0.14-0.91-0.37-1.83-0.67-2.71c-0.13-0.69-0.43-1.35-0.87-1.94c-0.29-0.52-0.62-1.01-1-1.46c-1.08-1.29-2.49-1.81-3.95-1.2
			c-1.3,0.54-2.18,2.39-1.9,3.95c0.02,0.11,0.04,0.21,0.06,0.32C518.78,1013.84,518.88,1015.08,519.36,1016.29z"/>
		<path class="st80" d="M517.39,1005.19c-1.38-0.9-3.13-1.19-4.55-0.77c-1.2,0.36-2.13,0.99-2.43,2.29
			c-0.27,1.17,0.12,2.55,1.04,3.5c0.64,0.66,1.36,1.28,2.12,1.82c0.51,0.49,1.14,0.85,1.83,1.08c0.54,0.25,1.09,0.47,1.66,0.61
			c1.63,0.43,3.07,0.04,3.91-1.3c0.75-1.2,0.4-3.21-0.73-4.32c-0.08-0.08-0.16-0.15-0.23-0.22
			C519.27,1006.85,518.48,1005.9,517.39,1005.19z"/>
		<path class="st80" d="M527.48,1004.14c0.51-1.56,0.34-3.33-0.44-4.59c-0.66-1.07-1.51-1.8-2.85-1.75
			c-1.2,0.04-2.43,0.78-3.11,1.92c-0.47,0.79-0.88,1.64-1.21,2.52c-0.34,0.62-0.53,1.32-0.57,2.05c-0.11,0.59-0.17,1.17-0.16,1.76
			c0.01,1.68,0.76,2.98,2.27,3.44c1.35,0.41,3.2-0.45,3.98-1.83c0.05-0.09,0.1-0.19,0.15-0.28
			C526.37,1006.39,527.08,1005.38,527.48,1004.14z"/>
	</g>
	<g>
		<path class="st80" d="M482.54,1061.03c1.32,0.63,2.36,1.83,2.7,3.11c0.28,1.08,0.24,2.08-0.62,2.92c-0.76,0.75-2,1.09-3.15,0.83
			c-0.8-0.18-1.6-0.44-2.37-0.77c-0.61-0.16-1.18-0.47-1.67-0.89c-0.44-0.29-0.86-0.61-1.24-0.98c-1.08-1.04-1.45-2.33-0.83-3.59
			c0.56-1.13,2.26-1.79,3.63-1.45c0.09,0.02,0.19,0.05,0.28,0.08C480.4,1060.37,481.5,1060.53,482.54,1061.03z"/>
		<path class="st80" d="M485.83,1071.88c-0.95,1.12-2.37,1.81-3.7,1.81c-1.12,0-2.08-0.31-2.66-1.35c-0.53-0.93-0.54-2.21,0.01-3.26
			c0.38-0.73,0.84-1.44,1.35-2.09c0.31-0.55,0.76-1.02,1.29-1.39c0.4-0.35,0.82-0.67,1.26-0.94c1.28-0.78,2.62-0.81,3.68,0.12
			c0.95,0.83,1.15,2.64,0.47,3.88c-0.05,0.08-0.1,0.17-0.14,0.25C487.02,1069.99,486.59,1071,485.83,1071.88z"/>
		<path class="st80" d="M492.68,1064.74c1.25,0.77,2.16,2.07,2.36,3.38c0.17,1.1,0.02,2.1-0.92,2.84c-0.84,0.66-2.1,0.87-3.22,0.49
			c-0.78-0.26-1.55-0.6-2.28-1.01c-0.59-0.22-1.12-0.59-1.57-1.06c-0.41-0.34-0.79-0.7-1.13-1.1c-0.97-1.15-1.2-2.47-0.44-3.65
			c0.68-1.06,2.43-1.55,3.76-1.06c0.09,0.03,0.18,0.07,0.27,0.1C490.63,1063.86,491.7,1064.13,492.68,1064.74z"/>
		<path class="st80" d="M482.48,1059.29c0.02-1.47,0.67-2.91,1.7-3.75c0.86-0.71,1.79-1.09,2.91-0.66c1,0.38,1.83,1.36,2.07,2.51
			c0.17,0.81,0.27,1.64,0.3,2.47c0.11,0.62,0.07,1.27-0.11,1.89c-0.08,0.53-0.2,1.04-0.37,1.53c-0.49,1.42-1.5,2.29-2.91,2.25
			c-1.26-0.04-2.57-1.3-2.84-2.69c-0.02-0.09-0.03-0.19-0.05-0.28C482.77,1061.51,482.46,1060.45,482.48,1059.29z"/>
		<path class="st80" d="M489,1059c1.38-0.49,2.96-0.38,4.11,0.29c0.97,0.56,1.64,1.3,1.63,2.5c-0.01,1.07-0.64,2.18-1.64,2.82
			c-0.7,0.44-1.44,0.83-2.21,1.14c-0.54,0.32-1.16,0.5-1.81,0.56c-0.52,0.11-1.04,0.18-1.56,0.19c-1.5,0.03-2.67-0.61-3.12-1.95
			c-0.4-1.19,0.32-2.86,1.54-3.59c0.08-0.05,0.17-0.1,0.25-0.14C487.02,1060.05,487.91,1059.39,489,1059z"/>
	</g>
	<g>
		<path class="st91" d="M607.36,1080.46c-2.83,2.97-6.1,5.04-8.51,5.37c-2.03,0.28-3.48-0.22-3.53-2.61
			c-0.05-2.14,1.18-5.27,3.21-7.97c1.41-1.88,2.93-3.73,4.51-5.46c1.1-1.42,2.37-2.69,3.71-3.73c1.07-0.97,2.15-1.86,3.22-2.63
			c3.1-2.23,5.57-2.65,6.58-0.64c0.91,1.8-0.48,6.16-2.95,9.37c-0.17,0.22-0.34,0.43-0.51,0.65
			C611.38,1075.51,609.59,1078.11,607.36,1080.46z"/>
	</g>
	<g>
		<path class="st91" d="M599.34,1073.45c1.51,3.82,2.01,7.66,1.29,9.98c-0.6,1.96-1.66,3.07-3.85,2.11
			c-1.96-0.86-4.28-3.28-5.89-6.26c-1.12-2.07-2.15-4.23-3.06-6.39c-0.83-1.59-1.44-3.28-1.82-4.94c-0.43-1.38-0.78-2.73-1.04-4.03
			c-0.72-3.75-0.06-6.17,2.18-6.24c2.01-0.07,5.39,3.03,7.27,6.61c0.13,0.24,0.25,0.49,0.37,0.73
			C596.55,1067.72,598.15,1070.44,599.34,1073.45z"/>
	</g>
	<g>
		<path class="st80" d="M685.96,1009.12c1.62,0.91,2.83,2.5,3.15,4.15c0.27,1.39,0.13,2.65-1.02,3.64
			c-1.03,0.88-2.61,1.21-4.05,0.79c-1-0.29-1.99-0.68-2.93-1.16c-0.76-0.25-1.45-0.69-2.04-1.26c-0.54-0.41-1.04-0.85-1.48-1.33
			c-1.28-1.4-1.65-3.06-0.75-4.6c0.8-1.38,3-2.08,4.7-1.53c0.12,0.04,0.23,0.08,0.34,0.12
			C683.31,1008.11,684.68,1008.4,685.96,1009.12z"/>
		<path class="st80" d="M693.41,1008.45c1.83-0.3,3.78,0.2,5.05,1.28c1.08,0.92,1.75,2,1.47,3.48c-0.25,1.33-1.29,2.58-2.68,3.14
			c-0.97,0.39-1.98,0.7-3.02,0.92c-0.75,0.28-1.56,0.37-2.38,0.28c-0.67,0.02-1.34-0.02-1.99-0.12c-1.87-0.3-3.19-1.37-3.45-3.13
			c-0.23-1.58,1.05-3.5,2.72-4.13c0.11-0.04,0.23-0.08,0.34-0.12C690.71,1009.3,691.97,1008.68,693.41,1008.45z"/>
		<path class="st80" d="M689.89,1004.9c1.65-0.86,3.65-1,5.2-0.37c1.31,0.53,2.29,1.34,2.49,2.84c0.18,1.34-0.41,2.85-1.55,3.82
			c-0.79,0.68-1.66,1.29-2.58,1.82c-0.62,0.5-1.37,0.84-2.17,1.02c-0.63,0.23-1.28,0.41-1.93,0.51c-1.87,0.31-3.46-0.29-4.26-1.89
			c-0.71-1.43-0.1-3.65,1.29-4.78c0.09-0.08,0.19-0.15,0.29-0.22C687.59,1006.57,688.59,1005.58,689.89,1004.9z"/>
		<path class="st80" d="M677.34,1012.46c-1.58-0.98-2.73-2.62-2.98-4.28c-0.21-1.4-0.02-2.66,1.17-3.59
			c1.06-0.84,2.66-1.1,4.08-0.62c0.99,0.34,1.96,0.77,2.88,1.28c0.74,0.28,1.42,0.75,1.99,1.35c0.52,0.43,1,0.89,1.43,1.39
			c1.22,1.45,1.52,3.12,0.56,4.62c-0.86,1.34-3.08,1.96-4.76,1.34c-0.11-0.04-0.23-0.09-0.34-0.13
			C679.94,1013.58,678.59,1013.23,677.34,1012.46z"/>
		<path class="st80" d="M681.26,1005.17c0.37-1.82,1.51-3.47,2.98-4.28c1.24-0.68,2.48-0.94,3.77-0.15c1.15,0.71,1.96,2.11,2,3.61
			c0.03,1.04-0.04,2.1-0.2,3.15c0,0.8-0.21,1.59-0.57,2.33c-0.22,0.64-0.49,1.25-0.81,1.82c-0.94,1.65-2.4,2.51-4.14,2.13
			c-1.56-0.34-2.9-2.21-2.91-4c0-0.12,0-0.24,0.01-0.36C681.11,1008,680.97,1006.61,681.26,1005.17z"/>
	</g>
	<g>
		<path class="st91" d="M753.93,1094.3c-1.02,3.98-2.88,7.38-4.82,8.84c-1.64,1.23-3.15,1.51-4.36-0.56
			c-1.08-1.85-1.53-5.17-1.08-8.53c0.31-2.33,0.74-4.69,1.28-6.97c0.27-1.77,0.77-3.5,1.43-5.06c0.46-1.37,0.97-2.67,1.53-3.87
			c1.62-3.46,3.57-5.03,5.44-3.77c1.67,1.13,2.58,5.62,1.99,9.62c-0.04,0.27-0.08,0.54-0.13,0.81
			C755.04,1088.02,754.74,1091.16,753.93,1094.3z"/>
		<path class="st91" d="M759.4,1098.17c-2.45,3.3-5.44,5.75-7.8,6.37c-1.98,0.52-3.48,0.21-3.83-2.16c-0.31-2.12,0.53-5.37,2.21-8.3
			c1.17-2.04,2.46-4.06,3.81-5.97c0.92-1.54,2.03-2.95,3.23-4.15c0.94-1.09,1.9-2.11,2.88-3.01c2.8-2.59,5.21-3.31,6.46-1.44
			c1.12,1.67,0.27,6.18-1.78,9.66c-0.14,0.24-0.28,0.47-0.43,0.7C762.79,1092.77,761.33,1095.56,759.4,1098.17z"/>
	</g>
	<g>
		<path class="st80" d="M741.03,1100.96c1.32,0.63,2.36,1.83,2.7,3.11c0.28,1.08,0.24,2.08-0.62,2.92c-0.76,0.75-2,1.09-3.15,0.83
			c-0.8-0.18-1.6-0.44-2.37-0.77c-0.61-0.16-1.18-0.47-1.67-0.89c-0.44-0.29-0.86-0.61-1.24-0.98c-1.08-1.04-1.45-2.33-0.83-3.59
			c0.56-1.13,2.26-1.79,3.63-1.45c0.09,0.02,0.19,0.05,0.28,0.08C738.9,1100.3,739.99,1100.46,741.03,1100.96z"/>
		<path class="st80" d="M744.33,1111.82c-0.95,1.12-2.37,1.81-3.7,1.81c-1.12,0-2.08-0.31-2.66-1.35c-0.53-0.93-0.54-2.21,0.01-3.26
			c0.38-0.73,0.84-1.44,1.35-2.09c0.31-0.55,0.76-1.02,1.29-1.39c0.4-0.35,0.82-0.67,1.26-0.94c1.28-0.78,2.62-0.81,3.68,0.12
			c0.95,0.83,1.15,2.64,0.47,3.88c-0.05,0.08-0.1,0.17-0.14,0.25C745.52,1109.92,745.08,1110.94,744.33,1111.82z"/>
		<path class="st80" d="M751.18,1104.68c1.25,0.77,2.16,2.07,2.36,3.38c0.17,1.1,0.02,2.1-0.92,2.84c-0.84,0.66-2.1,0.87-3.22,0.49
			c-0.78-0.26-1.55-0.6-2.28-1.01c-0.59-0.22-1.12-0.59-1.57-1.06c-0.41-0.34-0.79-0.7-1.13-1.1c-0.97-1.15-1.2-2.47-0.44-3.65
			c0.68-1.06,2.43-1.55,3.76-1.06c0.09,0.03,0.18,0.07,0.27,0.1C749.12,1103.79,750.19,1104.07,751.18,1104.68z"/>
		<path class="st80" d="M740.97,1099.23c0.02-1.47,0.67-2.91,1.7-3.75c0.86-0.71,1.79-1.09,2.91-0.66c1,0.38,1.83,1.36,2.07,2.51
			c0.17,0.81,0.27,1.64,0.3,2.47c0.11,0.62,0.07,1.27-0.11,1.89c-0.08,0.53-0.2,1.04-0.37,1.53c-0.49,1.42-1.5,2.29-2.91,2.25
			c-1.26-0.04-2.57-1.3-2.84-2.69c-0.02-0.09-0.03-0.19-0.05-0.28C741.26,1101.44,740.95,1100.38,740.97,1099.23z"/>
		<path class="st80" d="M747.5,1098.93c1.38-0.49,2.96-0.38,4.11,0.29c0.97,0.56,1.64,1.3,1.63,2.5c-0.01,1.07-0.64,2.18-1.64,2.82
			c-0.7,0.44-1.44,0.83-2.21,1.14c-0.54,0.32-1.16,0.5-1.81,0.56c-0.52,0.11-1.04,0.18-1.56,0.19c-1.5,0.03-2.67-0.61-3.12-1.95
			c-0.4-1.19,0.32-2.86,1.54-3.59c0.08-0.05,0.17-0.1,0.25-0.14C745.52,1099.98,746.4,1099.32,747.5,1098.93z"/>
	</g>
</g>
</svg>
