<?xml version="1.0" encoding="utf-8"?>
<!-- Generator: Adobe Illustrator 25.4.1, SVG Export Plug-In . SVG Version: 6.00 Build 0)  -->
<svg version="1.1" id="Layer_1" xmlns="http://www.w3.org/2000/svg" xmlns:xlink="http://www.w3.org/1999/xlink" x="0px" y="0px"
	 viewBox="0 0 276.81 116.86" style="enable-background:new 0 0 276.81 116.86;" xml:space="preserve">
<style type="text/css">
	.st0{fill:#FFFFFF;}
	.st1{clip-path:url(#SVGID_00000029038499847594677500000013016807664450130874_);}
	.st2{clip-path:url(#SVGID_00000088123912225147244830000006889261646156399283_);}
	.st3{fill:#FFFFFF;stroke:#FFFFFF;stroke-width:0.75;stroke-miterlimit:10;}
	.st4{opacity:0.81;}
	.st5{fill:url(#SVGID_00000061449130637854110770000001451409993201138366_);}
	.st6{opacity:0.3;}
	.st7{fill:#F2F2F2;}
	.st8{opacity:0.61;fill:#F2F2F2;}
	.st9{opacity:0.69;fill:#F2F2F2;}
	.st10{opacity:0.53;}
	.st11{opacity:0.64;fill:#F2F2F2;}
	.st12{fill:#003800;}
	.st13{fill:#DC3285;}
	.st14{fill:#A52065;}
	.st15{fill:#005700;}
	.st16{fill:#2F6E0C;}
	.st17{clip-path:url(#SVGID_00000070801443149921774480000014109861750262128058_);fill:#007400;}
	.st18{opacity:0.62;clip-path:url(#SVGID_00000070801443149921774480000014109861750262128058_);}
	.st19{fill:none;stroke:#000000;stroke-width:6;stroke-miterlimit:10;}
	.st20{fill:#007400;}
	.st21{fill:#6AD542;}
	.st22{opacity:0.77;fill:url(#);}
	.st23{opacity:0.47;}
	.st24{fill:none;stroke:#000000;stroke-width:6;stroke-linecap:round;stroke-miterlimit:10;}
	.st25{fill:none;stroke:#DC3285;stroke-width:5;stroke-linecap:round;stroke-linejoin:round;stroke-miterlimit:10;}
	.st26{clip-path:url(#SVGID_00000178171301776023273590000010290270802210896786_);fill:#FFFFFF;}
	.st27{fill:#FFA002;}
	.st28{opacity:0.64;clip-path:url(#SVGID_00000148634869333125437080000011801072684383422890_);fill:#FFFFFF;}
	.st29{opacity:0.61;clip-path:url(#SVGID_00000057858531204394285230000015589763637025575585_);fill:#FFFFFF;}
	.st30{clip-path:url(#SVGID_00000170258351355240643110000016720688657273474736_);}
	.st31{fill:#999999;}
	.st32{fill:#1A1A1A;}
	.st33{opacity:0.43;fill:#FFFFFF;}
	.st34{opacity:0.43;fill:none;stroke:#FFFFFF;stroke-width:7;stroke-linecap:round;stroke-miterlimit:10;}
	.st35{fill:#6AD542;stroke:#FFFFFF;stroke-width:7;stroke-linecap:round;stroke-miterlimit:10;}
	.st36{fill:none;stroke:#E6E6E6;stroke-width:13;stroke-linecap:round;stroke-linejoin:round;stroke-miterlimit:10;}
	.st37{clip-path:url(#SVGID_00000128442717668472000550000002409306151805054105_);}
	.st38{opacity:0.43;fill:none;stroke:#1A1A1A;stroke-width:6;stroke-miterlimit:10;}
	.st39{fill:#666666;}
	.st40{fill:none;stroke:#FFFFFF;stroke-width:13;stroke-linecap:round;stroke-linejoin:round;stroke-miterlimit:10;}
	.st41{fill:none;stroke:#FFFFFF;stroke-width:11;stroke-linecap:round;stroke-linejoin:round;stroke-miterlimit:10;}
	.st42{fill:none;stroke:#FFE500;stroke-width:10;stroke-linecap:round;stroke-miterlimit:10;}
	.st43{clip-path:url(#SVGID_00000092447559620448734170000009153826263634183051_);fill:#DC3285;}
	.st44{clip-path:url(#SVGID_00000092447559620448734170000009153826263634183051_);fill:#FFFFFF;}
	.st45{clip-path:url(#SVGID_00000092447559620448734170000009153826263634183051_);fill:#333333;}
	.st46{clip-path:url(#SVGID_00000130610533777199178480000017541195210434118322_);fill:#DC3285;}
	.st47{clip-path:url(#SVGID_00000130610533777199178480000017541195210434118322_);fill:#FFFFFF;}
	.st48{clip-path:url(#SVGID_00000130610533777199178480000017541195210434118322_);fill:#333333;}
	.st49{fill:#56BE2F;}
	.st50{opacity:0.55;}
	.st51{fill:none;stroke:#000000;stroke-width:15;stroke-linecap:round;stroke-linejoin:round;stroke-miterlimit:10;}
	.st52{fill:#5C1537;}
	.st53{clip-path:url(#SVGID_00000009562560802257644060000006261920583421632695_);fill:#26AD35;}
	.st54{clip-path:url(#SVGID_00000009562560802257644060000006261920583421632695_);fill:#6AD542;}
	.st55{clip-path:url(#SVGID_00000009562560802257644060000006261920583421632695_);fill:#56BE2F;}
	.st56{clip-path:url(#SVGID_00000078030863623381857140000007065293165911975820_);fill:#45A840;}
	.st57{clip-path:url(#SVGID_00000078030863623381857140000007065293165911975820_);fill:#56BE2F;}
	.st58{clip-path:url(#SVGID_00000080912965305287301260000002442715643574520485_);fill:#45A840;}
	.st59{clip-path:url(#SVGID_00000080912965305287301260000002442715643574520485_);fill:#56BE2F;}
	.st60{clip-path:url(#SVGID_00000119807503409094373640000005072878326392160958_);fill:#6AD542;}
	.st61{opacity:0.7;clip-path:url(#SVGID_00000119807503409094373640000005072878326392160958_);}
	.st62{fill:#27B136;}
	.st63{clip-path:url(#SVGID_00000176037970654995328280000002922563942170161036_);fill:#3E8913;}
	.st64{clip-path:url(#SVGID_00000176037970654995328280000002922563942170161036_);fill:#6AD542;}
	.st65{clip-path:url(#SVGID_00000044176884615157636120000002040654784409479868_);fill:#29BD3A;}
	.st66{clip-path:url(#SVGID_00000044176884615157636120000002040654784409479868_);fill:#6AD542;}
	.st67{clip-path:url(#SVGID_00000160879328438481745250000001112357447583719040_);fill:#6AD542;}
	.st68{opacity:0.7;clip-path:url(#SVGID_00000160879328438481745250000001112357447583719040_);}
	.st69{clip-path:url(#SVGID_00000170274982916861753330000015266376258375546542_);fill:#6AD542;}
	.st70{opacity:0.56;clip-path:url(#SVGID_00000170274982916861753330000015266376258375546542_);fill:#26AD35;}
	.st71{clip-path:url(#SVGID_00000001650280504842763910000015169045020303055528_);fill:#45A840;}
	.st72{clip-path:url(#SVGID_00000001650280504842763910000015169045020303055528_);fill:#56BE2F;}
	.st73{fill:#333333;}
	.st74{opacity:0.42;fill:#292929;}
	.st75{opacity:0.15;fill:url(#);}
	.st76{clip-path:url(#SVGID_00000122719288222933091690000012686401380753248408_);fill:#3E8913;}
	.st77{clip-path:url(#SVGID_00000122719288222933091690000012686401380753248408_);fill:#6AD542;}
	.st78{fill:none;stroke:#000000;stroke-width:4;stroke-miterlimit:10;}
	.st79{fill:#00ADEE;}
	.st80{fill:#FFE500;}
	.st81{opacity:0.66;fill:#FFA002;}
	.st82{clip-path:url(#SVGID_00000073704245192448668120000016938554760145028750_);fill:#29BD3A;}
	.st83{clip-path:url(#SVGID_00000073704245192448668120000016938554760145028750_);fill:#6AD542;}
	.st84{fill:#00CCFF;}
	.st85{fill:#29BD3A;}
	.st86{fill:#FFD900;}
	.st87{fill:#EB8AB9;}
	.st88{opacity:0.78;fill:#E04B94;}
	.st89{clip-path:url(#SVGID_00000165220273753861111030000012210931852362705301_);fill:#6AD542;}
	.st90{opacity:0.7;clip-path:url(#SVGID_00000165220273753861111030000012210931852362705301_);}
	.st91{fill:#8BE04A;}
	.st92{opacity:0.28;fill:url(#SVGID_00000073684261524046818400000004256717263143524486_);}
	.st93{opacity:0.7;fill:url(#SVGID_00000134934675607172441880000003127045047062624167_);}
	.st94{clip-path:url(#SVGID_00000147919593643229579360000001145808157770836893_);fill:#DC3285;}
	.st95{clip-path:url(#SVGID_00000147919593643229579360000001145808157770836893_);fill:#FFCD55;}
	.st96{clip-path:url(#SVGID_00000147919593643229579360000001145808157770836893_);fill:#45C8F5;}
	.st97{clip-path:url(#SVGID_00000022544916576416905570000013817696534383060864_);fill:#FFFFFF;}
	.st98{clip-path:url(#SVGID_00000022544916576416905570000013817696534383060864_);}
	.st99{clip-path:url(#SVGID_00000116209967230542547290000015290929693419650466_);fill:#333333;}
	.st100{clip-path:url(#SVGID_00000116209967230542547290000015290929693419650466_);fill:#FFCD55;}
	.st101{clip-path:url(#SVGID_00000116209967230542547290000015290929693419650466_);}
	.st102{fill:#E6E6E6;}
	.st103{fill:#FFCD55;}
	.st104{opacity:0.73;fill:#FFFFFF;}
	.st105{opacity:0.73;fill:none;stroke:#FFFFFF;stroke-width:29;stroke-linecap:round;stroke-miterlimit:10;}
	.st106{opacity:0.26;fill:#FFFFFF;}
	.st107{opacity:0.26;fill:none;stroke:#FFFFFF;stroke-width:29;stroke-linecap:round;stroke-miterlimit:10;}
	.st108{fill:#45C8F5;}
	.st109{fill:#231F20;}
	.st110{clip-path:url(#SVGID_00000107572545763259684290000007129417016850037412_);}
	.st111{fill:url(#SVGID_00000181791607537745297260000002123201669227435437_);}
	.st112{clip-path:url(#SVGID_00000107572545763259684290000007129417016850037412_);fill:#FFA002;}
	.st113{opacity:0.5;}
	.st114{fill:none;}
	.st115{fill:#CCCCCC;}
	.st116{fill:#B3B3B3;}
	.st117{fill:none;stroke:#FFE500;stroke-width:7;stroke-linecap:round;stroke-miterlimit:10;}
	.st118{fill:none;stroke:#FFE500;stroke-width:7;stroke-linecap:round;stroke-miterlimit:10;stroke-dasharray:10.0084,20.0167;}
	.st119{fill:url(#SVGID_00000134218773013657271570000009336948826523593135_);}
	.st120{opacity:0.7;fill:#B3B3B3;}
	.st121{fill:url(#SVGID_00000168082959579753470900000014451832658040422818_);}
	.st122{clip-path:url(#SVGID_00000171709804801430579500000013324689450154946483_);fill:#8BE04A;}
	
		.st123{opacity:0.55;clip-path:url(#SVGID_00000171709804801430579500000013324689450154946483_);fill:url(#SVGID_00000085938285229497845060000008931066064852115901_);}
	.st124{fill:#E567A5;}
	.st125{fill:url(#SVGID_00000161623440325976872390000008407043828064851386_);}
	.st126{fill:#00ACD6;}
	.st127{fill:#9E005D;}
	.st128{fill:url(#SVGID_00000067224506163362270410000015930022154662706077_);}
	.st129{fill:none;stroke:#FFCD55;stroke-width:5;stroke-linecap:round;stroke-miterlimit:10;}
	.st130{fill:none;stroke:#FFCD55;stroke-width:5;stroke-linecap:round;stroke-miterlimit:10;stroke-dasharray:9.3355,18.6709;}
	.st131{fill:url(#SVGID_00000000182166156734030060000000467933483036561843_);}
	.st132{fill:url(#SVGID_00000105425435853182001150000008705004216409921446_);}
	.st133{clip-path:url(#SVGID_00000077313549527105014530000015046733268561742778_);fill:#007400;}
	.st134{opacity:0.62;clip-path:url(#SVGID_00000077313549527105014530000015046733268561742778_);}
	.st135{clip-path:url(#SVGID_00000130616999397142832260000016091833543960127876_);fill:#FFFFFF;}
	.st136{opacity:0.64;clip-path:url(#SVGID_00000164504194259598111080000001536470908889018541_);fill:#FFFFFF;}
	.st137{opacity:0.61;clip-path:url(#SVGID_00000101805896662454618260000010015518570402908036_);fill:#FFFFFF;}
	.st138{clip-path:url(#SVGID_00000034775935648059402160000007746508494379703735_);}
	.st139{clip-path:url(#SVGID_00000062180215223999301030000017712730819665538688_);}
	.st140{clip-path:url(#SVGID_00000049922744662790673130000009033116837954127037_);fill:#DC3285;}
	.st141{clip-path:url(#SVGID_00000049922744662790673130000009033116837954127037_);fill:#FFFFFF;}
	.st142{clip-path:url(#SVGID_00000049922744662790673130000009033116837954127037_);fill:#333333;}
	.st143{clip-path:url(#SVGID_00000180332429269149786600000012324762695119215777_);fill:#DC3285;}
	.st144{clip-path:url(#SVGID_00000180332429269149786600000012324762695119215777_);fill:#FFFFFF;}
	.st145{clip-path:url(#SVGID_00000180332429269149786600000012324762695119215777_);fill:#333333;}
	.st146{clip-path:url(#SVGID_00000013888171683449488490000000310786784099037119_);fill:#26AD35;}
	.st147{clip-path:url(#SVGID_00000013888171683449488490000000310786784099037119_);fill:#6AD542;}
	.st148{clip-path:url(#SVGID_00000013888171683449488490000000310786784099037119_);fill:#56BE2F;}
	.st149{clip-path:url(#SVGID_00000085964900319504039550000007634406664939400068_);fill:#45A840;}
	.st150{clip-path:url(#SVGID_00000085964900319504039550000007634406664939400068_);fill:#56BE2F;}
	.st151{clip-path:url(#SVGID_00000139279446293087590080000016870609969634086588_);fill:#45A840;}
	.st152{clip-path:url(#SVGID_00000139279446293087590080000016870609969634086588_);fill:#56BE2F;}
	.st153{clip-path:url(#SVGID_00000047777386049073489960000007920830788418600372_);fill:#6AD542;}
	.st154{opacity:0.7;clip-path:url(#SVGID_00000047777386049073489960000007920830788418600372_);}
	.st155{clip-path:url(#SVGID_00000019673729736732078740000007604220404410922165_);fill:#3E8913;}
	.st156{clip-path:url(#SVGID_00000019673729736732078740000007604220404410922165_);fill:#6AD542;}
	.st157{clip-path:url(#SVGID_00000150063409167699254160000009372975794906522559_);fill:#29BD3A;}
	.st158{clip-path:url(#SVGID_00000150063409167699254160000009372975794906522559_);fill:#6AD542;}
	.st159{clip-path:url(#SVGID_00000127033127804428829870000018033154871991828610_);fill:#6AD542;}
	.st160{opacity:0.7;clip-path:url(#SVGID_00000127033127804428829870000018033154871991828610_);}
	.st161{clip-path:url(#SVGID_00000070082254322791001900000009093887761156746131_);fill:#6AD542;}
	.st162{opacity:0.56;clip-path:url(#SVGID_00000070082254322791001900000009093887761156746131_);fill:#26AD35;}
	.st163{clip-path:url(#SVGID_00000170983114500563168710000004850215473450951816_);fill:#45A840;}
	.st164{clip-path:url(#SVGID_00000170983114500563168710000004850215473450951816_);fill:#56BE2F;}
	.st165{clip-path:url(#SVGID_00000009554949218071238660000006848055512616961435_);fill:#3E8913;}
	.st166{clip-path:url(#SVGID_00000009554949218071238660000006848055512616961435_);fill:#6AD542;}
	.st167{clip-path:url(#SVGID_00000077287127569471333680000017703134337774278787_);fill:#29BD3A;}
	.st168{clip-path:url(#SVGID_00000077287127569471333680000017703134337774278787_);fill:#6AD542;}
	.st169{clip-path:url(#SVGID_00000122722922678355619770000000385307844380702621_);fill:#6AD542;}
	.st170{opacity:0.7;clip-path:url(#SVGID_00000122722922678355619770000000385307844380702621_);}
	.st171{opacity:0.28;fill:url(#SVGID_00000034067716954110674040000001915095521338095781_);}
	.st172{opacity:0.7;fill:url(#SVGID_00000063613285401875912810000010455669016404236192_);}
	.st173{clip-path:url(#SVGID_00000083808743926115857560000008136032044831469197_);}
	.st174{clip-path:url(#SVGID_00000021109846297462236420000012488046901460594575_);}
	.st175{clip-path:url(#SVGID_00000044856788034251783130000001018014437347031992_);fill:#FFFFFF;}
	.st176{clip-path:url(#SVGID_00000044856788034251783130000001018014437347031992_);}
	.st177{clip-path:url(#SVGID_00000114032650694138986270000000348671957195266217_);fill:#333333;}
	.st178{clip-path:url(#SVGID_00000114032650694138986270000000348671957195266217_);fill:#FFCD55;}
	.st179{clip-path:url(#SVGID_00000114032650694138986270000000348671957195266217_);}
	.st180{clip-path:url(#SVGID_00000015313614449185091380000012186660308059497873_);}
	.st181{fill:url(#SVGID_00000146459325411265344820000009977541452970455693_);}
	.st182{clip-path:url(#SVGID_00000015313614449185091380000012186660308059497873_);fill:#FFA002;}
	.st183{fill:url(#SVGID_00000150797340809371879170000006374320741161680539_);}
	.st184{clip-path:url(#SVGID_00000074436040595329232000000018432731134164125878_);fill:#8BE04A;}
	
		.st185{opacity:0.55;clip-path:url(#SVGID_00000074436040595329232000000018432731134164125878_);fill:url(#SVGID_00000070113090577272795720000015462611615340573869_);}
	.st186{fill:#009245;}
	.st187{clip-path:url(#SVGID_00000029012765743607732160000005061958645394100641_);}
	.st188{fill:none;stroke:#FFFFFF;stroke-width:27;stroke-linecap:round;stroke-miterlimit:10;}
	.st189{fill:none;stroke:#2CAF4B;stroke-width:61;stroke-linecap:round;stroke-linejoin:round;stroke-miterlimit:10;}
	.st190{fill:none;stroke:#DC3285;stroke-width:13;stroke-linecap:round;stroke-linejoin:round;stroke-miterlimit:10;}
	.st191{fill:#2CAF4B;}
	.st192{opacity:0.1;}
	.st193{fill:#151814;}
	.st194{fill:none;stroke:#DC3285;stroke-width:30;stroke-miterlimit:10;}
	.st195{fill:#DC3285;stroke:#E567A5;stroke-width:6;stroke-miterlimit:10;}
	.st196{fill:#282560;}
	.st197{fill:url(#SVGID_00000144336675624103811920000015554823790820625306_);}
	.st198{fill:url(#SVGID_00000055676888220472730090000017971365443741150106_);}
	.st199{clip-path:url(#SVGID_00000027580911124289657580000010664845146552074651_);}
	.st200{clip-path:url(#SVGID_00000077313014304241118550000010119724118484154281_);}
	.st201{clip-path:url(#SVGID_00000011749813539057480320000009008290889143186620_);}
	.st202{fill:#006600;}
	.st203{opacity:0.77;}
	.st204{clip-path:url(#SVGID_00000152265014034961217610000007837711406026991536_);}
	.st205{clip-path:url(#SVGID_00000132069945065089492420000001238528577101428157_);}
	.st206{clip-path:url(#SVGID_00000082363469441475731490000007402036272923311002_);}
	.st207{clip-path:url(#SVGID_00000150790400534065097510000012411713064962011533_);}
	.st208{clip-path:url(#SVGID_00000089561881391572357090000007178730138349203601_);}
	.st209{clip-path:url(#SVGID_00000174600785963068181830000015010848003965913007_);}
	.st210{clip-path:url(#SVGID_00000085252740488597366000000008759684625028487300_);}
	.st211{clip-path:url(#SVGID_00000134949862440847453790000000696539092268767104_);}
	.st212{clip-path:url(#SVGID_00000149366225692285089930000005109669845526913716_);}
	.st213{clip-path:url(#SVGID_00000084507977699388033120000009214689491311519133_);}
	.st214{clip-path:url(#SVGID_00000137813059388620589340000001156183205621638806_);}
	.st215{clip-path:url(#SVGID_00000134221138260637185250000010151153727701063318_);fill:#FFFFFF;}
	.st216{opacity:0.64;clip-path:url(#SVGID_00000154388875201009050260000004509158400798278551_);fill:#FFFFFF;}
	.st217{opacity:0.61;clip-path:url(#SVGID_00000033361250363450391690000012679533300023971715_);fill:#FFFFFF;}
	.st218{opacity:0.43;}
	.st219{fill:#4D4D4D;}
	.st220{fill:#3B3B3B;}
	.st221{clip-path:url(#SVGID_00000031886639231009604500000006735960622750250888_);fill:#DC3285;}
	.st222{clip-path:url(#SVGID_00000031886639231009604500000006735960622750250888_);fill:#FFFFFF;}
	.st223{clip-path:url(#SVGID_00000031886639231009604500000006735960622750250888_);fill:#333333;}
	.st224{clip-path:url(#SVGID_00000050648425900014033290000015283025478175078050_);fill:#DC3285;}
	.st225{clip-path:url(#SVGID_00000050648425900014033290000015283025478175078050_);fill:#FFFFFF;}
	.st226{clip-path:url(#SVGID_00000050648425900014033290000015283025478175078050_);fill:#333333;}
	.st227{fill:#26AD35;}
	.st228{fill:#45A840;}
	.st229{opacity:0.56;fill:#26AD35;}
	.st230{opacity:0.42;}
	.st231{fill:#292929;}
	.st232{opacity:0.15;}
	.st233{clip-path:url(#SVGID_00000038399958936438039310000015696038874647520429_);}
	.st234{clip-path:url(#SVGID_00000003820391109232350720000010556950405355436721_);}
	.st235{clip-path:url(#SVGID_00000145016982898026328800000008705602690065064076_);}
	.st236{clip-path:url(#SVGID_00000026164428786831518170000015554874068626310287_);}
	.st237{clip-path:url(#SVGID_00000120533335405741909710000005224526933931443353_);}
	.st238{clip-path:url(#SVGID_00000080917816008839011260000006994362351402895294_);}
	.st239{clip-path:url(#SVGID_00000054241297980654675340000009446440151761747903_);}
	.st240{clip-path:url(#SVGID_00000132070418510764507800000007609985672015619251_);}
	.st241{clip-path:url(#SVGID_00000155117139563301114760000015315367923309845664_);}
	.st242{clip-path:url(#SVGID_00000109749006327753839260000001818483245077795466_);}
	.st243{clip-path:url(#SVGID_00000140713801028831989100000006123321160321077923_);}
	.st244{clip-path:url(#SVGID_00000021086668010014930070000002432758901102300073_);}
	.st245{clip-path:url(#SVGID_00000174579261728990144110000006292881613310246067_);}
	.st246{clip-path:url(#SVGID_00000158747728701196665760000010788139017751720839_);}
	.st247{clip-path:url(#SVGID_00000022547857878144522650000013668797072494755211_);}
	.st248{clip-path:url(#SVGID_00000036234829930896502390000011804546692760607905_);}
	.st249{clip-path:url(#SVGID_00000132800887666161405920000001139104147838463890_);}
	.st250{clip-path:url(#SVGID_00000033350115497503570100000000996935577620739762_);}
	.st251{clip-path:url(#SVGID_00000133493126388196335060000013483192775917850025_);}
	.st252{clip-path:url(#SVGID_00000003796603322191843430000001924800929349812129_);}
	.st253{clip-path:url(#SVGID_00000049939810965278621550000011085345914353687710_);}
	.st254{clip-path:url(#SVGID_00000146499135900698833490000002025039589704319878_);}
	.st255{clip-path:url(#SVGID_00000178174964428766119320000014961312330149116819_);}
	.st256{clip-path:url(#SVGID_00000036941847828835904050000005660457917193164990_);}
	.st257{clip-path:url(#SVGID_00000040556241102746711770000009609742734259603093_);}
	.st258{clip-path:url(#SVGID_00000044863584758872892860000003961300741101003654_);}
	.st259{clip-path:url(#SVGID_00000010270136331315657940000003128001467842683022_);}
	.st260{clip-path:url(#SVGID_00000169554030918871918230000014434240825657375632_);}
	.st261{clip-path:url(#SVGID_00000094618930181011480220000007893650931371782547_);}
	.st262{clip-path:url(#SVGID_00000164477114324962396860000000962548880818737294_);}
	.st263{clip-path:url(#SVGID_00000040538945584864906680000017808287630687920558_);}
	.st264{clip-path:url(#SVGID_00000125600542999636310910000010753201011713634232_);}
	.st265{clip-path:url(#SVGID_00000102526562832273430970000007411416342477557151_);}
	.st266{clip-path:url(#SVGID_00000078008666071656986250000000082108344165627779_);}
	.st267{clip-path:url(#SVGID_00000101810110067274177630000006415383923078228408_);}
	.st268{clip-path:url(#SVGID_00000085946979796077215510000000677013712118574230_);}
	.st269{clip-path:url(#SVGID_00000097480666718690290640000004881775178308305556_);}
	.st270{clip-path:url(#SVGID_00000061458503159851570690000013915021560894844569_);}
	.st271{clip-path:url(#SVGID_00000043441633594991750130000000579723092287967406_);}
	.st272{clip-path:url(#SVGID_00000058554269209982698710000012719293678838878864_);}
	.st273{clip-path:url(#SVGID_00000152943302525683683760000000261159150532743342_);}
	.st274{clip-path:url(#SVGID_00000132065183920569050290000002646268116303026567_);}
	.st275{clip-path:url(#SVGID_00000171693073695949509740000011629630397788863156_);}
	.st276{clip-path:url(#SVGID_00000063603718413767794530000002574157317252108172_);}
	.st277{clip-path:url(#SVGID_00000036967530885527329340000012886019277053315728_);}
	.st278{clip-path:url(#SVGID_00000086685025935770756650000015960589020810976935_);}
	.st279{clip-path:url(#SVGID_00000005231630361560879900000015287147395949173891_);}
	.st280{clip-path:url(#SVGID_00000136380162300942993140000010624911952386861207_);}
	.st281{clip-path:url(#SVGID_00000003072224567031719820000010125999879129992871_);}
	.st282{clip-path:url(#SVGID_00000113316845894823191370000000489492434083264393_);}
	.st283{clip-path:url(#SVGID_00000026146046113470319890000006040048879047529387_);}
	.st284{clip-path:url(#SVGID_00000022536535947031699140000000432316429266723217_);}
	.st285{clip-path:url(#SVGID_00000108994407960953053600000016621627035763538819_);}
	.st286{clip-path:url(#SVGID_00000163040395280911838210000008166980118490704026_);}
	.st287{clip-path:url(#SVGID_00000157281073885905420820000010402800670897243532_);}
	.st288{clip-path:url(#SVGID_00000173854248239851202090000013296835543112168107_);}
	.st289{clip-path:url(#SVGID_00000103260039856472200650000010427190350546268297_);}
	.st290{clip-path:url(#SVGID_00000167362544650277787440000003811319579663708587_);}
	.st291{clip-path:url(#SVGID_00000183236162529904211960000004675843778743311273_);}
	.st292{clip-path:url(#SVGID_00000167356022248046446390000016710506618782656405_);}
	.st293{clip-path:url(#SVGID_00000051368293172037023950000005825471300489026992_);}
	.st294{clip-path:url(#SVGID_00000145747007238250059370000012425439582255607424_);}
	.st295{clip-path:url(#SVGID_00000051355532977563984170000007872617636448737161_);}
	.st296{clip-path:url(#SVGID_00000005985347254299933510000017703207434524942727_);}
	.st297{clip-path:url(#SVGID_00000181083823434627678850000000070176803053907624_);}
	.st298{clip-path:url(#SVGID_00000175292424152168151010000017111458067831804586_);}
	.st299{clip-path:url(#SVGID_00000051358399122999388860000015163161191639568012_);}
	.st300{clip-path:url(#SVGID_00000165924185734740798490000014120524077702001815_);}
	.st301{clip-path:url(#SVGID_00000083799070308849512120000017505567140970845329_);}
	.st302{clip-path:url(#SVGID_00000059995909557097976160000009183908545271096464_);}
	.st303{clip-path:url(#SVGID_00000067228143742088104040000004222771798825744541_);}
	.st304{clip-path:url(#SVGID_00000180326236411619094280000013113255579541367736_);}
	.st305{clip-path:url(#SVGID_00000044174830125691156930000003965354776940792716_);}
	.st306{clip-path:url(#SVGID_00000149351232995918375120000015952668674536056484_);}
	.st307{clip-path:url(#SVGID_00000065769690204957801430000010372847880139635074_);}
	.st308{clip-path:url(#SVGID_00000070093708863528345680000003880795593281541034_);}
	.st309{clip-path:url(#SVGID_00000051379147188817733110000008321658970368954503_);}
	.st310{clip-path:url(#SVGID_00000090978719059026271300000004906159539404337570_);}
	.st311{clip-path:url(#SVGID_00000098179181349884825990000008504621142377060739_);}
	.st312{clip-path:url(#SVGID_00000020370428221208398360000016542278592793258425_);}
	.st313{clip-path:url(#SVGID_00000115481717611219721040000004784814532020652934_);}
	.st314{clip-path:url(#SVGID_00000147935450606997313830000010694356248414669230_);}
	.st315{fill:#54BA2E;}
	.st316{fill:#008DF2;}
	.st317{opacity:0.76;}
	.st318{clip-path:url(#SVGID_00000041287048023868601590000017015409569198725766_);fill:#0088C7;}
	.st319{clip-path:url(#SVGID_00000041287048023868601590000017015409569198725766_);fill:#0189C8;}
	.st320{clip-path:url(#SVGID_00000041287048023868601590000017015409569198725766_);fill:#028AC9;}
	.st321{clip-path:url(#SVGID_00000041287048023868601590000017015409569198725766_);fill:#048BC9;}
	.st322{clip-path:url(#SVGID_00000041287048023868601590000017015409569198725766_);fill:#058CCA;}
	.st323{clip-path:url(#SVGID_00000041287048023868601590000017015409569198725766_);fill:#068DCB;}
	.st324{clip-path:url(#SVGID_00000041287048023868601590000017015409569198725766_);fill:#078FCC;}
	.st325{clip-path:url(#SVGID_00000041287048023868601590000017015409569198725766_);fill:#0890CC;}
	.st326{clip-path:url(#SVGID_00000041287048023868601590000017015409569198725766_);fill:#0991CD;}
	.st327{clip-path:url(#SVGID_00000041287048023868601590000017015409569198725766_);fill:#0B92CE;}
	.st328{clip-path:url(#SVGID_00000041287048023868601590000017015409569198725766_);fill:#0C93CF;}
	.st329{clip-path:url(#SVGID_00000041287048023868601590000017015409569198725766_);fill:#0D94D0;}
	.st330{clip-path:url(#SVGID_00000041287048023868601590000017015409569198725766_);fill:#0E95D0;}
	.st331{clip-path:url(#SVGID_00000041287048023868601590000017015409569198725766_);fill:#0F96D1;}
	.st332{clip-path:url(#SVGID_00000041287048023868601590000017015409569198725766_);fill:#1097D2;}
	.st333{clip-path:url(#SVGID_00000041287048023868601590000017015409569198725766_);fill:#1198D3;}
	.st334{clip-path:url(#SVGID_00000041287048023868601590000017015409569198725766_);fill:#1399D3;}
	.st335{clip-path:url(#SVGID_00000041287048023868601590000017015409569198725766_);fill:#149AD4;}
	.st336{clip-path:url(#SVGID_00000041287048023868601590000017015409569198725766_);fill:#159BD5;}
	.st337{clip-path:url(#SVGID_00000041287048023868601590000017015409569198725766_);fill:#169CD6;}
	.st338{clip-path:url(#SVGID_00000041287048023868601590000017015409569198725766_);fill:#179DD6;}
	.st339{clip-path:url(#SVGID_00000041287048023868601590000017015409569198725766_);fill:#189ED7;}
	.st340{clip-path:url(#SVGID_00000041287048023868601590000017015409569198725766_);fill:#199FD8;}
	.st341{clip-path:url(#SVGID_00000041287048023868601590000017015409569198725766_);fill:#1AA0D9;}
	.st342{clip-path:url(#SVGID_00000041287048023868601590000017015409569198725766_);fill:#1BA1D9;}
	.st343{clip-path:url(#SVGID_00000041287048023868601590000017015409569198725766_);fill:#1DA2DA;}
	.st344{clip-path:url(#SVGID_00000041287048023868601590000017015409569198725766_);fill:#1EA4DB;}
	.st345{clip-path:url(#SVGID_00000041287048023868601590000017015409569198725766_);fill:#1FA5DC;}
	.st346{clip-path:url(#SVGID_00000041287048023868601590000017015409569198725766_);fill:#20A6DC;}
	.st347{clip-path:url(#SVGID_00000041287048023868601590000017015409569198725766_);fill:#21A7DD;}
	.st348{clip-path:url(#SVGID_00000041287048023868601590000017015409569198725766_);fill:#22A8DE;}
	.st349{clip-path:url(#SVGID_00000041287048023868601590000017015409569198725766_);fill:#23A9DE;}
	.st350{clip-path:url(#SVGID_00000041287048023868601590000017015409569198725766_);fill:#24AADF;}
	.st351{clip-path:url(#SVGID_00000041287048023868601590000017015409569198725766_);fill:#25ABE0;}
	.st352{clip-path:url(#SVGID_00000041287048023868601590000017015409569198725766_);fill:#26ABE1;}
	.st353{clip-path:url(#SVGID_00000041287048023868601590000017015409569198725766_);fill:#27ACE1;}
	.st354{clip-path:url(#SVGID_00000041287048023868601590000017015409569198725766_);fill:#28ADE2;}
	.st355{clip-path:url(#SVGID_00000041287048023868601590000017015409569198725766_);fill:#29AEE3;}
	.st356{clip-path:url(#SVGID_00000041287048023868601590000017015409569198725766_);fill:#2AAFE3;}
	.st357{clip-path:url(#SVGID_00000041287048023868601590000017015409569198725766_);fill:#2BB0E4;}
	.st358{clip-path:url(#SVGID_00000041287048023868601590000017015409569198725766_);fill:#2CB1E5;}
	.st359{clip-path:url(#SVGID_00000041287048023868601590000017015409569198725766_);fill:#2EB2E5;}
	.st360{clip-path:url(#SVGID_00000041287048023868601590000017015409569198725766_);fill:#2FB3E6;}
	.st361{clip-path:url(#SVGID_00000041287048023868601590000017015409569198725766_);fill:#30B4E7;}
	.st362{clip-path:url(#SVGID_00000041287048023868601590000017015409569198725766_);fill:#31B5E7;}
	.st363{clip-path:url(#SVGID_00000041287048023868601590000017015409569198725766_);fill:#32B6E8;}
	.st364{clip-path:url(#SVGID_00000041287048023868601590000017015409569198725766_);fill:#32B7E9;}
	.st365{clip-path:url(#SVGID_00000041287048023868601590000017015409569198725766_);fill:#33B8E9;}
	.st366{clip-path:url(#SVGID_00000041287048023868601590000017015409569198725766_);fill:#34B9EA;}
	.st367{clip-path:url(#SVGID_00000041287048023868601590000017015409569198725766_);fill:#35BAEB;}
	.st368{clip-path:url(#SVGID_00000041287048023868601590000017015409569198725766_);fill:#36BAEB;}
	.st369{clip-path:url(#SVGID_00000041287048023868601590000017015409569198725766_);fill:#37BBEC;}
	.st370{clip-path:url(#SVGID_00000041287048023868601590000017015409569198725766_);fill:#38BCEC;}
	.st371{clip-path:url(#SVGID_00000041287048023868601590000017015409569198725766_);fill:#39BDED;}
	.st372{clip-path:url(#SVGID_00000041287048023868601590000017015409569198725766_);fill:#3ABEEE;}
	.st373{clip-path:url(#SVGID_00000041287048023868601590000017015409569198725766_);fill:#3BBFEE;}
	.st374{clip-path:url(#SVGID_00000041287048023868601590000017015409569198725766_);fill:#3CC0EF;}
	.st375{clip-path:url(#SVGID_00000041287048023868601590000017015409569198725766_);fill:#3DC0F0;}
	.st376{clip-path:url(#SVGID_00000041287048023868601590000017015409569198725766_);fill:#3EC1F0;}
	.st377{clip-path:url(#SVGID_00000041287048023868601590000017015409569198725766_);fill:#3EC2F1;}
	.st378{clip-path:url(#SVGID_00000041287048023868601590000017015409569198725766_);fill:#3FC3F1;}
	.st379{clip-path:url(#SVGID_00000041287048023868601590000017015409569198725766_);fill:#40C3F2;}
	.st380{clip-path:url(#SVGID_00000041287048023868601590000017015409569198725766_);fill:#41C4F2;}
	.st381{clip-path:url(#SVGID_00000041287048023868601590000017015409569198725766_);fill:#42C5F3;}
	.st382{clip-path:url(#SVGID_00000041287048023868601590000017015409569198725766_);fill:#42C6F3;}
	.st383{clip-path:url(#SVGID_00000041287048023868601590000017015409569198725766_);fill:#43C6F4;}
	.st384{clip-path:url(#SVGID_00000041287048023868601590000017015409569198725766_);fill:#44C7F4;}
	.st385{clip-path:url(#SVGID_00000041287048023868601590000017015409569198725766_);fill:#44C8F5;}
	.st386{clip-path:url(#SVGID_00000041287048023868601590000017015409569198725766_);fill:#45C8F5;}
	.st387{fill:url(#SVGID_00000034067960106129219450000001266027882755562904_);}
	.st388{fill:url(#SVGID_00000004518118285526083740000007635483237505490580_);}
	.st389{fill:url(#SVGID_00000091707510318270207520000008777745193100275602_);}
	.st390{fill:url(#SVGID_00000103947218359017617560000009168379590021763729_);}
	.st391{fill:#FF7FC8;}
	.st392{clip-path:url(#SVGID_00000067957525457063245670000010371688121280169614_);fill:#333333;}
	.st393{clip-path:url(#SVGID_00000067957525457063245670000010371688121280169614_);fill:#FFCD55;}
	.st394{clip-path:url(#SVGID_00000067957525457063245670000010371688121280169614_);}
	.st395{fill:#73E1EF;}
	.st396{fill:#0E68A3;}
	.st397{fill:#053483;}
</style>
<g>
	<g class="st113">
		<path class="st0" d="M169.42,29.6c0,0.89,0.05,0.93,0.93,0.94c0.05,0,0.09,0,0.14,0c16.25,0,32.5,0,48.75,0
			c0.18,0,0.37,0,0.55-0.01c0.33-0.01,0.51-0.18,0.52-0.51c0-0.14,0.01-0.27,0.01-0.41c0-9.55,0-19.11,0-28.66
			c0-0.32,0-0.64-0.14-0.94c-16.87,0-33.74,0-50.61,0c-0.16,0.3-0.15,0.62-0.15,0.94C169.41,10.49,169.41,20.05,169.42,29.6z"/>
		<path class="st0" d="M57.75,30.48c8.09,0,16.18,0,24.26,0c8.11,0,16.22,0,24.33,0c1.02,0,1.02,0,1.02-1.01c0-7.17,0-14.34,0-21.51
			c0-1.04,0-1.05-1.07-1.05c-16.2,0-32.4,0-48.6,0c-1.15,0-1.05,0.01-1.05,1.05c0,7.15,0,14.29,0,21.44
			C56.66,30.52,56.52,30.48,57.75,30.48z"/>
		<path class="st0" d="M49.8,89.22c-16.23,0-32.45,0-48.68,0C0,89.22,0,89.22,0,90.32c0,6.92,0,13.84,0,20.76
			c0,1.13,0,1.13,1.13,1.13c8.09,0,16.18,0,24.27,0c8.11,0,16.23,0,24.34,0c1.15,0,1.15,0,1.15-1.12c0-6.92,0-13.84,0-20.76
			C50.89,89.22,50.89,89.22,49.8,89.22z"/>
		<path class="st0" d="M269.28,65.34c2.79-1.75,4.6-4.21,5.39-7.42c0.48-1.96,0.57-3.94,0.38-5.93c-0.2-2.01-0.76-3.91-1.88-5.61
			c-1.62-2.47-3.95-3.96-6.7-4.87c-2.51-0.82-5.11-1.07-7.73-1.07c-5.68-0.01-11.36,0-17.05,0c-0.96,0-0.96-0.12-0.96,0.98
			c0,6.14,0,12.28,0,18.41c0,6.12,0,12.23,0,18.35c0,0.23,0,0.46,0.01,0.69c0.01,0.25,0.14,0.37,0.39,0.38
			c0.16,0,0.32,0.01,0.48,0.01c2.91,0,5.82,0,8.73,0c0.14,0,0.27,0,0.41,0c0.3,0,0.47-0.13,0.47-0.45c0-0.18,0-0.37,0-0.55
			c0-3.11,0-6.23,0-9.34c0-0.21,0-0.41,0.01-0.62c0.01-0.21,0.12-0.34,0.34-0.35c0.16-0.01,0.32-0.01,0.48-0.01
			c1.74,0,3.48,0.02,5.22-0.01c0.58-0.01,0.9,0.17,1.19,0.69c1.83,3.33,3.72,6.63,5.55,9.96c0.28,0.5,0.59,0.71,1.18,0.7
			c3.51-0.03,7.01-0.01,10.52-0.02c0.3,0,0.72,0.17,0.88-0.15c0.13-0.26-0.2-0.53-0.35-0.77c-2.42-3.89-4.85-7.77-7.28-11.66
			C268.37,65.7,268.46,65.85,269.28,65.34z M265.03,55.31c-0.35,2.13-1.58,3.44-3.69,3.92c-0.65,0.15-1.31,0.22-1.97,0.22
			c-2.45,0-4.9,0-7.35,0c-0.07,0-0.14,0-0.21,0c-0.54-0.02-0.58-0.05-0.58-0.6c-0.01-1.26,0-2.52,0-3.78c0-0.3,0-0.6,0-0.89
			c0-1.51,0-3.02,0-4.53c0-0.72,0.02-0.74,0.72-0.74c2.4,0,4.81-0.01,7.21,0c1.1,0.01,2.19,0.14,3.22,0.58
			c1.36,0.58,2.21,1.59,2.54,3.03C265.15,53.44,265.19,54.37,265.03,55.31z"/>
		<path class="st0" d="M173.41,79.25c0.71,0,0.71-0.01,0.72-0.75c0-0.16,0-0.32,0-0.48c0-4.19,0-8.39,0-12.58
			c0-0.21,0.01-0.41,0-0.62c-0.01-0.31,0.14-0.47,0.45-0.46c0.16,0,0.32,0,0.48,0c4.33,0,8.66,0,13,0c0.16,0,0.32,0.01,0.48,0
			c0.31-0.01,0.47,0.14,0.46,0.46c0,0.21,0,0.41,0,0.62c0,4.26,0,8.52,0,12.79c0,0.21,0.01,0.41,0.01,0.62
			c0,0.29,0.15,0.41,0.43,0.41c0.16,0,0.32,0,0.48,0c2.87,0,5.73,0,8.6,0c0.97,0,0.97,0,0.97-0.98c0-6.14,0-12.28,0-18.42
			c0-6.09,0-12.19,0-18.28c0-0.21,0.01-0.41,0-0.62c-0.03-0.46-0.06-0.49-0.54-0.51c-0.16-0.01-0.32,0-0.48,0
			c-2.82,0-5.64-0.01-8.46,0c-1.03,0-1.01-0.18-1.01,0.99c0,4.58,0,9.16,0,13.75c0,0.77-0.01,0.77-0.76,0.77c-4.47,0-8.94,0-13.41,0
			c-0.68,0-0.69-0.02-0.7-0.69c0-0.18,0-0.37,0-0.55c0-4.4,0-8.8,0-13.2c0-0.21-0.01-0.41,0-0.62c0.01-0.32-0.13-0.47-0.45-0.45
			c-0.14,0.01-0.27,0-0.41,0c-2.91,0-5.82,0-8.73,0c-0.9,0-0.93-0.12-0.93,0.95c0,12.3,0,24.61,0,36.91c0,0.18,0,0.37,0.01,0.55
			c0.01,0.24,0.13,0.39,0.38,0.4c0.18,0.01,0.37,0.01,0.55,0.01c2.13,0,4.26,0,6.39,0C171.76,79.25,172.58,79.26,173.41,79.25z"/>
		<path class="st0" d="M234.37,70.79c-6.07,0-12.15,0-18.22,0c-0.8,0-0.81-0.01-0.81-0.8c0-1.74,0-3.48,0-5.22
			c0-0.93,0-0.93,0.95-0.93c3.48,0,6.97,0,10.45,0c0.72,0,0.73-0.01,0.73-0.73c0-2.22,0-4.45,0-6.67c0-0.6-0.03-0.62-0.61-0.64
			c-0.18-0.01-0.37,0-0.55,0c-3.32,0-6.65,0-9.97,0c-0.18,0-0.37-0.01-0.55,0c-0.32,0.01-0.45-0.16-0.44-0.47
			c0.01-0.16,0-0.32,0-0.48c0-1.65,0-3.3,0-4.95c0-1.05-0.02-0.98,0.97-0.98c6.1,0,12.19,0,18.29,0c0.8,0,0.8,0,0.8-0.8
			c0-2.27,0-4.54,0-6.81c0-0.86,0-0.87-0.86-0.87c-9.6,0-19.21,0-28.81,0c-0.93,0-0.93,0-0.93,0.94c0,6.14,0,12.28,0,18.42
			c0,6.12,0,12.24,0,18.35c0,1.14-0.1,1.1,1.06,1.1c1.05,0,2.11,0,3.16,0c8.48,0,16.96,0,25.44,0c0.93,0,0.93,0,0.93-0.95
			c0-2.15,0-4.31,0-6.46C235.4,70.72,235.49,70.79,234.37,70.79z"/>
		<path class="st0" d="M106.25,89.21c-8.07,0-16.13,0-24.2,0c-8.18,0-16.36,0-24.55,0c-0.84,0-0.84,0.01-0.85,0.84
			c0,0.09,0,0.18,0,0.27c0,4.74,0,9.49,0,14.23c0,1.35-0.19,1.27,1.24,1.27c16.09,0,32.18,0,48.27,0c0.16,0,0.32,0,0.48,0
			c0.67-0.01,0.7-0.05,0.72-0.7c0-0.14,0-0.27,0-0.41c0-4.79,0-9.58,0-14.37C107.37,89.19,107.45,89.21,106.25,89.21z"/>
		<path class="st0" d="M219.01,89.21c-8.07,0-16.14,0-24.2,0c-8.11,0-16.23,0-24.34,0c-0.9,0-0.92,0.03-0.93,0.93
			c0,0.07,0,0.14,0,0.21c0,4.77,0,9.53,0,14.3c0,0.18-0.01,0.37,0,0.55c0.03,0.51,0.11,0.59,0.61,0.63
			c0.18,0.01,0.37,0.01,0.55,0.01c2.04,0,4.08,0,6.12,0c14.12,0,28.24,0,42.36,0c0.99,0,0.99-0.01,1-1c0-0.05,0-0.09,0-0.14
			c0-4.77,0-9.53,0-14.3C220.17,89.21,220.17,89.21,219.01,89.21z"/>
		<path class="st0" d="M19.84,70.04c-0.53,0.22-1.08,0.38-1.65,0.45c-5.22,0.65-9.9-0.69-14.07-3.86c-0.25-0.19-0.49-0.41-0.73-0.62
			c-0.19-0.17-0.33-0.12-0.42,0.1c-0.06,0.15-0.1,0.3-0.15,0.46c-0.79,2.44-1.58,4.88-2.37,7.32c-0.45,1.4-0.45,1.4,0.84,2.16
			c4.31,2.51,9,3.55,13.45,3.58c2.31-0.04,4.11-0.15,5.9-0.44c2.25-0.36,4.44-0.92,6.45-2.05c2.65-1.49,4.32-3.7,4.94-6.68
			c0.29-1.38,0.35-2.78,0.22-4.17c-0.29-3.22-1.82-5.71-4.51-7.5c-1.04-0.69-2.14-1.24-3.29-1.69c-2.18-0.87-4.44-1.44-6.69-2.08
			c-1.23-0.35-2.46-0.72-3.61-1.31c-0.53-0.28-1.03-0.6-1.41-1.07c-0.88-1.1-0.55-2.55,0.71-3.18c0.33-0.16,0.68-0.28,1.04-0.33
			c3.73-0.49,6.84,0.53,9.1,3.68c0.31,0.43,0.32,0.45,0.76,0.17c2.41-1.51,4.81-3.02,7.21-4.54c0.44-0.28,0.45-0.35,0.19-0.83
			c-0.34-0.63-0.74-1.21-1.19-1.76C28.58,43.42,26,41.95,23.1,41c-2.69-0.88-5.46-1.11-8.28-0.93c-2.23,0.15-4.42,0.49-6.51,1.32
			c-2.65,1.05-4.8,2.7-6,5.35c-1.17,2.57-1.35,5.26-0.72,8c0.42,1.81,1.37,3.33,2.77,4.57c1.25,1.11,2.7,1.89,4.24,2.51
			c1.92,0.78,3.91,1.3,5.9,1.84c1.52,0.41,3.06,0.8,4.5,1.48c0.65,0.31,1.25,0.67,1.72,1.22C21.8,67.63,21.38,69.4,19.84,70.04z"/>
		<path class="st0" d="M114.25,30.5c8.04,0,16.08,0,24.13,0c8.11,0,16.22,0,24.33,0c1.06,0,1.06,0,1.06-1.08c0-4.37,0-8.75,0-13.12
			c0-1.01-0.01-1.02-1.05-1.02c-16.2,0-32.4,0-48.6,0c-1.06,0-1.06,0.01-1.06,1.08c0,4.33,0,8.66,0,12.99
			C113.07,30.5,113.07,30.5,114.25,30.5z"/>
		<path class="st0" d="M139.98,49.45c1.05-0.28,2.11-0.4,3.19-0.43c3.33-0.08,6.01,1.18,8.01,3.87c0.28,0.38,0.3,0.39,0.72,0.13
			c1.35-0.83,2.69-1.66,4.03-2.49c1.07-0.66,2.14-1.33,3.21-2c0.48-0.3,0.49-0.37,0.27-0.89c-0.18-0.42-0.4-0.82-0.65-1.21
			c-1.37-2.08-3.27-3.5-5.51-4.5c-2.39-1.07-4.93-1.56-7.53-1.72c-3.67-0.23-7.28,0.07-10.77,1.32c-5.6,2.01-9.38,5.8-11.06,11.53
			c-1.46,5-1.25,10.02,0.37,14.95c1.14,3.48,3.25,6.29,6.33,8.31c2.08,1.36,4.36,2.24,6.79,2.71c4.56,0.89,9.11,0.89,13.61-0.39
			c0.91-0.11,1.74-0.43,2.47-0.97c1.19-0.64,2.34-1.35,3.35-2.27c1.06-0.97,1.95-2.06,2.58-3.36c0.26-0.54,0.23-0.63-0.28-0.94
			c-2.33-1.42-4.65-2.84-6.98-4.26c-0.59-0.36-0.58-0.34-1.04,0.19c-2.4,2.77-5.36,4.13-9.09,3.61c-3.78-0.53-6.42-2.49-7.59-6.16
			c-1.02-3.18-1.01-6.42-0.05-9.61C135.21,52.03,137.11,50.22,139.98,49.45z"/>
		<path class="st0" d="M227.04,30.48c8.11,0,16.23,0,24.34,0c8.09,0,16.18,0,24.27,0c0.23,0,0.46-0.01,0.69,0
			c0.31,0,0.47-0.13,0.47-0.45c0-0.21,0.01-0.41,0.01-0.62c0-3.3,0-6.6,0-9.9c0-1.25,0.06-1.17-1.15-1.17c-16.18,0-32.36,0-48.54,0
			c-0.14,0-0.28,0-0.41,0c-0.75,0.01-0.77,0.04-0.78,0.78c0,0.11,0,0.23,0,0.34c0,3.3,0,6.6,0,9.9
			C225.93,30.51,225.8,30.48,227.04,30.48z"/>
		<path class="st0" d="M122.29,48.34c0-2.36,0-4.72,0-7.08c0-0.83,0-0.83-0.84-0.83c-5.27,0-10.54,0-15.81,0
			c-5.27,0-10.54,0-15.81,0c-0.82,0-0.82,0-0.82,0.84c0,1.63,0,3.25,0,4.88c0,0.82-0.01,1.65,0,2.47c0.01,0.47,0.04,0.5,0.52,0.52
			c0.16,0.01,0.32,0,0.48,0c3.07,0,6.14,0,9.21,0c1.15,0,1.08-0.06,1.08,1.08c0,9.3,0,18.6,0,27.9c0,0.25,0,0.5,0.01,0.76
			c0.01,0.22,0.13,0.34,0.35,0.35c0.21,0.01,0.41,0.01,0.62,0.01c2.82,0,5.64,0,8.46,0c1.2,0,1.11,0.06,1.11-1.13
			c0-9.32,0-18.65,0-27.97c0-1,0-1,1.03-1c3.21,0,6.42,0,9.62,0C122.28,49.15,122.29,49.15,122.29,48.34z"/>
		<path class="st0" d="M57.18,49.15c3.12,0,6.23,0,9.35,0c0.21,0,0.41-0.01,0.62-0.01c0.25,0,0.39-0.11,0.38-0.37
			c0-0.16,0-0.32,0-0.48c0-1.81,0-3.62,0-5.43c0-0.64,0.01-1.28,0-1.92c-0.01-0.46-0.05-0.49-0.52-0.51c-0.18-0.01-0.37,0-0.55,0
			c-5.18,0-10.36,0-15.54,0c-5.22,0-10.45,0-15.67,0c-0.21,0-0.41,0-0.62,0.01c-0.22,0-0.34,0.11-0.35,0.33
			c-0.01,0.16-0.01,0.32-0.01,0.48c0,2.36,0,4.72,0,7.08c0,0.82,0,0.82,0.84,0.82c3.14,0,6.28,0,9.42,0c1.16,0,1.07-0.04,1.07,1.1
			c0,9.25,0,18.51,0,27.76c0,0.18,0,0.37,0,0.55c0.01,0.63,0.05,0.67,0.65,0.69c0.14,0,0.27,0,0.41,0c2.8,0,5.59,0,8.39,0
			c1.14,0,1.04,0.01,1.04-1.06c0-9.3,0-18.6,0-27.9c0-0.21-0.01-0.41,0-0.62c0.03-0.45,0.07-0.49,0.54-0.52
			C56.81,49.15,56.99,49.15,57.18,49.15z"/>
		<path class="st0" d="M276.81,97.32c0-2.38,0-4.76,0-7.15c0-0.96,0-0.97-0.94-0.97c-16.34,0-32.67,0-49.01,0
			c-0.16,0-0.32,0.01-0.48,0.01c-0.32,0.01-0.45,0.17-0.45,0.48c0,0.18,0,0.37,0,0.55c0,2.29,0,4.58,0,6.87
			c0,1.23-0.1,1.17,1.14,1.17c8.09,0,16.17,0,24.26,0c8.09,0,16.17,0,24.26,0c0.23,0,0.46,0.01,0.69-0.01
			c0.43-0.03,0.49-0.09,0.52-0.55C276.81,97.6,276.81,97.46,276.81,97.32z"/>
		<path class="st0" d="M1.14,30.5c8.09,0,16.18,0,24.26,0c8.02,0,16.04,0,24.06,0c0.23,0,0.46,0,0.69,0
			c0.64-0.02,0.73-0.09,0.73-0.71c0.01-2.29,0.01-4.58,0-6.87c0-0.58-0.1-0.65-0.7-0.67c-0.09,0-0.18,0-0.27,0
			c-16.31,0-32.63,0-48.94,0c-0.14,0-0.28,0-0.41,0.01c-0.44,0.04-0.52,0.1-0.55,0.53C-0.01,22.96,0,23.14,0,23.33
			c0,2.02,0,4.03,0,6.05C0,30.5,0,30.5,1.14,30.5z"/>
		<path class="st0" d="M83.53,41.04c-0.02-0.56-0.05-0.59-0.58-0.61c-0.14,0-0.28,0-0.41,0c-2.84,0-5.68,0-8.53,0
			c-1.01,0-1-0.14-1,1.01c0,12.26,0,24.52,0,36.77c0,0.18,0.01,0.37,0,0.55c-0.01,0.35,0.17,0.5,0.51,0.48c0.16-0.01,0.32,0,0.48,0
			c2.84,0,5.68,0,8.53,0c1,0,1.01,0,1.01-1.03c0-6.14,0-12.28,0-18.42c0-6.05,0-12.1,0-18.15C83.54,41.45,83.54,41.24,83.53,41.04z"
			/>
		<path class="st0" d="M162.59,89.22c-8.04,0-16.09,0-24.13,0c-8.07,0-16.13,0-24.2,0c-1.1,0-1.1,0-1.1,1.1c0,8.45,0,16.91,0,25.36
			c0,1.17,0,1.17,1.17,1.17c16.09,0,32.18,0,48.26,0c1.18,0,1.18,0,1.18-1.17c0-8.43,0-16.86,0-25.29
			C163.77,89.22,163.77,89.22,162.59,89.22z"/>
	</g>
</g>
</svg>
