<?xml version="1.0" encoding="utf-8"?>
<!-- Generator: Adobe Illustrator 25.4.1, SVG Export Plug-In . SVG Version: 6.00 Build 0)  -->
<svg version="1.1" id="Layer_1" xmlns="http://www.w3.org/2000/svg" xmlns:xlink="http://www.w3.org/1999/xlink" x="0px" y="0px"
	 viewBox="0 0 2803.85 1338.34" style="enable-background:new 0 0 2803.85 1338.34;" xml:space="preserve">
<style type="text/css">
	.st0{fill:#FFFFFF;}
	.st1{clip-path:url(#SVGID_00000040560961198775420860000014135382610230034588_);}
	.st2{clip-path:url(#SVGID_00000053526799739285059650000014292016811413168300_);}
	.st3{fill:#FFFFFF;stroke:#FFFFFF;stroke-width:0.75;stroke-miterlimit:10;}
	.st4{opacity:0.81;}
	.st5{fill:url(#SVGID_00000044146211345341474730000017494690925000446642_);}
	.st6{opacity:0.3;}
	.st7{fill:#F2F2F2;}
	.st8{opacity:0.61;fill:#F2F2F2;}
	.st9{opacity:0.69;fill:#F2F2F2;}
	.st10{opacity:0.53;}
	.st11{opacity:0.64;fill:#F2F2F2;}
	.st12{fill:#003800;}
	.st13{fill:#DC3285;}
	.st14{fill:#A52065;}
	.st15{fill:#005700;}
	.st16{fill:#2F6E0C;}
	.st17{clip-path:url(#SVGID_00000150805007714189647320000000462062588484290717_);fill:#007400;}
	.st18{opacity:0.62;clip-path:url(#SVGID_00000150805007714189647320000000462062588484290717_);}
	.st19{fill:none;stroke:#000000;stroke-width:6;stroke-miterlimit:10;}
	.st20{fill:#007400;}
	.st21{fill:#6AD542;}
	.st22{opacity:0.77;fill:url(#);}
	.st23{opacity:0.47;}
	.st24{fill:none;stroke:#000000;stroke-width:6;stroke-linecap:round;stroke-miterlimit:10;}
	.st25{fill:none;stroke:#DC3285;stroke-width:5;stroke-linecap:round;stroke-linejoin:round;stroke-miterlimit:10;}
	.st26{clip-path:url(#SVGID_00000112626815099176990020000010157457773153517987_);fill:#FFFFFF;}
	.st27{fill:#FFA002;}
	.st28{opacity:0.64;clip-path:url(#SVGID_00000051344069028808082650000006697153674996247462_);fill:#FFFFFF;}
	.st29{opacity:0.61;clip-path:url(#SVGID_00000063610481871973946470000008397575854271930283_);fill:#FFFFFF;}
	.st30{clip-path:url(#SVGID_00000105411813433074422710000010320405660239974834_);}
	.st31{fill:#999999;}
	.st32{fill:#1A1A1A;}
	.st33{opacity:0.43;fill:#FFFFFF;}
	.st34{opacity:0.43;fill:none;stroke:#FFFFFF;stroke-width:7;stroke-linecap:round;stroke-miterlimit:10;}
	.st35{fill:#6AD542;stroke:#FFFFFF;stroke-width:7;stroke-linecap:round;stroke-miterlimit:10;}
	.st36{fill:none;stroke:#E6E6E6;stroke-width:13;stroke-linecap:round;stroke-linejoin:round;stroke-miterlimit:10;}
	.st37{clip-path:url(#SVGID_00000125595064720704874500000013269158702110311578_);}
	.st38{opacity:0.43;fill:none;stroke:#1A1A1A;stroke-width:6;stroke-miterlimit:10;}
	.st39{fill:#666666;}
	.st40{fill:none;stroke:#FFFFFF;stroke-width:13;stroke-linecap:round;stroke-linejoin:round;stroke-miterlimit:10;}
	.st41{fill:none;stroke:#FFFFFF;stroke-width:11;stroke-linecap:round;stroke-linejoin:round;stroke-miterlimit:10;}
	.st42{fill:none;stroke:#FFE500;stroke-width:10;stroke-linecap:round;stroke-miterlimit:10;}
	.st43{clip-path:url(#SVGID_00000036945739042859685080000006460823026542965168_);fill:#DC3285;}
	.st44{clip-path:url(#SVGID_00000036945739042859685080000006460823026542965168_);fill:#FFFFFF;}
	.st45{clip-path:url(#SVGID_00000036945739042859685080000006460823026542965168_);fill:#333333;}
	.st46{clip-path:url(#SVGID_00000090276860099239172300000002545239429761377963_);fill:#DC3285;}
	.st47{clip-path:url(#SVGID_00000090276860099239172300000002545239429761377963_);fill:#FFFFFF;}
	.st48{clip-path:url(#SVGID_00000090276860099239172300000002545239429761377963_);fill:#333333;}
	.st49{fill:#56BE2F;}
	.st50{opacity:0.55;}
	.st51{fill:none;stroke:#000000;stroke-width:15;stroke-linecap:round;stroke-linejoin:round;stroke-miterlimit:10;}
	.st52{fill:#5C1537;}
	.st53{clip-path:url(#SVGID_00000129206174429142702730000006572439977787019679_);fill:#26AD35;}
	.st54{clip-path:url(#SVGID_00000129206174429142702730000006572439977787019679_);fill:#6AD542;}
	.st55{clip-path:url(#SVGID_00000129206174429142702730000006572439977787019679_);fill:#56BE2F;}
	.st56{clip-path:url(#SVGID_00000129180689198363221150000007388094471900104877_);fill:#45A840;}
	.st57{clip-path:url(#SVGID_00000129180689198363221150000007388094471900104877_);fill:#56BE2F;}
	.st58{clip-path:url(#SVGID_00000015334538429643810000000011112844666773506948_);fill:#45A840;}
	.st59{clip-path:url(#SVGID_00000015334538429643810000000011112844666773506948_);fill:#56BE2F;}
	.st60{clip-path:url(#SVGID_00000047053550131753448860000017933596095643950781_);fill:#6AD542;}
	.st61{opacity:0.7;clip-path:url(#SVGID_00000047053550131753448860000017933596095643950781_);}
	.st62{fill:#27B136;}
	.st63{clip-path:url(#SVGID_00000060713679633890686660000007302336397063003555_);fill:#3E8913;}
	.st64{clip-path:url(#SVGID_00000060713679633890686660000007302336397063003555_);fill:#6AD542;}
	.st65{clip-path:url(#SVGID_00000109745361648184663140000006142015461197675427_);fill:#29BD3A;}
	.st66{clip-path:url(#SVGID_00000109745361648184663140000006142015461197675427_);fill:#6AD542;}
	.st67{clip-path:url(#SVGID_00000076571123610671134440000017164868185672134321_);fill:#6AD542;}
	.st68{opacity:0.7;clip-path:url(#SVGID_00000076571123610671134440000017164868185672134321_);}
	.st69{clip-path:url(#SVGID_00000028308753402311459810000012279596307268769202_);fill:#6AD542;}
	.st70{opacity:0.56;clip-path:url(#SVGID_00000028308753402311459810000012279596307268769202_);fill:#26AD35;}
	.st71{clip-path:url(#SVGID_00000052091126641864985260000006246989243899037581_);fill:#45A840;}
	.st72{clip-path:url(#SVGID_00000052091126641864985260000006246989243899037581_);fill:#56BE2F;}
	.st73{fill:#333333;}
	.st74{opacity:0.42;fill:#292929;}
	.st75{opacity:0.15;fill:url(#);}
	.st76{clip-path:url(#SVGID_00000067933489062019612050000005437333206968510099_);fill:#3E8913;}
	.st77{clip-path:url(#SVGID_00000067933489062019612050000005437333206968510099_);fill:#6AD542;}
	.st78{fill:none;stroke:#000000;stroke-width:4;stroke-miterlimit:10;}
	.st79{fill:#00ADEE;}
	.st80{fill:#FFE500;}
	.st81{opacity:0.66;fill:#FFA002;}
	.st82{clip-path:url(#SVGID_00000152952051166485197890000012036351212944786869_);fill:#29BD3A;}
	.st83{clip-path:url(#SVGID_00000152952051166485197890000012036351212944786869_);fill:#6AD542;}
	.st84{fill:#00CCFF;}
	.st85{fill:#29BD3A;}
	.st86{fill:#FFD900;}
	.st87{fill:#EB8AB9;}
	.st88{opacity:0.78;fill:#E04B94;}
	.st89{clip-path:url(#SVGID_00000070840004705004918740000005793804373528336779_);fill:#6AD542;}
	.st90{opacity:0.7;clip-path:url(#SVGID_00000070840004705004918740000005793804373528336779_);}
	.st91{fill:#8BE04A;}
	.st92{opacity:0.28;fill:url(#SVGID_00000154388445260360285860000000586364666918824353_);}
	.st93{opacity:0.7;fill:url(#SVGID_00000153688417506344984410000001213621372896378506_);}
	.st94{clip-path:url(#SVGID_00000121259540262386394050000010533087845330193566_);fill:#DC3285;}
	.st95{clip-path:url(#SVGID_00000121259540262386394050000010533087845330193566_);fill:#FFCD55;}
	.st96{clip-path:url(#SVGID_00000121259540262386394050000010533087845330193566_);fill:#45C8F5;}
	.st97{clip-path:url(#SVGID_00000011019695640665464430000009162985787653740455_);fill:#FFFFFF;}
	.st98{clip-path:url(#SVGID_00000011019695640665464430000009162985787653740455_);}
	.st99{clip-path:url(#SVGID_00000103231224685328678480000007633294639083322764_);fill:#333333;}
	.st100{clip-path:url(#SVGID_00000103231224685328678480000007633294639083322764_);fill:#FFCD55;}
	.st101{clip-path:url(#SVGID_00000103231224685328678480000007633294639083322764_);}
	.st102{fill:#E6E6E6;}
	.st103{fill:#FFCD55;}
	.st104{opacity:0.73;fill:#FFFFFF;}
	.st105{opacity:0.73;fill:none;stroke:#FFFFFF;stroke-width:29;stroke-linecap:round;stroke-miterlimit:10;}
	.st106{opacity:0.26;fill:#FFFFFF;}
	.st107{opacity:0.26;fill:none;stroke:#FFFFFF;stroke-width:29;stroke-linecap:round;stroke-miterlimit:10;}
	.st108{fill:#45C8F5;}
	.st109{fill:#231F20;}
	.st110{clip-path:url(#SVGID_00000111160325216901011050000010978442236010528409_);}
	.st111{fill:url(#SVGID_00000011714980227102095160000003379585549079316618_);}
	.st112{clip-path:url(#SVGID_00000111160325216901011050000010978442236010528409_);fill:#FFA002;}
	.st113{opacity:0.5;}
	.st114{fill:none;}
	.st115{fill:#CCCCCC;}
	.st116{fill:#B3B3B3;}
	.st117{fill:none;stroke:#FFE500;stroke-width:7;stroke-linecap:round;stroke-miterlimit:10;}
	.st118{fill:none;stroke:#FFE500;stroke-width:7;stroke-linecap:round;stroke-miterlimit:10;stroke-dasharray:10.0084,20.0167;}
	.st119{fill:url(#SVGID_00000123422268752808927660000005531772580127585409_);}
	.st120{opacity:0.7;fill:#B3B3B3;}
	.st121{fill:url(#SVGID_00000067937564786794595810000015663846659226785194_);}
	.st122{clip-path:url(#SVGID_00000125599031954952264930000015553540281105136536_);fill:#8BE04A;}
	
		.st123{opacity:0.55;clip-path:url(#SVGID_00000125599031954952264930000015553540281105136536_);fill:url(#SVGID_00000160190148344066689920000012282092311964888449_);}
	.st124{fill:#E567A5;}
	.st125{fill:url(#SVGID_00000061457845261407401190000014741426217669368506_);}
	.st126{fill:#00ACD6;}
	.st127{fill:#9E005D;}
	.st128{fill:url(#SVGID_00000139989307563854341710000018238888324272227222_);}
	.st129{fill:none;stroke:#FFCD55;stroke-width:5;stroke-linecap:round;stroke-miterlimit:10;}
	.st130{fill:none;stroke:#FFCD55;stroke-width:5;stroke-linecap:round;stroke-miterlimit:10;stroke-dasharray:9.3355,18.6709;}
	.st131{fill:url(#SVGID_00000011727625048747204130000004072212030483622575_);}
	.st132{fill:url(#SVGID_00000065793719107839904880000006153006227353516188_);}
	.st133{clip-path:url(#SVGID_00000165217385493427857220000007354106042877202610_);fill:#007400;}
	.st134{opacity:0.62;clip-path:url(#SVGID_00000165217385493427857220000007354106042877202610_);}
	.st135{clip-path:url(#SVGID_00000072998015744181147300000015529484205398297731_);fill:#FFFFFF;}
	.st136{opacity:0.64;clip-path:url(#SVGID_00000150079450268539645460000012358614470598109335_);fill:#FFFFFF;}
	.st137{opacity:0.61;clip-path:url(#SVGID_00000143619237122811739400000000552678069879029936_);fill:#FFFFFF;}
	.st138{clip-path:url(#SVGID_00000159458786335101157310000009929527504779643523_);}
	.st139{clip-path:url(#SVGID_00000157267576856056321840000000955206654813827762_);}
	.st140{clip-path:url(#SVGID_00000150104650399261662270000017450960022800061327_);fill:#DC3285;}
	.st141{clip-path:url(#SVGID_00000150104650399261662270000017450960022800061327_);fill:#FFFFFF;}
	.st142{clip-path:url(#SVGID_00000150104650399261662270000017450960022800061327_);fill:#333333;}
	.st143{clip-path:url(#SVGID_00000044154888456019563890000005599730329741991303_);fill:#DC3285;}
	.st144{clip-path:url(#SVGID_00000044154888456019563890000005599730329741991303_);fill:#FFFFFF;}
	.st145{clip-path:url(#SVGID_00000044154888456019563890000005599730329741991303_);fill:#333333;}
	.st146{clip-path:url(#SVGID_00000074406479635519834490000014269356800388077467_);fill:#26AD35;}
	.st147{clip-path:url(#SVGID_00000074406479635519834490000014269356800388077467_);fill:#6AD542;}
	.st148{clip-path:url(#SVGID_00000074406479635519834490000014269356800388077467_);fill:#56BE2F;}
	.st149{clip-path:url(#SVGID_00000157277771110609318650000009955545794930223488_);fill:#45A840;}
	.st150{clip-path:url(#SVGID_00000157277771110609318650000009955545794930223488_);fill:#56BE2F;}
	.st151{clip-path:url(#SVGID_00000118373114351866049770000004523979539821520558_);fill:#45A840;}
	.st152{clip-path:url(#SVGID_00000118373114351866049770000004523979539821520558_);fill:#56BE2F;}
	.st153{clip-path:url(#SVGID_00000168838343317713614370000011937800603634474397_);fill:#6AD542;}
	.st154{opacity:0.7;clip-path:url(#SVGID_00000168838343317713614370000011937800603634474397_);}
	.st155{clip-path:url(#SVGID_00000173120079591266624790000017300108078558683034_);fill:#3E8913;}
	.st156{clip-path:url(#SVGID_00000173120079591266624790000017300108078558683034_);fill:#6AD542;}
	.st157{clip-path:url(#SVGID_00000075841547757509193270000004111984496521172102_);fill:#29BD3A;}
	.st158{clip-path:url(#SVGID_00000075841547757509193270000004111984496521172102_);fill:#6AD542;}
	.st159{clip-path:url(#SVGID_00000083797294749949526220000014540586704597089451_);fill:#6AD542;}
	.st160{opacity:0.7;clip-path:url(#SVGID_00000083797294749949526220000014540586704597089451_);}
	.st161{clip-path:url(#SVGID_00000091724114633338713900000008342540024087162252_);fill:#6AD542;}
	.st162{opacity:0.56;clip-path:url(#SVGID_00000091724114633338713900000008342540024087162252_);fill:#26AD35;}
	.st163{clip-path:url(#SVGID_00000096738574229899776840000010247762239286839458_);fill:#45A840;}
	.st164{clip-path:url(#SVGID_00000096738574229899776840000010247762239286839458_);fill:#56BE2F;}
	.st165{clip-path:url(#SVGID_00000129177511023783791480000007811253013560178846_);fill:#3E8913;}
	.st166{clip-path:url(#SVGID_00000129177511023783791480000007811253013560178846_);fill:#6AD542;}
	.st167{clip-path:url(#SVGID_00000142862178196160623800000016648641463682416546_);fill:#29BD3A;}
	.st168{clip-path:url(#SVGID_00000142862178196160623800000016648641463682416546_);fill:#6AD542;}
	.st169{clip-path:url(#SVGID_00000163073809448854358690000016231763884821033887_);fill:#6AD542;}
	.st170{opacity:0.7;clip-path:url(#SVGID_00000163073809448854358690000016231763884821033887_);}
	.st171{opacity:0.28;fill:url(#SVGID_00000091725393651105270420000003795684178817289126_);}
	.st172{opacity:0.7;fill:url(#SVGID_00000071549241307527523300000003663756936517286310_);}
	.st173{clip-path:url(#SVGID_00000009557614028104166010000010820696979926657416_);}
	.st174{clip-path:url(#SVGID_00000160158131239739003790000010479775040085368984_);}
	.st175{clip-path:url(#SVGID_00000106834471416799978810000016569961233233304458_);fill:#FFFFFF;}
	.st176{clip-path:url(#SVGID_00000106834471416799978810000016569961233233304458_);}
	.st177{clip-path:url(#SVGID_00000038381798162955482190000000879033421673874818_);fill:#333333;}
	.st178{clip-path:url(#SVGID_00000038381798162955482190000000879033421673874818_);fill:#FFCD55;}
	.st179{clip-path:url(#SVGID_00000038381798162955482190000000879033421673874818_);}
	.st180{clip-path:url(#SVGID_00000142152452894785036320000017511194240542561692_);}
	.st181{fill:url(#SVGID_00000016075070178196089260000006153209309118562945_);}
	.st182{clip-path:url(#SVGID_00000142152452894785036320000017511194240542561692_);fill:#FFA002;}
	.st183{fill:url(#SVGID_00000088822372709858975630000001254573710290673828_);}
	.st184{clip-path:url(#SVGID_00000146479497541638991230000014481121835622272417_);fill:#8BE04A;}
	
		.st185{opacity:0.55;clip-path:url(#SVGID_00000146479497541638991230000014481121835622272417_);fill:url(#SVGID_00000176731554270987339670000001162236602133663164_);}
	.st186{fill:#009245;}
	.st187{clip-path:url(#SVGID_00000033363777065908332880000000458630789291163309_);}
	.st188{fill:none;stroke:#FFFFFF;stroke-width:27;stroke-linecap:round;stroke-miterlimit:10;}
	.st189{fill:none;stroke:#2CAF4B;stroke-width:61;stroke-linecap:round;stroke-linejoin:round;stroke-miterlimit:10;}
	.st190{fill:none;stroke:#DC3285;stroke-width:13;stroke-linecap:round;stroke-linejoin:round;stroke-miterlimit:10;}
	.st191{fill:#2CAF4B;}
	.st192{opacity:0.1;}
	.st193{fill:#151814;}
	.st194{fill:none;stroke:#DC3285;stroke-width:30;stroke-miterlimit:10;}
	.st195{fill:#DC3285;stroke:#E567A5;stroke-width:6;stroke-miterlimit:10;}
	.st196{fill:#282560;}
	.st197{fill:url(#SVGID_00000102521657703980432960000008080030331498622396_);}
	.st198{fill:url(#SVGID_00000021828523396943177210000008471841533305665436_);}
	.st199{clip-path:url(#SVGID_00000075159440610234192030000005787497393012840605_);}
	.st200{clip-path:url(#SVGID_00000073715283373128122460000014078538543396415143_);}
	.st201{clip-path:url(#SVGID_00000018226135886742404080000007892811292119049401_);}
	.st202{fill:#006600;}
	.st203{opacity:0.77;}
	.st204{clip-path:url(#SVGID_00000078760458153317458190000001358318465696543909_);}
	.st205{clip-path:url(#SVGID_00000162318097668879382460000008904515020330274199_);}
	.st206{clip-path:url(#SVGID_00000100340928449340097330000013104219892791510702_);}
	.st207{clip-path:url(#SVGID_00000107580324625656948430000015784710117538046129_);}
	.st208{clip-path:url(#SVGID_00000050661335224679508300000001078025666009333951_);}
	.st209{clip-path:url(#SVGID_00000054959797006135187470000008822442319804069518_);}
	.st210{clip-path:url(#SVGID_00000174587551557039434160000010803380921589928885_);}
	.st211{clip-path:url(#SVGID_00000101822203506683270440000013784221792783417780_);}
	.st212{clip-path:url(#SVGID_00000052791134283921251540000005099178795199890859_);}
	.st213{clip-path:url(#SVGID_00000030456767304495946470000011190345557535854210_);}
	.st214{clip-path:url(#SVGID_00000172412389609486475770000003925302959697506701_);}
	.st215{clip-path:url(#SVGID_00000011005662197490693610000001908692446478322587_);fill:#FFFFFF;}
	.st216{opacity:0.64;clip-path:url(#SVGID_00000001624468921504534340000014508973683090725535_);fill:#FFFFFF;}
	.st217{opacity:0.61;clip-path:url(#SVGID_00000044150446083136463070000009654090638679349917_);fill:#FFFFFF;}
	.st218{opacity:0.43;}
	.st219{fill:#4D4D4D;}
	.st220{fill:#3B3B3B;}
	.st221{clip-path:url(#SVGID_00000134211475857337172600000012945905818067195561_);fill:#DC3285;}
	.st222{clip-path:url(#SVGID_00000134211475857337172600000012945905818067195561_);fill:#FFFFFF;}
	.st223{clip-path:url(#SVGID_00000134211475857337172600000012945905818067195561_);fill:#333333;}
	.st224{clip-path:url(#SVGID_00000150790999094041363870000017829780518476895110_);fill:#DC3285;}
	.st225{clip-path:url(#SVGID_00000150790999094041363870000017829780518476895110_);fill:#FFFFFF;}
	.st226{clip-path:url(#SVGID_00000150790999094041363870000017829780518476895110_);fill:#333333;}
	.st227{fill:#26AD35;}
	.st228{fill:#45A840;}
	.st229{opacity:0.56;fill:#26AD35;}
	.st230{opacity:0.42;}
	.st231{fill:#292929;}
	.st232{opacity:0.15;}
	.st233{clip-path:url(#SVGID_00000123427195627100218600000000346685052211253168_);}
	.st234{clip-path:url(#SVGID_00000147209554097077397620000007722176570278976698_);}
	.st235{clip-path:url(#SVGID_00000159457914140990952330000012179888410835398565_);}
	.st236{clip-path:url(#SVGID_00000096045925587529074670000000692386740522260624_);}
	.st237{clip-path:url(#SVGID_00000067217024699880036920000010221295912915990717_);}
	.st238{clip-path:url(#SVGID_00000062912775627999036320000009644008340372765584_);}
	.st239{clip-path:url(#SVGID_00000103265475247590230880000004316847713543195556_);}
	.st240{clip-path:url(#SVGID_00000030448400278645709450000002387248323204955020_);}
	.st241{clip-path:url(#SVGID_00000097494293743190591310000005300090590107882888_);}
	.st242{clip-path:url(#SVGID_00000062184791776566475450000018092614823093831096_);}
	.st243{clip-path:url(#SVGID_00000038394897196239771290000014893308232289575596_);}
	.st244{clip-path:url(#SVGID_00000174601913418096547180000005923365704807317657_);}
	.st245{clip-path:url(#SVGID_00000173862612377010063970000003230770471675563924_);}
	.st246{clip-path:url(#SVGID_00000093141968371559402520000012358024200180451498_);}
	.st247{clip-path:url(#SVGID_00000069389747811444412910000017666799721741161371_);}
	.st248{clip-path:url(#SVGID_00000072262432986479260520000010738027879150678971_);}
	.st249{clip-path:url(#SVGID_00000022522570491773801460000012440635169459879871_);}
	.st250{clip-path:url(#SVGID_00000080205055933187699460000013101350821199785388_);}
	.st251{clip-path:url(#SVGID_00000111149537559838357980000000320020628195046318_);}
	.st252{clip-path:url(#SVGID_00000114048251888999834310000013937781390459299482_);}
	.st253{clip-path:url(#SVGID_00000162344669705085117570000008733147221152531587_);}
	.st254{clip-path:url(#SVGID_00000121983348347109569720000007555178004407589563_);}
	.st255{clip-path:url(#SVGID_00000128484555022395160760000005092195513856595636_);}
	.st256{clip-path:url(#SVGID_00000146465403988226318330000005598275798345902486_);}
	.st257{clip-path:url(#SVGID_00000080907022083787678610000018104414678461575838_);}
	.st258{clip-path:url(#SVGID_00000008869333047203036210000003757036794387250067_);}
	.st259{clip-path:url(#SVGID_00000173877885761976771600000007948483229243148449_);}
	.st260{clip-path:url(#SVGID_00000100348600919404568170000006692907504158037428_);}
	.st261{clip-path:url(#SVGID_00000006685112077057717520000005340556102443030193_);}
	.st262{clip-path:url(#SVGID_00000117655521435109683020000008104345043570664068_);}
	.st263{clip-path:url(#SVGID_00000172421323300364611120000000479991794197896325_);}
	.st264{clip-path:url(#SVGID_00000067222031977559315720000012597017546913031830_);}
	.st265{clip-path:url(#SVGID_00000034074022117029364200000017128961362157274789_);}
	.st266{clip-path:url(#SVGID_00000004534682932497081550000010739606159124432007_);}
	.st267{clip-path:url(#SVGID_00000028300786820679702970000002569106494032923044_);}
	.st268{clip-path:url(#SVGID_00000126290504929831033410000012483845684110964146_);}
	.st269{clip-path:url(#SVGID_00000108305403239257578750000001248417403715217537_);}
	.st270{clip-path:url(#SVGID_00000085234709120299744190000004684231560693212856_);}
	.st271{clip-path:url(#SVGID_00000109005681836835932260000005442078293961975172_);}
	.st272{clip-path:url(#SVGID_00000117675063101186499600000002826131585142495122_);}
	.st273{clip-path:url(#SVGID_00000021814813401068616080000002437406113663376536_);}
	.st274{clip-path:url(#SVGID_00000080193407811019850040000003878644707428909499_);}
	.st275{clip-path:url(#SVGID_00000127762510385374876190000010667581310483056039_);}
	.st276{clip-path:url(#SVGID_00000145048486850812435680000000164607014585152182_);}
	.st277{clip-path:url(#SVGID_00000101816365607008201720000002897300440424231579_);}
	.st278{clip-path:url(#SVGID_00000111907260833469921010000010520498399284393624_);}
	.st279{clip-path:url(#SVGID_00000071531271886843626500000000266083902783014294_);}
	.st280{clip-path:url(#SVGID_00000112607999071299198530000012244432511425767593_);}
	.st281{clip-path:url(#SVGID_00000152258842980472637740000007550955363151536519_);}
	.st282{clip-path:url(#SVGID_00000133525610808950028410000001238693493919114917_);}
	.st283{clip-path:url(#SVGID_00000162319295228929408460000011899148102254511251_);}
	.st284{clip-path:url(#SVGID_00000053535366979387005820000008509317286292555653_);}
	.st285{clip-path:url(#SVGID_00000070102622544687081380000018388501813414729356_);}
	.st286{clip-path:url(#SVGID_00000041272577935653184990000009340119802904610189_);}
	.st287{clip-path:url(#SVGID_00000165949227642272355100000006868906126386896290_);}
	.st288{clip-path:url(#SVGID_00000164493202654089697240000017607192619774192287_);}
	.st289{clip-path:url(#SVGID_00000136390099863721937860000012561517643506626984_);}
	.st290{clip-path:url(#SVGID_00000127730671025715003150000002244420443945129148_);}
	.st291{clip-path:url(#SVGID_00000010298904853603768410000001196069926042132102_);}
	.st292{clip-path:url(#SVGID_00000168105325563854486380000013012586671452481414_);}
	.st293{clip-path:url(#SVGID_00000074407763830460010490000010059951024275711886_);}
	.st294{clip-path:url(#SVGID_00000027601083274634441730000013925742720275789998_);}
	.st295{clip-path:url(#SVGID_00000029751042677689535860000001110182590187802799_);}
	.st296{clip-path:url(#SVGID_00000139293630055601287660000000139729887348848308_);}
	.st297{clip-path:url(#SVGID_00000154409779943074604070000010080519837089844392_);}
	.st298{clip-path:url(#SVGID_00000003102721306557940860000005946428695909575871_);}
	.st299{clip-path:url(#SVGID_00000086674411680165982490000014473096647584911519_);}
	.st300{clip-path:url(#SVGID_00000066492196961700765560000000031731568554865296_);}
	.st301{clip-path:url(#SVGID_00000049179687701109236720000018190608168895588022_);}
	.st302{clip-path:url(#SVGID_00000016053665619730801680000018341448379297691319_);}
	.st303{clip-path:url(#SVGID_00000178181453280772736020000017869101921948390577_);}
	.st304{clip-path:url(#SVGID_00000168117228223941999360000013321592895269129392_);}
	.st305{clip-path:url(#SVGID_00000051372331239537719620000006571926282073441932_);}
	.st306{clip-path:url(#SVGID_00000071535124675374660830000000859981011631984049_);}
	.st307{clip-path:url(#SVGID_00000013185895941371738270000000412981004945442472_);}
	.st308{clip-path:url(#SVGID_00000021079410800775487830000010594712945063943862_);}
	.st309{clip-path:url(#SVGID_00000129200902983936065820000008817695694350410390_);}
	.st310{clip-path:url(#SVGID_00000118373335873096125130000003522012524453490091_);}
	.st311{clip-path:url(#SVGID_00000027590829056510602880000008951725367705120384_);}
	.st312{clip-path:url(#SVGID_00000090986236006415540620000002151494497271936665_);}
	.st313{clip-path:url(#SVGID_00000028318018170855748830000002112958206757867419_);}
	.st314{clip-path:url(#SVGID_00000172403991363145125250000016541626973237089671_);}
	.st315{fill:#54BA2E;}
	.st316{fill:#008DF2;}
	.st317{opacity:0.76;}
	.st318{clip-path:url(#SVGID_00000084523776870844845890000006729016693094910098_);fill:#0088C7;}
	.st319{clip-path:url(#SVGID_00000084523776870844845890000006729016693094910098_);fill:#0189C8;}
	.st320{clip-path:url(#SVGID_00000084523776870844845890000006729016693094910098_);fill:#028AC9;}
	.st321{clip-path:url(#SVGID_00000084523776870844845890000006729016693094910098_);fill:#048BC9;}
	.st322{clip-path:url(#SVGID_00000084523776870844845890000006729016693094910098_);fill:#058CCA;}
	.st323{clip-path:url(#SVGID_00000084523776870844845890000006729016693094910098_);fill:#068DCB;}
	.st324{clip-path:url(#SVGID_00000084523776870844845890000006729016693094910098_);fill:#078FCC;}
	.st325{clip-path:url(#SVGID_00000084523776870844845890000006729016693094910098_);fill:#0890CC;}
	.st326{clip-path:url(#SVGID_00000084523776870844845890000006729016693094910098_);fill:#0991CD;}
	.st327{clip-path:url(#SVGID_00000084523776870844845890000006729016693094910098_);fill:#0B92CE;}
	.st328{clip-path:url(#SVGID_00000084523776870844845890000006729016693094910098_);fill:#0C93CF;}
	.st329{clip-path:url(#SVGID_00000084523776870844845890000006729016693094910098_);fill:#0D94D0;}
	.st330{clip-path:url(#SVGID_00000084523776870844845890000006729016693094910098_);fill:#0E95D0;}
	.st331{clip-path:url(#SVGID_00000084523776870844845890000006729016693094910098_);fill:#0F96D1;}
	.st332{clip-path:url(#SVGID_00000084523776870844845890000006729016693094910098_);fill:#1097D2;}
	.st333{clip-path:url(#SVGID_00000084523776870844845890000006729016693094910098_);fill:#1198D3;}
	.st334{clip-path:url(#SVGID_00000084523776870844845890000006729016693094910098_);fill:#1399D3;}
	.st335{clip-path:url(#SVGID_00000084523776870844845890000006729016693094910098_);fill:#149AD4;}
	.st336{clip-path:url(#SVGID_00000084523776870844845890000006729016693094910098_);fill:#159BD5;}
	.st337{clip-path:url(#SVGID_00000084523776870844845890000006729016693094910098_);fill:#169CD6;}
	.st338{clip-path:url(#SVGID_00000084523776870844845890000006729016693094910098_);fill:#179DD6;}
	.st339{clip-path:url(#SVGID_00000084523776870844845890000006729016693094910098_);fill:#189ED7;}
	.st340{clip-path:url(#SVGID_00000084523776870844845890000006729016693094910098_);fill:#199FD8;}
	.st341{clip-path:url(#SVGID_00000084523776870844845890000006729016693094910098_);fill:#1AA0D9;}
	.st342{clip-path:url(#SVGID_00000084523776870844845890000006729016693094910098_);fill:#1BA1D9;}
	.st343{clip-path:url(#SVGID_00000084523776870844845890000006729016693094910098_);fill:#1DA2DA;}
	.st344{clip-path:url(#SVGID_00000084523776870844845890000006729016693094910098_);fill:#1EA4DB;}
	.st345{clip-path:url(#SVGID_00000084523776870844845890000006729016693094910098_);fill:#1FA5DC;}
	.st346{clip-path:url(#SVGID_00000084523776870844845890000006729016693094910098_);fill:#20A6DC;}
	.st347{clip-path:url(#SVGID_00000084523776870844845890000006729016693094910098_);fill:#21A7DD;}
	.st348{clip-path:url(#SVGID_00000084523776870844845890000006729016693094910098_);fill:#22A8DE;}
	.st349{clip-path:url(#SVGID_00000084523776870844845890000006729016693094910098_);fill:#23A9DE;}
	.st350{clip-path:url(#SVGID_00000084523776870844845890000006729016693094910098_);fill:#24AADF;}
	.st351{clip-path:url(#SVGID_00000084523776870844845890000006729016693094910098_);fill:#25ABE0;}
	.st352{clip-path:url(#SVGID_00000084523776870844845890000006729016693094910098_);fill:#26ABE1;}
	.st353{clip-path:url(#SVGID_00000084523776870844845890000006729016693094910098_);fill:#27ACE1;}
	.st354{clip-path:url(#SVGID_00000084523776870844845890000006729016693094910098_);fill:#28ADE2;}
	.st355{clip-path:url(#SVGID_00000084523776870844845890000006729016693094910098_);fill:#29AEE3;}
	.st356{clip-path:url(#SVGID_00000084523776870844845890000006729016693094910098_);fill:#2AAFE3;}
	.st357{clip-path:url(#SVGID_00000084523776870844845890000006729016693094910098_);fill:#2BB0E4;}
	.st358{clip-path:url(#SVGID_00000084523776870844845890000006729016693094910098_);fill:#2CB1E5;}
	.st359{clip-path:url(#SVGID_00000084523776870844845890000006729016693094910098_);fill:#2EB2E5;}
	.st360{clip-path:url(#SVGID_00000084523776870844845890000006729016693094910098_);fill:#2FB3E6;}
	.st361{clip-path:url(#SVGID_00000084523776870844845890000006729016693094910098_);fill:#30B4E7;}
	.st362{clip-path:url(#SVGID_00000084523776870844845890000006729016693094910098_);fill:#31B5E7;}
	.st363{clip-path:url(#SVGID_00000084523776870844845890000006729016693094910098_);fill:#32B6E8;}
	.st364{clip-path:url(#SVGID_00000084523776870844845890000006729016693094910098_);fill:#32B7E9;}
	.st365{clip-path:url(#SVGID_00000084523776870844845890000006729016693094910098_);fill:#33B8E9;}
	.st366{clip-path:url(#SVGID_00000084523776870844845890000006729016693094910098_);fill:#34B9EA;}
	.st367{clip-path:url(#SVGID_00000084523776870844845890000006729016693094910098_);fill:#35BAEB;}
	.st368{clip-path:url(#SVGID_00000084523776870844845890000006729016693094910098_);fill:#36BAEB;}
	.st369{clip-path:url(#SVGID_00000084523776870844845890000006729016693094910098_);fill:#37BBEC;}
	.st370{clip-path:url(#SVGID_00000084523776870844845890000006729016693094910098_);fill:#38BCEC;}
	.st371{clip-path:url(#SVGID_00000084523776870844845890000006729016693094910098_);fill:#39BDED;}
	.st372{clip-path:url(#SVGID_00000084523776870844845890000006729016693094910098_);fill:#3ABEEE;}
	.st373{clip-path:url(#SVGID_00000084523776870844845890000006729016693094910098_);fill:#3BBFEE;}
	.st374{clip-path:url(#SVGID_00000084523776870844845890000006729016693094910098_);fill:#3CC0EF;}
	.st375{clip-path:url(#SVGID_00000084523776870844845890000006729016693094910098_);fill:#3DC0F0;}
	.st376{clip-path:url(#SVGID_00000084523776870844845890000006729016693094910098_);fill:#3EC1F0;}
	.st377{clip-path:url(#SVGID_00000084523776870844845890000006729016693094910098_);fill:#3EC2F1;}
	.st378{clip-path:url(#SVGID_00000084523776870844845890000006729016693094910098_);fill:#3FC3F1;}
	.st379{clip-path:url(#SVGID_00000084523776870844845890000006729016693094910098_);fill:#40C3F2;}
	.st380{clip-path:url(#SVGID_00000084523776870844845890000006729016693094910098_);fill:#41C4F2;}
	.st381{clip-path:url(#SVGID_00000084523776870844845890000006729016693094910098_);fill:#42C5F3;}
	.st382{clip-path:url(#SVGID_00000084523776870844845890000006729016693094910098_);fill:#42C6F3;}
	.st383{clip-path:url(#SVGID_00000084523776870844845890000006729016693094910098_);fill:#43C6F4;}
	.st384{clip-path:url(#SVGID_00000084523776870844845890000006729016693094910098_);fill:#44C7F4;}
	.st385{clip-path:url(#SVGID_00000084523776870844845890000006729016693094910098_);fill:#44C8F5;}
	.st386{clip-path:url(#SVGID_00000084523776870844845890000006729016693094910098_);fill:#45C8F5;}
	.st387{fill:url(#SVGID_00000017510473166032206810000003172461365271276713_);}
	.st388{fill:url(#SVGID_00000004505060901819437640000003219425221629421952_);}
	.st389{fill:url(#SVGID_00000110428423324756620030000011559894888918737077_);}
	.st390{fill:url(#SVGID_00000142867654735028841370000003551813584242501508_);}
	.st391{fill:#FF7FC8;}
	.st392{clip-path:url(#SVGID_00000055677038814555525320000011514882990350220675_);fill:#333333;}
	.st393{clip-path:url(#SVGID_00000055677038814555525320000011514882990350220675_);fill:#FFCD55;}
	.st394{clip-path:url(#SVGID_00000055677038814555525320000011514882990350220675_);}
	.st395{fill:#73E1EF;}
	.st396{fill:#0E68A3;}
	.st397{fill:#053483;}
</style>
<g>
	
		<linearGradient id="SVGID_00000133515189465873914120000009560177997193531817_" gradientUnits="userSpaceOnUse" x1="1404.9708" y1="740.6909" x2="1394.5962" y2="-1896.4877" gradientTransform="matrix(1 0 0 -1 0 635.1317)">
		<stop  offset="0" style="stop-color:#00478A"/>
		<stop  offset="0.1755" style="stop-color:#0063A5"/>
		<stop  offset="0.5526" style="stop-color:#00A9EB"/>
		<stop  offset="0.5705" style="stop-color:#00ADEE"/>
		<stop  offset="0.9987" style="stop-color:#BDEAFB"/>
	</linearGradient>
	<rect y="0" style="fill:url(#SVGID_00000133515189465873914120000009560177997193531817_);" width="2803.85" height="1338.34"/>
	<g class="st6">
		<path class="st7" d="M1945.2,654.56h-40.45c0.26-1.01,0.41-2.03,0.41-3.07c0-13.44-22.35-24.33-49.93-24.33
			c-7.03,0-13.71,0.71-19.78,1.99c-3.83-29.8-29.68-52.85-61.01-52.85c-7.48,0-14.64,1.31-21.27,3.72c0.13-1.31,0.2-2.64,0.2-3.99
			c0-21.82-17.99-39.51-40.17-39.51c-5.96,0-11.61,1.29-16.7,3.58c0.08-1.09,0.12-2.19,0.12-3.3c0-27.31-24.4-49.45-54.5-49.45
			c-16.88,0-31.97,6.96-41.96,17.9c-3.96-1.56-8.29-2.43-12.82-2.43c-19.08,0-34.55,15.21-34.55,33.98c0,2.03,0.19,4.02,0.54,5.96
			c-1.2-0.1-2.41-0.16-3.63-0.16c-23.49,0-42.74,17.84-44.52,40.5c-6.65-2.94-14.02-4.58-21.78-4.58
			c-29.32,0-53.09,23.38-53.09,52.22c0,4.68,0.63,9.22,1.81,13.54h-6.02c-9.42,0-17.9,3.97-23.8,10.3h-52.04
			c-15.83,0-28.67,12.62-28.67,28.19l0,0c0,15.57,12.84,28.2,28.67,28.2h594.94c15.83,0,28.67-12.62,28.67-28.2l0,0
			C1973.87,667.18,1961.03,654.56,1945.2,654.56z"/>
		<path class="st8" d="M1234.72,1186.74h-75.4c0.49-1.88,0.76-3.79,0.76-5.73c0-25.04-41.67-45.35-93.07-45.35
			c-13.1,0-25.56,1.32-36.86,3.7c-7.14-55.55-55.32-98.51-113.74-98.51c-13.94,0-27.3,2.45-39.66,6.93
			c0.25-2.45,0.38-4.93,0.38-7.44c0-40.67-33.53-73.65-74.89-73.65c-11.11,0-21.65,2.4-31.13,6.67c0.15-2.03,0.23-4.08,0.23-6.15
			c0-50.91-45.49-92.19-101.59-92.19c-31.47,0-59.59,12.98-78.22,33.36c-7.39-2.91-15.45-4.52-23.9-4.52
			c-35.57,0-64.41,28.36-64.41,63.35c0,3.79,0.36,7.5,1.01,11.11c-2.23-0.18-4.49-0.29-6.77-0.29c-43.8,0-79.67,33.26-82.99,75.5
			c-12.39-5.49-26.13-8.54-40.6-8.54c-54.66,0-98.98,43.58-98.98,97.34c0,8.73,1.17,17.19,3.37,25.24h-11.22
			c-17.56,0-33.36,7.4-44.37,19.19h-97c-29.52,0-53.44,23.53-53.44,52.56l0,0c0,29.03,23.93,52.56,53.44,52.56h1109.06
			c29.52,0,53.44-23.53,53.44-52.56l0,0C1288.16,1210.27,1264.23,1186.74,1234.72,1186.74z"/>
		<path class="st9" d="M2672.62,1181.5h-73.13c0.47-1.85,0.74-3.74,0.74-5.65c0-24.7-40.41-44.72-90.27-44.72
			c-12.7,0-24.79,1.31-35.75,3.65c-6.93-54.78-53.65-97.15-110.31-97.15c-13.52,0-26.47,2.41-38.46,6.83
			c0.24-2.41,0.37-4.86,0.37-7.34c0-40.11-32.52-72.63-72.63-72.63c-10.78,0-20.99,2.36-30.19,6.57c0.14-2.01,0.22-4.03,0.22-6.07
			c0-50.21-44.11-90.91-98.53-90.91c-30.52,0-57.79,12.8-75.86,32.9c-7.17-2.87-14.98-4.46-23.17-4.46
			c-34.5,0-62.47,27.97-62.47,62.47c0,3.74,0.35,7.39,0.98,10.95c-2.17-0.17-4.35-0.29-6.56-0.29c-42.47,0-77.26,32.8-80.48,74.45
			c-12.02-5.41-25.34-8.42-39.38-8.42c-53.01,0-95.99,42.98-95.99,95.99c0,8.61,1.14,16.95,3.26,24.89h-10.88
			c-17.03,0-32.36,7.3-43.03,18.93h-94.08c-28.63,0-51.83,23.2-51.83,51.83l0,0c0,28.63,23.21,51.83,51.83,51.83h1075.6
			c28.63,0,51.83-23.21,51.83-51.83l0,0C2724.45,1204.7,2701.25,1181.5,2672.62,1181.5z"/>
		<g>
			<path class="st7" d="M2655.03,677.18h-416.78c-12.02,0-21.77-9.75-21.77-21.77l0,0c0-12.02,9.75-21.77,21.77-21.77h416.78
				c12.02,0,21.77,9.75,21.77,21.77l0,0C2676.8,667.43,2667.05,677.18,2655.03,677.18z"/>
			<ellipse class="st7" cx="2297.78" cy="624.74" rx="35.99" ry="31.1"/>
			
				<ellipse transform="matrix(0.1803 -0.9836 0.9836 0.1803 1329.6606 2793.7439)" class="st7" cx="2341.07" cy="599.08" rx="26.93" ry="27.1"/>
			
				<ellipse transform="matrix(0.1803 -0.9836 0.9836 0.1803 1435.2811 2920.4883)" class="st7" cx="2469.93" cy="599.08" rx="60.35" ry="60.74"/>
			
				<ellipse transform="matrix(0.1803 -0.9836 0.9836 0.1803 1478.4762 2845.2429)" class="st7" cx="2446.38" cy="535.54" rx="58.14" ry="58.51"/>
			
				<ellipse transform="matrix(0.1803 -0.9836 0.9836 0.1803 1395.291 2809.4048)" class="st7" cx="2383.29" cy="567.53" rx="40.58" ry="40.84"/>
			
				<ellipse transform="matrix(0.1803 -0.9836 0.9836 0.1803 1362.8037 2882.3923)" class="st7" cx="2410.83" cy="623.52" rx="40.58" ry="40.84"/>
			
				<ellipse transform="matrix(0.1803 -0.9836 0.9836 0.1803 1496.4569 2971.1938)" class="st7" cx="2530.94" cy="587.72" rx="60.61" ry="61"/>
			
				<ellipse transform="matrix(0.1803 -0.9836 0.9836 0.1803 1515.1613 3062.3516)" class="st7" cx="2594.99" cy="622.08" rx="45.48" ry="45.77"/>
			
				<ellipse transform="matrix(0.1803 -0.9836 0.9836 0.1803 1324.3302 2868.7263)" class="st7" cx="2383.4" cy="639.77" rx="32.92" ry="27.87"/>
			
				<ellipse transform="matrix(0.1803 -0.9836 0.9836 0.1803 1304.7488 2836.7207)" class="st7" cx="2354.4" cy="635.51" rx="26.93" ry="27.1"/>
		</g>
		<g class="st10">
			<path class="st7" d="M1327.51,937.48H910.72c-12.02,0-21.77-9.75-21.77-21.77v0c0-12.02,9.75-21.77,21.77-21.77h416.79
				c12.02,0,21.77,9.75,21.77,21.77v0C1349.28,927.73,1339.53,937.48,1327.51,937.48z"/>
			<ellipse class="st7" cx="970.26" cy="885.04" rx="35.99" ry="31.1"/>
			
				<ellipse transform="matrix(0.1803 -0.9836 0.9836 0.1803 -14.5071 1701.3453)" class="st7" cx="1013.55" cy="859.38" rx="26.93" ry="27.1"/>
			
				<ellipse transform="matrix(0.1803 -0.9836 0.9836 0.1803 91.1134 1828.0897)" class="st7" cx="1142.41" cy="859.38" rx="60.35" ry="60.74"/>
			
				<ellipse transform="matrix(0.1803 -0.9836 0.9836 0.1803 134.3085 1752.8442)" class="st7" cx="1118.86" cy="795.84" rx="58.14" ry="58.51"/>
			
				<ellipse transform="matrix(0.1803 -0.9836 0.9836 0.1803 51.1233 1717.0062)" class="st7" cx="1055.76" cy="827.83" rx="40.58" ry="40.84"/>
			
				<ellipse transform="matrix(0.1803 -0.9836 0.9836 0.1803 18.6359 1789.9937)" class="st7" cx="1083.31" cy="883.82" rx="40.58" ry="40.84"/>
			
				<ellipse transform="matrix(0.1803 -0.9836 0.9836 0.1803 152.2892 1878.7952)" class="st7" cx="1203.42" cy="848.02" rx="60.61" ry="61"/>
			
				<ellipse transform="matrix(0.1803 -0.9836 0.9836 0.1803 170.9935 1969.953)" class="st7" cx="1267.47" cy="882.38" rx="45.48" ry="45.77"/>
			
				<ellipse transform="matrix(0.1803 -0.9836 0.9836 0.1803 -19.8376 1776.3278)" class="st7" cx="1055.88" cy="900.07" rx="32.92" ry="27.87"/>
			
				<ellipse transform="matrix(0.1803 -0.9836 0.9836 0.1803 -39.4189 1744.3219)" class="st7" cx="1026.88" cy="895.81" rx="26.93" ry="27.1"/>
		</g>
		<g>
			<path class="st7" d="M731.06,252.35H314.28c-12.02,0-21.77-9.75-21.77-21.77v0c0-12.02,9.75-21.77,21.77-21.77h416.79
				c12.02,0,21.77,9.75,21.77,21.77v0C752.83,242.6,743.08,252.35,731.06,252.35z"/>
			<ellipse class="st7" cx="373.82" cy="199.92" rx="35.99" ry="31.1"/>
			
				<ellipse transform="matrix(0.1803 -0.9836 0.9836 0.1803 170.4967 553.0946)" class="st7" cx="417.1" cy="174.25" rx="26.93" ry="27.1"/>
			
				<ellipse transform="matrix(0.1803 -0.9836 0.9836 0.1803 276.1172 679.8391)" class="st7" cx="545.96" cy="174.25" rx="60.35" ry="60.74"/>
			
				<ellipse transform="matrix(0.1803 -0.9836 0.9836 0.1803 319.3122 604.5936)" class="st7" cx="522.41" cy="110.71" rx="58.14" ry="58.51"/>
			
				<ellipse transform="matrix(0.1803 -0.9836 0.9836 0.1803 236.127 568.7556)" class="st7" cx="459.32" cy="142.7" rx="40.58" ry="40.84"/>
			
				<ellipse transform="matrix(0.1803 -0.9836 0.9836 0.1803 203.6397 641.7429)" class="st7" cx="486.86" cy="198.69" rx="40.58" ry="40.84"/>
			
				<ellipse transform="matrix(0.1803 -0.9836 0.9836 0.1803 337.293 730.5444)" class="st7" cx="606.97" cy="162.9" rx="60.61" ry="61"/>
			
				<ellipse transform="matrix(0.1803 -0.9836 0.9836 0.1803 355.9973 821.7023)" class="st7" cx="671.02" cy="197.25" rx="45.48" ry="45.77"/>
			
				<ellipse transform="matrix(0.1803 -0.9836 0.9836 0.1803 165.1662 628.077)" class="st7" cx="459.43" cy="214.94" rx="32.92" ry="27.87"/>
			
				<ellipse transform="matrix(0.1803 -0.9836 0.9836 0.1803 145.5849 596.0712)" class="st7" cx="430.43" cy="210.68" rx="26.93" ry="27.1"/>
		</g>
		<path class="st11" d="M1572.36,1054.02c0.43-12.29-9.55-23.36-23.92-25.66c-3.37-0.54-6.7-0.55-9.9-0.1
			c0.35-0.96,0.63-1.95,0.85-2.97c2.89-13.73-7.62-26.91-23.46-29.44c-15.81-2.53-30.95,6.5-33.89,20.17
			c-3.55-0.81-7.32-1.25-11.22-1.25c-21.39,0-38.73,13.07-38.73,29.19c0,3.24,0.71,6.36,2.01,9.27
			c-11.86,1.01-21.13,9.72-21.13,20.33c0,11.28,10.49,20.43,23.43,20.43h129.1c12.94,0,23.43-9.15,23.43-20.43
			C1588.91,1064.35,1581.94,1056.58,1572.36,1054.02z"/>
		<path class="st7" d="M662.37,765.04c0.43-12.29-9.55-23.36-23.92-25.66c-3.37-0.54-6.7-0.55-9.9-0.1
			c0.35-0.96,0.63-1.95,0.85-2.97c2.89-13.73-7.62-26.91-23.46-29.44c-15.81-2.53-30.95,6.5-33.89,20.17
			c-3.55-0.81-7.32-1.25-11.22-1.25c-21.39,0-38.73,13.07-38.73,29.19c0,3.24,0.71,6.36,2.01,9.27
			c-11.86,1.01-21.13,9.72-21.13,20.33c0,11.28,10.49,20.43,23.43,20.43h129.1c12.94,0,23.43-9.15,23.43-20.43
			C678.91,775.38,671.95,767.6,662.37,765.04z"/>
		<path class="st7" d="M1078.19,316.38c-0.43-12.29,9.55-23.36,23.92-25.66c3.37-0.54,6.7-0.55,9.9-0.1
			c-0.35-0.96-0.63-1.95-0.85-2.97c-2.89-13.73,7.62-26.91,23.46-29.44c15.81-2.53,30.95,6.5,33.89,20.17
			c3.55-0.81,7.32-1.25,11.22-1.25c21.39,0,38.73,13.07,38.73,29.19c0,3.24-0.71,6.36-2.01,9.27c11.86,1.01,21.13,9.72,21.13,20.33
			c0,11.28-10.49,20.43-23.43,20.43h-129.1c-12.94,0-23.43-9.15-23.43-20.43C1061.64,326.72,1068.61,318.95,1078.19,316.38z"/>
	</g>
	<g class="st6">
		<path class="st7" d="M1437.26,281.62h47.75c-0.31-1.21-0.48-2.44-0.48-3.69c0-16.13,26.39-29.2,58.95-29.2
			c8.3,0,16.19,0.85,23.35,2.38c4.52-35.77,35.04-63.44,72.03-63.44c8.83,0,17.29,1.58,25.11,4.46c-0.16-1.58-0.24-3.17-0.24-4.79
			c0-26.19,21.23-47.43,47.43-47.43c7.04,0,13.71,1.54,19.71,4.29c-0.09-1.31-0.15-2.63-0.15-3.96c0-32.79,28.81-59.37,64.34-59.37
			c19.93,0,37.74,8.36,49.54,21.48c4.68-1.87,9.78-2.91,15.13-2.91c22.53,0,40.79,18.26,40.79,40.79c0,2.44-0.23,4.83-0.64,7.15
			c1.42-0.11,2.84-0.19,4.29-0.19c27.74,0,50.45,21.42,52.56,48.62c7.85-3.53,16.55-5.5,25.71-5.5c34.62,0,62.68,28.06,62.68,62.68
			c0,5.62-0.74,11.07-2.13,16.25h7.11c11.12,0,21.13,4.76,28.1,12.36h61.43c18.69,0,33.85,15.15,33.85,33.85l0,0
			c0,18.69-15.15,33.85-33.85,33.85h-702.38c-18.69,0-33.85-15.15-33.85-33.85l0,0C1403.41,296.77,1418.56,281.62,1437.26,281.62z"
			/>
	</g>
	<g class="st6">
		<path class="st7" d="M347.43,519.28h47.75c-0.31-1.21-0.48-2.44-0.48-3.69c0-16.13,26.39-29.2,58.95-29.2
			c8.3,0,16.19,0.85,23.35,2.38c4.52-35.77,35.04-63.44,72.03-63.44c8.83,0,17.29,1.58,25.11,4.46c-0.16-1.58-0.24-3.17-0.24-4.79
			c0-26.19,21.23-47.43,47.43-47.43c7.04,0,13.71,1.54,19.71,4.29c-0.09-1.31-0.15-2.63-0.15-3.96c0-32.79,28.81-59.37,64.34-59.37
			c19.93,0,37.74,8.36,49.54,21.48c4.68-1.87,9.78-2.91,15.13-2.91c22.53,0,40.79,18.26,40.79,40.79c0,2.44-0.23,4.83-0.64,7.15
			c1.42-0.11,2.84-0.19,4.29-0.19c27.74,0,50.45,21.42,52.56,48.62c7.85-3.53,16.55-5.5,25.71-5.5c34.62,0,62.68,28.06,62.68,62.68
			c0,5.62-0.74,11.07-2.13,16.25h7.11c11.12,0,21.13,4.76,28.1,12.36h61.43c18.69,0,33.85,15.15,33.85,33.85l0,0
			c0,18.69-15.15,33.85-33.85,33.85H347.43c-18.69,0-33.85-15.15-33.85-33.85l0,0C313.59,534.44,328.74,519.28,347.43,519.28z"/>
	</g>
</g>
</svg>
