<?xml version="1.0" encoding="utf-8"?>
<!-- Generator: Adobe Illustrator 25.4.1, SVG Export Plug-In . SVG Version: 6.00 Build 0)  -->
<svg version="1.1" id="Layer_1" xmlns="http://www.w3.org/2000/svg" xmlns:xlink="http://www.w3.org/1999/xlink" x="0px" y="0px"
	 viewBox="0 0 395.1 84.82" style="enable-background:new 0 0 395.1 84.82;" xml:space="preserve">
<style type="text/css">
	.st0{fill:#FFFFFF;}
	.st1{clip-path:url(#SVGID_00000109740325511174279870000006796753792450354564_);}
	.st2{clip-path:url(#SVGID_00000068677380223917626100000011393676455737374641_);}
	.st3{fill:#FFFFFF;stroke:#FFFFFF;stroke-width:0.75;stroke-miterlimit:10;}
	.st4{opacity:0.81;}
	.st5{fill:url(#SVGID_00000146500962821320231290000004960567900800059326_);}
	.st6{opacity:0.3;}
	.st7{fill:#F2F2F2;}
	.st8{opacity:0.61;fill:#F2F2F2;}
	.st9{opacity:0.69;fill:#F2F2F2;}
	.st10{opacity:0.53;}
	.st11{opacity:0.64;fill:#F2F2F2;}
	.st12{fill:#003800;}
	.st13{fill:#DC3285;}
	.st14{fill:#A52065;}
	.st15{fill:#005700;}
	.st16{fill:#2F6E0C;}
	.st17{clip-path:url(#SVGID_00000062176127395577452270000017902079691518140297_);fill:#007400;}
	.st18{opacity:0.62;clip-path:url(#SVGID_00000062176127395577452270000017902079691518140297_);}
	.st19{fill:none;stroke:#000000;stroke-width:6;stroke-miterlimit:10;}
	.st20{fill:#007400;}
	.st21{fill:#6AD542;}
	.st22{opacity:0.77;fill:url(#);}
	.st23{opacity:0.47;}
	.st24{fill:none;stroke:#000000;stroke-width:6;stroke-linecap:round;stroke-miterlimit:10;}
	.st25{fill:none;stroke:#DC3285;stroke-width:5;stroke-linecap:round;stroke-linejoin:round;stroke-miterlimit:10;}
	.st26{clip-path:url(#SVGID_00000118394597891926734850000013659796917970968997_);fill:#FFFFFF;}
	.st27{fill:#FFA002;}
	.st28{opacity:0.64;clip-path:url(#SVGID_00000170965782207159556700000009841079803297343153_);fill:#FFFFFF;}
	.st29{opacity:0.61;clip-path:url(#SVGID_00000178203258628972048480000014286602394618406580_);fill:#FFFFFF;}
	.st30{clip-path:url(#SVGID_00000067929123610376698270000011808784931009330848_);}
	.st31{fill:#999999;}
	.st32{fill:#1A1A1A;}
	.st33{opacity:0.43;fill:#FFFFFF;}
	.st34{opacity:0.43;fill:none;stroke:#FFFFFF;stroke-width:7;stroke-linecap:round;stroke-miterlimit:10;}
	.st35{fill:#6AD542;stroke:#FFFFFF;stroke-width:7;stroke-linecap:round;stroke-miterlimit:10;}
	.st36{fill:none;stroke:#E6E6E6;stroke-width:13;stroke-linecap:round;stroke-linejoin:round;stroke-miterlimit:10;}
	.st37{clip-path:url(#SVGID_00000060735936122398751380000009683836726127616695_);}
	.st38{opacity:0.43;fill:none;stroke:#1A1A1A;stroke-width:6;stroke-miterlimit:10;}
	.st39{fill:#666666;}
	.st40{fill:none;stroke:#FFFFFF;stroke-width:13;stroke-linecap:round;stroke-linejoin:round;stroke-miterlimit:10;}
	.st41{fill:none;stroke:#FFFFFF;stroke-width:11;stroke-linecap:round;stroke-linejoin:round;stroke-miterlimit:10;}
	.st42{fill:none;stroke:#FFE500;stroke-width:10;stroke-linecap:round;stroke-miterlimit:10;}
	.st43{clip-path:url(#SVGID_00000000933396897941310280000014478683171895372170_);fill:#DC3285;}
	.st44{clip-path:url(#SVGID_00000000933396897941310280000014478683171895372170_);fill:#FFFFFF;}
	.st45{clip-path:url(#SVGID_00000000933396897941310280000014478683171895372170_);fill:#333333;}
	.st46{clip-path:url(#SVGID_00000097498413958999649560000006653188120586045838_);fill:#DC3285;}
	.st47{clip-path:url(#SVGID_00000097498413958999649560000006653188120586045838_);fill:#FFFFFF;}
	.st48{clip-path:url(#SVGID_00000097498413958999649560000006653188120586045838_);fill:#333333;}
	.st49{fill:#56BE2F;}
	.st50{opacity:0.55;}
	.st51{fill:none;stroke:#000000;stroke-width:15;stroke-linecap:round;stroke-linejoin:round;stroke-miterlimit:10;}
	.st52{fill:#5C1537;}
	.st53{clip-path:url(#SVGID_00000176037368419042419150000002387164935325109946_);fill:#26AD35;}
	.st54{clip-path:url(#SVGID_00000176037368419042419150000002387164935325109946_);fill:#6AD542;}
	.st55{clip-path:url(#SVGID_00000176037368419042419150000002387164935325109946_);fill:#56BE2F;}
	.st56{clip-path:url(#SVGID_00000029038303661569759910000013971273044789323437_);fill:#45A840;}
	.st57{clip-path:url(#SVGID_00000029038303661569759910000013971273044789323437_);fill:#56BE2F;}
	.st58{clip-path:url(#SVGID_00000143578196994374284440000014112848463145801629_);fill:#45A840;}
	.st59{clip-path:url(#SVGID_00000143578196994374284440000014112848463145801629_);fill:#56BE2F;}
	.st60{clip-path:url(#SVGID_00000065785475034869281240000012719902732981761458_);fill:#6AD542;}
	.st61{opacity:0.7;clip-path:url(#SVGID_00000065785475034869281240000012719902732981761458_);}
	.st62{fill:#27B136;}
	.st63{clip-path:url(#SVGID_00000058579412005326439300000000307721687088305048_);fill:#3E8913;}
	.st64{clip-path:url(#SVGID_00000058579412005326439300000000307721687088305048_);fill:#6AD542;}
	.st65{clip-path:url(#SVGID_00000090288321245256665930000012509344506165153180_);fill:#29BD3A;}
	.st66{clip-path:url(#SVGID_00000090288321245256665930000012509344506165153180_);fill:#6AD542;}
	.st67{clip-path:url(#SVGID_00000103239182848434800030000007993911484929007250_);fill:#6AD542;}
	.st68{opacity:0.7;clip-path:url(#SVGID_00000103239182848434800030000007993911484929007250_);}
	.st69{clip-path:url(#SVGID_00000057826578736128518870000008492386493314047887_);fill:#6AD542;}
	.st70{opacity:0.56;clip-path:url(#SVGID_00000057826578736128518870000008492386493314047887_);fill:#26AD35;}
	.st71{clip-path:url(#SVGID_00000005981060050239566160000006289798858396958116_);fill:#45A840;}
	.st72{clip-path:url(#SVGID_00000005981060050239566160000006289798858396958116_);fill:#56BE2F;}
	.st73{fill:#333333;}
	.st74{opacity:0.42;fill:#292929;}
	.st75{opacity:0.15;fill:url(#);}
	.st76{clip-path:url(#SVGID_00000070109843595355839960000017850088026312235963_);fill:#3E8913;}
	.st77{clip-path:url(#SVGID_00000070109843595355839960000017850088026312235963_);fill:#6AD542;}
	.st78{fill:none;stroke:#000000;stroke-width:4;stroke-miterlimit:10;}
	.st79{fill:#00ADEE;}
	.st80{fill:#FFE500;}
	.st81{opacity:0.66;fill:#FFA002;}
	.st82{clip-path:url(#SVGID_00000013167469192378033510000008799958237084490126_);fill:#29BD3A;}
	.st83{clip-path:url(#SVGID_00000013167469192378033510000008799958237084490126_);fill:#6AD542;}
	.st84{fill:#00CCFF;}
	.st85{fill:#29BD3A;}
	.st86{fill:#FFD900;}
	.st87{fill:#EB8AB9;}
	.st88{opacity:0.78;fill:#E04B94;}
	.st89{clip-path:url(#SVGID_00000140016781484784076510000004058289859795892629_);fill:#6AD542;}
	.st90{opacity:0.7;clip-path:url(#SVGID_00000140016781484784076510000004058289859795892629_);}
	.st91{fill:#8BE04A;}
	.st92{opacity:0.28;fill:url(#SVGID_00000010277960771435661440000007759695596133896882_);}
	.st93{opacity:0.7;fill:url(#SVGID_00000057847291870054649700000006570552628739619472_);}
	.st94{clip-path:url(#SVGID_00000079452423724865911410000001218124640592209072_);fill:#DC3285;}
	.st95{clip-path:url(#SVGID_00000079452423724865911410000001218124640592209072_);fill:#FFCD55;}
	.st96{clip-path:url(#SVGID_00000079452423724865911410000001218124640592209072_);fill:#45C8F5;}
	.st97{clip-path:url(#SVGID_00000094591473200016998970000016846548498448826299_);fill:#FFFFFF;}
	.st98{clip-path:url(#SVGID_00000094591473200016998970000016846548498448826299_);}
	.st99{clip-path:url(#SVGID_00000061435974204578761000000006398500399246256521_);fill:#333333;}
	.st100{clip-path:url(#SVGID_00000061435974204578761000000006398500399246256521_);fill:#FFCD55;}
	.st101{clip-path:url(#SVGID_00000061435974204578761000000006398500399246256521_);}
	.st102{fill:#E6E6E6;}
	.st103{fill:#FFCD55;}
	.st104{opacity:0.73;fill:#FFFFFF;}
	.st105{opacity:0.73;fill:none;stroke:#FFFFFF;stroke-width:29;stroke-linecap:round;stroke-miterlimit:10;}
	.st106{opacity:0.26;fill:#FFFFFF;}
	.st107{opacity:0.26;fill:none;stroke:#FFFFFF;stroke-width:29;stroke-linecap:round;stroke-miterlimit:10;}
	.st108{fill:#45C8F5;}
	.st109{fill:#231F20;}
	.st110{clip-path:url(#SVGID_00000162311881112896508390000003795138553686269827_);}
	.st111{fill:url(#SVGID_00000045583931217434561390000008782432671839906487_);}
	.st112{clip-path:url(#SVGID_00000162311881112896508390000003795138553686269827_);fill:#FFA002;}
	.st113{opacity:0.5;}
	.st114{fill:none;}
	.st115{fill:#CCCCCC;}
	.st116{fill:#B3B3B3;}
	.st117{fill:none;stroke:#FFE500;stroke-width:7;stroke-linecap:round;stroke-miterlimit:10;}
	.st118{fill:none;stroke:#FFE500;stroke-width:7;stroke-linecap:round;stroke-miterlimit:10;stroke-dasharray:10.0084,20.0167;}
	.st119{fill:url(#SVGID_00000001645634936325580800000006818000423500790176_);}
	.st120{opacity:0.7;fill:#B3B3B3;}
	.st121{fill:url(#SVGID_00000124153862293024839780000007214396908124480925_);}
	.st122{clip-path:url(#SVGID_00000075151526008752751410000017451928246810672273_);fill:#8BE04A;}
	
		.st123{opacity:0.55;clip-path:url(#SVGID_00000075151526008752751410000017451928246810672273_);fill:url(#SVGID_00000115500298620764628670000008356985478171755184_);}
	.st124{fill:#E567A5;}
	.st125{fill:url(#SVGID_00000039845500162163538820000009393608508458068386_);}
	.st126{fill:#00ACD6;}
	.st127{fill:#9E005D;}
	.st128{fill:url(#SVGID_00000163795159449277512930000002493261484951639993_);}
	.st129{fill:none;stroke:#FFCD55;stroke-width:5;stroke-linecap:round;stroke-miterlimit:10;}
	.st130{fill:none;stroke:#FFCD55;stroke-width:5;stroke-linecap:round;stroke-miterlimit:10;stroke-dasharray:9.3355,18.6709;}
	.st131{fill:url(#SVGID_00000013888240489079942170000006099223659191857337_);}
	.st132{fill:url(#SVGID_00000008865170019468309620000002834830410126000813_);}
	.st133{clip-path:url(#SVGID_00000145740072865817350710000008662186448658827953_);fill:#007400;}
	.st134{opacity:0.62;clip-path:url(#SVGID_00000145740072865817350710000008662186448658827953_);}
	.st135{clip-path:url(#SVGID_00000079460067386956562830000002990071794792572060_);fill:#FFFFFF;}
	.st136{opacity:0.64;clip-path:url(#SVGID_00000168097910399234603300000004537082099640664964_);fill:#FFFFFF;}
	.st137{opacity:0.61;clip-path:url(#SVGID_00000108280959483307694500000015866548621459295887_);fill:#FFFFFF;}
	.st138{clip-path:url(#SVGID_00000088130466241145258820000013051459743861687945_);}
	.st139{clip-path:url(#SVGID_00000045579801615218000310000005710913070852093329_);}
	.st140{clip-path:url(#SVGID_00000111174262854193993350000017420404961938886530_);fill:#DC3285;}
	.st141{clip-path:url(#SVGID_00000111174262854193993350000017420404961938886530_);fill:#FFFFFF;}
	.st142{clip-path:url(#SVGID_00000111174262854193993350000017420404961938886530_);fill:#333333;}
	.st143{clip-path:url(#SVGID_00000005988820133170343040000014895924250383729068_);fill:#DC3285;}
	.st144{clip-path:url(#SVGID_00000005988820133170343040000014895924250383729068_);fill:#FFFFFF;}
	.st145{clip-path:url(#SVGID_00000005988820133170343040000014895924250383729068_);fill:#333333;}
	.st146{clip-path:url(#SVGID_00000139294407837599816830000007643372044740234150_);fill:#26AD35;}
	.st147{clip-path:url(#SVGID_00000139294407837599816830000007643372044740234150_);fill:#6AD542;}
	.st148{clip-path:url(#SVGID_00000139294407837599816830000007643372044740234150_);fill:#56BE2F;}
	.st149{clip-path:url(#SVGID_00000063604344150617785940000015547872241981833605_);fill:#45A840;}
	.st150{clip-path:url(#SVGID_00000063604344150617785940000015547872241981833605_);fill:#56BE2F;}
	.st151{clip-path:url(#SVGID_00000083061241508515514230000015920744031122694047_);fill:#45A840;}
	.st152{clip-path:url(#SVGID_00000083061241508515514230000015920744031122694047_);fill:#56BE2F;}
	.st153{clip-path:url(#SVGID_00000100376981693068537200000010401961909555670401_);fill:#6AD542;}
	.st154{opacity:0.7;clip-path:url(#SVGID_00000100376981693068537200000010401961909555670401_);}
	.st155{clip-path:url(#SVGID_00000040541296078936146670000005527395230259659928_);fill:#3E8913;}
	.st156{clip-path:url(#SVGID_00000040541296078936146670000005527395230259659928_);fill:#6AD542;}
	.st157{clip-path:url(#SVGID_00000127030817196952187820000004776396064812806785_);fill:#29BD3A;}
	.st158{clip-path:url(#SVGID_00000127030817196952187820000004776396064812806785_);fill:#6AD542;}
	.st159{clip-path:url(#SVGID_00000132792776284225817220000003712362011649165706_);fill:#6AD542;}
	.st160{opacity:0.7;clip-path:url(#SVGID_00000132792776284225817220000003712362011649165706_);}
	.st161{clip-path:url(#SVGID_00000027600568953213073640000007454579961063507852_);fill:#6AD542;}
	.st162{opacity:0.56;clip-path:url(#SVGID_00000027600568953213073640000007454579961063507852_);fill:#26AD35;}
	.st163{clip-path:url(#SVGID_00000059280414467003257060000015004950491376978871_);fill:#45A840;}
	.st164{clip-path:url(#SVGID_00000059280414467003257060000015004950491376978871_);fill:#56BE2F;}
	.st165{clip-path:url(#SVGID_00000119827111848461615840000015307416622807328183_);fill:#3E8913;}
	.st166{clip-path:url(#SVGID_00000119827111848461615840000015307416622807328183_);fill:#6AD542;}
	.st167{clip-path:url(#SVGID_00000014610036990348025420000017042440993246315953_);fill:#29BD3A;}
	.st168{clip-path:url(#SVGID_00000014610036990348025420000017042440993246315953_);fill:#6AD542;}
	.st169{clip-path:url(#SVGID_00000131364508241092227750000013187731991215119237_);fill:#6AD542;}
	.st170{opacity:0.7;clip-path:url(#SVGID_00000131364508241092227750000013187731991215119237_);}
	.st171{opacity:0.28;fill:url(#SVGID_00000085952812297586101750000001515063400950576268_);}
	.st172{opacity:0.7;fill:url(#SVGID_00000021798719952502630800000001636675464354848934_);}
	.st173{clip-path:url(#SVGID_00000165225524528782419820000009077838779494986676_);}
	.st174{clip-path:url(#SVGID_00000058580128043006268980000018146943642639654289_);}
	.st175{clip-path:url(#SVGID_00000044893578294491111570000017790066720410760115_);fill:#FFFFFF;}
	.st176{clip-path:url(#SVGID_00000044893578294491111570000017790066720410760115_);}
	.st177{clip-path:url(#SVGID_00000013912715678720920260000013233405597773569726_);fill:#333333;}
	.st178{clip-path:url(#SVGID_00000013912715678720920260000013233405597773569726_);fill:#FFCD55;}
	.st179{clip-path:url(#SVGID_00000013912715678720920260000013233405597773569726_);}
	.st180{clip-path:url(#SVGID_00000168075455769447850920000004071842510159978883_);}
	.st181{fill:url(#SVGID_00000000212825200609996050000009465314499256983959_);}
	.st182{clip-path:url(#SVGID_00000168075455769447850920000004071842510159978883_);fill:#FFA002;}
	.st183{fill:url(#SVGID_00000142854842194643841350000013105923829414682291_);}
	.st184{clip-path:url(#SVGID_00000136389399957106928390000008756068261474664066_);fill:#8BE04A;}
	
		.st185{opacity:0.55;clip-path:url(#SVGID_00000136389399957106928390000008756068261474664066_);fill:url(#SVGID_00000115479766169547605320000011525534116102632330_);}
	.st186{fill:#009245;}
	.st187{clip-path:url(#SVGID_00000122002442023624563490000004661355904794697120_);}
	.st188{fill:none;stroke:#FFFFFF;stroke-width:27;stroke-linecap:round;stroke-miterlimit:10;}
	.st189{fill:none;stroke:#2CAF4B;stroke-width:61;stroke-linecap:round;stroke-linejoin:round;stroke-miterlimit:10;}
	.st190{fill:none;stroke:#DC3285;stroke-width:13;stroke-linecap:round;stroke-linejoin:round;stroke-miterlimit:10;}
	.st191{fill:#2CAF4B;}
	.st192{opacity:0.1;}
	.st193{fill:#151814;}
	.st194{fill:none;stroke:#DC3285;stroke-width:30;stroke-miterlimit:10;}
	.st195{fill:#DC3285;stroke:#E567A5;stroke-width:6;stroke-miterlimit:10;}
	.st196{fill:#282560;}
	.st197{fill:url(#SVGID_00000116230619671176327680000007848228337937569974_);}
	.st198{fill:url(#SVGID_00000134951568876004149400000004469818553064857758_);}
	.st199{clip-path:url(#SVGID_00000169543009370999429980000017319212854656831400_);}
	.st200{clip-path:url(#SVGID_00000088125428436474491250000009921910371446667930_);}
	.st201{clip-path:url(#SVGID_00000018922812484516201050000003849858691807610001_);}
	.st202{fill:#006600;}
	.st203{opacity:0.77;}
	.st204{clip-path:url(#SVGID_00000012461078580526466300000012461032491119345555_);}
	.st205{clip-path:url(#SVGID_00000135671141527623247640000011240324814437053075_);}
	.st206{clip-path:url(#SVGID_00000171679179917778737950000009560116049205231535_);}
	.st207{clip-path:url(#SVGID_00000113338188581810572910000001272806345340250023_);}
	.st208{clip-path:url(#SVGID_00000063628846948643655210000009626285631746168746_);}
	.st209{clip-path:url(#SVGID_00000072267208778989181400000013441512563314453138_);}
	.st210{clip-path:url(#SVGID_00000003094445092397057100000015961677342471407785_);}
	.st211{clip-path:url(#SVGID_00000050621500904757334780000015260488982361878953_);}
	.st212{clip-path:url(#SVGID_00000010298808377148073690000017018143493479274141_);}
	.st213{clip-path:url(#SVGID_00000094606200196359274160000017113243807467590289_);}
	.st214{clip-path:url(#SVGID_00000134944480100903548050000010446210069269812098_);}
	.st215{clip-path:url(#SVGID_00000124149942822465930250000006191953747574039701_);fill:#FFFFFF;}
	.st216{opacity:0.64;clip-path:url(#SVGID_00000154402722236618453060000010978302549769268866_);fill:#FFFFFF;}
	.st217{opacity:0.61;clip-path:url(#SVGID_00000129908447264996969010000007013656787325953159_);fill:#FFFFFF;}
	.st218{opacity:0.43;}
	.st219{fill:#4D4D4D;}
	.st220{fill:#3B3B3B;}
	.st221{clip-path:url(#SVGID_00000161602736458971397170000010253511078791912345_);fill:#DC3285;}
	.st222{clip-path:url(#SVGID_00000161602736458971397170000010253511078791912345_);fill:#FFFFFF;}
	.st223{clip-path:url(#SVGID_00000161602736458971397170000010253511078791912345_);fill:#333333;}
	.st224{clip-path:url(#SVGID_00000109734024911350126880000002204899412394788015_);fill:#DC3285;}
	.st225{clip-path:url(#SVGID_00000109734024911350126880000002204899412394788015_);fill:#FFFFFF;}
	.st226{clip-path:url(#SVGID_00000109734024911350126880000002204899412394788015_);fill:#333333;}
	.st227{fill:#26AD35;}
	.st228{fill:#45A840;}
	.st229{opacity:0.56;fill:#26AD35;}
	.st230{opacity:0.42;}
	.st231{fill:#292929;}
	.st232{opacity:0.15;}
	.st233{clip-path:url(#SVGID_00000116234415432685928420000004901583674460992143_);}
	.st234{clip-path:url(#SVGID_00000170260589873460280640000000193373084088829607_);}
	.st235{clip-path:url(#SVGID_00000029022352965175308530000009677811576597247935_);}
	.st236{clip-path:url(#SVGID_00000163071367224371636110000005391297613334686088_);}
	.st237{clip-path:url(#SVGID_00000029040525946561332990000015623451554836125070_);}
	.st238{clip-path:url(#SVGID_00000010286646216323190520000005611673084155740567_);}
	.st239{clip-path:url(#SVGID_00000077322983823472855310000013538501416170181800_);}
	.st240{clip-path:url(#SVGID_00000044155477252724936090000004208600486001808774_);}
	.st241{clip-path:url(#SVGID_00000114787079704595284860000000094834462392752058_);}
	.st242{clip-path:url(#SVGID_00000111912365568705827780000013241268386388617359_);}
	.st243{clip-path:url(#SVGID_00000033334156551115852920000001282634983315274386_);}
	.st244{clip-path:url(#SVGID_00000016763544930629687370000000850979588915036853_);}
	.st245{clip-path:url(#SVGID_00000104666729460104822690000013723389057191645591_);}
	.st246{clip-path:url(#SVGID_00000013177167940851911880000011210634740757301153_);}
	.st247{clip-path:url(#SVGID_00000118389533730946889750000011172284578954501770_);}
	.st248{clip-path:url(#SVGID_00000122705700771554739500000015331346318034634134_);}
	.st249{clip-path:url(#SVGID_00000150805488128804320460000014528365527310580671_);}
	.st250{clip-path:url(#SVGID_00000169551221040613529240000018254365054409957796_);}
	.st251{clip-path:url(#SVGID_00000110434442348874271890000015128492945586056071_);}
	.st252{clip-path:url(#SVGID_00000121243964946969153780000013359635212969290653_);}
	.st253{clip-path:url(#SVGID_00000178897364876809152430000002240002315041026694_);}
	.st254{clip-path:url(#SVGID_00000063630760321672865660000015742886334971477439_);}
	.st255{clip-path:url(#SVGID_00000175296088564018028220000006769085979724466323_);}
	.st256{clip-path:url(#SVGID_00000068656811812470429080000014044966654682639774_);}
	.st257{clip-path:url(#SVGID_00000057125310554904637650000016912590323160807086_);}
	.st258{clip-path:url(#SVGID_00000173159811082056834080000001426320850711142793_);}
	.st259{clip-path:url(#SVGID_00000135687354897914304660000006356375288269007233_);}
	.st260{clip-path:url(#SVGID_00000119840027142445765780000000436415214481701542_);}
	.st261{clip-path:url(#SVGID_00000160178094469190739210000011144321747892405677_);}
	.st262{clip-path:url(#SVGID_00000009588266217545226440000000712185733937621125_);}
	.st263{clip-path:url(#SVGID_00000023257144084333791030000003983413870349545893_);}
	.st264{clip-path:url(#SVGID_00000044139798141258026670000006714903247758546072_);}
	.st265{clip-path:url(#SVGID_00000080190002771414573860000017519490658270601360_);}
	.st266{clip-path:url(#SVGID_00000176725039318462090350000005068971417742188976_);}
	.st267{clip-path:url(#SVGID_00000136381888914885925000000007487589590733164677_);}
	.st268{clip-path:url(#SVGID_00000110456785789394331030000014877458175516192914_);}
	.st269{clip-path:url(#SVGID_00000091014750668942981120000017224232443749332390_);}
	.st270{clip-path:url(#SVGID_00000100375337830762598600000001009044844867802260_);}
	.st271{clip-path:url(#SVGID_00000149356363462715095720000000844775492068630181_);}
	.st272{clip-path:url(#SVGID_00000004524425922607470170000017445442786543667328_);}
	.st273{clip-path:url(#SVGID_00000119825169139427371990000013195281066839708351_);}
	.st274{clip-path:url(#SVGID_00000038387812206781690260000001344512451532654264_);}
	.st275{clip-path:url(#SVGID_00000086670999636708127660000001489309831851278223_);}
	.st276{clip-path:url(#SVGID_00000174562437933012583660000010262102386895945387_);}
	.st277{clip-path:url(#SVGID_00000098936965694544766250000010732286328235212217_);}
	.st278{clip-path:url(#SVGID_00000140705429214771997950000015167236785945306497_);}
	.st279{clip-path:url(#SVGID_00000181768454498751704480000013572395617779091642_);}
	.st280{clip-path:url(#SVGID_00000000215155020206140990000012913808452394029497_);}
	.st281{clip-path:url(#SVGID_00000092439782326357049670000011156700218075938220_);}
	.st282{clip-path:url(#SVGID_00000013160396934800388770000003503139158666336941_);}
	.st283{clip-path:url(#SVGID_00000114758749558601691670000014703299481517671605_);}
	.st284{clip-path:url(#SVGID_00000098183696413655579690000015327995958641250453_);}
	.st285{clip-path:url(#SVGID_00000022531572222769800440000013685856164013184691_);}
	.st286{clip-path:url(#SVGID_00000119104002291246814650000006936170132552341412_);}
	.st287{clip-path:url(#SVGID_00000181775266144854323560000009653215354759953318_);}
	.st288{clip-path:url(#SVGID_00000073690243389046507830000012413941386573302936_);}
	.st289{clip-path:url(#SVGID_00000170280351331425445290000003799068792865303730_);}
	.st290{clip-path:url(#SVGID_00000041974168694774556670000012730849148510431895_);}
	.st291{clip-path:url(#SVGID_00000030467575279758689890000008582220896545466810_);}
	.st292{clip-path:url(#SVGID_00000072262660473417970300000002823085049734880181_);}
	.st293{clip-path:url(#SVGID_00000148626716295344215530000000419378330278791834_);}
	.st294{clip-path:url(#SVGID_00000073723615882840423210000015181948382357620667_);}
	.st295{clip-path:url(#SVGID_00000112632145417968832730000012475086660648498851_);}
	.st296{clip-path:url(#SVGID_00000051371228525398704290000014050233135082826677_);}
	.st297{clip-path:url(#SVGID_00000039851877508439385630000001968689205384858497_);}
	.st298{clip-path:url(#SVGID_00000018948234995198861920000014201987362757559939_);}
	.st299{clip-path:url(#SVGID_00000108298273069075801840000007773870472594287236_);}
	.st300{clip-path:url(#SVGID_00000088816670816522783080000007338716514588078731_);}
	.st301{clip-path:url(#SVGID_00000043428502418569300010000002486642142434840210_);}
	.st302{clip-path:url(#SVGID_00000112622238986275371020000011920117197897023907_);}
	.st303{clip-path:url(#SVGID_00000178927288218545871950000003584809550891258815_);}
	.st304{clip-path:url(#SVGID_00000093897476446015348230000006710711411039935636_);}
	.st305{clip-path:url(#SVGID_00000072978588885355326610000000065072987075701933_);}
	.st306{clip-path:url(#SVGID_00000090975644764621392320000002408889423383591300_);}
	.st307{clip-path:url(#SVGID_00000114787951829135072830000016883629407859346352_);}
	.st308{clip-path:url(#SVGID_00000063596460910518249260000007407312584565875095_);}
	.st309{clip-path:url(#SVGID_00000127023061822900832120000016902062114661854124_);}
	.st310{clip-path:url(#SVGID_00000149382596467384421780000007871799815583651976_);}
	.st311{clip-path:url(#SVGID_00000028283380073125696170000003609396532451723690_);}
	.st312{clip-path:url(#SVGID_00000045591687834822290370000002449072745190588567_);}
	.st313{clip-path:url(#SVGID_00000170243418279405229330000006945467726845525151_);}
	.st314{clip-path:url(#SVGID_00000168111874235927086730000012396195223030613632_);}
	.st315{fill:#54BA2E;}
	.st316{fill:#008DF2;}
	.st317{opacity:0.76;}
	.st318{clip-path:url(#SVGID_00000080900304601035084540000013780246676318092422_);fill:#0088C7;}
	.st319{clip-path:url(#SVGID_00000080900304601035084540000013780246676318092422_);fill:#0189C8;}
	.st320{clip-path:url(#SVGID_00000080900304601035084540000013780246676318092422_);fill:#028AC9;}
	.st321{clip-path:url(#SVGID_00000080900304601035084540000013780246676318092422_);fill:#048BC9;}
	.st322{clip-path:url(#SVGID_00000080900304601035084540000013780246676318092422_);fill:#058CCA;}
	.st323{clip-path:url(#SVGID_00000080900304601035084540000013780246676318092422_);fill:#068DCB;}
	.st324{clip-path:url(#SVGID_00000080900304601035084540000013780246676318092422_);fill:#078FCC;}
	.st325{clip-path:url(#SVGID_00000080900304601035084540000013780246676318092422_);fill:#0890CC;}
	.st326{clip-path:url(#SVGID_00000080900304601035084540000013780246676318092422_);fill:#0991CD;}
	.st327{clip-path:url(#SVGID_00000080900304601035084540000013780246676318092422_);fill:#0B92CE;}
	.st328{clip-path:url(#SVGID_00000080900304601035084540000013780246676318092422_);fill:#0C93CF;}
	.st329{clip-path:url(#SVGID_00000080900304601035084540000013780246676318092422_);fill:#0D94D0;}
	.st330{clip-path:url(#SVGID_00000080900304601035084540000013780246676318092422_);fill:#0E95D0;}
	.st331{clip-path:url(#SVGID_00000080900304601035084540000013780246676318092422_);fill:#0F96D1;}
	.st332{clip-path:url(#SVGID_00000080900304601035084540000013780246676318092422_);fill:#1097D2;}
	.st333{clip-path:url(#SVGID_00000080900304601035084540000013780246676318092422_);fill:#1198D3;}
	.st334{clip-path:url(#SVGID_00000080900304601035084540000013780246676318092422_);fill:#1399D3;}
	.st335{clip-path:url(#SVGID_00000080900304601035084540000013780246676318092422_);fill:#149AD4;}
	.st336{clip-path:url(#SVGID_00000080900304601035084540000013780246676318092422_);fill:#159BD5;}
	.st337{clip-path:url(#SVGID_00000080900304601035084540000013780246676318092422_);fill:#169CD6;}
	.st338{clip-path:url(#SVGID_00000080900304601035084540000013780246676318092422_);fill:#179DD6;}
	.st339{clip-path:url(#SVGID_00000080900304601035084540000013780246676318092422_);fill:#189ED7;}
	.st340{clip-path:url(#SVGID_00000080900304601035084540000013780246676318092422_);fill:#199FD8;}
	.st341{clip-path:url(#SVGID_00000080900304601035084540000013780246676318092422_);fill:#1AA0D9;}
	.st342{clip-path:url(#SVGID_00000080900304601035084540000013780246676318092422_);fill:#1BA1D9;}
	.st343{clip-path:url(#SVGID_00000080900304601035084540000013780246676318092422_);fill:#1DA2DA;}
	.st344{clip-path:url(#SVGID_00000080900304601035084540000013780246676318092422_);fill:#1EA4DB;}
	.st345{clip-path:url(#SVGID_00000080900304601035084540000013780246676318092422_);fill:#1FA5DC;}
	.st346{clip-path:url(#SVGID_00000080900304601035084540000013780246676318092422_);fill:#20A6DC;}
	.st347{clip-path:url(#SVGID_00000080900304601035084540000013780246676318092422_);fill:#21A7DD;}
	.st348{clip-path:url(#SVGID_00000080900304601035084540000013780246676318092422_);fill:#22A8DE;}
	.st349{clip-path:url(#SVGID_00000080900304601035084540000013780246676318092422_);fill:#23A9DE;}
	.st350{clip-path:url(#SVGID_00000080900304601035084540000013780246676318092422_);fill:#24AADF;}
	.st351{clip-path:url(#SVGID_00000080900304601035084540000013780246676318092422_);fill:#25ABE0;}
	.st352{clip-path:url(#SVGID_00000080900304601035084540000013780246676318092422_);fill:#26ABE1;}
	.st353{clip-path:url(#SVGID_00000080900304601035084540000013780246676318092422_);fill:#27ACE1;}
	.st354{clip-path:url(#SVGID_00000080900304601035084540000013780246676318092422_);fill:#28ADE2;}
	.st355{clip-path:url(#SVGID_00000080900304601035084540000013780246676318092422_);fill:#29AEE3;}
	.st356{clip-path:url(#SVGID_00000080900304601035084540000013780246676318092422_);fill:#2AAFE3;}
	.st357{clip-path:url(#SVGID_00000080900304601035084540000013780246676318092422_);fill:#2BB0E4;}
	.st358{clip-path:url(#SVGID_00000080900304601035084540000013780246676318092422_);fill:#2CB1E5;}
	.st359{clip-path:url(#SVGID_00000080900304601035084540000013780246676318092422_);fill:#2EB2E5;}
	.st360{clip-path:url(#SVGID_00000080900304601035084540000013780246676318092422_);fill:#2FB3E6;}
	.st361{clip-path:url(#SVGID_00000080900304601035084540000013780246676318092422_);fill:#30B4E7;}
	.st362{clip-path:url(#SVGID_00000080900304601035084540000013780246676318092422_);fill:#31B5E7;}
	.st363{clip-path:url(#SVGID_00000080900304601035084540000013780246676318092422_);fill:#32B6E8;}
	.st364{clip-path:url(#SVGID_00000080900304601035084540000013780246676318092422_);fill:#32B7E9;}
	.st365{clip-path:url(#SVGID_00000080900304601035084540000013780246676318092422_);fill:#33B8E9;}
	.st366{clip-path:url(#SVGID_00000080900304601035084540000013780246676318092422_);fill:#34B9EA;}
	.st367{clip-path:url(#SVGID_00000080900304601035084540000013780246676318092422_);fill:#35BAEB;}
	.st368{clip-path:url(#SVGID_00000080900304601035084540000013780246676318092422_);fill:#36BAEB;}
	.st369{clip-path:url(#SVGID_00000080900304601035084540000013780246676318092422_);fill:#37BBEC;}
	.st370{clip-path:url(#SVGID_00000080900304601035084540000013780246676318092422_);fill:#38BCEC;}
	.st371{clip-path:url(#SVGID_00000080900304601035084540000013780246676318092422_);fill:#39BDED;}
	.st372{clip-path:url(#SVGID_00000080900304601035084540000013780246676318092422_);fill:#3ABEEE;}
	.st373{clip-path:url(#SVGID_00000080900304601035084540000013780246676318092422_);fill:#3BBFEE;}
	.st374{clip-path:url(#SVGID_00000080900304601035084540000013780246676318092422_);fill:#3CC0EF;}
	.st375{clip-path:url(#SVGID_00000080900304601035084540000013780246676318092422_);fill:#3DC0F0;}
	.st376{clip-path:url(#SVGID_00000080900304601035084540000013780246676318092422_);fill:#3EC1F0;}
	.st377{clip-path:url(#SVGID_00000080900304601035084540000013780246676318092422_);fill:#3EC2F1;}
	.st378{clip-path:url(#SVGID_00000080900304601035084540000013780246676318092422_);fill:#3FC3F1;}
	.st379{clip-path:url(#SVGID_00000080900304601035084540000013780246676318092422_);fill:#40C3F2;}
	.st380{clip-path:url(#SVGID_00000080900304601035084540000013780246676318092422_);fill:#41C4F2;}
	.st381{clip-path:url(#SVGID_00000080900304601035084540000013780246676318092422_);fill:#42C5F3;}
	.st382{clip-path:url(#SVGID_00000080900304601035084540000013780246676318092422_);fill:#42C6F3;}
	.st383{clip-path:url(#SVGID_00000080900304601035084540000013780246676318092422_);fill:#43C6F4;}
	.st384{clip-path:url(#SVGID_00000080900304601035084540000013780246676318092422_);fill:#44C7F4;}
	.st385{clip-path:url(#SVGID_00000080900304601035084540000013780246676318092422_);fill:#44C8F5;}
	.st386{clip-path:url(#SVGID_00000080900304601035084540000013780246676318092422_);fill:#45C8F5;}
	.st387{fill:url(#SVGID_00000137820877932775253300000008659657916327299510_);}
	.st388{fill:url(#SVGID_00000025402648764451485730000012477190052833492410_);}
	.st389{fill:url(#SVGID_00000052821014961007034220000015935501531141612715_);}
	.st390{fill:url(#SVGID_00000179611227719815648540000000324431268127065524_);}
	.st391{fill:#FF7FC8;}
	.st392{clip-path:url(#SVGID_00000174599025596422844120000004689073604937908653_);fill:#333333;}
	.st393{clip-path:url(#SVGID_00000174599025596422844120000004689073604937908653_);fill:#FFCD55;}
	.st394{clip-path:url(#SVGID_00000174599025596422844120000004689073604937908653_);}
	.st395{fill:#73E1EF;}
	.st396{fill:#0E68A3;}
	.st397{fill:#053483;}
</style>
<g>
	<g class="st113">
		<g>
			<path class="st0" d="M92.96,82.97l1.48-1.77c1.03,0.85,2.1,1.38,3.4,1.38c1.03,0,1.64-0.41,1.64-1.07v-0.03
				c0-0.63-0.39-0.96-2.29-1.45c-2.29-0.59-3.77-1.22-3.77-3.48v-0.03c0-2.07,1.66-3.43,3.98-3.43c1.66,0,3.07,0.52,4.22,1.45
				l-1.3,1.89c-1.01-0.7-2-1.12-2.96-1.12c-0.96,0-1.46,0.44-1.46,0.99v0.04c0,0.75,0.49,0.99,2.45,1.49
				c2.31,0.6,3.61,1.43,3.61,3.41v0.03c0,2.26-1.72,3.53-4.18,3.53C96.01,84.79,94.3,84.15,92.96,82.97L92.96,82.97z M112.04,73.17
				h2.31l4.88,11.46h-2.62l-1.04-2.55h-4.81l-1.04,2.55h-2.55L112.04,73.17L112.04,73.17z M114.67,79.86l-1.51-3.69l-1.51,3.69
				H114.67z M126.39,75.55h-3.46v-2.31h9.43v2.31h-3.46v9.07h-2.5L126.39,75.55L126.39,75.55z M138.5,73.24h8.58v2.23h-6.1v2.31
				h5.36v2.23h-5.36v2.39h6.18v2.22h-8.66L138.5,73.24L138.5,73.24z M153.62,73.24h2.5v9.11h5.67v2.27h-8.18V73.24L153.62,73.24z
				 M167.91,73.24h2.5v9.11h5.67v2.27h-8.18V73.24L167.91,73.24z M182.31,73.24h2.5v11.38h-2.5V73.24z M194.54,75.55h-3.46v-2.31
				h9.43v2.31h-3.46v9.07h-2.5L194.54,75.55L194.54,75.55z M206.65,73.24h8.58v2.23h-6.1v2.31h5.36v2.23h-5.36v2.39h6.18v2.22h-8.66
				V73.24z M230.87,73.24h5.21c1.44,0,2.57,0.41,3.31,1.16c0.64,0.64,0.98,1.53,0.98,2.6v0.03c0,1.84-0.99,2.99-2.44,3.53l2.78,4.06
				h-2.93l-2.44-3.64h-1.97v3.64h-2.51L230.87,73.24L230.87,73.24z M235.91,78.77c1.22,0,1.92-0.65,1.92-1.61v-0.03
				c0-1.07-0.75-1.63-1.97-1.63h-2.49v3.27H235.91z M250.75,73.17h2.31l4.88,11.46h-2.62l-1.04-2.55h-4.81l-1.04,2.55h-2.55
				L250.75,73.17L250.75,73.17z M253.38,79.86l-1.51-3.69l-1.51,3.69H253.38z M263.92,73.24h4.44c3.58,0,6.05,2.46,6.05,5.66v0.03
				c0,3.2-2.47,5.69-6.05,5.69h-4.44V73.24L263.92,73.24z M268.36,82.36c2.05,0,3.43-1.38,3.43-3.4v-0.03
				c0-2.02-1.38-3.43-3.43-3.43h-1.94v6.86L268.36,82.36L268.36,82.36z M280.97,73.24h2.5v11.38h-2.5V73.24z M290.04,78.97v-0.03
				c0-3.24,2.55-5.89,6.06-5.89c3.51,0,6.03,2.62,6.03,5.85v0.03c0,3.23-2.56,5.88-6.06,5.88C292.56,84.82,290.04,82.2,290.04,78.97
				L290.04,78.97z M299.52,78.97v-0.03c0-1.95-1.43-3.58-3.45-3.58c-2.02,0-3.41,1.59-3.41,3.55v0.03c0,1.95,1.43,3.58,3.45,3.58
				C298.12,82.51,299.52,80.92,299.52,78.97L299.52,78.97z"/>
		</g>
		<g>
			<path class="st0" d="M378.08,5.7c6.42,9.38,9.81,20.37,9.81,31.78c0,11.45-3.41,22.46-9.86,31.85c-1.13,1.64-0.71,3.89,0.93,5.01
				c0,0,0,0,0,0c1.63,1.13,3.87,0.72,5-0.92c0,0,0.01-0.01,0.01-0.01c7.28-10.6,11.12-23.03,11.12-35.94
				c0-12.88-3.83-25.28-11.07-35.86c-1.09-1.66-3.33-2.13-4.99-1.03s-2.13,3.33-1.03,4.99C378.03,5.63,378.05,5.66,378.08,5.7"/>
			<path class="st0" d="M366.66,64.47c1.6,1.19,3.85,0.87,5.06-0.72c5.7-7.59,8.71-16.63,8.71-26.14c0-9.6-3.05-18.71-8.85-26.33
				c-1.17-1.61-3.43-1.96-5.04-0.79s-1.96,3.43-0.79,5.04c0.03,0.04,0.06,0.07,0.08,0.11c4.83,6.36,7.39,13.96,7.39,21.97
				c0,7.94-2.51,15.48-7.27,21.81C364.74,61.02,365.06,63.28,366.66,64.47"/>
			<path class="st0" d="M353.82,55.65c1.55,1.25,3.82,1,5.07-0.55c4.02-5.02,6.22-11.26,6.22-17.7c0-6.38-2.07-12.39-5.98-17.4
				c-1.22-1.57-3.48-1.85-5.05-0.63c0,0-0.01,0.01-0.01,0.01c-1.57,1.22-1.85,3.49-0.63,5.05c0,0,0,0.01,0.01,0.01
				c2.91,3.69,4.48,8.26,4.46,12.96c0,4.85-1.6,9.41-4.63,13.18C352.02,52.12,352.27,54.39,353.82,55.65
				C353.82,55.65,353.82,55.65,353.82,55.65"/>
			<g>
				<path class="st0" d="M17.09,69.34c-6.46-9.39-9.86-20.41-9.86-31.85c0-11.41,3.39-22.41,9.82-31.78
					c1.13-1.64,0.71-3.89-0.94-5.02c-1.64-1.13-3.89-0.71-5.02,0.94C3.83,12.21,0,24.61,0,37.49C0,50.4,3.85,62.83,11.14,73.43
					c1.12,1.64,3.37,2.06,5.01,0.93c0,0,0.01,0,0.01-0.01C17.8,73.23,18.22,70.99,17.09,69.34C17.09,69.34,17.09,69.34,17.09,69.34
					C17.09,69.34,18.22,70.99,17.09,69.34C17.09,69.34,18.22,70.99,17.09,69.34z"/>
				<path class="st0" d="M29.29,15.65c1.21-1.59,0.9-3.85-0.69-5.06c-1.59-1.2-3.85-0.89-5.05,0.7c-5.79,7.62-8.86,16.72-8.86,26.33
					c0,9.51,3.01,18.56,8.72,26.14c1.2,1.59,3.45,1.91,5.05,0.72c1.59-1.2,1.91-3.46,0.72-5.05c-4.74-6.28-7.29-13.94-7.27-21.81
					C21.91,29.6,24.46,22.01,29.29,15.65z"/>
				<path class="st0" d="M30,37.4c0.01,6.44,2.2,12.68,6.23,17.7c1.25,1.55,3.52,1.8,5.07,0.55c1.55-1.25,1.8-3.52,0.55-5.07l0,0
					c-3.01-3.73-4.65-8.38-4.63-13.18c0-4.75,1.54-9.23,4.46-12.96c1.22-1.57,0.95-3.83-0.62-5.06c-1.56-1.23-3.82-0.96-5.05,0.6
					C36,19.99,36,19.99,36,20C32.07,25.01,30,31.02,30,37.4C30,37.4,30,31.02,30,37.4C30,37.4,30,31.02,30,37.4L30,37.4z"/>
			</g>
		</g>
		<g>
			<path class="st0" d="M64.82,45.4c0,1.67,0.64,2.94,1.75,3.82c1.04,0.79,2.47,1.27,4.06,1.27c2.54,0,5.25-0.8,5.25-3.74
				c0-6.68-25.54-1.35-25.54-17.5c0-10.66,11.06-13.77,19.73-13.77c9.07,0,19.73,2.07,20.68,13.13H75.71
				c-0.16-1.35-0.72-2.31-1.59-3.02c-0.88-0.72-2.07-1.03-3.34-1.03c-2.86,0-4.69,0.88-4.69,2.94c0,5.81,26.33,1.91,26.33,17.5
				c0,8.67-7.16,14.56-22.44,14.56c-9.55,0-20.04-2.94-20.92-14.16L64.82,45.4L64.82,45.4z M95.2,15.56h13.44v6.42H95.2V15.56z
				 M95.2,58.59V24.74h13.44v33.86H95.2z M112.2,24.74h12.21v6.85h0.13c1.88-5.3,5.17-7.82,10.4-7.82c0.58,0,1.16,0.13,1.74,0.19
				V37.4c-0.9-0.13-1.87-0.39-2.78-0.39c-5.49,0-8.27,2.59-8.27,9.89v11.7H112.2L112.2,24.74L112.2,24.74z M139.55,15.56h13.44v6.42
				h-13.44V15.56z M139.55,58.59V24.74h13.44v33.86H139.55z M193.11,58.59h-12.47v-4.98c-3.36,4.65-6.66,5.95-12.21,5.95
				c-7.37,0-12.15-4.52-12.15-14.21V24.74h13.44v18.28c0,4.65,1.62,6.14,4.84,6.14c3.88,0,5.1-2.91,5.1-8.14V24.74h13.44V58.59z
				 M207.33,48.06c0,1.36,0.52,2.39,1.42,3.1c0.84,0.65,2.01,1.04,3.29,1.04c2.07,0,4.27-0.65,4.27-3.04
				c0-5.43-20.74-1.1-20.74-14.22c0-8.66,8.98-11.18,16.02-11.18c7.37,0,16.03,1.68,16.8,10.66h-12.21c-0.13-1.1-0.58-1.87-1.3-2.46
				c-0.71-0.58-1.68-0.84-2.71-0.84c-2.33,0-3.81,0.71-3.81,2.39c0,4.72,21.38,1.55,21.38,14.22c0,7.04-5.81,11.82-18.22,11.82
				c-7.75,0-16.28-2.39-16.99-11.5L207.33,48.06L207.33,48.06z"/>
			<path class="st0" d="M242.82,36.57l-13.76-19.89h18.38l5.25,10.42l5.57-10.42h18.14l-14.24,19.81l14.4,21.87h-18.45l-5.89-11.93
				l-6.04,11.93h-18.3L242.82,36.57L242.82,36.57z M277.58,16.68h15.2v6.2c2.07-3.18,5.83-7.39,11.8-7.39
				c6.9,0,11.08,3.18,13.07,7.63c3.58-5.01,6.72-7.63,12.75-7.63c10.49,0,15.65,6.83,15.65,18.21v24.66h-16.54V37.13
				c0-6.13-0.4-8.59-4.78-8.58c-4.65,0.01-4.61,4.2-4.61,9.21v20.6h-16.55V37.13c0-6.13-0.36-8.47-4.77-8.59
				c-4.54-0.12-4.66,4.21-4.66,9.22v20.6h-16.55V16.68z"/>
		</g>
		<g>
			<path class="st0" d="M345.45,9.21c-2.45,0-4.45,1.99-4.45,4.44v0.02c0.01,2.44,1.99,4.42,4.43,4.41c2.45,0,4.44-1.98,4.45-4.44
				v-0.02C349.87,11.18,347.89,9.21,345.45,9.21z M345.43,17.5c-2.09,0.02-3.8-1.66-3.82-3.75c0-0.03,0-0.06,0-0.08v-0.02
				c0-2.16,1.69-3.86,3.84-3.86c2.14,0,3.82,1.68,3.82,3.83v0.02C349.27,15.81,347.58,17.5,345.43,17.5L345.43,17.5z"/>
			<path class="st0" d="M347.47,12.71v-0.03c0-0.4-0.13-0.72-0.37-0.95c-0.31-0.32-0.79-0.49-1.39-0.49h-2.04v4.57h0.87v-1.58h0.95
				l1.11,1.58h1.04l-1.23-1.72C347.04,13.9,347.47,13.44,347.47,12.71L347.47,12.71z M345.68,13.47h-1.13v-1.45h1.13
				c0.57,0,0.9,0.25,0.9,0.71v0.02C346.58,13.19,346.24,13.47,345.68,13.47z"/>
		</g>
	</g>
</g>
</svg>
