<?xml version="1.0" encoding="utf-8"?>
<!-- Generator: Adobe Illustrator 25.4.1, SVG Export Plug-In . SVG Version: 6.00 Build 0)  -->
<svg version="1.1" id="Layer_1" xmlns="http://www.w3.org/2000/svg" xmlns:xlink="http://www.w3.org/1999/xlink" x="0px" y="0px"
	 viewBox="0 0 250.31 118.66" style="enable-background:new 0 0 250.31 118.66;" xml:space="preserve">
<style type="text/css">
	.st0{fill:#FFFFFF;}
	.st1{clip-path:url(#SVGID_00000063635536255218472100000003176333816276633730_);}
	.st2{clip-path:url(#SVGID_00000088848848509011130070000006207050291456161428_);}
	.st3{fill:#FFFFFF;stroke:#FFFFFF;stroke-width:0.75;stroke-miterlimit:10;}
	.st4{opacity:0.81;}
	.st5{fill:url(#SVGID_00000083793674327427763370000017115441864205163679_);}
	.st6{opacity:0.3;}
	.st7{fill:#F2F2F2;}
	.st8{opacity:0.61;fill:#F2F2F2;}
	.st9{opacity:0.69;fill:#F2F2F2;}
	.st10{opacity:0.53;}
	.st11{opacity:0.64;fill:#F2F2F2;}
	.st12{fill:#003800;}
	.st13{fill:#DC3285;}
	.st14{fill:#A52065;}
	.st15{fill:#005700;}
	.st16{fill:#2F6E0C;}
	.st17{clip-path:url(#SVGID_00000076571517880558965210000005375152888608514720_);fill:#007400;}
	.st18{opacity:0.62;clip-path:url(#SVGID_00000076571517880558965210000005375152888608514720_);}
	.st19{fill:none;stroke:#000000;stroke-width:6;stroke-miterlimit:10;}
	.st20{fill:#007400;}
	.st21{fill:#6AD542;}
	.st22{opacity:0.77;fill:url(#);}
	.st23{opacity:0.47;}
	.st24{fill:none;stroke:#000000;stroke-width:6;stroke-linecap:round;stroke-miterlimit:10;}
	.st25{fill:none;stroke:#DC3285;stroke-width:5;stroke-linecap:round;stroke-linejoin:round;stroke-miterlimit:10;}
	.st26{clip-path:url(#SVGID_00000095325184134380011620000003985338910600512155_);fill:#FFFFFF;}
	.st27{fill:#FFA002;}
	.st28{opacity:0.64;clip-path:url(#SVGID_00000140002458989886398450000016877846689368582556_);fill:#FFFFFF;}
	.st29{opacity:0.61;clip-path:url(#SVGID_00000132794593688627948040000000815684723540043150_);fill:#FFFFFF;}
	.st30{clip-path:url(#SVGID_00000137824555832028126080000010715321611011334821_);}
	.st31{fill:#999999;}
	.st32{fill:#1A1A1A;}
	.st33{opacity:0.43;fill:#FFFFFF;}
	.st34{opacity:0.43;fill:none;stroke:#FFFFFF;stroke-width:7;stroke-linecap:round;stroke-miterlimit:10;}
	.st35{fill:#6AD542;stroke:#FFFFFF;stroke-width:7;stroke-linecap:round;stroke-miterlimit:10;}
	.st36{fill:none;stroke:#E6E6E6;stroke-width:13;stroke-linecap:round;stroke-linejoin:round;stroke-miterlimit:10;}
	.st37{clip-path:url(#SVGID_00000168817898899644349060000008326413337610756745_);}
	.st38{opacity:0.43;fill:none;stroke:#1A1A1A;stroke-width:6;stroke-miterlimit:10;}
	.st39{fill:#666666;}
	.st40{fill:none;stroke:#FFFFFF;stroke-width:13;stroke-linecap:round;stroke-linejoin:round;stroke-miterlimit:10;}
	.st41{fill:none;stroke:#FFFFFF;stroke-width:11;stroke-linecap:round;stroke-linejoin:round;stroke-miterlimit:10;}
	.st42{fill:none;stroke:#FFE500;stroke-width:10;stroke-linecap:round;stroke-miterlimit:10;}
	.st43{clip-path:url(#SVGID_00000036963786805210508700000017343916041655857041_);fill:#DC3285;}
	.st44{clip-path:url(#SVGID_00000036963786805210508700000017343916041655857041_);fill:#FFFFFF;}
	.st45{clip-path:url(#SVGID_00000036963786805210508700000017343916041655857041_);fill:#333333;}
	.st46{clip-path:url(#SVGID_00000102531696761929443410000005087616920312287407_);fill:#DC3285;}
	.st47{clip-path:url(#SVGID_00000102531696761929443410000005087616920312287407_);fill:#FFFFFF;}
	.st48{clip-path:url(#SVGID_00000102531696761929443410000005087616920312287407_);fill:#333333;}
	.st49{fill:#56BE2F;}
	.st50{opacity:0.55;}
	.st51{fill:none;stroke:#000000;stroke-width:15;stroke-linecap:round;stroke-linejoin:round;stroke-miterlimit:10;}
	.st52{fill:#5C1537;}
	.st53{clip-path:url(#SVGID_00000023997197440330578100000001816433536206007945_);fill:#26AD35;}
	.st54{clip-path:url(#SVGID_00000023997197440330578100000001816433536206007945_);fill:#6AD542;}
	.st55{clip-path:url(#SVGID_00000023997197440330578100000001816433536206007945_);fill:#56BE2F;}
	.st56{clip-path:url(#SVGID_00000014602084340282358300000005920915234582934713_);fill:#45A840;}
	.st57{clip-path:url(#SVGID_00000014602084340282358300000005920915234582934713_);fill:#56BE2F;}
	.st58{clip-path:url(#SVGID_00000112590910264238760270000015365118692000827037_);fill:#45A840;}
	.st59{clip-path:url(#SVGID_00000112590910264238760270000015365118692000827037_);fill:#56BE2F;}
	.st60{clip-path:url(#SVGID_00000134238499182276736440000013845706897584375999_);fill:#6AD542;}
	.st61{opacity:0.7;clip-path:url(#SVGID_00000134238499182276736440000013845706897584375999_);}
	.st62{fill:#27B136;}
	.st63{clip-path:url(#SVGID_00000008122711825649019170000005942259433645978759_);fill:#3E8913;}
	.st64{clip-path:url(#SVGID_00000008122711825649019170000005942259433645978759_);fill:#6AD542;}
	.st65{clip-path:url(#SVGID_00000116941050252259066170000008301934526651102116_);fill:#29BD3A;}
	.st66{clip-path:url(#SVGID_00000116941050252259066170000008301934526651102116_);fill:#6AD542;}
	.st67{clip-path:url(#SVGID_00000115516228470328364170000016733477498545308854_);fill:#6AD542;}
	.st68{opacity:0.7;clip-path:url(#SVGID_00000115516228470328364170000016733477498545308854_);}
	.st69{clip-path:url(#SVGID_00000084525282688010571760000000706606431991289515_);fill:#6AD542;}
	.st70{opacity:0.56;clip-path:url(#SVGID_00000084525282688010571760000000706606431991289515_);fill:#26AD35;}
	.st71{clip-path:url(#SVGID_00000081633381025913297420000008197453439751897278_);fill:#45A840;}
	.st72{clip-path:url(#SVGID_00000081633381025913297420000008197453439751897278_);fill:#56BE2F;}
	.st73{fill:#333333;}
	.st74{opacity:0.42;fill:#292929;}
	.st75{opacity:0.15;fill:url(#);}
	.st76{clip-path:url(#SVGID_00000106138697322383963560000008706034765459229091_);fill:#3E8913;}
	.st77{clip-path:url(#SVGID_00000106138697322383963560000008706034765459229091_);fill:#6AD542;}
	.st78{fill:none;stroke:#000000;stroke-width:4;stroke-miterlimit:10;}
	.st79{fill:#00ADEE;}
	.st80{fill:#FFE500;}
	.st81{opacity:0.66;fill:#FFA002;}
	.st82{clip-path:url(#SVGID_00000150074530896902891430000001280061673866306707_);fill:#29BD3A;}
	.st83{clip-path:url(#SVGID_00000150074530896902891430000001280061673866306707_);fill:#6AD542;}
	.st84{fill:#00CCFF;}
	.st85{fill:#29BD3A;}
	.st86{fill:#FFD900;}
	.st87{fill:#EB8AB9;}
	.st88{opacity:0.78;fill:#E04B94;}
	.st89{clip-path:url(#SVGID_00000102511321507084023310000001589704861822988680_);fill:#6AD542;}
	.st90{opacity:0.7;clip-path:url(#SVGID_00000102511321507084023310000001589704861822988680_);}
	.st91{fill:#8BE04A;}
	.st92{opacity:0.28;fill:url(#SVGID_00000091696509156697641290000014046280372278366133_);}
	.st93{opacity:0.7;fill:url(#SVGID_00000078043499173813513690000015792380869208043697_);}
	.st94{clip-path:url(#SVGID_00000049921587246750505050000008032350145721351553_);fill:#DC3285;}
	.st95{clip-path:url(#SVGID_00000049921587246750505050000008032350145721351553_);fill:#FFCD55;}
	.st96{clip-path:url(#SVGID_00000049921587246750505050000008032350145721351553_);fill:#45C8F5;}
	.st97{clip-path:url(#SVGID_00000041264736409590464170000008500253691807501458_);fill:#FFFFFF;}
	.st98{clip-path:url(#SVGID_00000041264736409590464170000008500253691807501458_);}
	.st99{clip-path:url(#SVGID_00000054977172563965336700000012601340348865784726_);fill:#333333;}
	.st100{clip-path:url(#SVGID_00000054977172563965336700000012601340348865784726_);fill:#FFCD55;}
	.st101{clip-path:url(#SVGID_00000054977172563965336700000012601340348865784726_);}
	.st102{fill:#E6E6E6;}
	.st103{fill:#FFCD55;}
	.st104{opacity:0.73;fill:#FFFFFF;}
	.st105{opacity:0.73;fill:none;stroke:#FFFFFF;stroke-width:29;stroke-linecap:round;stroke-miterlimit:10;}
	.st106{opacity:0.26;fill:#FFFFFF;}
	.st107{opacity:0.26;fill:none;stroke:#FFFFFF;stroke-width:29;stroke-linecap:round;stroke-miterlimit:10;}
	.st108{fill:#45C8F5;}
	.st109{fill:#231F20;}
	.st110{clip-path:url(#SVGID_00000139976831182461027540000016557878741356293283_);}
	.st111{fill:url(#SVGID_00000054988069522042698520000017368436694285539771_);}
	.st112{clip-path:url(#SVGID_00000139976831182461027540000016557878741356293283_);fill:#FFA002;}
	.st113{opacity:0.5;}
	.st114{fill:none;}
	.st115{fill:#CCCCCC;}
	.st116{fill:#B3B3B3;}
	.st117{fill:none;stroke:#FFE500;stroke-width:7;stroke-linecap:round;stroke-miterlimit:10;}
	.st118{fill:none;stroke:#FFE500;stroke-width:7;stroke-linecap:round;stroke-miterlimit:10;stroke-dasharray:10.0084,20.0167;}
	.st119{fill:url(#SVGID_00000005952424617348095920000009044958652906662793_);}
	.st120{opacity:0.7;fill:#B3B3B3;}
	.st121{fill:url(#SVGID_00000143592170156045401230000014473844441229836730_);}
	.st122{clip-path:url(#SVGID_00000161592603160074991710000010583305199722992519_);fill:#8BE04A;}
	
		.st123{opacity:0.55;clip-path:url(#SVGID_00000161592603160074991710000010583305199722992519_);fill:url(#SVGID_00000006669103153516780410000011930622606627777983_);}
	.st124{fill:#E567A5;}
	.st125{fill:url(#SVGID_00000049196698696713489330000009576664721525403047_);}
	.st126{fill:#00ACD6;}
	.st127{fill:#9E005D;}
	.st128{fill:url(#SVGID_00000183238251795383887150000002867871248614531999_);}
	.st129{fill:none;stroke:#FFCD55;stroke-width:5;stroke-linecap:round;stroke-miterlimit:10;}
	.st130{fill:none;stroke:#FFCD55;stroke-width:5;stroke-linecap:round;stroke-miterlimit:10;stroke-dasharray:9.3355,18.6709;}
	.st131{fill:url(#SVGID_00000130635638221246235040000009831583999038089346_);}
	.st132{fill:url(#SVGID_00000027568115894221701110000004004825492482781317_);}
	.st133{clip-path:url(#SVGID_00000170259072853512903610000003689634836174948023_);fill:#007400;}
	.st134{opacity:0.62;clip-path:url(#SVGID_00000170259072853512903610000003689634836174948023_);}
	.st135{clip-path:url(#SVGID_00000170263397370890272740000003536104485021638274_);fill:#FFFFFF;}
	.st136{opacity:0.64;clip-path:url(#SVGID_00000109023069705630803030000012657366301405230494_);fill:#FFFFFF;}
	.st137{opacity:0.61;clip-path:url(#SVGID_00000169519585061894545970000005012864346966604419_);fill:#FFFFFF;}
	.st138{clip-path:url(#SVGID_00000109023684027562257630000001855002608953563563_);}
	.st139{clip-path:url(#SVGID_00000139270290748037953060000003738603653836990374_);}
	.st140{clip-path:url(#SVGID_00000034072948601678232360000001139612745576124578_);fill:#DC3285;}
	.st141{clip-path:url(#SVGID_00000034072948601678232360000001139612745576124578_);fill:#FFFFFF;}
	.st142{clip-path:url(#SVGID_00000034072948601678232360000001139612745576124578_);fill:#333333;}
	.st143{clip-path:url(#SVGID_00000046297016958021541220000006887827872201837737_);fill:#DC3285;}
	.st144{clip-path:url(#SVGID_00000046297016958021541220000006887827872201837737_);fill:#FFFFFF;}
	.st145{clip-path:url(#SVGID_00000046297016958021541220000006887827872201837737_);fill:#333333;}
	.st146{clip-path:url(#SVGID_00000127013919876501398340000015319877642902904487_);fill:#26AD35;}
	.st147{clip-path:url(#SVGID_00000127013919876501398340000015319877642902904487_);fill:#6AD542;}
	.st148{clip-path:url(#SVGID_00000127013919876501398340000015319877642902904487_);fill:#56BE2F;}
	.st149{clip-path:url(#SVGID_00000163051694076938784600000000446670006145700527_);fill:#45A840;}
	.st150{clip-path:url(#SVGID_00000163051694076938784600000000446670006145700527_);fill:#56BE2F;}
	.st151{clip-path:url(#SVGID_00000162313664843043394500000005594756236688225178_);fill:#45A840;}
	.st152{clip-path:url(#SVGID_00000162313664843043394500000005594756236688225178_);fill:#56BE2F;}
	.st153{clip-path:url(#SVGID_00000108296105783712710150000000356418513295838887_);fill:#6AD542;}
	.st154{opacity:0.7;clip-path:url(#SVGID_00000108296105783712710150000000356418513295838887_);}
	.st155{clip-path:url(#SVGID_00000053509841642684397810000000379820690573194654_);fill:#3E8913;}
	.st156{clip-path:url(#SVGID_00000053509841642684397810000000379820690573194654_);fill:#6AD542;}
	.st157{clip-path:url(#SVGID_00000155851001097065149500000011589309265778470068_);fill:#29BD3A;}
	.st158{clip-path:url(#SVGID_00000155851001097065149500000011589309265778470068_);fill:#6AD542;}
	.st159{clip-path:url(#SVGID_00000182507258826797110910000015075809806289655470_);fill:#6AD542;}
	.st160{opacity:0.7;clip-path:url(#SVGID_00000182507258826797110910000015075809806289655470_);}
	.st161{clip-path:url(#SVGID_00000105403559331000442550000017423184703512560318_);fill:#6AD542;}
	.st162{opacity:0.56;clip-path:url(#SVGID_00000105403559331000442550000017423184703512560318_);fill:#26AD35;}
	.st163{clip-path:url(#SVGID_00000013882028588170940260000013960432985869462669_);fill:#45A840;}
	.st164{clip-path:url(#SVGID_00000013882028588170940260000013960432985869462669_);fill:#56BE2F;}
	.st165{clip-path:url(#SVGID_00000010281255436164755150000010284496102230796939_);fill:#3E8913;}
	.st166{clip-path:url(#SVGID_00000010281255436164755150000010284496102230796939_);fill:#6AD542;}
	.st167{clip-path:url(#SVGID_00000036214341644190012020000012882677287442348948_);fill:#29BD3A;}
	.st168{clip-path:url(#SVGID_00000036214341644190012020000012882677287442348948_);fill:#6AD542;}
	.st169{clip-path:url(#SVGID_00000134931140660049316940000000636446842411523733_);fill:#6AD542;}
	.st170{opacity:0.7;clip-path:url(#SVGID_00000134931140660049316940000000636446842411523733_);}
	.st171{opacity:0.28;fill:url(#SVGID_00000126315752348862902000000015586213109031392674_);}
	.st172{opacity:0.7;fill:url(#SVGID_00000021841083067439148520000006458564940387371147_);}
	.st173{clip-path:url(#SVGID_00000017485052016709962540000012488489354198392225_);}
	.st174{clip-path:url(#SVGID_00000032606346323467203780000015598169737915126402_);}
	.st175{clip-path:url(#SVGID_00000100369366807677614180000008982983107433946027_);fill:#FFFFFF;}
	.st176{clip-path:url(#SVGID_00000100369366807677614180000008982983107433946027_);}
	.st177{clip-path:url(#SVGID_00000112612615436690340950000009711383686722974597_);fill:#333333;}
	.st178{clip-path:url(#SVGID_00000112612615436690340950000009711383686722974597_);fill:#FFCD55;}
	.st179{clip-path:url(#SVGID_00000112612615436690340950000009711383686722974597_);}
	.st180{clip-path:url(#SVGID_00000103229444593760426490000005207899766593795254_);}
	.st181{fill:url(#SVGID_00000090294866230826224050000006214772113707090349_);}
	.st182{clip-path:url(#SVGID_00000103229444593760426490000005207899766593795254_);fill:#FFA002;}
	.st183{fill:url(#SVGID_00000066494097081725414170000018212506180576291007_);}
	.st184{clip-path:url(#SVGID_00000042716113184715339550000004086666687359093911_);fill:#8BE04A;}
	
		.st185{opacity:0.55;clip-path:url(#SVGID_00000042716113184715339550000004086666687359093911_);fill:url(#SVGID_00000153674589225277291190000004257456320081296020_);}
	.st186{fill:#009245;}
	.st187{clip-path:url(#SVGID_00000043432060638304941000000016228106313758993081_);}
	.st188{fill:none;stroke:#FFFFFF;stroke-width:27;stroke-linecap:round;stroke-miterlimit:10;}
	.st189{fill:none;stroke:#2CAF4B;stroke-width:61;stroke-linecap:round;stroke-linejoin:round;stroke-miterlimit:10;}
	.st190{fill:none;stroke:#DC3285;stroke-width:13;stroke-linecap:round;stroke-linejoin:round;stroke-miterlimit:10;}
	.st191{fill:#2CAF4B;}
	.st192{opacity:0.1;}
	.st193{fill:#151814;}
	.st194{fill:none;stroke:#DC3285;stroke-width:30;stroke-miterlimit:10;}
	.st195{fill:#DC3285;stroke:#E567A5;stroke-width:6;stroke-miterlimit:10;}
	.st196{fill:#282560;}
	.st197{fill:url(#SVGID_00000010999741862835703060000011433449567664909229_);}
	.st198{fill:url(#SVGID_00000080170207902630888630000008920867929048404383_);}
	.st199{clip-path:url(#SVGID_00000057869020350887289360000004777517937844761249_);}
	.st200{clip-path:url(#SVGID_00000167372960733138534270000001846940379569821071_);}
	.st201{clip-path:url(#SVGID_00000111876351903121274140000005436141088756424634_);}
	.st202{fill:#006600;}
	.st203{opacity:0.77;}
	.st204{clip-path:url(#SVGID_00000142884524250148519950000012343505167048837273_);}
	.st205{clip-path:url(#SVGID_00000181065379202872988730000015041072270888815244_);}
	.st206{clip-path:url(#SVGID_00000179647333042340264970000003612450207476532392_);}
	.st207{clip-path:url(#SVGID_00000071521523484588075010000014834556710040111510_);}
	.st208{clip-path:url(#SVGID_00000107558573465300352640000013725329486565977759_);}
	.st209{clip-path:url(#SVGID_00000080182097774545948340000015172926701024418995_);}
	.st210{clip-path:url(#SVGID_00000096760127036798960760000014659454758585796248_);}
	.st211{clip-path:url(#SVGID_00000054229002539018388650000003276029302234976933_);}
	.st212{clip-path:url(#SVGID_00000090994548382279940820000008224859964679598267_);}
	.st213{clip-path:url(#SVGID_00000088093330243351516890000011962118630391562419_);}
	.st214{clip-path:url(#SVGID_00000016773720269768937000000004170372114783210627_);}
	.st215{clip-path:url(#SVGID_00000091725583263520630080000005652281127240085392_);fill:#FFFFFF;}
	.st216{opacity:0.64;clip-path:url(#SVGID_00000074422851953484750980000002317100852664064141_);fill:#FFFFFF;}
	.st217{opacity:0.61;clip-path:url(#SVGID_00000101091886593799923600000009410898435584177823_);fill:#FFFFFF;}
	.st218{opacity:0.43;}
	.st219{fill:#4D4D4D;}
	.st220{fill:#3B3B3B;}
	.st221{clip-path:url(#SVGID_00000145767072325602173220000017145742322091075760_);fill:#DC3285;}
	.st222{clip-path:url(#SVGID_00000145767072325602173220000017145742322091075760_);fill:#FFFFFF;}
	.st223{clip-path:url(#SVGID_00000145767072325602173220000017145742322091075760_);fill:#333333;}
	.st224{clip-path:url(#SVGID_00000145036831500250290700000002806244329922725522_);fill:#DC3285;}
	.st225{clip-path:url(#SVGID_00000145036831500250290700000002806244329922725522_);fill:#FFFFFF;}
	.st226{clip-path:url(#SVGID_00000145036831500250290700000002806244329922725522_);fill:#333333;}
	.st227{fill:#26AD35;}
	.st228{fill:#45A840;}
	.st229{opacity:0.56;fill:#26AD35;}
	.st230{opacity:0.42;}
	.st231{fill:#292929;}
	.st232{opacity:0.15;}
	.st233{clip-path:url(#SVGID_00000010285331774685606170000007536850633068253345_);}
	.st234{clip-path:url(#SVGID_00000029037164000880677940000003233681061536794293_);}
	.st235{clip-path:url(#SVGID_00000066485223842612551260000006106247410697099936_);}
	.st236{clip-path:url(#SVGID_00000091708606387427074470000010000356033417904280_);}
	.st237{clip-path:url(#SVGID_00000035497975696317150250000008680765111713717166_);}
	.st238{clip-path:url(#SVGID_00000018215804328047752950000009326147880448419263_);}
	.st239{clip-path:url(#SVGID_00000016761981263263037670000004109267159227600309_);}
	.st240{clip-path:url(#SVGID_00000021823349130890029520000002045671326022738580_);}
	.st241{clip-path:url(#SVGID_00000107581165397828029100000001745519121781378203_);}
	.st242{clip-path:url(#SVGID_00000149343667398052463070000000663909150736519084_);}
	.st243{clip-path:url(#SVGID_00000040540835636516830770000001630187433534784405_);}
	.st244{clip-path:url(#SVGID_00000027593784053554682940000009568980151622836874_);}
	.st245{clip-path:url(#SVGID_00000177476932952851312960000007293582706388487342_);}
	.st246{clip-path:url(#SVGID_00000080919287142267837130000001249290040684317836_);}
	.st247{clip-path:url(#SVGID_00000008870338737256684220000000874242203221377947_);}
	.st248{clip-path:url(#SVGID_00000091010428945751612480000013454931427365005705_);}
	.st249{clip-path:url(#SVGID_00000011735626771246388500000009308639177888470437_);}
	.st250{clip-path:url(#SVGID_00000073694410919644562210000013247671922935964345_);}
	.st251{clip-path:url(#SVGID_00000066499974002644371670000013959383899719789446_);}
	.st252{clip-path:url(#SVGID_00000144313613191523538440000009510218749095560368_);}
	.st253{clip-path:url(#SVGID_00000039099570147602287110000003693558748240518790_);}
	.st254{clip-path:url(#SVGID_00000083770344884699093490000008328785983058750621_);}
	.st255{clip-path:url(#SVGID_00000003822919326605935260000012890089868753068988_);}
	.st256{clip-path:url(#SVGID_00000143592017077349074320000008843456093320993671_);}
	.st257{clip-path:url(#SVGID_00000060007212983580905290000004758273192712904596_);}
	.st258{clip-path:url(#SVGID_00000047018705245074834420000012584070441815124622_);}
	.st259{clip-path:url(#SVGID_00000181063892691306940380000011744481068266295682_);}
	.st260{clip-path:url(#SVGID_00000022554775993104295740000013232900676519534246_);}
	.st261{clip-path:url(#SVGID_00000052786139642899763920000001488198880375092662_);}
	.st262{clip-path:url(#SVGID_00000165946836255375166860000015660235520393812893_);}
	.st263{clip-path:url(#SVGID_00000125584268482126273120000007273691016111379110_);}
	.st264{clip-path:url(#SVGID_00000119080110862940879380000017369359238732328587_);}
	.st265{clip-path:url(#SVGID_00000171688126244709475600000008651249904835640214_);}
	.st266{clip-path:url(#SVGID_00000044151698442394834090000009190283008427554440_);}
	.st267{clip-path:url(#SVGID_00000166671177173357182730000015304770383164309164_);}
	.st268{clip-path:url(#SVGID_00000153664241236915801910000005161636802094069172_);}
	.st269{clip-path:url(#SVGID_00000062179460763072068400000013105736534451213969_);}
	.st270{clip-path:url(#SVGID_00000155119795649215737250000004551696778357258139_);}
	.st271{clip-path:url(#SVGID_00000170977540750105868400000001374485057740487603_);}
	.st272{clip-path:url(#SVGID_00000048458794736245673240000002092499982194095775_);}
	.st273{clip-path:url(#SVGID_00000177463661912355718940000000279525723154099600_);}
	.st274{clip-path:url(#SVGID_00000163030455354350283140000012467628013147932084_);}
	.st275{clip-path:url(#SVGID_00000064314250360301256570000003413876267601763725_);}
	.st276{clip-path:url(#SVGID_00000018924320607381634690000003266008881598395278_);}
	.st277{clip-path:url(#SVGID_00000013158901579709690230000007659581490672345246_);}
	.st278{clip-path:url(#SVGID_00000163787047335184715180000007992535887854379960_);}
	.st279{clip-path:url(#SVGID_00000040558294452278142540000013889842154835377337_);}
	.st280{clip-path:url(#SVGID_00000088108919662058293380000008590650689368745619_);}
	.st281{clip-path:url(#SVGID_00000176724340503531238170000017040189460798483350_);}
	.st282{clip-path:url(#SVGID_00000057130324134970792810000014352822980656664461_);}
	.st283{clip-path:url(#SVGID_00000177451784878088915150000014307477301894384809_);}
	.st284{clip-path:url(#SVGID_00000000903980239098498260000013518792010454919345_);}
	.st285{clip-path:url(#SVGID_00000182521555366984215140000011962004594123952534_);}
	.st286{clip-path:url(#SVGID_00000051348530538794047080000011551960159382394283_);}
	.st287{clip-path:url(#SVGID_00000103256709042185050710000012230491787785688741_);}
	.st288{clip-path:url(#SVGID_00000013174441488490209790000003152418497225962145_);}
	.st289{clip-path:url(#SVGID_00000117635246167280304580000017391460353585931405_);}
	.st290{clip-path:url(#SVGID_00000060718981411995269120000007744791657824089790_);}
	.st291{clip-path:url(#SVGID_00000036248546280771460220000005893331844452855217_);}
	.st292{clip-path:url(#SVGID_00000164489138856922452570000009032135021792475805_);}
	.st293{clip-path:url(#SVGID_00000047033897445121757690000013306173242202125483_);}
	.st294{clip-path:url(#SVGID_00000039123708076723252050000003793475032445537411_);}
	.st295{clip-path:url(#SVGID_00000021817812496310618500000015662499456517358995_);}
	.st296{clip-path:url(#SVGID_00000146479711489059826080000003426117297498729878_);}
	.st297{clip-path:url(#SVGID_00000017506627318222143930000002604241979076142780_);}
	.st298{clip-path:url(#SVGID_00000062181627290516377960000016711766381656232894_);}
	.st299{clip-path:url(#SVGID_00000159454457494470715510000000430939712131378332_);}
	.st300{clip-path:url(#SVGID_00000165946796691420954120000008020315078135184821_);}
	.st301{clip-path:url(#SVGID_00000096050913956763039940000011712076216098861463_);}
	.st302{clip-path:url(#SVGID_00000053511845886572175040000015061808054126588056_);}
	.st303{clip-path:url(#SVGID_00000078015755037606706120000005051692410949968561_);}
	.st304{clip-path:url(#SVGID_00000068670570194628605770000005473853878821628833_);}
	.st305{clip-path:url(#SVGID_00000060717604989355896390000002838803137142819712_);}
	.st306{clip-path:url(#SVGID_00000176732142632035457560000002879773899972146863_);}
	.st307{clip-path:url(#SVGID_00000118398494544464964330000006529994373695470999_);}
	.st308{clip-path:url(#SVGID_00000088125174651972481830000010934138729622273923_);}
	.st309{clip-path:url(#SVGID_00000026842515225914756410000007006474496624559037_);}
	.st310{clip-path:url(#SVGID_00000012440693051613399240000008827694296319464070_);}
	.st311{clip-path:url(#SVGID_00000170272537591475816990000006370008244435130026_);}
	.st312{clip-path:url(#SVGID_00000165944373821453551660000003219060426316029829_);}
	.st313{clip-path:url(#SVGID_00000145759536101542316930000007542481386847148185_);}
	.st314{clip-path:url(#SVGID_00000019663402728077004400000007717709939994240190_);}
	.st315{fill:#54BA2E;}
	.st316{fill:#008DF2;}
	.st317{opacity:0.76;}
	.st318{clip-path:url(#SVGID_00000132796241042525532400000013290677294134870912_);fill:#0088C7;}
	.st319{clip-path:url(#SVGID_00000132796241042525532400000013290677294134870912_);fill:#0189C8;}
	.st320{clip-path:url(#SVGID_00000132796241042525532400000013290677294134870912_);fill:#028AC9;}
	.st321{clip-path:url(#SVGID_00000132796241042525532400000013290677294134870912_);fill:#048BC9;}
	.st322{clip-path:url(#SVGID_00000132796241042525532400000013290677294134870912_);fill:#058CCA;}
	.st323{clip-path:url(#SVGID_00000132796241042525532400000013290677294134870912_);fill:#068DCB;}
	.st324{clip-path:url(#SVGID_00000132796241042525532400000013290677294134870912_);fill:#078FCC;}
	.st325{clip-path:url(#SVGID_00000132796241042525532400000013290677294134870912_);fill:#0890CC;}
	.st326{clip-path:url(#SVGID_00000132796241042525532400000013290677294134870912_);fill:#0991CD;}
	.st327{clip-path:url(#SVGID_00000132796241042525532400000013290677294134870912_);fill:#0B92CE;}
	.st328{clip-path:url(#SVGID_00000132796241042525532400000013290677294134870912_);fill:#0C93CF;}
	.st329{clip-path:url(#SVGID_00000132796241042525532400000013290677294134870912_);fill:#0D94D0;}
	.st330{clip-path:url(#SVGID_00000132796241042525532400000013290677294134870912_);fill:#0E95D0;}
	.st331{clip-path:url(#SVGID_00000132796241042525532400000013290677294134870912_);fill:#0F96D1;}
	.st332{clip-path:url(#SVGID_00000132796241042525532400000013290677294134870912_);fill:#1097D2;}
	.st333{clip-path:url(#SVGID_00000132796241042525532400000013290677294134870912_);fill:#1198D3;}
	.st334{clip-path:url(#SVGID_00000132796241042525532400000013290677294134870912_);fill:#1399D3;}
	.st335{clip-path:url(#SVGID_00000132796241042525532400000013290677294134870912_);fill:#149AD4;}
	.st336{clip-path:url(#SVGID_00000132796241042525532400000013290677294134870912_);fill:#159BD5;}
	.st337{clip-path:url(#SVGID_00000132796241042525532400000013290677294134870912_);fill:#169CD6;}
	.st338{clip-path:url(#SVGID_00000132796241042525532400000013290677294134870912_);fill:#179DD6;}
	.st339{clip-path:url(#SVGID_00000132796241042525532400000013290677294134870912_);fill:#189ED7;}
	.st340{clip-path:url(#SVGID_00000132796241042525532400000013290677294134870912_);fill:#199FD8;}
	.st341{clip-path:url(#SVGID_00000132796241042525532400000013290677294134870912_);fill:#1AA0D9;}
	.st342{clip-path:url(#SVGID_00000132796241042525532400000013290677294134870912_);fill:#1BA1D9;}
	.st343{clip-path:url(#SVGID_00000132796241042525532400000013290677294134870912_);fill:#1DA2DA;}
	.st344{clip-path:url(#SVGID_00000132796241042525532400000013290677294134870912_);fill:#1EA4DB;}
	.st345{clip-path:url(#SVGID_00000132796241042525532400000013290677294134870912_);fill:#1FA5DC;}
	.st346{clip-path:url(#SVGID_00000132796241042525532400000013290677294134870912_);fill:#20A6DC;}
	.st347{clip-path:url(#SVGID_00000132796241042525532400000013290677294134870912_);fill:#21A7DD;}
	.st348{clip-path:url(#SVGID_00000132796241042525532400000013290677294134870912_);fill:#22A8DE;}
	.st349{clip-path:url(#SVGID_00000132796241042525532400000013290677294134870912_);fill:#23A9DE;}
	.st350{clip-path:url(#SVGID_00000132796241042525532400000013290677294134870912_);fill:#24AADF;}
	.st351{clip-path:url(#SVGID_00000132796241042525532400000013290677294134870912_);fill:#25ABE0;}
	.st352{clip-path:url(#SVGID_00000132796241042525532400000013290677294134870912_);fill:#26ABE1;}
	.st353{clip-path:url(#SVGID_00000132796241042525532400000013290677294134870912_);fill:#27ACE1;}
	.st354{clip-path:url(#SVGID_00000132796241042525532400000013290677294134870912_);fill:#28ADE2;}
	.st355{clip-path:url(#SVGID_00000132796241042525532400000013290677294134870912_);fill:#29AEE3;}
	.st356{clip-path:url(#SVGID_00000132796241042525532400000013290677294134870912_);fill:#2AAFE3;}
	.st357{clip-path:url(#SVGID_00000132796241042525532400000013290677294134870912_);fill:#2BB0E4;}
	.st358{clip-path:url(#SVGID_00000132796241042525532400000013290677294134870912_);fill:#2CB1E5;}
	.st359{clip-path:url(#SVGID_00000132796241042525532400000013290677294134870912_);fill:#2EB2E5;}
	.st360{clip-path:url(#SVGID_00000132796241042525532400000013290677294134870912_);fill:#2FB3E6;}
	.st361{clip-path:url(#SVGID_00000132796241042525532400000013290677294134870912_);fill:#30B4E7;}
	.st362{clip-path:url(#SVGID_00000132796241042525532400000013290677294134870912_);fill:#31B5E7;}
	.st363{clip-path:url(#SVGID_00000132796241042525532400000013290677294134870912_);fill:#32B6E8;}
	.st364{clip-path:url(#SVGID_00000132796241042525532400000013290677294134870912_);fill:#32B7E9;}
	.st365{clip-path:url(#SVGID_00000132796241042525532400000013290677294134870912_);fill:#33B8E9;}
	.st366{clip-path:url(#SVGID_00000132796241042525532400000013290677294134870912_);fill:#34B9EA;}
	.st367{clip-path:url(#SVGID_00000132796241042525532400000013290677294134870912_);fill:#35BAEB;}
	.st368{clip-path:url(#SVGID_00000132796241042525532400000013290677294134870912_);fill:#36BAEB;}
	.st369{clip-path:url(#SVGID_00000132796241042525532400000013290677294134870912_);fill:#37BBEC;}
	.st370{clip-path:url(#SVGID_00000132796241042525532400000013290677294134870912_);fill:#38BCEC;}
	.st371{clip-path:url(#SVGID_00000132796241042525532400000013290677294134870912_);fill:#39BDED;}
	.st372{clip-path:url(#SVGID_00000132796241042525532400000013290677294134870912_);fill:#3ABEEE;}
	.st373{clip-path:url(#SVGID_00000132796241042525532400000013290677294134870912_);fill:#3BBFEE;}
	.st374{clip-path:url(#SVGID_00000132796241042525532400000013290677294134870912_);fill:#3CC0EF;}
	.st375{clip-path:url(#SVGID_00000132796241042525532400000013290677294134870912_);fill:#3DC0F0;}
	.st376{clip-path:url(#SVGID_00000132796241042525532400000013290677294134870912_);fill:#3EC1F0;}
	.st377{clip-path:url(#SVGID_00000132796241042525532400000013290677294134870912_);fill:#3EC2F1;}
	.st378{clip-path:url(#SVGID_00000132796241042525532400000013290677294134870912_);fill:#3FC3F1;}
	.st379{clip-path:url(#SVGID_00000132796241042525532400000013290677294134870912_);fill:#40C3F2;}
	.st380{clip-path:url(#SVGID_00000132796241042525532400000013290677294134870912_);fill:#41C4F2;}
	.st381{clip-path:url(#SVGID_00000132796241042525532400000013290677294134870912_);fill:#42C5F3;}
	.st382{clip-path:url(#SVGID_00000132796241042525532400000013290677294134870912_);fill:#42C6F3;}
	.st383{clip-path:url(#SVGID_00000132796241042525532400000013290677294134870912_);fill:#43C6F4;}
	.st384{clip-path:url(#SVGID_00000132796241042525532400000013290677294134870912_);fill:#44C7F4;}
	.st385{clip-path:url(#SVGID_00000132796241042525532400000013290677294134870912_);fill:#44C8F5;}
	.st386{clip-path:url(#SVGID_00000132796241042525532400000013290677294134870912_);fill:#45C8F5;}
	.st387{fill:url(#SVGID_00000114796648448736498610000014180501703457724586_);}
	.st388{fill:url(#SVGID_00000039124339936704929180000009690620228028793480_);}
	.st389{fill:url(#SVGID_00000119801969978472828640000002523137283622306958_);}
	.st390{fill:url(#SVGID_00000155105309530608962640000016634611839150153113_);}
	.st391{fill:#FF7FC8;}
	.st392{clip-path:url(#SVGID_00000177464403195362221370000014465523415662631323_);fill:#333333;}
	.st393{clip-path:url(#SVGID_00000177464403195362221370000014465523415662631323_);fill:#FFCD55;}
	.st394{clip-path:url(#SVGID_00000177464403195362221370000014465523415662631323_);}
	.st395{fill:#73E1EF;}
	.st396{fill:#0E68A3;}
	.st397{fill:#053483;}
</style>
<g>
	<g class="st113">
		<path class="st0" d="M70.66,118.66c-0.82-0.55-1-1.37-0.68-2.2c0.86-2.27,1.73-4.54,2.76-6.73c0.57-1.2,0.88-2.35,0.88-3.68
			c-0.04-13.92-0.04-27.85-0.05-41.77c0-0.34-0.03-0.68-0.06-1.26c-2.22,0.2-4.37,0.27-6.48,0.61c-3.52,0.56-7.02,1.07-10.58,0.5
			c-1.88-0.3-3.66-0.86-5.14-2.13c-1.54-1.33-1.86-3.89-0.78-5.95c1.04-2,3.23-3.16,5.19-2.54c0.87,0.28,1.77,0.88,2.35,1.59
			c0.64,0.78,1.32,1.37,2.26,1.53c2.19,0.38,4.38,0.84,6.59,0.96c6.87,0.39,13.71-0.11,20.46-1.46c7.46-1.49,14.98-2.32,22.58-2.41
			c3.7-0.04,7.36,0.41,10.96,1.25c4,0.93,5.45,5.19,2.8,8.37c-0.33,0.4-0.87,0.74-1.37,0.85c-1.67,0.37-3.32,0.45-5.01-0.22
			c-3.37-1.33-6.95-1.7-10.53-1.92c-4.2-0.26-8.41-0.54-12.62-0.5c-2.58,0.03-5.17,0.57-7.73,1.03c-1.79,0.33-2.81,1.61-2.81,3.41
			c0.01,2.32,0.23,4.64,0.38,6.97c0.05,0.7,0.39,1.08,1.19,1.08c2.16-0.02,4.31,0.1,6.47,0.04c1.2-0.03,2.34-0.31,3.4-1.1
			c1.83-1.36,3.4-0.98,4.13,1.16c0.94,2.75,1.55,5.62,2.22,8.45c0.09,0.37-0.19,0.96-0.49,1.24c-0.2,0.18-0.87,0.12-1.12-0.09
			c-2.83-2.34-6.15-2.95-9.69-2.8c-1.53,0.06-3.06,0.12-4.59,0.11c-0.98,0-1.39,0.47-1.45,1.38c-0.02,0.35-0.03,0.7-0.04,1.04
			c-0.01,6.54,0,13.09-0.05,19.63c-0.01,1.33,0.35,2.46,1.22,3.44c0.23,0.26,0.45,0.53,0.65,0.81c0.79,1.09,0.72,1.78-0.42,2.52
			c-4.51,2.94-9.03,5.85-13.55,8.76C71.49,118.66,71.07,118.66,70.66,118.66z"/>
		<path class="st0" d="M78.8,0c-0.19,0.76-0.24,1.59-0.59,2.26c-0.6,1.17-1.35,2.27-2.12,3.34c-0.27,0.38-0.78,0.6-1.18,0.89
			c-0.21-0.44-0.44-0.87-0.61-1.32c-0.08-0.21-0.05-0.47-0.07-0.75c-0.93,0-1.83,0-2.77,0c-0.05,0.18-0.13,0.34-0.13,0.5
			c0.04,3.76,0.07,7.51,0.17,11.27c0.01,0.47,0.29,0.98,0.58,1.38c0.76,1.06,0.52,1.85-0.8,1.9c-2.08,0.08-4.16,0.01-6.24-0.07
			c-0.82-0.03-1.18-0.86-0.57-1.51c1.2-1.3,1.17-2.84,1.17-4.4c0.01-2.78,0-5.57-0.01-8.35c0-0.27-0.04-0.54-0.06-0.88
			C63.51,3.96,61.76,4.36,60.39,6c-0.24,0.29-0.61,0.59-0.96,0.65c-1.08,0.16-1.56-0.4-1.01-1.31c0.99-1.63,2.14-3.16,3.28-4.68
			c0.14-0.19,0.69-0.17,1.02-0.11c0.54,0.1,1.07,0.44,1.6,0.44C67.56,1.02,70.8,0.97,74.03,1c1.23,0.01,2.32-0.3,3.31-1
			C77.83,0,78.32,0,78.8,0z"/>
		<path class="st0" d="M54.88,65.7c-0.98,0.97-1.7,1.86-2.59,2.54c-5.63,4.29-12.07,5.77-19.05,5.43c-4.5-0.22-8.95-0.69-13.18-2.37
			c-9.23-3.66-15.14-10.46-18.1-19.78C-2.21,38.4,0.35,26.46,8.89,15.74c4.66-5.85,10.6-9.54,18.08-10.62
			c4.14-0.6,8.26-0.38,12.38,0.19c1.72,0.24,3.43,0.59,5.15,0.82c0.34,0.05,0.8-0.1,1.07-0.32c1.1-0.9,2.13-1.89,3.24-2.8
			c1.27-1.04,2.01-0.95,2.93,0.41c2.4,3.57,4.24,7.44,5.69,11.47c1.14,3.16,1.94,6.44,2.91,9.67c0.19,0.65,0.03,1.16-0.6,1.33
			c-1.12,0.31-2.27,0.59-3.42,0.71c-0.32,0.03-0.83-0.44-1.05-0.8c-1.98-3.16-4.03-6.26-6.66-8.94c-3.53-3.6-7.63-6.11-12.7-6.88
			c-7.02-1.06-12.47,1.5-16.57,7.14c-3.16,4.35-4.73,9.33-5.61,14.56c-1.08,6.41-1.05,12.77,1.16,18.96
			c3.05,8.56,8.94,14.21,17.82,16.25c5.64,1.3,11.3,0.94,16.44-2.23c1.05-0.65,2.02-0.75,3.11-0.15
			C52.97,64.93,53.76,65.21,54.88,65.7z"/>
		<path class="st0" d="M233.54,89.98c1.69-2.57,3.25-4.99,3.93-7.85c0.44-1.87,0.22-2.34-1.35-3.34c-0.37-0.24-0.81-0.5-0.99-0.87
			c-0.53-1.07-0.14-1.75,1.05-1.91c3.64-0.5,7.27-0.21,10.93,0.05c0.12,1.19,0.1,2.12-0.99,2.9c-0.67,0.48-1.09,1.42-1.41,2.24
			c-3.55,9.1-8.74,17.16-15.51,24.16c-4.49,4.64-9.82,8.09-16.2,9.62c-2.71,0.65-5.44,0.79-8.11-0.25
			c-2.87-1.12-4.51-3.29-5.22-6.19c-0.31-1.24,0.24-2.35,1.1-3.22c1.34-1.35,3.01-1.68,4.81-1.24c0.83,0.21,1.38,0.7,1.32,1.72
			c-0.15,2.67,1.49,4.49,4.17,4.74c2.19,0.2,4.2-0.41,6.12-1.4c3.88-2.02,6.85-5.08,9.57-8.42c0.11-0.14,0.22-0.27,0.32-0.41
			c2.12-2.93,2.19-1.79,0.69-5.22c-2.09-4.81-4.43-9.51-6.69-14.24c-0.48-1.02-1.12-1.92-2.23-2.38c-0.83-0.35-0.34-1.04-0.29-1.55
			c0.03-0.29,0.43-0.73,0.72-0.78c1.23-0.19,2.48-0.35,3.73-0.37c2.19-0.03,4.38-0.02,6.56,0.14c0.54,0.04,1.22,0.57,1.5,1.06
			c0.45,0.81,0.01,1.51-0.97,1.93c-0.43,0.18-0.98,0.23-0.84,0.95C229.97,83.45,231.31,86.81,233.54,89.98z"/>
		<path class="st0" d="M202.19,33.01c0-4-0.07-8.01,0.03-12.01c0.04-1.55-0.58-2.42-1.93-2.94c-0.57-0.22-1.13-0.35-1.19-1.22
			c-0.06-0.85,0.37-1.18,0.97-1.52c2.17-1.24,4.34-2.5,6.51-3.74c0.18-0.1,0.38-0.18,0.57-0.26c2.02-0.81,2.41-0.54,2.42,1.62
			c0.02,7.28,0.03,14.55,0.07,21.83c0,0.4,0.21,0.81,0.31,1.21c0.38-0.21,0.83-0.34,1.13-0.63c0.74-0.73,1.46-1.49,2.1-2.31
			c0.56-0.72,0.4-1.37-0.35-1.97c-0.44-0.35-0.71-0.93-1.06-1.4c0.56-0.41,1.11-1.14,1.69-1.16c2.49-0.11,4.99-0.03,7.48,0.03
			c0.69,0.02,1.39,0.14,2.06,0.32c0.89,0.24,1.13,1.01,0.49,1.67c-0.47,0.49-1.09,0.85-1.69,1.18c-0.73,0.4-1.53,0.68-2.26,1.07
			c-1.18,0.64-1.6,1.37-1.04,2.58c1.62,3.49,3.31,6.96,5.17,10.32c0.57,1.03,1.77,1.73,2.73,2.52c0.56,0.46,0.9,0.91,0.8,1.68
			c-0.11,0.89-0.44,1.35-1.45,1.32c-2.02-0.06-4.04-0.04-6.05,0.03c-0.93,0.03-1.5-0.36-1.91-1.14c-1.06-2.04-2.1-4.08-3.2-6.09
			c-0.58-1.07-1.2-2.12-1.91-3.1c-0.72-1-1.22-0.99-2.15-0.17c-0.81,0.72-1.38,1.54-1.19,2.72c0.12,0.75,0.12,1.52,0.19,2.28
			c0.11,1.15,0.34,2.12,1.8,2.34c0.82,0.13,1.07,0.93,0.86,1.75c-0.2,0.78-0.34,1.53-1.48,1.51c-3.45-0.06-6.89-0.04-10.34-0.03
			c-0.83,0-1.04-0.56-1.25-1.16c-0.23-0.64-0.29-1.38,0.39-1.66c2.6-1.07,2.77-3.13,2.65-5.55c-0.16-3.3-0.04-6.61-0.04-9.92
			C202.15,33.01,202.17,33.01,202.19,33.01z"/>
		<path class="st0" d="M29.32,15.85c0,4.86,0,9.41,0,14.03c1.02-0.49,1.92-1,2.88-1.37c3.02-1.16,5.78-0.45,7.93,1.98
			c2.26,2.56,3.51,5.62,3.88,8.96c0.45,4.09,0.44,8.2-0.92,12.18c-1.91,5.57-5.68,9.47-10.87,12.08c-0.62,0.31-1.38,0.36-2.1,0.53
			c-0.29-0.82-0.39-1.43,0.34-1.87c4.73-2.82,6.13-7.4,6.56-12.48c0.36-4.27-0.37-8.4-1.76-12.41c-0.42-1.22-1.18-2.34-1.9-3.44
			c-0.57-0.88-1.91-0.93-2.73-0.25c-0.93,0.78-1.55,1.75-1.51,2.97c0.11,3.05,0.18,6.12,0.51,9.15c0.11,0.97,0.87,1.93,1.52,2.75
			c0.53,0.67,0.64,1.3,0.39,2.02c-0.26,0.78-0.97,0.65-1.59,0.65c-3.03,0-6.06,0-9.09,0c-0.58,0-1.16,0.02-1.25-0.75
			c-0.09-0.73-0.47-1.6,0.46-2.03c1.73-0.82,2.18-2.2,2.18-4.01c0-6.4,0.08-12.81,0.15-19.21c0.01-0.95-0.64-1.23-1.28-1.57
			c-1.71-0.9-1.84-2.18-0.23-3.24c2.2-1.46,4.45-2.85,6.71-4.22C28.03,16.04,28.61,16.03,29.32,15.85z"/>
		<path class="st0" d="M113.03,84.63c0.5-2.4-1.07-4.69-3.3-4.92c-2.15-0.22-4.04,0.54-5.79,1.68c-0.69,0.45-1.39,0.86-2.03,0.12
			c-0.63-0.72-0.4-1.57,0.04-2.33c0.12-0.21,0.3-0.39,0.49-0.53c3.63-2.82,7.63-4.07,12.21-2.85c2.23,0.59,3.79,2.02,4.78,4.05
			c0.53,1.09,0.97,2.23,1.36,3.38c1.06,3.12,2.07,6.27,3.13,9.39c0.69,2.03,0.96,2.19,3.1,2.04c1.21-0.08,1.96,0.83,1.39,1.93
			c-0.38,0.74-1.11,1.55-1.86,1.8c-2.92,0.96-5.81,0.89-8.42-1.01c-0.64-0.47-1.23-0.51-1.8-0.04c-1.27,1.05-2.77,1.53-4.35,1.54
			c-2.45,0.01-4.94,0.04-7.36-0.33c-2.48-0.38-4.19-1.94-4.71-4.54c-0.57-2.8,0.14-5.19,2.43-6.97c2.27-1.76,4.98-2.22,7.75-2.4
			C111.04,84.57,112.01,84.63,113.03,84.63z M111.92,95.31c2.49-0.02,3.85-1.26,3.86-3.52c0-2.43-1.71-4.12-4.16-4.1
			c-2.43,0.02-3.91,1.47-3.87,3.8C107.78,93.8,109.45,95.33,111.92,95.31z"/>
		<path class="st0" d="M182.75,36.9c0.37-3.2-1.96-5.33-5.15-4.64c-1.37,0.3-2.7,0.88-4,1.45c-0.79,0.35-1.53,0.81-2.25,0.01
			c-0.44-0.48-0.06-2.04,0.62-2.55c3.61-2.67,7.6-3.88,12.07-2.89c2.19,0.48,3.88,1.84,4.89,3.78c1.05,2.02,1.88,4.17,2.65,6.31
			c0.86,2.38,1.54,4.83,2.29,7.25c0.31,1.02,1.02,1.43,2.04,1.42c0.38,0,0.77,0.01,1.15,0.04c1.24,0.11,1.59,0.64,1.13,1.82
			c-0.62,1.57-1.92,2.29-3.49,2.44c-2.19,0.22-4.3-0.13-6.15-1.45c-0.81-0.58-1.58-0.43-2.46-0.17c-2.15,0.63-4.31,1.39-6.52,1.67
			c-2.5,0.31-5-0.19-7.29-1.33c-1.58-0.79-2.42-2.12-2.61-3.89c-0.47-4.38,1.15-6.94,5.41-8.07c2.17-0.57,4.44-0.75,6.67-1.1
			C182.09,36.94,182.43,36.93,182.75,36.9z M182.07,47.48c1.94-0.04,3.18-0.93,3.37-2.55c0.19-1.71-0.68-3.07-1.61-4.38
			c-0.1-0.14-0.36-0.2-0.55-0.21c-0.93-0.04-1.87-0.03-2.8-0.07c-1.17-0.05-1.87,0.62-2.38,1.55c-1.41,2.56-0.32,4.93,2.53,5.5
			C181.1,47.41,181.59,47.42,182.07,47.48z"/>
		<path class="st0" d="M169.66,87.16c0.02-5.77,3.03-9.63,8.73-11.19c7.34-2.01,14.45,1.07,17.48,7.57
			c1.01,2.17,1.45,4.44,1.09,6.81c-0.54,3.56-2.57,6.1-5.87,7.41c-4.73,1.88-9.57,2.07-14.35,0.18
			C172.14,96.12,169.65,92.21,169.66,87.16z M189.1,90.81c-0.19-3.74-1.29-7.19-3.8-10.02c-0.82-0.93-1.95-1.73-3.09-2.19
			c-2.44-0.98-4.36,0.08-4.8,2.68c-0.8,4.71,0.39,8.96,3.51,12.6c0.54,0.63,1.33,1.14,2.1,1.48c2.97,1.3,5.78-0.4,6.07-3.61
			C189.12,91.44,189.1,91.13,189.1,90.81z"/>
		<path class="st0" d="M94.08,43c1-0.28,1.76-0.08,2.48,0.55c2.84,2.46,6.09,3.92,9.91,3.64c1-0.07,2.06-0.43,2.91-0.94
			c1.13-0.68,1.06-1.8-0.06-2.5c-0.64-0.4-1.36-0.69-2.08-0.94c-2.3-0.78-4.63-1.49-6.93-2.29c-0.88-0.31-1.76-0.68-2.54-1.18
			c-3.14-2-3.58-4.79-2.5-8.05c0.89-2.68,3.52-3.56,6.18-3.65c1.86-0.06,3.74,0.23,5.6,0.47c1.13,0.15,2.13,0.13,3.01-0.71
			c0.63-0.61,1.42-0.68,1.91,0.04c1.36,2,2.64,4.06,3.87,6.14c0.4,0.69-0.05,1.13-0.78,0.9c-0.95-0.3-1.91-0.66-2.76-1.17
			c-2.08-1.23-4.21-2.36-6.68-2.45c-0.94-0.04-1.94,0.16-2.83,0.5c-1.08,0.41-1.17,1.25-0.31,2.03c1.36,1.23,3.05,1.77,4.8,2.14
			c2.56,0.54,5.08,1.23,7.29,2.7c2.26,1.5,3.94,3.43,3.67,6.34c-0.27,2.88-2.12,4.67-4.64,5.83c-2.64,1.21-5.39,1.23-8.17,0.56
			c-0.57-0.14-1.16-0.25-1.71-0.45c-1.28-0.44-2.28-0.09-3.16,0.93c-1,1.17-1.94,1.05-2.75-0.27c-1.49-2.43-2.99-4.86-3.64-7.69
			C94.13,43.35,94.11,43.22,94.08,43z"/>
		<path class="st0" d="M128.07,42.3c1.37,2.49,2.77,4.73,5.69,4.98c1.3,0.11,2.71-0.18,3.96-0.61c1.46-0.5,2.81-1.35,4.2-2.07
			c0.64-0.33,1.26-0.53,1.79,0.1c0.55,0.64,0.24,1.26-0.26,1.76c-2.74,2.8-6.16,4.24-9.99,4.71c-3.68,0.45-7.18-0.11-10.18-2.44
			c-3.75-2.9-5.24-6.83-4.43-11.45c0.85-4.85,4.02-7.71,8.65-9.03c2.32-0.66,4.7-0.75,7.02-0.19c1.25,0.3,2.5,0.9,3.55,1.64
			c1.98,1.39,3.28,3.39,4.23,5.59c0.5,1.15,0.38,1.47-0.78,1.92c-3.51,1.34-7.03,2.61-10.55,3.93
			C130.04,41.49,129.12,41.88,128.07,42.3z M128.23,38.3c0.03,0.09,0.07,0.18,0.1,0.27c1.78-0.64,3.58-1.25,5.33-1.97
			c0.28-0.11,0.51-0.81,0.44-1.18c-0.25-1.46-1.01-2.66-2.24-3.51c-1.85-1.29-4.23-0.73-5.05,1.36c-0.42,1.07-0.46,2.36-0.39,3.54
			C126.51,38.08,126.98,38.33,128.23,38.3z"/>
		<path class="st0" d="M54.08,42.26c1.13,3.8,4.6,5.87,8.28,4.78c1.71-0.51,3.3-1.42,4.94-2.17c0.32-0.14,0.61-0.48,0.91-0.48
			c0.47,0,1.09,0.09,1.36,0.39c0.22,0.24,0.07,0.88-0.02,1.31c-0.05,0.24-0.33,0.44-0.52,0.64c-4,4.1-11.63,5.72-16.97,3.61
			c-5.02-1.99-7.83-6.48-7.51-12.02c0.27-4.72,3.76-8.8,8.8-10.05c3.56-0.88,7.12-1.01,10.33,1.21c2.12,1.47,3.49,3.55,4.52,5.88
			c0.4,0.9,0.19,1.49-0.79,1.85c-4.08,1.49-8.14,3.02-12.2,4.55C54.81,41.9,54.45,42.09,54.08,42.26z M54.12,38.45
			c1.26-0.36,2.55-0.64,3.79-1.09c2.46-0.89,2.71-1.82,1.21-4.04c-0.06-0.09-0.12-0.17-0.18-0.25c-1.05-1.3-2.32-2.17-4.06-1.71
			c-1.69,0.44-2.46,1.74-2.66,3.38c-0.08,0.68-0.06,1.39,0.05,2.06C52.45,38.04,52.85,38.32,54.12,38.45z"/>
		<path class="st0" d="M233.49,42.31c1.31,2.45,2.67,4.66,5.52,4.97c1.36,0.15,2.85-0.17,4.16-0.61c1.47-0.49,2.81-1.34,4.2-2.07
			c0.64-0.34,1.27-0.52,1.78,0.13c0.51,0.65,0.2,1.26-0.29,1.76c-2.7,2.74-6.04,4.16-9.79,4.68c-3.34,0.46-6.57,0.05-9.43-1.8
			c-4.35-2.81-6.2-6.91-5.36-11.99c0.82-4.95,4.04-7.9,8.79-9.11c3.48-0.89,6.99-0.96,10.13,1.21c2.06,1.42,3.44,3.42,4.46,5.67
			c0.59,1.31,0.48,1.63-0.85,2.13c-3.44,1.31-6.9,2.57-10.35,3.85C235.51,41.49,234.59,41.88,233.49,42.31z M231.55,35.59
			c0.15,2.43,0.9,3.13,3.19,2.59c1.44-0.34,2.84-0.9,4.2-1.48c0.3-0.13,0.61-0.75,0.57-1.11c-0.18-1.64-1.04-2.93-2.44-3.8
			c-1.71-1.06-3.81-0.53-4.73,1.26C231.95,33.83,231.8,34.74,231.55,35.59z"/>
		<path class="st0" d="M78.46,42.26c1.39,2.63,2.88,4.99,6.02,5.03c1.54,0.02,3.12-0.54,4.62-1.04c1.07-0.36,2.05-1.02,3.04-1.59
			c0.68-0.39,1.38-0.68,1.96,0.05c0.59,0.75,0.11,1.38-0.44,1.91c-2.75,2.67-6.09,4.1-9.85,4.54c-3.19,0.37-6.28,0-9.05-1.72
			c-4.2-2.61-6.17-6.49-5.64-11.38c0.55-5.03,3.85-8.53,8.8-9.83c2.33-0.61,4.68-0.66,7.03-0.2c2.13,0.42,3.88,1.57,5.19,3.27
			c0.93,1.2,1.75,2.51,2.46,3.85c0.67,1.27,0.5,1.61-0.82,2.12c-3.31,1.26-6.65,2.45-9.97,3.69C80.73,41.36,79.68,41.79,78.46,42.26
			z M76.57,35.61c0.11,2.41,0.86,3.1,3.15,2.55c1.44-0.35,2.82-0.95,4.22-1.45c0.54-0.19,0.69-0.58,0.59-1.15
			c-0.26-1.48-0.97-2.67-2.16-3.56c-1.97-1.45-4.4-0.77-5.3,1.51C76.81,34.17,76.73,34.91,76.57,35.61z"/>
		<path class="st0" d="M162.35,67.86c0,2.17,0.03,4.38-0.01,6.6c-0.02,1.03,0.37,1.44,1.4,1.41c1.53-0.05,3.06-0.02,4.59,0
			c0.55,0.01,1.1,0.07,1.96,0.12c-0.27,1.14-0.46,2.17-0.77,3.17c-0.06,0.2-0.52,0.38-0.81,0.4c-1.53,0.08-3.06,0.06-4.59,0.16
			c-1.25,0.09-1.82,0.6-1.82,1.84c0.02,3.72,0.08,7.44,0.27,11.15c0.09,1.67,1.25,2.38,2.86,1.94c0.86-0.23,1.66-0.68,2.48-1.05
			c0.81-0.37,1.63-0.77,2.42-0.04c0.51,0.48,0.32,1.62-0.55,2.42c-0.75,0.7-1.62,1.36-2.55,1.74c-3.24,1.33-6.57,1.36-9.89,0.28
			c-2.27-0.74-3.54-2.38-3.52-4.75c0.02-2.39,0.34-4.78,0.45-7.17c0.07-1.59-0.02-3.19-0.01-4.78c0.01-0.97-0.42-1.5-1.41-1.55
			c-0.14-0.01-0.27-0.06-0.4-0.1c-1.38-0.37-1.77-1.66-0.79-2.69c2.67-2.79,5.37-5.55,8-8.38
			C160.35,67.83,161.03,67.44,162.35,67.86z"/>
		<path class="st0" d="M139.48,99.06c-2.27-0.45-4.62-0.69-6.81-1.4c-3.97-1.28-5.77-4.37-6.45-8.35
			c-1.18-6.87,4.11-11.65,8.79-13.26c4.56-1.57,8.99-0.84,13.3,1c0.55,0.24,1.09,0.66,1.46,1.14c0.29,0.36,0.53,1.02,0.39,1.41
			c-0.56,1.6-1.21,3.19-1.97,4.7c-0.25,0.5-1.08,1.14-1.46,1.04c-0.63-0.17-1.27-0.8-1.62-1.4c-0.75-1.28-1.22-2.72-1.96-4.01
			c-1.64-2.83-5.59-2.01-6.86-0.17c-2.83,4.11-3.18,10.52,1.57,14.44c1.96,1.62,4.25,1.85,6.46,0.7c1.61-0.84,3.01-2.08,4.46-3.2
			c0.55-0.42,1-0.94,1.71-0.38c0.63,0.5,0.7,1.08,0.34,1.84c-1.65,3.44-4.64,4.83-8.16,5.41c-1.03,0.17-2.07,0.21-3.11,0.32
			C139.51,98.94,139.49,99,139.48,99.06z"/>
		<path class="st0" d="M156.67,51.48c-1.64-0.28-3.74-0.47-5.73-1.03c-4.27-1.19-6.8-4.59-7.15-9.26c-0.4-5.3,2.48-9.83,7.76-12.13
			c4.87-2.12,9.67-1.46,14.36,0.54c2.05,0.87,2.29,1.74,1.49,3.8c-0.46,1.2-0.94,2.4-1.59,3.5c-0.29,0.49-1.08,1.08-1.5,0.99
			c-0.59-0.13-1.19-0.78-1.52-1.36c-0.74-1.29-1.16-2.77-1.97-4c-1.59-2.42-4.95-2.6-6.75-0.31c-2.94,3.74-3.51,11.01,1.93,14.87
			c1.86,1.32,3.98,1.42,5.94,0.37c1.6-0.86,3.01-2.08,4.46-3.2c0.54-0.42,0.98-0.96,1.71-0.41c0.69,0.53,0.72,1.15,0.34,1.93
			c-1.67,3.44-4.69,4.77-8.2,5.34C159.2,51.3,158.15,51.34,156.67,51.48z"/>
		<path class="st0" d="M206.13,80.46c0.51-0.41,0.93-0.66,1.24-1.01c1.46-1.6,3.06-2.98,5.29-3.29c1.12-0.15,2.29-0.21,3.41-0.12
			c1.18,0.1,1.58,0.77,1.24,1.89c-0.28,0.92-0.75,1.79-1.09,2.7c-0.4,1.07-0.69,2.18-1.15,3.22c-0.2,0.45-0.64,0.93-1.08,1.08
			c-0.31,0.1-0.93-0.22-1.2-0.53c-1.03-1.2-2.17-2.1-3.85-1.72c-1.38,0.31-3.02,2.25-3.09,3.75c-0.1,2.18-0.05,4.37-0.08,6.56
			c-0.02,1.23,0.58,2.02,1.67,2.52c0.82,0.37,1.32,0.95,1.31,1.94c-0.01,0.7-0.39,1.14-0.95,1.15c-4.02,0.09-8.06,0.63-12.06-0.28
			c-0.03-0.01-0.05-0.04-0.08-0.06c-0.39-1.66-0.39-1.9,1.02-2.77c1.61-1,2.41-2.35,2.3-4.23c-0.13-2.21-0.23-4.43-0.41-6.64
			c-0.08-1.03-0.72-1.67-1.68-2.06c-0.31-0.13-0.7-0.49-0.74-0.79c-0.08-0.5-0.11-1.05,0.55-1.41c2.22-1.24,4.36-2.6,6.58-3.83
			c1.5-0.83,2.27-0.41,2.57,1.26C205.99,78.58,206.02,79.38,206.13,80.46z"/>
		<path class="st0" d="M82.05,8.44c0.14,0.05,0.18,0.08,0.2,0.08c3.62-1.65,6.04,0.69,6.95,3.76c1.48,4.97-0.77,10.67-5.27,13.26
			c-0.59,0.34-1.36,0.38-2.05,0.56c-0.06-0.13-0.13-0.26-0.19-0.39c0.2-0.25,0.35-0.59,0.61-0.74c1.86-1.09,2.56-2.88,2.89-4.85
			c0.4-2.43,0.27-4.86-0.47-7.22c-0.12-0.4-0.25-0.83-0.51-1.13c-0.29-0.34-0.89-0.84-1.07-0.75c-0.42,0.23-0.93,0.76-0.95,1.19
			c-0.11,2-0.35,4.05,0.9,5.86c0.17,0.25,0.14,0.65,0.22,1.12c-2.08,0-4.05,0.1-6.01-0.05c-0.84-0.07-0.62-1.08-0.24-1.37
			c1.22-0.94,0.92-2.2,0.96-3.41c0.06-2.33,0.14-4.66,0.12-6.99c0-0.46-0.33-1.03-0.69-1.35c-0.65-0.57-0.66-1.02,0.01-1.5
			c0.98-0.72,1.96-1.45,2.97-2.12c1.03-0.69,1.45-0.5,1.5,0.73c0.07,1.56,0.05,3.13,0.08,4.7C82.01,8.01,82.03,8.21,82.05,8.44z"/>
		<path class="st0" d="M101.95,12.16c-2.32,0.89-4.59,1.76-6.85,2.64c0.33,1.44,1.82,2.52,3.34,2.22c0.96-0.19,1.85-0.74,2.8-1.05
			c0.38-0.13,0.82-0.07,1.23-0.09c-0.1,0.41-0.08,0.92-0.32,1.21c-1.18,1.39-2.89,1.74-4.56,2.06c-3.22,0.61-6.39-1.12-7.26-3.88
			c-1.28-4.07,2.04-7.96,6.54-7.64C99.63,7.82,101.26,9.23,101.95,12.16z M97.56,11.89c-0.27-1.63-1.07-2.45-2.14-2.28
			c-0.74,0.11-1.35,1.14-1.27,2.13c0.05,0.59,0.31,0.93,0.94,0.78C95.91,12.33,96.74,12.1,97.56,11.89z"/>
		<path class="st0" d="M250.31,96.57c0,1.95-1.39,3.33-3.36,3.36c-2.01,0.02-3.47-1.4-3.47-3.37c0-1.96,1.48-3.39,3.48-3.37
			C248.91,93.23,250.31,94.64,250.31,96.57z M246.9,93.97c-1.42,0-2.43,1.06-2.44,2.56c-0.02,1.52,1.03,2.66,2.46,2.69
			c1.38,0.03,2.47-1.17,2.44-2.7C249.34,95.04,248.31,93.97,246.9,93.97z"/>
		<path class="st0" d="M247.63,96.92c0.24,0.45,0.48,0.91,0.73,1.38c-1.32,0.44-1.01-1.24-1.96-1.4c-0.04,0.46-0.08,0.89-0.16,1.69
			c-0.33-0.34-0.65-0.52-0.66-0.71c-0.05-1-0.02-2-0.02-3.13c1.01,0.13,2.09-0.38,2.69,0.66c0.2,0.34-0.19,1.02-0.31,1.54
			C247.83,96.94,247.73,96.93,247.63,96.92z M246.59,95.2c-0.12,0.14-0.24,0.29-0.36,0.43c0.22,0.21,0.42,0.53,0.67,0.59
			c0.2,0.04,0.46-0.26,0.69-0.42C247.25,95.6,246.92,95.4,246.59,95.2z"/>
	</g>
</g>
</svg>
