<?xml version="1.0" encoding="utf-8"?>
<!-- Generator: Adobe Illustrator 25.4.1, SVG Export Plug-In . SVG Version: 6.00 Build 0)  -->
<svg version="1.1" id="Layer_1" xmlns="http://www.w3.org/2000/svg" xmlns:xlink="http://www.w3.org/1999/xlink" x="0px" y="0px"
	 viewBox="0 0 1140.58 873.86" style="enable-background:new 0 0 1140.58 873.86;" xml:space="preserve">
<style type="text/css">
	.st0{fill:#FFFFFF;}
	.st1{clip-path:url(#SVGID_00000074406774167708333440000016760027600010034063_);}
	.st2{clip-path:url(#SVGID_00000150805227843932671050000011299827289719194013_);}
	.st3{fill:#FFFFFF;stroke:#FFFFFF;stroke-width:0.75;stroke-miterlimit:10;}
	.st4{opacity:0.81;}
	.st5{fill:url(#SVGID_00000144330106004700293790000003886541479449733805_);}
	.st6{opacity:0.3;}
	.st7{fill:#F2F2F2;}
	.st8{opacity:0.61;fill:#F2F2F2;}
	.st9{opacity:0.69;fill:#F2F2F2;}
	.st10{opacity:0.53;}
	.st11{opacity:0.64;fill:#F2F2F2;}
	.st12{fill:#003800;}
	.st13{fill:#DC3285;}
	.st14{fill:#A52065;}
	.st15{fill:#005700;}
	.st16{fill:#2F6E0C;}
	.st17{clip-path:url(#SVGID_00000098205008539451509980000016824308007867464342_);fill:#007400;}
	.st18{opacity:0.62;clip-path:url(#SVGID_00000098205008539451509980000016824308007867464342_);}
	.st19{fill:none;stroke:#000000;stroke-width:6;stroke-miterlimit:10;}
	.st20{fill:#007400;}
	.st21{fill:#6AD542;}
	.st22{opacity:0.77;fill:url(#);}
	.st23{opacity:0.47;}
	.st24{fill:none;stroke:#000000;stroke-width:6;stroke-linecap:round;stroke-miterlimit:10;}
	.st25{fill:none;stroke:#DC3285;stroke-width:5;stroke-linecap:round;stroke-linejoin:round;stroke-miterlimit:10;}
	.st26{clip-path:url(#SVGID_00000096756346976943789690000014182916330662733242_);fill:#FFFFFF;}
	.st27{fill:#FFA002;}
	.st28{opacity:0.64;clip-path:url(#SVGID_00000103957765373428666690000011511619750471012508_);fill:#FFFFFF;}
	.st29{opacity:0.61;clip-path:url(#SVGID_00000109721008251079186010000004427801053798587306_);fill:#FFFFFF;}
	.st30{clip-path:url(#SVGID_00000007420380101883649080000005936897449400520878_);}
	.st31{fill:#999999;}
	.st32{fill:#1A1A1A;}
	.st33{opacity:0.43;fill:#FFFFFF;}
	.st34{opacity:0.43;fill:none;stroke:#FFFFFF;stroke-width:7;stroke-linecap:round;stroke-miterlimit:10;}
	.st35{fill:#6AD542;stroke:#FFFFFF;stroke-width:7;stroke-linecap:round;stroke-miterlimit:10;}
	.st36{fill:none;stroke:#E6E6E6;stroke-width:13;stroke-linecap:round;stroke-linejoin:round;stroke-miterlimit:10;}
	.st37{clip-path:url(#SVGID_00000008835730896091538850000014834786165840394638_);}
	.st38{opacity:0.43;fill:none;stroke:#1A1A1A;stroke-width:6;stroke-miterlimit:10;}
	.st39{fill:#666666;}
	.st40{fill:none;stroke:#FFFFFF;stroke-width:13;stroke-linecap:round;stroke-linejoin:round;stroke-miterlimit:10;}
	.st41{fill:none;stroke:#FFFFFF;stroke-width:11;stroke-linecap:round;stroke-linejoin:round;stroke-miterlimit:10;}
	.st42{fill:none;stroke:#FFE500;stroke-width:10;stroke-linecap:round;stroke-miterlimit:10;}
	.st43{clip-path:url(#SVGID_00000147913966000281512120000003692479325411523214_);fill:#DC3285;}
	.st44{clip-path:url(#SVGID_00000147913966000281512120000003692479325411523214_);fill:#FFFFFF;}
	.st45{clip-path:url(#SVGID_00000147913966000281512120000003692479325411523214_);fill:#333333;}
	.st46{clip-path:url(#SVGID_00000141417011369988061330000000930907454080884126_);fill:#DC3285;}
	.st47{clip-path:url(#SVGID_00000141417011369988061330000000930907454080884126_);fill:#FFFFFF;}
	.st48{clip-path:url(#SVGID_00000141417011369988061330000000930907454080884126_);fill:#333333;}
	.st49{fill:#56BE2F;}
	.st50{opacity:0.55;}
	.st51{fill:none;stroke:#000000;stroke-width:15;stroke-linecap:round;stroke-linejoin:round;stroke-miterlimit:10;}
	.st52{fill:#5C1537;}
	.st53{clip-path:url(#SVGID_00000168839725232294556760000016689593436187417519_);fill:#26AD35;}
	.st54{clip-path:url(#SVGID_00000168839725232294556760000016689593436187417519_);fill:#6AD542;}
	.st55{clip-path:url(#SVGID_00000168839725232294556760000016689593436187417519_);fill:#56BE2F;}
	.st56{clip-path:url(#SVGID_00000139264490155021375810000017572090194633945774_);fill:#45A840;}
	.st57{clip-path:url(#SVGID_00000139264490155021375810000017572090194633945774_);fill:#56BE2F;}
	.st58{clip-path:url(#SVGID_00000158725367553851728210000016155320465503218068_);fill:#45A840;}
	.st59{clip-path:url(#SVGID_00000158725367553851728210000016155320465503218068_);fill:#56BE2F;}
	.st60{clip-path:url(#SVGID_00000001661701042918770380000016902378451174610595_);fill:#6AD542;}
	.st61{opacity:0.7;clip-path:url(#SVGID_00000001661701042918770380000016902378451174610595_);}
	.st62{fill:#27B136;}
	.st63{clip-path:url(#SVGID_00000042700176488242905690000006119248215539342216_);fill:#3E8913;}
	.st64{clip-path:url(#SVGID_00000042700176488242905690000006119248215539342216_);fill:#6AD542;}
	.st65{clip-path:url(#SVGID_00000024713568953766961240000001178756814182454199_);fill:#29BD3A;}
	.st66{clip-path:url(#SVGID_00000024713568953766961240000001178756814182454199_);fill:#6AD542;}
	.st67{clip-path:url(#SVGID_00000052066835416155404180000009954099643162166457_);fill:#6AD542;}
	.st68{opacity:0.7;clip-path:url(#SVGID_00000052066835416155404180000009954099643162166457_);}
	.st69{clip-path:url(#SVGID_00000178202591983494207300000002960217279306806437_);fill:#6AD542;}
	.st70{opacity:0.56;clip-path:url(#SVGID_00000178202591983494207300000002960217279306806437_);fill:#26AD35;}
	.st71{clip-path:url(#SVGID_00000072267861627786068040000011633475381214390707_);fill:#45A840;}
	.st72{clip-path:url(#SVGID_00000072267861627786068040000011633475381214390707_);fill:#56BE2F;}
	.st73{fill:#333333;}
	.st74{opacity:0.42;fill:#292929;}
	.st75{opacity:0.15;fill:url(#);}
	.st76{clip-path:url(#SVGID_00000067942641174014680480000016357007360725521033_);fill:#3E8913;}
	.st77{clip-path:url(#SVGID_00000067942641174014680480000016357007360725521033_);fill:#6AD542;}
	.st78{fill:none;stroke:#000000;stroke-width:4;stroke-miterlimit:10;}
	.st79{fill:#00ADEE;}
	.st80{fill:#FFE500;}
	.st81{opacity:0.66;fill:#FFA002;}
	.st82{clip-path:url(#SVGID_00000094577274882230811560000013199236650902335146_);fill:#29BD3A;}
	.st83{clip-path:url(#SVGID_00000094577274882230811560000013199236650902335146_);fill:#6AD542;}
	.st84{fill:#00CCFF;}
	.st85{fill:#29BD3A;}
	.st86{fill:#FFD900;}
	.st87{fill:#EB8AB9;}
	.st88{opacity:0.78;fill:#E04B94;}
	.st89{clip-path:url(#SVGID_00000088113707063757292660000005702459061886351518_);fill:#6AD542;}
	.st90{opacity:0.7;clip-path:url(#SVGID_00000088113707063757292660000005702459061886351518_);}
	.st91{fill:#8BE04A;}
	.st92{opacity:0.28;fill:url(#SVGID_00000127746462983040701670000013638009131784648604_);}
	.st93{opacity:0.7;fill:url(#SVGID_00000097487659226853808960000005484253324036480687_);}
	.st94{clip-path:url(#SVGID_00000131333592475938040660000009024078385269716920_);fill:#DC3285;}
	.st95{clip-path:url(#SVGID_00000131333592475938040660000009024078385269716920_);fill:#FFCD55;}
	.st96{clip-path:url(#SVGID_00000131333592475938040660000009024078385269716920_);fill:#45C8F5;}
	.st97{clip-path:url(#SVGID_00000034068453405184409190000007208121409049335474_);fill:#FFFFFF;}
	.st98{clip-path:url(#SVGID_00000034068453405184409190000007208121409049335474_);}
	.st99{clip-path:url(#SVGID_00000129926595482760267210000007027380153126780322_);fill:#333333;}
	.st100{clip-path:url(#SVGID_00000129926595482760267210000007027380153126780322_);fill:#FFCD55;}
	.st101{clip-path:url(#SVGID_00000129926595482760267210000007027380153126780322_);}
	.st102{fill:#E6E6E6;}
	.st103{fill:#FFCD55;}
	.st104{opacity:0.73;fill:#FFFFFF;}
	.st105{opacity:0.73;fill:none;stroke:#FFFFFF;stroke-width:29;stroke-linecap:round;stroke-miterlimit:10;}
	.st106{opacity:0.26;fill:#FFFFFF;}
	.st107{opacity:0.26;fill:none;stroke:#FFFFFF;stroke-width:29;stroke-linecap:round;stroke-miterlimit:10;}
	.st108{fill:#45C8F5;}
	.st109{fill:#231F20;}
	.st110{clip-path:url(#SVGID_00000132089794593371953730000002245582398808360348_);}
	.st111{fill:url(#SVGID_00000119085369413601826780000016106727188637424307_);}
	.st112{clip-path:url(#SVGID_00000132089794593371953730000002245582398808360348_);fill:#FFA002;}
	.st113{opacity:0.5;}
	.st114{fill:none;}
	.st115{fill:#CCCCCC;}
	.st116{fill:#B3B3B3;}
	.st117{fill:none;stroke:#FFE500;stroke-width:7;stroke-linecap:round;stroke-miterlimit:10;}
	.st118{fill:none;stroke:#FFE500;stroke-width:7;stroke-linecap:round;stroke-miterlimit:10;stroke-dasharray:10.0084,20.0167;}
	.st119{fill:url(#SVGID_00000061439664335021144290000006576777042170458545_);}
	.st120{opacity:0.7;fill:#B3B3B3;}
	.st121{fill:url(#SVGID_00000130636160878958500820000008460197069923266705_);}
	.st122{clip-path:url(#SVGID_00000178903708060643458430000008883338224463504563_);fill:#8BE04A;}
	
		.st123{opacity:0.55;clip-path:url(#SVGID_00000178903708060643458430000008883338224463504563_);fill:url(#SVGID_00000116225467786353848300000013099486003960121531_);}
	.st124{fill:#E567A5;}
	.st125{fill:url(#SVGID_00000178192631295050206550000003306010893429583278_);}
	.st126{fill:#00ACD6;}
	.st127{fill:#9E005D;}
	.st128{fill:url(#SVGID_00000070089554048857503390000006736429952597601971_);}
	.st129{fill:none;stroke:#FFCD55;stroke-width:5;stroke-linecap:round;stroke-miterlimit:10;}
	.st130{fill:none;stroke:#FFCD55;stroke-width:5;stroke-linecap:round;stroke-miterlimit:10;stroke-dasharray:9.3355,18.6709;}
	.st131{fill:url(#SVGID_00000145776287282926622110000001932937201221249689_);}
	.st132{fill:url(#SVGID_00000039820880351790894380000008067307314008741514_);}
	.st133{clip-path:url(#SVGID_00000073684799673631253910000003447732944866461347_);fill:#007400;}
	.st134{opacity:0.62;clip-path:url(#SVGID_00000073684799673631253910000003447732944866461347_);}
	.st135{clip-path:url(#SVGID_00000140692598454115938500000015935505371885449395_);fill:#FFFFFF;}
	.st136{opacity:0.64;clip-path:url(#SVGID_00000181782145112058848410000005660185840346070948_);fill:#FFFFFF;}
	.st137{opacity:0.61;clip-path:url(#SVGID_00000106146377039240240410000012883465945961133218_);fill:#FFFFFF;}
	.st138{clip-path:url(#SVGID_00000178898992675080726330000003157089284009084588_);}
	.st139{clip-path:url(#SVGID_00000038414169705957739040000014312348966606474917_);}
	.st140{clip-path:url(#SVGID_00000031888343792483357740000007248351034738443955_);fill:#DC3285;}
	.st141{clip-path:url(#SVGID_00000031888343792483357740000007248351034738443955_);fill:#FFFFFF;}
	.st142{clip-path:url(#SVGID_00000031888343792483357740000007248351034738443955_);fill:#333333;}
	.st143{clip-path:url(#SVGID_00000043415178740497958310000003345297353627850380_);fill:#DC3285;}
	.st144{clip-path:url(#SVGID_00000043415178740497958310000003345297353627850380_);fill:#FFFFFF;}
	.st145{clip-path:url(#SVGID_00000043415178740497958310000003345297353627850380_);fill:#333333;}
	.st146{clip-path:url(#SVGID_00000133496408120710119020000002925024879394619297_);fill:#26AD35;}
	.st147{clip-path:url(#SVGID_00000133496408120710119020000002925024879394619297_);fill:#6AD542;}
	.st148{clip-path:url(#SVGID_00000133496408120710119020000002925024879394619297_);fill:#56BE2F;}
	.st149{clip-path:url(#SVGID_00000120552016253353850800000012399726086934154125_);fill:#45A840;}
	.st150{clip-path:url(#SVGID_00000120552016253353850800000012399726086934154125_);fill:#56BE2F;}
	.st151{clip-path:url(#SVGID_00000027566769320744442400000001597278367523212936_);fill:#45A840;}
	.st152{clip-path:url(#SVGID_00000027566769320744442400000001597278367523212936_);fill:#56BE2F;}
	.st153{clip-path:url(#SVGID_00000093164966353309597310000000283209723573760934_);fill:#6AD542;}
	.st154{opacity:0.7;clip-path:url(#SVGID_00000093164966353309597310000000283209723573760934_);}
	.st155{clip-path:url(#SVGID_00000069389146244749952280000017139550226880740234_);fill:#3E8913;}
	.st156{clip-path:url(#SVGID_00000069389146244749952280000017139550226880740234_);fill:#6AD542;}
	.st157{clip-path:url(#SVGID_00000124129254753976902260000004245017461638419645_);fill:#29BD3A;}
	.st158{clip-path:url(#SVGID_00000124129254753976902260000004245017461638419645_);fill:#6AD542;}
	.st159{clip-path:url(#SVGID_00000175298510041352253630000011369271388652664508_);fill:#6AD542;}
	.st160{opacity:0.7;clip-path:url(#SVGID_00000175298510041352253630000011369271388652664508_);}
	.st161{clip-path:url(#SVGID_00000042737168873610062810000005601052801251017858_);fill:#6AD542;}
	.st162{opacity:0.56;clip-path:url(#SVGID_00000042737168873610062810000005601052801251017858_);fill:#26AD35;}
	.st163{clip-path:url(#SVGID_00000132090342095878494390000005570772897056346279_);fill:#45A840;}
	.st164{clip-path:url(#SVGID_00000132090342095878494390000005570772897056346279_);fill:#56BE2F;}
	.st165{clip-path:url(#SVGID_00000127750902821824344440000000987729143527159978_);fill:#3E8913;}
	.st166{clip-path:url(#SVGID_00000127750902821824344440000000987729143527159978_);fill:#6AD542;}
	.st167{clip-path:url(#SVGID_00000178177474306151249660000011904357807453442476_);fill:#29BD3A;}
	.st168{clip-path:url(#SVGID_00000178177474306151249660000011904357807453442476_);fill:#6AD542;}
	.st169{clip-path:url(#SVGID_00000158012052118619989740000014100170981591557299_);fill:#6AD542;}
	.st170{opacity:0.7;clip-path:url(#SVGID_00000158012052118619989740000014100170981591557299_);}
	.st171{opacity:0.28;fill:url(#SVGID_00000148629773530223934630000000542251428095566976_);}
	.st172{opacity:0.7;fill:url(#SVGID_00000001622228099242792120000009942938945873200547_);}
	.st173{clip-path:url(#SVGID_00000008145476548736803140000014768086752300916364_);}
	.st174{clip-path:url(#SVGID_00000163042993969806647960000000243625347872552321_);}
	.st175{clip-path:url(#SVGID_00000089543587235134114080000012746129495801569967_);fill:#FFFFFF;}
	.st176{clip-path:url(#SVGID_00000089543587235134114080000012746129495801569967_);}
	.st177{clip-path:url(#SVGID_00000169546666874992549780000017791878436525694103_);fill:#333333;}
	.st178{clip-path:url(#SVGID_00000169546666874992549780000017791878436525694103_);fill:#FFCD55;}
	.st179{clip-path:url(#SVGID_00000169546666874992549780000017791878436525694103_);}
	.st180{clip-path:url(#SVGID_00000085234342300533981010000013200053007822208641_);}
	.st181{fill:url(#SVGID_00000139264747975565174250000016525728555963975300_);}
	.st182{clip-path:url(#SVGID_00000085234342300533981010000013200053007822208641_);fill:#FFA002;}
	.st183{fill:url(#SVGID_00000040541544461326912990000004725817751924928897_);}
	.st184{clip-path:url(#SVGID_00000029762758347523083150000007908047759700553397_);fill:#8BE04A;}
	
		.st185{opacity:0.55;clip-path:url(#SVGID_00000029762758347523083150000007908047759700553397_);fill:url(#SVGID_00000129200531632873349020000009497173913370518410_);}
	.st186{fill:#009245;}
	.st187{clip-path:url(#SVGID_00000057108102159699008260000017174163729485548182_);}
	.st188{fill:none;stroke:#FFFFFF;stroke-width:27;stroke-linecap:round;stroke-miterlimit:10;}
	.st189{fill:none;stroke:#2CAF4B;stroke-width:61;stroke-linecap:round;stroke-linejoin:round;stroke-miterlimit:10;}
	.st190{fill:none;stroke:#DC3285;stroke-width:13;stroke-linecap:round;stroke-linejoin:round;stroke-miterlimit:10;}
	.st191{fill:#2CAF4B;}
	.st192{opacity:0.1;}
	.st193{fill:#151814;}
	.st194{fill:none;stroke:#DC3285;stroke-width:30;stroke-miterlimit:10;}
	.st195{fill:#DC3285;stroke:#E567A5;stroke-width:6;stroke-miterlimit:10;}
	.st196{fill:#282560;}
	.st197{fill:url(#SVGID_00000045583492007889104860000009967881275926138035_);}
	.st198{fill:url(#SVGID_00000050623447110100432870000003711653378848873916_);}
	.st199{clip-path:url(#SVGID_00000067943382781819655810000017473895984106777005_);}
	.st200{clip-path:url(#SVGID_00000031203449984563430110000006036868436702728092_);}
	.st201{clip-path:url(#SVGID_00000059998509159369667760000000766672256773815954_);}
	.st202{fill:#006600;}
	.st203{opacity:0.77;}
	.st204{clip-path:url(#SVGID_00000054246680984378354110000017773120179515304068_);}
	.st205{clip-path:url(#SVGID_00000111157847090521190780000011585809862512009887_);}
	.st206{clip-path:url(#SVGID_00000113325728009491818760000000282192813107593367_);}
	.st207{clip-path:url(#SVGID_00000063597791621468069220000004517039648581984398_);}
	.st208{clip-path:url(#SVGID_00000123428333406354186620000009720015137002659468_);}
	.st209{clip-path:url(#SVGID_00000050636946550314112680000014209529116829226127_);}
	.st210{clip-path:url(#SVGID_00000003064000251340465520000014165771485976293821_);}
	.st211{clip-path:url(#SVGID_00000128459217809511345060000002474884214055478963_);}
	.st212{clip-path:url(#SVGID_00000125588081274019416270000008613378308874900615_);}
	.st213{clip-path:url(#SVGID_00000011748745845430684610000002412644772356792205_);}
	.st214{clip-path:url(#SVGID_00000039811825551605967330000014785194804012641179_);}
	.st215{clip-path:url(#SVGID_00000093869185928435103040000002196824076807285414_);fill:#FFFFFF;}
	.st216{opacity:0.64;clip-path:url(#SVGID_00000046307811375684786490000015485265313217694366_);fill:#FFFFFF;}
	.st217{opacity:0.61;clip-path:url(#SVGID_00000099656090244346260080000018442561768976565937_);fill:#FFFFFF;}
	.st218{opacity:0.43;}
	.st219{fill:#4D4D4D;}
	.st220{fill:#3B3B3B;}
	.st221{clip-path:url(#SVGID_00000093857988131245866480000001619648639880921249_);fill:#DC3285;}
	.st222{clip-path:url(#SVGID_00000093857988131245866480000001619648639880921249_);fill:#FFFFFF;}
	.st223{clip-path:url(#SVGID_00000093857988131245866480000001619648639880921249_);fill:#333333;}
	.st224{clip-path:url(#SVGID_00000016068464426178429350000000863568764889854098_);fill:#DC3285;}
	.st225{clip-path:url(#SVGID_00000016068464426178429350000000863568764889854098_);fill:#FFFFFF;}
	.st226{clip-path:url(#SVGID_00000016068464426178429350000000863568764889854098_);fill:#333333;}
	.st227{fill:#26AD35;}
	.st228{fill:#45A840;}
	.st229{opacity:0.56;fill:#26AD35;}
	.st230{opacity:0.42;}
	.st231{fill:#292929;}
	.st232{opacity:0.15;}
	.st233{clip-path:url(#SVGID_00000128472678836044303510000009965038996803167927_);}
	.st234{clip-path:url(#SVGID_00000084505931915551890540000001766983202688582584_);}
	.st235{clip-path:url(#SVGID_00000097486496743982944690000013519478109433561240_);}
	.st236{clip-path:url(#SVGID_00000158709110018075507190000002225023108546859402_);}
	.st237{clip-path:url(#SVGID_00000075850521229272755500000001756321554721480379_);}
	.st238{clip-path:url(#SVGID_00000108284400783503093920000013421306899590620304_);}
	.st239{clip-path:url(#SVGID_00000033357082985444569950000016656564206758773663_);}
	.st240{clip-path:url(#SVGID_00000163774400907508764560000014972516428442209925_);}
	.st241{clip-path:url(#SVGID_00000069393920963888309190000006816956037794086053_);}
	.st242{clip-path:url(#SVGID_00000063633054648489594330000015256515982863620998_);}
	.st243{clip-path:url(#SVGID_00000114056114868817606480000009033517835549980312_);}
	.st244{clip-path:url(#SVGID_00000167385963453359951880000001067315603736655237_);}
	.st245{clip-path:url(#SVGID_00000106115555743796856510000004319519789994472357_);}
	.st246{clip-path:url(#SVGID_00000017514008456659011800000006651197308850372784_);}
	.st247{clip-path:url(#SVGID_00000011008055035331504780000000093775816189141687_);}
	.st248{clip-path:url(#SVGID_00000142862235361378138920000008089977143793469625_);}
	.st249{clip-path:url(#SVGID_00000130632810938582432640000013764284584177706881_);}
	.st250{clip-path:url(#SVGID_00000049911818987447455620000014873951201429477285_);}
	.st251{clip-path:url(#SVGID_00000162312449692851686310000006547645846370544018_);}
	.st252{clip-path:url(#SVGID_00000048474236751344496690000011491059272713406120_);}
	.st253{clip-path:url(#SVGID_00000137835478337047639820000013603744725077208988_);}
	.st254{clip-path:url(#SVGID_00000163051168226524029910000005735444944108466107_);}
	.st255{clip-path:url(#SVGID_00000163774030425959243580000005892993649538323073_);}
	.st256{clip-path:url(#SVGID_00000117644809295281708900000015576850566727476880_);}
	.st257{clip-path:url(#SVGID_00000012445681262457804510000014864222192660700552_);}
	.st258{clip-path:url(#SVGID_00000183948626892228659030000018012049051832713916_);}
	.st259{clip-path:url(#SVGID_00000010287395570593162750000006595034380228715952_);}
	.st260{clip-path:url(#SVGID_00000075867468309512576860000005072105744922106543_);}
	.st261{clip-path:url(#SVGID_00000160166625563470294070000011237558927842102676_);}
	.st262{clip-path:url(#SVGID_00000111911441145840651300000000079825019492021124_);}
	.st263{clip-path:url(#SVGID_00000008845487124663596750000000721536584506759824_);}
	.st264{clip-path:url(#SVGID_00000175296460292235376490000013573515068471335048_);}
	.st265{clip-path:url(#SVGID_00000025430299690994211170000003016445761215412386_);}
	.st266{clip-path:url(#SVGID_00000099664501038584693410000010589216545054351295_);}
	.st267{clip-path:url(#SVGID_00000078042335812748040250000009012990207486309777_);}
	.st268{clip-path:url(#SVGID_00000052071502746954133730000011148007085394525347_);}
	.st269{clip-path:url(#SVGID_00000178913813800526150330000008985413097286591385_);}
	.st270{clip-path:url(#SVGID_00000031188774122117407980000015014359590015941532_);}
	.st271{clip-path:url(#SVGID_00000160880304372613875430000005687671247165941427_);}
	.st272{clip-path:url(#SVGID_00000074425810095542012380000005270899027841591728_);}
	.st273{clip-path:url(#SVGID_00000006671235432840293450000016244083348239420294_);}
	.st274{clip-path:url(#SVGID_00000045579825978088058560000011608846424535546503_);}
	.st275{clip-path:url(#SVGID_00000178885005303119680170000016202019459628563077_);}
	.st276{clip-path:url(#SVGID_00000065068548011001867810000005883120921671421834_);}
	.st277{clip-path:url(#SVGID_00000096052299480962930790000003281159797320017800_);}
	.st278{clip-path:url(#SVGID_00000124160870168698006100000015011505049315708852_);}
	.st279{clip-path:url(#SVGID_00000104678416383173153360000016826087379590651264_);}
	.st280{clip-path:url(#SVGID_00000104669405935869104820000014043165606725003938_);}
	.st281{clip-path:url(#SVGID_00000016758934387619418050000008044446091822125737_);}
	.st282{clip-path:url(#SVGID_00000043452469872506437330000017117088203788102289_);}
	.st283{clip-path:url(#SVGID_00000099628686546856189820000008751194236088019631_);}
	.st284{clip-path:url(#SVGID_00000116934766761227011380000001165115128229072028_);}
	.st285{clip-path:url(#SVGID_00000065765019906564366330000012922453384528808353_);}
	.st286{clip-path:url(#SVGID_00000092443940471500352480000007809031839624482715_);}
	.st287{clip-path:url(#SVGID_00000181788374565993529270000004855789681085167532_);}
	.st288{clip-path:url(#SVGID_00000041997541158218932440000010666450245072446379_);}
	.st289{clip-path:url(#SVGID_00000141428635582743088970000014284365866606481592_);}
	.st290{clip-path:url(#SVGID_00000106846444840894499860000000674337767340144291_);}
	.st291{clip-path:url(#SVGID_00000039096594169741966890000011024991707944467903_);}
	.st292{clip-path:url(#SVGID_00000108286915831786381450000007153564416235678857_);}
	.st293{clip-path:url(#SVGID_00000113310608854569360090000005054187602210096043_);}
	.st294{clip-path:url(#SVGID_00000134229470877185435460000006723763523674758334_);}
	.st295{clip-path:url(#SVGID_00000010991822318629630720000004160043588053442986_);}
	.st296{clip-path:url(#SVGID_00000036210396113285174200000006034923528160135599_);}
	.st297{clip-path:url(#SVGID_00000013885928877680301730000016831023628396929442_);}
	.st298{clip-path:url(#SVGID_00000176039455838791960480000014682439058751264692_);}
	.st299{clip-path:url(#SVGID_00000042735196394884272350000001796867819150995872_);}
	.st300{clip-path:url(#SVGID_00000018234068787885734510000003989754510985902526_);}
	.st301{clip-path:url(#SVGID_00000065070603578357523940000007274839498142060217_);}
	.st302{clip-path:url(#SVGID_00000118394066039918890030000006873734086001628586_);}
	.st303{clip-path:url(#SVGID_00000026852202918587526450000007985698201136171905_);}
	.st304{clip-path:url(#SVGID_00000165942345605763896680000006182559596581850556_);}
	.st305{clip-path:url(#SVGID_00000084517681081433927200000012939029331922153907_);}
	.st306{clip-path:url(#SVGID_00000006671577185558366120000015904848829371078545_);}
	.st307{clip-path:url(#SVGID_00000069356576282708370420000011361623262401520261_);}
	.st308{clip-path:url(#SVGID_00000175320667023233110970000010071415547451484547_);}
	.st309{clip-path:url(#SVGID_00000077292028174783177010000010187965057513328820_);}
	.st310{clip-path:url(#SVGID_00000034057703128271429540000015030611253161475502_);}
	.st311{clip-path:url(#SVGID_00000084489093104413678200000017458629452245013656_);}
	.st312{clip-path:url(#SVGID_00000173840632872649604410000010692668872116265902_);}
	.st313{clip-path:url(#SVGID_00000095331526902353219950000015885584862711217057_);}
	.st314{clip-path:url(#SVGID_00000093139893832056245330000009109478621479847068_);}
	.st315{fill:#54BA2E;}
	.st316{fill:#008DF2;}
	.st317{opacity:0.76;}
	.st318{clip-path:url(#SVGID_00000137112607670151363600000015632133746497217689_);fill:#0088C7;}
	.st319{clip-path:url(#SVGID_00000137112607670151363600000015632133746497217689_);fill:#0189C8;}
	.st320{clip-path:url(#SVGID_00000137112607670151363600000015632133746497217689_);fill:#028AC9;}
	.st321{clip-path:url(#SVGID_00000137112607670151363600000015632133746497217689_);fill:#048BC9;}
	.st322{clip-path:url(#SVGID_00000137112607670151363600000015632133746497217689_);fill:#058CCA;}
	.st323{clip-path:url(#SVGID_00000137112607670151363600000015632133746497217689_);fill:#068DCB;}
	.st324{clip-path:url(#SVGID_00000137112607670151363600000015632133746497217689_);fill:#078FCC;}
	.st325{clip-path:url(#SVGID_00000137112607670151363600000015632133746497217689_);fill:#0890CC;}
	.st326{clip-path:url(#SVGID_00000137112607670151363600000015632133746497217689_);fill:#0991CD;}
	.st327{clip-path:url(#SVGID_00000137112607670151363600000015632133746497217689_);fill:#0B92CE;}
	.st328{clip-path:url(#SVGID_00000137112607670151363600000015632133746497217689_);fill:#0C93CF;}
	.st329{clip-path:url(#SVGID_00000137112607670151363600000015632133746497217689_);fill:#0D94D0;}
	.st330{clip-path:url(#SVGID_00000137112607670151363600000015632133746497217689_);fill:#0E95D0;}
	.st331{clip-path:url(#SVGID_00000137112607670151363600000015632133746497217689_);fill:#0F96D1;}
	.st332{clip-path:url(#SVGID_00000137112607670151363600000015632133746497217689_);fill:#1097D2;}
	.st333{clip-path:url(#SVGID_00000137112607670151363600000015632133746497217689_);fill:#1198D3;}
	.st334{clip-path:url(#SVGID_00000137112607670151363600000015632133746497217689_);fill:#1399D3;}
	.st335{clip-path:url(#SVGID_00000137112607670151363600000015632133746497217689_);fill:#149AD4;}
	.st336{clip-path:url(#SVGID_00000137112607670151363600000015632133746497217689_);fill:#159BD5;}
	.st337{clip-path:url(#SVGID_00000137112607670151363600000015632133746497217689_);fill:#169CD6;}
	.st338{clip-path:url(#SVGID_00000137112607670151363600000015632133746497217689_);fill:#179DD6;}
	.st339{clip-path:url(#SVGID_00000137112607670151363600000015632133746497217689_);fill:#189ED7;}
	.st340{clip-path:url(#SVGID_00000137112607670151363600000015632133746497217689_);fill:#199FD8;}
	.st341{clip-path:url(#SVGID_00000137112607670151363600000015632133746497217689_);fill:#1AA0D9;}
	.st342{clip-path:url(#SVGID_00000137112607670151363600000015632133746497217689_);fill:#1BA1D9;}
	.st343{clip-path:url(#SVGID_00000137112607670151363600000015632133746497217689_);fill:#1DA2DA;}
	.st344{clip-path:url(#SVGID_00000137112607670151363600000015632133746497217689_);fill:#1EA4DB;}
	.st345{clip-path:url(#SVGID_00000137112607670151363600000015632133746497217689_);fill:#1FA5DC;}
	.st346{clip-path:url(#SVGID_00000137112607670151363600000015632133746497217689_);fill:#20A6DC;}
	.st347{clip-path:url(#SVGID_00000137112607670151363600000015632133746497217689_);fill:#21A7DD;}
	.st348{clip-path:url(#SVGID_00000137112607670151363600000015632133746497217689_);fill:#22A8DE;}
	.st349{clip-path:url(#SVGID_00000137112607670151363600000015632133746497217689_);fill:#23A9DE;}
	.st350{clip-path:url(#SVGID_00000137112607670151363600000015632133746497217689_);fill:#24AADF;}
	.st351{clip-path:url(#SVGID_00000137112607670151363600000015632133746497217689_);fill:#25ABE0;}
	.st352{clip-path:url(#SVGID_00000137112607670151363600000015632133746497217689_);fill:#26ABE1;}
	.st353{clip-path:url(#SVGID_00000137112607670151363600000015632133746497217689_);fill:#27ACE1;}
	.st354{clip-path:url(#SVGID_00000137112607670151363600000015632133746497217689_);fill:#28ADE2;}
	.st355{clip-path:url(#SVGID_00000137112607670151363600000015632133746497217689_);fill:#29AEE3;}
	.st356{clip-path:url(#SVGID_00000137112607670151363600000015632133746497217689_);fill:#2AAFE3;}
	.st357{clip-path:url(#SVGID_00000137112607670151363600000015632133746497217689_);fill:#2BB0E4;}
	.st358{clip-path:url(#SVGID_00000137112607670151363600000015632133746497217689_);fill:#2CB1E5;}
	.st359{clip-path:url(#SVGID_00000137112607670151363600000015632133746497217689_);fill:#2EB2E5;}
	.st360{clip-path:url(#SVGID_00000137112607670151363600000015632133746497217689_);fill:#2FB3E6;}
	.st361{clip-path:url(#SVGID_00000137112607670151363600000015632133746497217689_);fill:#30B4E7;}
	.st362{clip-path:url(#SVGID_00000137112607670151363600000015632133746497217689_);fill:#31B5E7;}
	.st363{clip-path:url(#SVGID_00000137112607670151363600000015632133746497217689_);fill:#32B6E8;}
	.st364{clip-path:url(#SVGID_00000137112607670151363600000015632133746497217689_);fill:#32B7E9;}
	.st365{clip-path:url(#SVGID_00000137112607670151363600000015632133746497217689_);fill:#33B8E9;}
	.st366{clip-path:url(#SVGID_00000137112607670151363600000015632133746497217689_);fill:#34B9EA;}
	.st367{clip-path:url(#SVGID_00000137112607670151363600000015632133746497217689_);fill:#35BAEB;}
	.st368{clip-path:url(#SVGID_00000137112607670151363600000015632133746497217689_);fill:#36BAEB;}
	.st369{clip-path:url(#SVGID_00000137112607670151363600000015632133746497217689_);fill:#37BBEC;}
	.st370{clip-path:url(#SVGID_00000137112607670151363600000015632133746497217689_);fill:#38BCEC;}
	.st371{clip-path:url(#SVGID_00000137112607670151363600000015632133746497217689_);fill:#39BDED;}
	.st372{clip-path:url(#SVGID_00000137112607670151363600000015632133746497217689_);fill:#3ABEEE;}
	.st373{clip-path:url(#SVGID_00000137112607670151363600000015632133746497217689_);fill:#3BBFEE;}
	.st374{clip-path:url(#SVGID_00000137112607670151363600000015632133746497217689_);fill:#3CC0EF;}
	.st375{clip-path:url(#SVGID_00000137112607670151363600000015632133746497217689_);fill:#3DC0F0;}
	.st376{clip-path:url(#SVGID_00000137112607670151363600000015632133746497217689_);fill:#3EC1F0;}
	.st377{clip-path:url(#SVGID_00000137112607670151363600000015632133746497217689_);fill:#3EC2F1;}
	.st378{clip-path:url(#SVGID_00000137112607670151363600000015632133746497217689_);fill:#3FC3F1;}
	.st379{clip-path:url(#SVGID_00000137112607670151363600000015632133746497217689_);fill:#40C3F2;}
	.st380{clip-path:url(#SVGID_00000137112607670151363600000015632133746497217689_);fill:#41C4F2;}
	.st381{clip-path:url(#SVGID_00000137112607670151363600000015632133746497217689_);fill:#42C5F3;}
	.st382{clip-path:url(#SVGID_00000137112607670151363600000015632133746497217689_);fill:#42C6F3;}
	.st383{clip-path:url(#SVGID_00000137112607670151363600000015632133746497217689_);fill:#43C6F4;}
	.st384{clip-path:url(#SVGID_00000137112607670151363600000015632133746497217689_);fill:#44C7F4;}
	.st385{clip-path:url(#SVGID_00000137112607670151363600000015632133746497217689_);fill:#44C8F5;}
	.st386{clip-path:url(#SVGID_00000137112607670151363600000015632133746497217689_);fill:#45C8F5;}
	.st387{fill:url(#SVGID_00000073002903399116279510000017905501072550301351_);}
	.st388{fill:url(#SVGID_00000023272749995585469350000002601538483775929008_);}
	.st389{fill:url(#SVGID_00000056407517046478001620000004922079250057558401_);}
	.st390{fill:url(#SVGID_00000123418757321164095550000004051436933208338319_);}
	.st391{fill:#FF7FC8;}
	.st392{clip-path:url(#SVGID_00000035505223140322574750000011988734090861935026_);fill:#333333;}
	.st393{clip-path:url(#SVGID_00000035505223140322574750000011988734090861935026_);fill:#FFCD55;}
	.st394{clip-path:url(#SVGID_00000035505223140322574750000011988734090861935026_);}
	.st395{fill:#73E1EF;}
	.st396{fill:#0E68A3;}
	.st397{fill:#053483;}
</style>
<g>
	<g>
		<g>
			<g>
				<polygon class="st395" points="700,244.6 758.02,103.79 839.82,229.48 				"/>
			</g>
			<g>
				<polygon class="st395" points="1078.2,474.71 1008.73,599.27 945.43,470.79 				"/>
			</g>
			<g>
				<polygon class="st395" points="933.02,54.91 998.36,69.31 954.36,124.37 				"/>
			</g>
			<g>
				<ellipse class="st395" cx="917.73" cy="326.65" rx="26.44" ry="29.09"/>
			</g>
			<g>
				<ellipse class="st395" cx="1125.99" cy="499.11" rx="13.79" ry="15.17"/>
			</g>
			<g>
				<polygon class="st395" points="1005.25,251.98 1079.31,184.55 1140.58,266.05 1066.52,333.48 				"/>
			</g>
			<g>
				<polygon class="st395" points="1123.57,594.64 1140.19,649.57 1090.27,667.85 1073.65,612.92 				"/>
			</g>
		</g>
		<g>
			<g>
				<polygon class="st395" points="118.04,123.58 157,206.63 59.85,204.35 				"/>
			</g>
			<g>
				<polygon class="st395" points="0,595.39 65.25,567.72 60.68,642.66 				"/>
			</g>
			<g>
				<polygon class="st395" points="281.61,159.92 387.9,178.9 320.97,253.34 				"/>
			</g>
			<g>
				<ellipse class="st395" cx="534.78" cy="214.19" rx="36.41" ry="40.07"/>
			</g>
			<g>
				<ellipse class="st395" cx="383.34" cy="35.06" rx="21.73" ry="23.91"/>
			</g>
			<g>
				<ellipse class="st395" cx="180.13" cy="288.65" rx="17.07" ry="18.79"/>
			</g>
			<g>
				<ellipse class="st395" cx="180.03" cy="474.5" rx="65.84" ry="72.45"/>
			</g>
			<g>
				<polygon class="st395" points="553.91,0 597.05,33.15 566.93,80.62 523.79,47.47 				"/>
			</g>
			<g>
				<polygon class="st395" points="28.42,321.33 56.28,342.73 36.83,373.38 8.98,351.98 				"/>
			</g>
		</g>
		<g>
			<path class="st79" d="M1092.89,729.55c-1.86-37.38-319.68-50.59-502.66-46.52c-74.03,1.65-373.65,0.58-378.72,46.52
				c-0.18,1.65,0.07,3.34,0.66,5.04c-20.31,7.39-35.32,14.09-46.28,20.14c-9.61-3.56-23.29-5.79-38.48-5.79
				c-29.06,0-52.63,8.15-52.63,18.2c0,6.85,10.95,12.81,27.11,15.92c-7,2.32-11.38,5.58-11.38,9.2c0,7.04,16.52,12.76,36.89,12.76
				c10.24,0,19.5-1.44,26.19-3.77c59.53,34.93,284.62,49.38,431.72,49.02c106.78-0.26,292.46-7.59,382.67-33.2
				c0,0.08-0.02,0.16-0.02,0.24c0,10.05,23.56,18.2,52.63,18.2c29.06,0,52.63-8.15,52.63-18.2s-23.56-18.2-52.63-18.2
				c-3.95,0-7.8,0.16-11.51,0.44c6.61-4.85,10.47-10.14,11.01-15.9c0.55-5.76-2.25-11.57-7.45-17.32
				C1053.95,755.39,1093.55,742.86,1092.89,729.55z"/>
			<ellipse class="st79" cx="967.47" cy="861.11" rx="36.89" ry="12.76"/>
			<ellipse class="st79" cx="76.26" cy="835.53" rx="36.89" ry="12.76"/>
		</g>
		<path class="st13" d="M441.96,668.49c-43.92,62.69-124.54,88.1-191.7,60.44c-50.47-20.79-86.04-68.49-94.29-124.5
			c6.71-5.86,11.02-14.86,11.02-24.98c0-0.39-0.04-0.76-0.05-1.15c1.14-8.02,3.31-14.36,5.46-19.12c4.35-9.66,9.39-14.78,7.21-18.92
			c-1.59-3.02-6.33-4.2-9.91-3.6c-6.92,1.15-11.65,9.24-13.88,17.69c-4.99-4.29-11.26-6.88-18.11-6.88
			c-16.17,0-29.28,14.32-29.28,31.98c0,13.07,7.18,24.28,17.46,29.25c9.76,66.57,52.34,123.42,112.8,148.33
			c21.94,9.04,45.04,13.36,68.12,13.36c61.28,0,122.26-30.54,160.04-84.46L441.96,668.49z"/>
		<path class="st124" d="M379.2,594.27c19.74-0.01,33.84-11.39,38.58-21.96c0.71-1.58,6.71-15.84-0.86-28.86
			c-5.41-9.31-15.97-15.06-27.64-15.55c-18.34,13.18-41.85,18.66-65.02,13.95c1.23,12.16,6.93,24.27,16.26,34.1
			C351.43,587.42,365.88,594.27,379.2,594.27z"/>
		<path class="st13" d="M838.76,458.42c6.71-16.16,6.08-35.52-1.74-53.11c-7.72-17.36-21.04-30.47-36.54-35.96
			c-16.74-5.93-40.26-4.99-55.06,10.5c-2.59,2.71-15.33,17.23-11.64,36.89c3.23,17.22,18.04,31.14,36.85,34.65
			c2.91,0.54,5.72-1.39,6.27-4.3c0.26-1.41-0.04-2.84-0.85-4.02c-0.81-1.18-2.04-1.98-3.45-2.24c-14.49-2.7-25.84-13.18-28.26-26.07
			c-2.78-14.8,7.64-26.23,8.84-27.48c8.01-8.37,25.1-14.39,43.71-7.79c12.55,4.44,23.88,15.73,30.31,30.2
			c6.63,14.9,7.22,31.16,1.64,44.61c-6.93,16.68-27.7,33.53-57.76,33.53c-2.08,0-4.2-0.08-6.37-0.25
			c-28.19-2.17-53.07-22.31-63.39-51.31c-0.48-1.35-1.46-2.44-2.76-3.05c-0.73-0.35-1.51-0.52-2.3-0.52c-0.61,0-1.22,0.1-1.81,0.31
			c-1.35,0.48-2.44,1.46-3.06,2.76c-0.62,1.3-0.69,2.76-0.21,4.11c11.74,33,40.28,55.93,72.69,58.43c2.01,0.16,4.09,0.23,6.2,0.23
			c0,0,0.01,0,0.01,0c12.15,0,24.73-2.6,35.41-7.33C821.25,484.23,832.75,472.89,838.76,458.42z"/>
		<path class="st13" d="M602.97,388.22c-7.26-13.88-19.01-25.53-33.09-32.79c-14.12-7.28-29.68-9.71-43.83-6.86
			c-19.04,3.84-37.52,15.68-50.68,32.48c-12.97,16.55-19.04,35.32-16.65,51.5c2.42,16.43,16.61,36.26,38.15,40.63
			c8.18,1.66,17.49,0.99,25.56-1.83c9.53-3.34,16.76-9.3,20.92-17.25c2.77-5.3,4.39-11.77,4.42-17.76
			c0.05-7.97-2.62-14.68-7.73-19.41c-11.01-10.18-29.64-8.9-42.42,2.93c-2.18,2.01-2.31,5.42-0.29,7.6c2.01,2.17,5.42,2.3,7.6,0.29
			c9.56-8.85,21.88-8.41,27.81-2.92c6.77,6.27,4.26,18.22,1.08,24.29c-6.1,11.66-22.49,16.03-34.82,13.53
			c-16.12-3.28-27.74-18.67-29.65-31.66c-1.92-13.05,3.46-29.22,14.4-43.26c11.54-14.82,27.73-25.25,44.43-28.62
			c3.18-0.64,6.43-0.95,9.69-0.95c21.82,0,44.48,13.85,55.57,35.05c14.35,27.45,6.59,62.36-18.46,83c-2.29,1.88-2.61,5.28-0.73,7.57
			c1.02,1.24,2.54,1.96,4.15,1.96h0c0,0,0,0,0,0c1.26,0,2.43-0.42,3.41-1.23C610.77,460.65,619.67,420.15,602.97,388.22z"/>
		<path class="st13" d="M779.48,575.13c3.87,0,7.02-3.15,7.02-7.02c0-3.87-3.15-7.02-7.02-7.02s-7.02,3.15-7.02,7.02
			C772.45,571.99,775.6,575.13,779.48,575.13z"/>
		<path class="st13" d="M746.74,539.14c-1.15,0-2.08,0.93-2.08,2.08s0.93,2.08,2.08,2.08s2.08-0.93,2.08-2.08
			S747.88,539.14,746.74,539.14z"/>
		<path class="st13" d="M570.52,574.9c-0.3-0.04-0.6-0.06-0.89-0.06c-1.55,0-3.05,0.51-4.29,1.48c-3.06,2.37-3.61,6.79-1.24,9.85
			c1.15,1.48,2.81,2.43,4.67,2.66c1.86,0.23,3.7-0.27,5.18-1.42c3.06-2.37,3.61-6.79,1.24-9.85
			C574.04,576.08,572.38,575.13,570.52,574.9z"/>
		<path class="st13" d="M666.14,395c1.48-1.15,2.42-2.81,2.66-4.67c0.23-1.86-0.27-3.7-1.42-5.18c-1.15-1.48-2.81-2.43-4.67-2.66
			c-0.3-0.04-0.59-0.06-0.89-0.06c-1.55,0-3.05,0.51-4.29,1.48c-1.48,1.15-2.43,2.81-2.66,4.67c-0.23,1.86,0.27,3.7,1.42,5.18
			C658.66,396.81,663.08,397.37,666.14,395z"/>
		<path class="st13" d="M568.75,622.15c-0.09-0.01-0.18-0.02-0.26-0.02c-0.46,0-0.9,0.15-1.27,0.44c-0.44,0.34-0.72,0.83-0.79,1.38
			c-0.07,0.55,0.08,1.1,0.42,1.54c0.34,0.44,0.83,0.72,1.38,0.79c0.55,0.07,1.1-0.08,1.54-0.42h0c0.91-0.7,1.07-2.02,0.37-2.92
			C569.79,622.5,569.3,622.22,568.75,622.15z"/>
		<path class="st13" d="M630.88,333.32c0.55,0.07,1.1-0.08,1.54-0.42c0.91-0.7,1.07-2.01,0.37-2.92c-0.41-0.53-1.03-0.81-1.65-0.81
			c-0.45,0-0.9,0.14-1.27,0.44c-0.44,0.34-0.72,0.83-0.79,1.38c-0.07,0.55,0.08,1.1,0.42,1.54
			C629.84,332.97,630.33,333.25,630.88,333.32z"/>
		<path class="st13" d="M598.3,606.84c0.91-0.7,1.07-2.02,0.37-2.92c-0.34-0.44-0.83-0.72-1.38-0.79c-0.09-0.01-0.18-0.02-0.26-0.02
			c-0.46,0-0.9,0.15-1.27,0.44c-0.44,0.34-0.72,0.83-0.79,1.38c-0.07,0.55,0.08,1.1,0.42,1.54c0.34,0.44,0.83,0.72,1.38,0.79
			C597.32,607.32,597.86,607.18,598.3,606.84L598.3,606.84z"/>
		<path class="st13" d="M692.41,354.12c0.91-0.71,1.07-2.02,0.37-2.92c-0.34-0.44-0.83-0.72-1.38-0.79
			c-0.09-0.01-0.18-0.02-0.26-0.02c-0.46,0-0.9,0.15-1.27,0.44c-0.44,0.34-0.72,0.83-0.79,1.38c-0.07,0.55,0.08,1.1,0.42,1.54
			C690.19,354.66,691.5,354.82,692.41,354.12z"/>
		<path class="st13" d="M830.07,619.92c-13.41,3.63-26.84,11.14-36.85,20.61c-12.51,11.84-19.56,26.37-20.39,42.02
			c-0.92,17.48,6.15,35.51,19.4,49.46c13.07,13.77,30,21.67,46.43,21.67h0.03c17.76-0.01,39.61-8.77,48.38-28.31
			c1.54-3.42,8.68-21.36-1.37-38.66c-8.8-15.15-27.42-23.31-46.32-20.33c-1.42,0.22-2.67,0.99-3.51,2.15
			c-0.85,1.16-1.19,2.58-0.96,4c0.46,2.93,3.22,4.93,6.15,4.47c14.55-2.29,28.76,3.78,35.35,15.12c7.57,13.02,1.56,27.28,0.86,28.86
			c-4.74,10.57-18.84,21.95-38.58,21.96c-13.33,0-27.77-6.85-38.66-18.32c-11.23-11.83-17.23-26.95-16.46-41.5
			c1.02-19.29,16.88-44.04,49.3-52.81c27.29-7.38,57.47,3.28,76.9,27.16c1.87,2.3,5.26,2.65,7.56,0.78c2.3-1.87,2.65-5.26,0.78-7.56
			C896.02,623.51,861.46,611.44,830.07,619.92z"/>
		<path class="st13" d="M932.44,501.53c-10.41-9.38-22.65-14.17-35.37-13.81c-14.22,0.38-28.37,7.26-38.8,18.87
			c-10.31,11.47-15.61,25.7-14.54,39.04c1.16,14.44,9.71,31.65,26.23,37.54c2.9,1.03,18.04,5.72,31.58-3.65
			c11.83-8.19,17.32-23.94,13.66-39.18c-0.69-2.88-3.59-4.66-6.49-3.97c-2.88,0.69-4.66,3.6-3.97,6.48
			c2.63,10.96-1.11,22.15-9.32,27.83c-9.42,6.52-20.61,2.81-21.85,2.36c-8.36-2.98-17.91-13.1-19.12-28.27
			c-0.82-10.26,3.6-21.85,11.82-31c8.48-9.43,19.81-15.01,31.09-15.31c0.25-0.01,0.5-0.01,0.76-0.01
			c14.91,0,34.52,10.86,43.18,35.06c7.43,20.77,0.98,44.93-16.43,61.55c-2.14,2.05-2.22,5.46-0.18,7.6c1.02,1.07,2.4,1.66,3.89,1.66
			c1.39,0,2.71-0.53,3.71-1.49c20.47-19.54,27.98-48.17,19.13-72.94C947.62,519.34,940.71,508.99,932.44,501.53z"/>
		<path class="st13" d="M649.93,546.74c1.18-0.82,1.97-2.05,2.23-3.46c0.26-1.41-0.05-2.84-0.87-4.02
			c-0.82-1.18-2.05-1.97-3.46-2.23c-1.42-0.26-2.84,0.05-4.02,0.87c-5.62,3.89-12.28,3.26-14.74,0.27
			c-2.53-3.07-0.25-9.6,2.37-13.14c3.97-5.36,10.93-6.45,15.95-6.45c3.26,0,5.7,0.46,5.94,0.51c3.41,0.66,14.84,3.66,18.68,14.39
			c3.05,8.53,0.35,18.5-6.87,25.39c-2.14,2.05-2.22,5.46-0.18,7.6c1.02,1.07,2.41,1.66,3.89,1.66c1.39,0,2.71-0.53,3.71-1.49
			c10.29-9.82,14.05-24.26,9.57-36.79c-5.75-16.07-21.93-20.39-26.76-21.33c-2.24-0.43-22.24-3.85-32.57,10.1
			c-5.42,7.31-8.36,18.68-2.02,26.37C627.23,552.84,640.04,553.6,649.93,546.74z"/>
		<path class="st13" d="M320.66,651.27c-2.86,0.76-4.58,3.71-3.82,6.57c0.76,2.86,3.71,4.58,6.57,3.82
			c6.6-1.75,12.65,1.1,13.95,4.76c1.34,3.75-3.03,9.12-6.69,11.55c-9.11,6.06-22.05-1.52-22.59-1.85
			c-2.99-1.78-12.73-8.49-12.69-19.89c0.03-9.06,5.96-17.52,15.09-21.55c1.31-0.58,2.32-1.64,2.84-2.97
			c0.52-1.34,0.49-2.8-0.09-4.11c-0.58-1.31-1.64-2.32-2.97-2.84c-0.63-0.24-1.29-0.37-1.94-0.37c-0.74,0-1.47,0.15-2.17,0.46
			c-13.02,5.74-21.46,18.04-21.51,31.35c-0.06,17.07,13.7,26.63,17.92,29.15c0.98,0.58,9.82,5.7,19.94,5.7
			c5.26,0,10.01-1.39,14.13-4.12c7.58-5.04,14.21-14.73,10.87-24.11C344.09,653.26,332.31,648.19,320.66,651.27z"/>
		<path class="st13" d="M672.75,607.48c-14.27,8.14-23.51,20.85-25.35,34.87c-2.86,21.79,8.86,39.51,21.84,44.05
			c9.8,3.43,23.69,2.45,31.02-7.8c5.61-7.84,5.72-19.02,0.29-28.48c-1.47-2.57-4.76-3.46-7.34-1.98c-2.57,1.47-3.46,4.77-1.98,7.34
			c3.29,5.73,3.41,12.51,0.29,16.88c-4.36,6.09-13.8,5.63-18.73,3.91c-8.73-3.06-16.85-16.35-14.73-32.51
			c1.98-15.13,14.66-23.87,20.02-26.93c17.52-10,35.53,0.11,42.6,6.85c9.54,9.1,15.26,25.16,15.28,42.96
			c0.02,18.78-6.32,36.97-17.41,49.9c-16.24,18.95-47.38,24.66-72.42,13.29c-28.21-12.8-43.58-45.1-36.54-76.78
			c0.64-2.89-1.19-5.77-4.08-6.41c-0.39-0.09-0.79-0.13-1.18-0.13c-1.01,0-2,0.29-2.88,0.84c-1.21,0.77-2.05,1.97-2.36,3.37
			c-8.14,36.62,9.77,74.01,42.59,88.9c9.83,4.46,20.86,6.82,31.9,6.82c4.83,0,9.66-0.45,14.35-1.34
			c15.6-2.95,29.37-10.61,38.77-21.56c12.64-14.75,19.92-35.45,19.96-56.79c0.04-21.02-6.73-39.55-18.57-50.84
			C715.46,603.84,692.76,596.08,672.75,607.48z"/>
		<path class="st13" d="M502.94,615.8c-14.29,0.47-26.97,9.48-31.57,22.43c-0.99,2.79,0.47,5.87,3.27,6.86
			c1.35,0.48,2.81,0.41,4.11-0.21c1.3-0.62,2.28-1.7,2.76-3.06c3.13-8.81,11.89-14.95,21.79-15.28c11.69-0.4,19.55,7.52,20.41,8.42
			c8.93,9.39,5.36,22.24,2.23,27.73c-4.82,8.43-14.84,14.61-27.51,16.97c-11.72,2.18-24.03,0.81-32.92-3.67
			c-21.23-10.69-22.4-33.72-20.06-44.4c3.94-17.98,21.47-32.15,44.65-36.11c2.92-0.5,4.89-3.28,4.39-6.2
			c-0.24-1.42-1.02-2.66-2.2-3.49c-0.92-0.65-1.98-0.99-3.08-0.99c-0.3,0-0.61,0.03-0.92,0.08c-27.52,4.7-48.46,22.13-53.34,44.4
			c-4.12,18.8,2.17,44.44,25.73,56.3c7.83,3.94,17.03,6.03,26.62,6.03c5.35,0,10.7-0.65,15.91-1.93
			c14.54-3.57,26.23-11.46,32.06-21.67c6.28-10.98,7.77-28.33-3.77-40.47C529.52,625.5,518.98,615.25,502.94,615.8z"/>
		<path class="st13" d="M450.28,508.8c1.87,2.3,5.26,2.65,7.56,0.78c2.3-1.87,2.65-5.26,0.78-7.56
			c-9.71-11.94-21.83-20.96-35.02-26.6l-3.71,10.1C431.3,490.5,441.81,498.39,450.28,508.8z"/>
		<path class="st13" d="M416.93,543.45c7.57,13.02,1.57,27.28,0.86,28.86c-4.74,10.57-18.84,21.95-38.58,21.96
			c-13.33,0-27.77-6.85-38.66-18.32c-9.33-9.83-15.04-21.94-16.26-34.1c-3.67-0.75-7.33-1.77-10.96-3.03
			c0.24,7.27,1.79,14.55,4.58,21.53c0.38,0.95,0.77,1.89,1.19,2.82c0.42,0.92,0.86,1.84,1.32,2.74c0.61,1.21,1.26,2.41,1.95,3.59
			c0.51,0.89,1.04,1.77,1.6,2.64c0.54,0.85,1.12,1.69,1.7,2.53c2.11,3.02,4.47,5.93,7.08,8.68c13.07,13.77,30,21.67,46.43,21.67
			h0.03c17.76-0.01,39.61-8.77,48.38-28.31c1.53-3.42,8.68-21.36-1.37-38.66c-5.02-8.63-13.23-14.98-22.85-18.31
			c-1.12-0.39-2.26-0.71-3.41-1.01c-3.31,3.37-6.87,6.44-10.67,9.17C400.96,528.39,411.52,534.14,416.93,543.45z"/>
		<path class="st396" d="M373.38,481.64c-32.43,8.77-48.29,33.52-49.3,52.81c-0.13,2.46-0.05,4.93,0.2,7.4
			c23.17,4.71,46.68-0.78,65.02-13.95c-2.53-0.11-5.11,0.03-7.71,0.43c-2.93,0.46-5.69-1.54-6.15-4.47c-0.22-1.42,0.12-2.84,0.96-4
			c0.84-1.16,2.09-1.92,3.51-2.15c3.81-0.6,7.61-0.73,11.33-0.45c1.61,0.12,3.21,0.32,4.78,0.6c0.92,0.16,1.82,0.35,2.72,0.56
			c0.41,0.1,0.82,0.21,1.22,0.32c7.9-8.05,14.27-17.83,18.41-29.09l1.52-4.13C405.1,479.06,388.78,477.47,373.38,481.64z"/>
		<path class="st79" d="M300.02,494.45c-0.19-2.92-0.3-5.86-0.3-8.82c0-55.56,33.67-103.22,81.71-123.78l-88.31-32.87
			c-19.01-7.08-40.13,2.55-47.07,21.45l-24.15,65.71c-15.81,43.03,6.53,91.13,49.8,107.24l3.31,1.23
			C281.29,512.96,289.81,502.7,300.02,494.45z"/>
		<path class="st396" d="M313.32,538.82c-0.05-1.65-0.06-3.29,0.03-4.93c0.82-15.65,7.87-30.17,20.39-42.02
			c10.01-9.47,23.44-16.98,36.85-20.61c17.59-4.76,36.19-3.05,53.02,4.15l16.56-45.07c8.31-22.62-3.43-47.92-26.18-56.39
			l-32.54-12.11c-48.04,20.56-81.71,68.22-81.71,123.78c0,2.97,0.11,5.91,0.3,8.82c-10.22,8.26-18.73,18.51-25.02,30.15l36.67,13.65
			C312.22,538.46,312.77,538.63,313.32,538.82z M393.4,422.38c3.87,0,7.02,3.15,7.02,7.02c0,3.87-3.15,7.02-7.02,7.02
			c-3.87,0-7.02-3.15-7.02-7.02C386.38,425.53,389.53,422.38,393.4,422.38z M352.59,450.33c0.37-0.29,0.81-0.44,1.27-0.44
			c0.09,0,0.18,0.01,0.26,0.02c0.55,0.07,1.04,0.35,1.38,0.79c0.7,0.91,0.54,2.22-0.37,2.92h0c-0.44,0.34-0.98,0.49-1.54,0.42
			c-0.55-0.07-1.04-0.35-1.38-0.79C351.52,452.34,351.68,451.03,352.59,450.33z"/>
		<path class="st397" d="M393.4,436.43c3.87,0,7.02-3.15,7.02-7.02c0-3.87-3.15-7.02-7.02-7.02c-3.87,0-7.02,3.15-7.02,7.02
			C386.38,433.28,389.53,436.43,393.4,436.43z"/>
		<path class="st397" d="M353.6,454.04c0.56,0.07,1.1-0.08,1.54-0.42h0c0.91-0.7,1.07-2.02,0.37-2.92
			c-0.34-0.44-0.83-0.72-1.38-0.79c-0.09-0.01-0.18-0.02-0.26-0.02c-0.46,0-0.9,0.15-1.27,0.44c-0.91,0.7-1.07,2.01-0.37,2.92
			C352.56,453.69,353.05,453.97,353.6,454.04z"/>
		<path class="st397" d="M370.57,471.26c-13.41,3.63-26.84,11.14-36.85,20.61c-12.51,11.84-19.56,26.37-20.39,42.02
			c-0.09,1.64-0.08,3.29-0.03,4.93c3.63,1.27,7.29,2.29,10.96,3.03c-0.25-2.47-0.33-4.94-0.2-7.4c1.02-19.29,16.88-44.04,49.3-52.81
			c15.4-4.17,31.72-2.58,46.5,3.87l3.71-10.1C406.76,468.21,388.17,466.5,370.57,471.26z"/>
		<path class="st397" d="M396.01,517.86c-1.57-0.27-3.17-0.48-4.78-0.6c-3.71-0.27-7.51-0.15-11.33,0.45
			c-1.42,0.22-2.67,0.99-3.51,2.15c-0.84,1.16-1.19,2.58-0.96,4c0.46,2.93,3.22,4.93,6.15,4.47c2.6-0.41,5.18-0.54,7.71-0.43
			c3.8-2.73,7.36-5.8,10.67-9.17c-0.41-0.11-0.81-0.22-1.22-0.32C397.84,518.2,396.93,518.02,396.01,517.86z"/>
		<g>
			<path class="st114" d="M682.32,603.52c-8.02,13.66-19.64,24.38-33.19,31.36c-0.81,2.44-1.39,4.93-1.72,7.47
				c-2.86,21.79,8.86,39.51,21.84,44.05c9.8,3.43,23.69,2.45,31.02-7.8c5.61-7.84,5.72-19.02,0.29-28.48
				c-1.47-2.57-4.76-3.46-7.34-1.98c-2.57,1.47-3.46,4.77-1.98,7.34c3.29,5.73,3.41,12.51,0.29,16.88
				c-4.36,6.09-13.8,5.63-18.73,3.91c-8.73-3.06-16.85-16.35-14.73-32.51c1.98-15.13,14.66-23.87,20.02-26.93
				c17.52-10,35.53,0.11,42.6,6.85c9.54,9.1,15.26,25.16,15.28,42.96c0.02,18.78-6.32,36.97-17.41,49.9
				c-16.24,18.95-47.38,24.66-72.42,13.29c-28.21-12.8-43.58-45.1-36.54-76.78c0.64-2.89-1.19-5.77-4.08-6.41
				c-0.39-0.09-0.79-0.13-1.18-0.13c-1.01,0-2,0.29-2.88,0.84c-1.21,0.77-2.05,1.97-2.36,3.37c-8.14,36.62,9.77,74.01,42.59,88.9
				c9.83,4.46,20.86,6.82,31.9,6.82c4.83,0,9.66-0.45,14.35-1.34c15.6-2.95,29.37-10.61,38.77-21.56
				c12.64-14.75,19.92-35.45,19.96-56.79c0.04-21.02-6.73-39.55-18.57-50.84C717.44,605.73,699.63,598.67,682.32,603.52z"/>
			<path class="st114" d="M692.41,354.12c0.91-0.71,1.07-2.02,0.37-2.92c-0.34-0.44-0.83-0.72-1.38-0.79
				c-0.09-0.01-0.18-0.02-0.26-0.02c-0.46,0-0.9,0.15-1.27,0.44c-0.44,0.34-0.72,0.83-0.79,1.38c-0.07,0.55,0.08,1.1,0.42,1.54
				C690.19,354.66,691.5,354.82,692.41,354.12z"/>
			<path class="st114" d="M320.66,651.27c-2.86,0.76-4.58,3.71-3.82,6.57c0.76,2.86,3.71,4.58,6.57,3.82
				c6.6-1.75,12.65,1.1,13.95,4.76c1.34,3.75-3.03,9.12-6.69,11.55c-9.11,6.06-22.05-1.52-22.59-1.85
				c-2.99-1.78-12.73-8.49-12.69-19.89c0.03-9.06,5.96-17.52,15.09-21.55c1.31-0.58,2.32-1.64,2.84-2.97
				c0.52-1.34,0.49-2.8-0.09-4.11c-0.58-1.31-1.64-2.32-2.97-2.84c-0.63-0.24-1.29-0.37-1.94-0.37c-0.74,0-1.47,0.15-2.17,0.46
				c-13.02,5.74-21.46,18.04-21.51,31.35c-0.06,17.07,13.7,26.63,17.92,29.15c0.98,0.58,9.82,5.7,19.94,5.7
				c5.26,0,10.01-1.39,14.13-4.12c7.58-5.04,14.21-14.73,10.87-24.11C344.09,653.26,332.31,648.19,320.66,651.27z"/>
			<path class="st114" d="M497.63,419.86c-2.18,2.01-2.31,5.42-0.29,7.6c2.01,2.17,5.42,2.3,7.6,0.29
				c9.56-8.85,21.88-8.41,27.81-2.92c1.64,1.52,2.73,3.37,3.4,5.4c3.3-1.41,6.8-2.32,10.4-2.72c-1.25-4.14-3.42-7.72-6.51-10.57
				C529.04,406.75,510.4,408.03,497.63,419.86z"/>
			<path class="st114" d="M630.88,333.32c0.55,0.07,1.1-0.08,1.54-0.42c0.91-0.7,1.07-2.01,0.37-2.92
				c-0.41-0.53-1.03-0.81-1.65-0.81c-0.45,0-0.9,0.14-1.27,0.44c-0.44,0.34-0.72,0.83-0.79,1.38c-0.07,0.55,0.08,1.1,0.42,1.54
				C629.84,332.97,630.33,333.25,630.88,333.32z"/>
			<path class="st114" d="M499.01,462.65c-16.12-3.28-27.74-18.67-29.65-31.66c-1.92-13.05,3.46-29.22,14.4-43.26
				c11.54-14.82,27.73-25.25,44.43-28.62c3.18-0.64,6.43-0.95,9.69-0.95c21.82,0,44.48,13.85,55.57,35.05
				c8.01,15.31,9.12,32.94,4.21,49.13l10.08,3.75c5.94-18.98,4.69-39.79-4.76-57.86c-7.26-13.88-19.01-25.53-33.09-32.79
				c-14.12-7.28-29.68-9.71-43.83-6.86c-19.04,3.84-37.52,15.68-50.68,32.48c-12.97,16.55-19.04,35.32-16.65,51.5
				c2.42,16.43,16.61,36.26,38.15,40.63c3.51,0.71,7.24,0.97,10.98,0.84l4.1-11.16C507.54,463.53,503.06,463.47,499.01,462.65z"/>
			<path class="st114" d="M502.94,615.8c-14.29,0.47-26.97,9.48-31.57,22.43c-0.99,2.79,0.47,5.87,3.27,6.86
				c1.35,0.48,2.81,0.41,4.11-0.21c1.3-0.62,2.28-1.7,2.76-3.06c3.13-8.81,11.89-14.95,21.79-15.28c11.69-0.4,19.55,7.52,20.41,8.42
				c8.93,9.39,5.36,22.24,2.23,27.73c-4.82,8.43-14.84,14.61-27.51,16.97c-11.72,2.18-24.03,0.81-32.92-3.67
				c-21.23-10.69-22.4-33.72-20.06-44.4c3.94-17.98,21.47-32.15,44.65-36.11c2.92-0.5,4.89-3.28,4.39-6.2
				c-0.24-1.42-1.02-2.66-2.2-3.49c-0.92-0.65-1.98-0.99-3.08-0.99c-0.3,0-0.61,0.03-0.92,0.08c-27.52,4.7-48.46,22.13-53.34,44.4
				c-4.12,18.8,2.17,44.44,25.73,56.3c7.83,3.94,17.03,6.03,26.62,6.03c5.35,0,10.7-0.65,15.91-1.93
				c14.54-3.57,26.23-11.46,32.06-21.67c6.28-10.98,7.77-28.33-3.77-40.47C529.52,625.5,518.98,615.25,502.94,615.8z"/>
			<path class="st114" d="M666.14,395c1.48-1.15,2.42-2.81,2.66-4.67c0.23-1.86-0.27-3.7-1.42-5.18c-1.15-1.48-2.81-2.43-4.67-2.66
				c-0.3-0.04-0.59-0.06-0.89-0.06c-1.55,0-3.05,0.51-4.29,1.48c-1.48,1.15-2.43,2.81-2.66,4.67c-0.23,1.86,0.27,3.7,1.42,5.18
				C658.66,396.81,663.08,397.37,666.14,395z"/>
			<path class="st114" d="M932.44,501.53c-10.41-9.38-22.65-14.17-35.37-13.81c-14.22,0.38-28.37,7.26-38.8,18.87
				c-10.31,11.47-15.61,25.7-14.54,39.04c1.16,14.44,9.71,31.65,26.23,37.54c2.9,1.03,18.04,5.72,31.58-3.65
				c11.83-8.19,17.32-23.94,13.66-39.18c-0.69-2.88-3.59-4.66-6.49-3.97c-2.88,0.69-4.66,3.6-3.97,6.48
				c2.63,10.96-1.11,22.15-9.32,27.83c-9.42,6.52-20.61,2.81-21.85,2.36c-8.36-2.98-17.91-13.1-19.12-28.27
				c-0.82-10.26,3.6-21.85,11.82-31c8.48-9.43,19.81-15.01,31.09-15.31c0.25-0.01,0.5-0.01,0.76-0.01
				c14.91,0,34.52,10.86,43.18,35.06c7.43,20.77,0.98,44.93-16.43,61.55c-2.14,2.05-2.22,5.46-0.18,7.6
				c1.02,1.07,2.4,1.66,3.89,1.66c1.39,0,2.71-0.53,3.71-1.49c20.47-19.54,27.98-48.17,19.13-72.94
				C947.62,519.34,940.71,508.99,932.44,501.53z"/>
			<path class="st114" d="M830.07,619.92c-13.41,3.63-26.84,11.14-36.85,20.61c-12.51,11.84-19.56,26.37-20.39,42.02
				c-0.92,17.48,6.15,35.51,19.4,49.46c13.07,13.77,30,21.67,46.43,21.67h0.03c17.76-0.01,39.61-8.77,48.38-28.31
				c1.54-3.42,8.68-21.36-1.37-38.66c-8.8-15.15-27.42-23.31-46.32-20.33c-1.42,0.22-2.67,0.99-3.51,2.15
				c-0.85,1.16-1.19,2.58-0.96,4c0.46,2.93,3.22,4.93,6.15,4.47c14.55-2.29,28.76,3.78,35.35,15.12
				c7.57,13.02,1.56,27.28,0.86,28.86c-4.74,10.57-18.84,21.95-38.58,21.96c-13.33,0-27.77-6.85-38.66-18.32
				c-11.23-11.83-17.23-26.95-16.46-41.5c1.02-19.29,16.88-44.04,49.3-52.81c27.29-7.38,57.47,3.28,76.9,27.16
				c1.87,2.3,5.26,2.65,7.56,0.78c2.3-1.87,2.65-5.26,0.78-7.56C896.02,623.51,861.46,611.44,830.07,619.92z"/>
			<path class="st114" d="M746.74,539.14c-1.15,0-2.08,0.93-2.08,2.08s0.93,2.08,2.08,2.08s2.08-0.93,2.08-2.08
				S747.88,539.14,746.74,539.14z"/>
			<path class="st114" d="M779.48,575.13c3.87,0,7.02-3.15,7.02-7.02c0-3.87-3.15-7.02-7.02-7.02s-7.02,3.15-7.02,7.02
				C772.45,571.99,775.6,575.13,779.48,575.13z"/>
			<path class="st114" d="M838.76,458.42c6.71-16.16,6.08-35.52-1.74-53.11c-7.72-17.36-21.04-30.47-36.54-35.96
				c-16.74-5.93-40.26-4.99-55.06,10.5c-2.59,2.71-15.33,17.23-11.64,36.89c3.23,17.22,18.04,31.14,36.85,34.65
				c2.91,0.54,5.72-1.39,6.27-4.3c0.26-1.41-0.04-2.84-0.85-4.02c-0.81-1.18-2.04-1.98-3.45-2.24
				c-14.49-2.7-25.84-13.18-28.26-26.07c-2.78-14.8,7.64-26.23,8.84-27.48c8.01-8.37,25.1-14.39,43.71-7.79
				c12.55,4.44,23.88,15.73,30.31,30.2c6.63,14.9,7.22,31.16,1.64,44.61c-6.93,16.68-27.7,33.53-57.76,33.53
				c-2.08,0-4.2-0.08-6.37-0.25c-28.19-2.17-53.07-22.31-63.39-51.31c-0.48-1.35-1.46-2.44-2.76-3.05c-0.73-0.35-1.51-0.52-2.3-0.52
				c-0.61,0-1.22,0.1-1.81,0.31c-1.35,0.48-2.44,1.46-3.06,2.76c-0.62,1.3-0.69,2.76-0.21,4.11c11.74,33,40.28,55.93,72.69,58.43
				c2.01,0.16,4.09,0.23,6.2,0.23c0,0,0.01,0,0.01,0c12.15,0,24.73-2.6,35.41-7.33C821.25,484.23,832.75,472.89,838.76,458.42z"/>
			<path class="st124" d="M593.45,393.2c-11.08-21.2-33.75-35.05-55.57-35.05c-3.26,0-6.51,0.31-9.69,0.95
				c-16.7,3.37-32.89,13.8-44.43,28.62c-10.94,14.04-16.32,30.22-14.4,43.26c1.91,12.99,13.53,28.39,29.65,31.66
				c4.05,0.82,8.53,0.88,12.94,0.21l4.35-11.84c3.58-9.75,10.95-17.01,19.85-20.8c-0.67-2.02-1.76-3.88-3.4-5.4
				c-5.93-5.49-18.26-5.93-27.81,2.92c-2.18,2.01-5.58,1.88-7.6-0.29c-2.01-2.18-1.88-5.58,0.29-7.6
				c12.77-11.83,31.41-13.11,42.42-2.93c3.08,2.85,5.26,6.43,6.51,10.57c5.52-0.6,11.26,0,16.82,2.07l34.27,12.76
				C602.57,426.14,601.45,408.51,593.45,393.2z"/>
			<path class="st124" d="M992.56,557.32c0-62.29-45.27-114.01-104.7-124.06c-2.14-58.72-50.41-105.66-109.66-105.66
				c-13.7,0-26.8,2.52-38.89,7.1c-17.43-27.15-47.89-45.14-82.56-45.14c-25.5,0-48.72,9.74-66.16,25.69
				c-17.25-8.03-36.47-12.52-56.75-12.52c-41.52,0-78.64,18.8-103.33,48.34c-17.39,0.49-33.94,4.3-49.07,10.78l32.54,12.11
				c22.75,8.47,34.5,33.76,26.18,56.39l-16.56,45.07c13.19,5.65,25.31,14.66,35.02,26.6c1.87,2.3,1.52,5.69-0.78,7.56
				c-2.3,1.87-5.69,1.52-7.56-0.78c-8.47-10.41-18.97-18.3-30.39-23.28l-1.52,4.13c-4.14,11.26-10.5,21.04-18.41,29.09
				c1.15,0.3,2.29,0.62,3.41,1.01c9.63,3.33,17.84,9.68,22.85,18.31c10.05,17.3,2.9,35.24,1.37,38.66
				c-8.77,19.54-30.62,28.3-48.38,28.31h-0.03c-16.44,0-33.36-7.9-46.43-21.67c-2.61-2.75-4.96-5.65-7.08-8.68
				c-0.58-0.84-1.16-1.68-1.7-2.53c-0.56-0.87-1.09-1.75-1.6-2.64c-0.69-1.18-1.34-2.38-1.95-3.59c-0.46-0.91-0.9-1.82-1.32-2.74
				c-0.42-0.93-0.82-1.88-1.19-2.82c-2.79-6.98-4.35-14.26-4.58-21.53c-0.55-0.19-1.09-0.36-1.64-0.56l-36.67-13.65
				c-7.55,13.99-11.86,29.98-11.86,46.99c0,12.3,2.25,24.07,6.34,34.94c-12.44,11.37-20.24,27.72-20.24,45.9
				c0,34.34,27.84,62.19,62.19,62.19h110.33c18.86,20.68,46.03,33.65,76.23,33.65c28.65,0,54.56-11.68,73.25-30.53
				c14.22,39.96,52.37,68.58,97.21,68.58c33.03,0,62.44-15.53,81.32-39.68c20.09,19.26,46.68,31.99,76.57,34.4
				c69.01,5.57,129.48-45.93,135.05-115.02c0.69-8.58,0.5-17.03-0.49-25.25C980.6,618.55,992.56,589.34,992.56,557.32z
				 M336.63,686.92c-4.12,2.74-8.87,4.12-14.13,4.12c-10.11,0-18.96-5.11-19.94-5.7c-4.22-2.52-17.97-12.07-17.92-29.15
				c0.05-13.3,8.49-25.61,21.51-31.35c0.7-0.31,1.43-0.46,2.17-0.46c0.66,0,1.31,0.12,1.94,0.37c1.34,0.52,2.39,1.53,2.97,2.84
				c0.58,1.31,0.61,2.77,0.09,4.11c-0.52,1.34-1.53,2.39-2.84,2.97c-9.14,4.03-15.06,12.49-15.09,21.55
				c-0.04,11.4,9.7,18.1,12.69,19.89c0.55,0.33,13.48,7.91,22.59,1.85c3.66-2.43,8.03-7.8,6.69-11.55c-1.3-3.65-7.35-6.5-13.95-4.76
				c-2.86,0.76-5.81-0.96-6.57-3.82c-0.76-2.87,0.96-5.81,3.82-6.57c11.65-3.08,23.43,1.99,26.83,11.54
				C350.84,672.2,344.21,681.89,336.63,686.92z M689.86,350.83c0.37-0.29,0.81-0.44,1.27-0.44c0.09,0,0.18,0.01,0.26,0.02
				c0.55,0.07,1.04,0.35,1.38,0.79c0.71,0.91,0.54,2.22-0.37,2.92c-0.91,0.7-2.22,0.54-2.92-0.37c-0.34-0.44-0.49-0.98-0.42-1.54
				C689.14,351.66,689.42,351.17,689.86,350.83z M654.86,388.57c0.23-1.86,1.18-3.52,2.66-4.67c1.24-0.97,2.74-1.48,4.29-1.48
				c0.3,0,0.59,0.02,0.89,0.06c1.86,0.23,3.52,1.18,4.67,2.66c1.15,1.48,1.66,3.32,1.42,5.18c-0.23,1.86-1.18,3.52-2.66,4.67
				c-3.06,2.38-7.48,1.82-9.85-1.24C655.13,392.28,654.63,390.44,654.86,388.57z M629.87,329.61c0.38-0.29,0.83-0.44,1.27-0.44
				c0.62,0,1.24,0.28,1.65,0.81c0.7,0.91,0.54,2.22-0.37,2.92c-0.44,0.34-0.99,0.49-1.54,0.42c-0.55-0.07-1.05-0.35-1.38-0.79
				c-0.34-0.44-0.49-0.99-0.42-1.54C629.15,330.45,629.43,329.95,629.87,329.61z M535.26,668.02c-5.83,10.21-17.52,18.1-32.06,21.67
				c-5.21,1.28-10.56,1.93-15.91,1.93c-9.59,0-18.79-2.08-26.62-6.03c-23.56-11.86-29.85-37.5-25.73-56.3
				c4.88-22.28,25.82-39.71,53.34-44.4c0.31-0.05,0.61-0.08,0.92-0.08c1.1,0,2.17,0.34,3.08,0.99c1.17,0.83,1.96,2.07,2.2,3.49
				c0.5,2.92-1.47,5.7-4.39,6.2c-23.18,3.95-40.7,18.13-44.65,36.11c-2.34,10.68-1.17,33.71,20.06,44.4
				c8.89,4.48,21.2,5.85,32.92,3.67c12.66-2.36,22.69-8.54,27.51-16.97c3.14-5.49,6.71-18.34-2.23-27.73
				c-0.86-0.9-8.72-8.82-20.41-8.42c-9.9,0.33-18.66,6.47-21.79,15.28c-0.48,1.35-1.46,2.44-2.76,3.06
				c-1.29,0.62-2.75,0.69-4.11,0.21c-2.79-0.99-4.26-4.07-3.27-6.86c4.6-12.94,17.28-21.96,31.57-22.43
				c16.05-0.55,26.58,9.7,28.55,11.76C543.03,639.69,541.53,657.04,535.26,668.02z M726.71,723.52
				c-9.4,10.96-23.16,18.62-38.77,21.56c-4.69,0.89-9.52,1.34-14.35,1.34c-11.05,0-22.08-2.36-31.9-6.82
				c-32.81-14.89-50.72-52.28-42.59-88.9c0.31-1.4,1.15-2.6,2.36-3.37c0.87-0.56,1.87-0.84,2.88-0.84c0.39,0,0.79,0.04,1.18,0.13
				c2.89,0.64,4.72,3.52,4.08,6.41c-7.04,31.68,8.33,63.98,36.54,76.78c25.04,11.37,56.18,5.65,72.42-13.29
				c11.09-12.93,17.43-31.12,17.41-49.9c-0.02-17.8-5.73-33.86-15.28-42.96c-7.07-6.74-25.07-16.85-42.6-6.85
				c-5.36,3.06-18.03,11.8-20.02,26.93c-2.12,16.15,5.99,29.45,14.73,32.51c4.93,1.72,14.37,2.19,18.73-3.91
				c3.12-4.36,3-11.15-0.29-16.88c-1.48-2.57-0.59-5.86,1.98-7.34c2.57-1.48,5.86-0.58,7.34,1.98c5.43,9.46,5.32,20.64-0.29,28.48
				c-7.33,10.25-21.22,11.23-31.02,7.8c-12.98-4.54-24.7-22.26-21.84-44.05c0.33-2.54,0.92-5.04,1.72-7.47
				c-20.06,10.33-44.3,12.49-67.19,3.97l-39.98-14.88c-43.27-16.11-65.61-64.22-49.8-107.24l15.7-42.71
				c-3.74,0.13-7.47-0.12-10.98-0.84c-21.53-4.37-35.73-24.2-38.15-40.63c-2.38-16.18,3.68-34.96,16.65-51.5
				c13.17-16.8,31.64-28.64,50.68-32.48c14.15-2.85,29.71-0.42,43.83,6.86c14.08,7.26,25.83,18.91,33.09,32.79
				c9.44,18.07,10.69,38.87,4.76,57.86l76.5,28.48c22.75,8.47,34.5,33.77,26.18,56.39l-21.79,59.3c-1.72,4.69-3.86,9.12-6.3,13.28
				c17.31-4.85,35.12,2.21,45.77,12.36c11.84,11.29,18.61,29.82,18.57,50.84C746.63,688.07,739.35,708.77,726.71,723.52z
				 M746.74,543.31c-1.15,0-2.08-0.93-2.08-2.08s0.93-2.08,2.08-2.08s2.08,0.93,2.08,2.08S747.88,543.31,746.74,543.31z
				 M770.08,498.53c-2.11,0-4.2-0.08-6.2-0.23c-32.41-2.5-60.95-25.43-72.69-58.43c-0.48-1.35-0.41-2.81,0.21-4.11
				c0.62-1.3,1.7-2.28,3.06-2.76c0.59-0.21,1.2-0.31,1.81-0.31c0.79,0,1.57,0.18,2.3,0.52c1.3,0.62,2.28,1.7,2.76,3.05
				c10.32,29,35.2,49.14,63.39,51.31c2.17,0.17,4.29,0.25,6.37,0.25c30.06,0,50.83-16.85,57.76-33.53
				c5.59-13.45,4.99-29.71-1.64-44.61c-6.43-14.46-17.76-25.75-30.31-30.2c-18.61-6.59-35.7-0.58-43.71,7.79
				c-1.2,1.25-11.62,12.68-8.84,27.48c2.42,12.89,13.77,23.37,28.26,26.07c1.41,0.26,2.64,1.06,3.45,2.24
				c0.81,1.18,1.11,2.61,0.85,4.02c-0.54,2.91-3.36,4.83-6.27,4.3c-18.81-3.51-33.62-17.44-36.85-34.65
				c-3.69-19.67,9.05-34.18,11.64-36.89c14.8-15.48,38.32-16.43,55.06-10.5c15.5,5.49,28.82,18.6,36.54,35.96
				c7.82,17.59,8.46,36.94,1.74,53.11c-6.01,14.47-17.51,25.8-33.26,32.78C794.82,495.93,782.24,498.53,770.08,498.53
				C770.09,498.53,770.09,498.53,770.08,498.53z M779.48,561.09c3.87,0,7.02,3.15,7.02,7.02c0,3.87-3.15,7.02-7.02,7.02
				s-7.02-3.15-7.02-7.02C772.45,564.24,775.6,561.09,779.48,561.09z M917.34,658.24c-2.3,1.87-5.69,1.52-7.56-0.78
				c-19.43-23.88-49.61-34.54-76.9-27.16c-32.43,8.77-48.29,33.52-49.3,52.81c-0.77,14.54,5.24,29.67,16.46,41.5
				c10.89,11.47,25.34,18.32,38.66,18.32c19.74-0.01,33.84-11.39,38.58-21.96c0.71-1.58,6.71-15.84-0.86-28.86
				c-6.59-11.33-20.8-17.4-35.35-15.12c-2.93,0.46-5.69-1.55-6.15-4.47c-0.22-1.42,0.12-2.84,0.96-4c0.84-1.16,2.09-1.92,3.51-2.15
				c18.9-2.98,37.52,5.19,46.32,20.33c10.05,17.3,2.9,35.24,1.37,38.66c-8.77,19.54-30.62,28.3-48.38,28.31h-0.03
				c-16.44,0-33.36-7.9-46.43-21.67c-13.25-13.96-20.32-31.99-19.4-49.46c0.82-15.65,7.87-30.17,20.39-42.02
				c10.01-9.47,23.44-16.98,36.85-20.61c31.38-8.49,65.94,3.58,88.05,30.75C919.99,652.98,919.64,656.37,917.34,658.24z
				 M932.27,602.85c-1.01,0.96-2.32,1.49-3.71,1.49c-1.48,0-2.86-0.59-3.89-1.66c-2.05-2.14-1.97-5.55,0.18-7.6
				c17.41-16.61,23.85-40.77,16.43-61.55c-8.66-24.21-28.27-35.06-43.18-35.06c-0.25,0-0.51,0-0.76,0.01
				c-11.29,0.3-22.62,5.88-31.09,15.31c-8.22,9.15-12.64,20.74-11.82,31c1.21,15.17,10.76,25.29,19.12,28.27
				c1.24,0.44,12.43,4.16,21.85-2.36c8.21-5.68,11.95-16.87,9.32-27.83c-0.69-2.88,1.09-5.79,3.97-6.48c2.9-0.69,5.8,1.1,6.49,3.97
				c3.66,15.25-1.83,30.99-13.66,39.18c-13.53,9.37-28.68,4.69-31.58,3.65c-16.51-5.89-25.07-23.1-26.23-37.54
				c-1.07-13.34,4.23-27.58,14.54-39.04c10.44-11.61,24.58-18.49,38.8-18.87c12.73-0.36,24.97,4.43,35.37,13.81
				c8.27,7.46,15.18,17.8,18.96,28.38C960.26,554.68,952.75,583.31,932.27,602.85z"/>
			<path class="st397" d="M574.99,476.21c-2.29,1.88-2.61,5.28-0.73,7.57c1.02,1.24,2.54,1.96,4.15,1.96h0c0,0,0,0,0,0
				c1.26,0,2.43-0.42,3.41-1.23c12.57-10.36,21.35-23.85,25.91-38.42l-10.08-3.75C593.75,455.16,586.06,467.08,574.99,476.21z"/>
			<path class="st397" d="M570.52,574.9c-0.3-0.04-0.6-0.06-0.89-0.06c-1.55,0-3.05,0.51-4.29,1.48c-3.06,2.37-3.61,6.79-1.24,9.85
				c1.15,1.48,2.81,2.43,4.67,2.66c1.86,0.23,3.7-0.27,5.18-1.42c3.06-2.37,3.61-6.79,1.24-9.85
				C574.04,576.08,572.38,575.13,570.52,574.9z"/>
			<path class="st397" d="M597.28,603.12c-0.09-0.01-0.18-0.02-0.26-0.02c-0.46,0-0.9,0.15-1.27,0.44
				c-0.44,0.34-0.72,0.83-0.79,1.38c-0.07,0.55,0.08,1.1,0.42,1.54c0.34,0.44,0.83,0.72,1.38,0.79c0.55,0.07,1.1-0.08,1.54-0.42h0
				c0.91-0.7,1.07-2.02,0.37-2.92C598.33,603.47,597.84,603.19,597.28,603.12z"/>
			<path class="st397" d="M647.38,518.59c3.26,0,5.7,0.46,5.94,0.51c3.41,0.66,14.84,3.66,18.68,14.39
				c3.05,8.53,0.35,18.5-6.87,25.39c-2.14,2.05-2.22,5.46-0.18,7.6c1.02,1.07,2.41,1.66,3.89,1.66c1.39,0,2.71-0.53,3.71-1.49
				c10.29-9.82,14.05-24.26,9.57-36.79c-5.75-16.07-21.93-20.39-26.76-21.33c-2.24-0.43-22.24-3.85-32.57,10.1
				c-5.42,7.31-8.36,18.68-2.02,26.37c6.45,7.83,19.26,8.58,29.16,1.73c1.18-0.82,1.97-2.05,2.23-3.46
				c0.26-1.41-0.05-2.84-0.87-4.02c-0.82-1.18-2.05-1.97-3.46-2.23c-1.42-0.26-2.84,0.05-4.02,0.87
				c-5.62,3.89-12.28,3.26-14.74,0.27c-2.53-3.07-0.25-9.6,2.37-13.14C635.41,519.68,642.37,518.59,647.38,518.59z"/>
			<path class="st397" d="M682.32,603.52c-3.22,0.9-6.43,2.17-9.57,3.96c-11.69,6.67-19.99,16.39-23.63,27.4
				C662.68,627.9,674.3,617.18,682.32,603.52z"/>
			<path class="st397" d="M568.75,622.15c-0.09-0.01-0.18-0.02-0.26-0.02c-0.46,0-0.9,0.15-1.27,0.44
				c-0.44,0.34-0.72,0.83-0.79,1.38c-0.07,0.55,0.08,1.1,0.42,1.54c0.34,0.44,0.83,0.72,1.38,0.79c0.55,0.07,1.1-0.08,1.54-0.42h0
				c0.91-0.7,1.07-2.02,0.37-2.92C569.79,622.5,569.3,622.22,568.75,622.15z"/>
			<path class="st397" d="M543.36,454.1c2.77-5.3,4.39-11.77,4.42-17.76c0.02-3.16-0.41-6.12-1.23-8.84
				c-3.61,0.4-7.11,1.31-10.4,2.72c2.11,6.32,0.09,14.3-2.32,18.89c-4.1,7.83-12.84,12.36-21.88,13.74l-4.1,11.16
				c4.97-0.18,9.98-1.06,14.58-2.67C531.96,468.01,539.2,462.04,543.36,454.1z"/>
			<path class="st396" d="M516.31,451.02l-4.35,11.84c9.03-1.38,17.78-5.91,21.88-13.74c2.41-4.6,4.42-12.57,2.32-18.89
				C527.26,434.01,519.89,441.27,516.31,451.02z"/>
			<path class="st396" d="M672.75,607.48c3.14-1.79,6.34-3.06,9.57-3.96c2.45-4.17,4.58-8.59,6.3-13.28l21.79-59.3
				c8.31-22.62-3.43-47.92-26.18-56.39l-76.5-28.48c-4.55,14.57-13.34,28.06-25.91,38.42c-0.97,0.8-2.15,1.23-3.41,1.23c0,0,0,0,0,0
				h0c-1.61,0-3.13-0.71-4.15-1.96c-1.88-2.29-1.56-5.68,0.73-7.57c11.08-9.13,18.77-21.05,22.66-33.88l-34.27-12.76
				c-5.57-2.07-11.31-2.68-16.82-2.07c0.82,2.72,1.25,5.68,1.23,8.84c-0.04,5.99-1.65,12.46-4.42,17.76
				c-4.16,7.94-11.4,13.91-20.92,17.25c-4.6,1.61-9.61,2.5-14.58,2.67l-15.7,42.71c-15.81,43.03,6.53,91.13,49.8,107.24l39.98,14.88
				c22.89,8.52,47.14,6.36,67.19-3.97C652.77,623.88,661.07,614.15,672.75,607.48z M569.77,625.86L569.77,625.86
				c-0.44,0.34-0.98,0.49-1.54,0.42c-0.55-0.07-1.04-0.35-1.38-0.79c-0.34-0.44-0.49-0.98-0.42-1.54c0.07-0.55,0.35-1.04,0.79-1.38
				c0.37-0.29,0.81-0.44,1.27-0.44c0.09,0,0.18,0.01,0.26,0.02c0.55,0.07,1.04,0.35,1.38,0.79
				C570.84,623.84,570.68,625.15,569.77,625.86z M573.95,587.41c-1.48,1.15-3.32,1.65-5.18,1.42c-1.86-0.23-3.52-1.18-4.67-2.66
				c-2.37-3.06-1.82-7.48,1.24-9.85c1.25-0.97,2.74-1.48,4.29-1.48c0.29,0,0.59,0.02,0.89,0.06c1.86,0.23,3.52,1.18,4.67,2.66
				C577.57,580.61,577.01,585.03,573.95,587.41z M598.3,606.84L598.3,606.84c-0.44,0.34-0.99,0.49-1.54,0.42
				c-0.55-0.07-1.04-0.35-1.38-0.79c-0.34-0.44-0.49-0.98-0.42-1.54c0.07-0.55,0.35-1.04,0.79-1.38c0.37-0.29,0.81-0.44,1.27-0.44
				c0.09,0,0.18,0.01,0.26,0.02c0.55,0.07,1.04,0.35,1.38,0.79C599.37,604.82,599.21,606.13,598.3,606.84z M629.07,538.17
				c2.47,2.99,9.13,3.62,14.74-0.27c1.18-0.82,2.6-1.13,4.02-0.87c1.41,0.26,2.64,1.05,3.46,2.23c0.82,1.18,1.13,2.61,0.87,4.02
				c-0.26,1.41-1.05,2.64-2.23,3.46c-9.9,6.85-22.71,6.09-29.16-1.73c-6.34-7.69-3.39-19.06,2.02-26.37
				c10.33-13.95,30.33-10.53,32.57-10.1c4.82,0.94,21.01,5.25,26.76,21.33c4.48,12.53,0.72,26.97-9.57,36.79
				c-1,0.96-2.32,1.49-3.71,1.49c-1.48,0-2.87-0.59-3.89-1.66c-2.05-2.14-1.97-5.55,0.18-7.6c7.22-6.89,9.92-16.86,6.87-25.39
				c-3.84-10.73-15.27-13.73-18.68-14.39c-0.24-0.05-2.68-0.51-5.94-0.51c-5.01,0-11.98,1.09-15.95,6.45
				C628.82,528.57,626.54,535.1,629.07,538.17z"/>
		</g>
	</g>
	<g>
		<g>
			<path d="M288.11,342.6l120.85,44.98c15.22,5.67,23.05,22.53,17.49,37.66l-21.79,59.3c-13,35.38-52.39,53.33-87.97,40.08
				l-39.98-14.88c-35.77-13.31-54.17-52.94-41.1-88.51l24.15-65.71C263.94,344.12,276.64,338.33,288.11,342.6 M258.9,316.7
				c-12.43,5.66-21.86,15.83-26.56,28.62l-24.15,65.71c-4.54,12.36-6.51,25.28-5.86,38.39c0.63,12.65,3.67,24.92,9.04,36.48
				c5.37,11.56,12.79,21.83,22.08,30.54c9.62,9.02,20.81,15.95,33.24,20.57l39.98,14.88c12.39,4.61,25.31,6.67,38.4,6.12
				c12.63-0.53,24.87-3.45,36.37-8.7c11.5-5.24,21.71-12.54,30.34-21.7c8.94-9.49,15.77-20.55,20.3-32.86l21.79-59.3
				c2.71-7.37,3.88-15.07,3.49-22.9c-0.38-7.54-2.19-14.86-5.39-21.75c-3.2-6.89-7.63-13.01-13.16-18.2
				c-5.74-5.39-12.41-9.52-19.82-12.27l-120.85-44.98C285.26,310.56,271.33,311.04,258.9,316.7z"/>
		</g>
		<g>
			<path d="M558.37,443.2l120.85,44.98c15.22,5.67,23.05,22.53,17.49,37.66l-21.79,59.3c-13,35.38-52.39,53.33-87.97,40.08
				l-39.98-14.88c-35.77-13.31-54.17-52.94-41.1-88.51l24.15-65.71C534.2,444.71,546.9,438.93,558.37,443.2 M529.16,417.29
				c-12.43,5.66-21.86,15.83-26.56,28.62l-24.15,65.71c-4.54,12.36-6.51,25.28-5.86,38.39c0.63,12.65,3.67,24.92,9.04,36.48
				c5.37,11.56,12.79,21.83,22.08,30.54c9.62,9.02,20.81,15.95,33.24,20.57l39.98,14.88c12.39,4.61,25.31,6.67,38.4,6.12
				c12.63-0.53,24.87-3.46,36.37-8.7c11.5-5.24,21.71-12.54,30.34-21.7c8.94-9.49,15.77-20.55,20.3-32.86l21.79-59.3
				c2.71-7.37,3.88-15.07,3.49-22.9c-0.38-7.54-2.19-14.86-5.39-21.75c-3.2-6.89-7.63-13.01-13.16-18.2
				c-5.74-5.39-12.41-9.52-19.82-12.27l-120.85-44.98C555.52,411.15,541.59,411.63,529.16,417.29z"/>
		</g>
		<g>
			<polygon points="420.17,480.75 500.69,510.73 512.57,478.41 432.05,448.44 			"/>
		</g>
		<g>
			<polygon class="st102" points="448.27,496.31 469.69,504.28 483.37,467.07 461.95,459.1 			"/>
		</g>
		<g>
			<polygon class="st0" points="433.53,492.05 453.03,498.61 466.45,456.95 446.95,450.39 			"/>
		</g>
		<g>
			<polygon class="st0" points="463.67,504.29 482.95,511.47 498.04,470.41 478.76,463.23 			"/>
		</g>
		<g>
			<path d="M726.43,528.44c51.15,31.31,102.3,62.61,153.45,93.92l-10.27,17.08l10.01-17.23c7.73,4.56,14.28,10.41,19.57,16.96
				c3.98,4.91,7.26,10.21,9.9,15.71c3.96,8.26,6.5,16.96,7.74,25.72c1.24,8.76,1.19,17.57-0.19,26.14
				c-0.7,4.29-1.73,8.52-3.15,12.63c-1.41,4.12-3.21,8.12-5.42,11.94c-3.29,5.67-7.41,10.7-12.11,14.95
				c-7.06,6.39-15.44,11.05-24.48,13.72c-9.04,2.67-18.77,3.36-28.48,1.78c-3.08-0.5-6.16-1.23-9.2-2.18
				c-10.4-3.27-16.19-14.45-12.91-24.97s14.36-16.41,24.76-13.14c1.27,0.4,2.52,0.69,3.75,0.89c5.17,0.84,10.16,0.06,14.46-1.94
				c2.15-1,4.11-2.3,5.82-3.85c1.71-1.55,3.18-3.34,4.36-5.38c0.8-1.37,1.54-2.98,2.16-4.79c0.62-1.81,1.13-3.83,1.48-5.99
				c0.62-3.83,0.74-8.09,0.27-12.4c-0.35-3.23-1.03-6.48-2.01-9.59c-1.48-4.67-3.66-9.02-6.4-12.7c-2.75-3.69-6.02-6.71-9.94-9.03
				l-0.14-0.08l-0.12-0.07c-51.15-31.31-102.3-62.61-153.46-93.92c-9.31-5.7-12.26-17.97-6.59-27.4
				C704.96,525.77,717.11,522.74,726.43,528.44L726.43,528.44z"/>
		</g>
	</g>
</g>
</svg>
